<svg xmlns="http://www.w3.org/2000/svg" xmlns:svg="http://www.w3.org/2000/svg" xmlns:xlink="http://www.w3.org/1999/xlink" width="1122.528" height="793.728" version="1.1" viewBox="0 0 116930 82680"><title>SVG Picture created as RoboCloud-F_SilkS.svg date 2021/04/07 11:20:10</title><desc>Picture generated by PCBNEW</desc><g style="fill:#000;fill-opacity:0;stroke:#000;stroke-width:59.0551;stroke-opacity:1;stroke-linecap:round;stroke-linejoin:round"><rect width="42519.7" height="12598.4" x="69685.9" y="65357.2" rx="0"/></g><g style="fill:#000;fill-opacity:0;stroke:#000;stroke-width:59.0551;stroke-opacity:1;stroke-linecap:round;stroke-linejoin:round"><rect width="109056" height="74806" x="3937.01" y="3937.01" rx="0"/></g><g style="fill:#000;fill-opacity:0;stroke:#000;stroke-width:59.0551;stroke-opacity:1;stroke-linecap:round;stroke-linejoin:round"><rect width="107481" height="73231.2" x="4724.41" y="4724.41" rx="0"/></g><g style="fill:#000;fill-opacity:0;stroke:#000;stroke-width:59.0551;stroke-opacity:1;stroke-linecap:round;stroke-linejoin:round"><path d="M23622 4724 L23622 3937"/></g><g style="fill:#000;fill-opacity:0;stroke:#000;stroke-width:59.0551;stroke-opacity:1;stroke-linecap:round;stroke-linejoin:round"><path d="M43307 4724 L43307 3937"/></g><g style="fill:#000;fill-opacity:0;stroke:#000;stroke-width:59.0551;stroke-opacity:1;stroke-linecap:round;stroke-linejoin:round"><path d="M62992 4724 L62992 3937"/></g><g style="fill:#000;fill-opacity:0;stroke:#000;stroke-width:59.0551;stroke-opacity:1;stroke-linecap:round;stroke-linejoin:round"><path d="M82677 4724 L82677 3937"/></g><g style="fill:#000;fill-opacity:0;stroke:#000;stroke-width:59.0551;stroke-opacity:1;stroke-linecap:round;stroke-linejoin:round"><path d="M102362 4724 L102362 3937"/></g><g style="fill:#000;fill-opacity:0;stroke:#000;stroke-width:59.0551;stroke-opacity:1;stroke-linecap:round;stroke-linejoin:round"><text x="13779.5" y="4586.61" font-size="682.415" lengthAdjust="spacingAndGlyphs" opacity="0" text-anchor="start" textLength="546.494">1</text><path d="M14199 4562 L13906 4562"/><path d="M14052 4562 L14052 4050 L14004 4123 L13955 4172 L13906 4196"/></g><g style="fill:#000;fill-opacity:0;stroke:#000;stroke-width:59.0551;stroke-opacity:1;stroke-linecap:round;stroke-linejoin:round"><text x="33464.6" y="4586.61" font-size="682.415" lengthAdjust="spacingAndGlyphs" opacity="0" text-anchor="start" textLength="546.494">2</text><path d="M33591 4099 L33615 4074 L33664 4050 L33786 4050 L33835 4074 L33859 4099 L33884 4147 L33884 4196 L33859 4269 L33567 4562 L33884 4562"/></g><g style="fill:#000;fill-opacity:0;stroke:#000;stroke-width:59.0551;stroke-opacity:1;stroke-linecap:round;stroke-linejoin:round"><text x="53149.6" y="4586.61" font-size="682.415" lengthAdjust="spacingAndGlyphs" opacity="0" text-anchor="start" textLength="546.494">3</text><path d="M53252 4050 L53569 4050 L53398 4245 L53471 4245 L53520 4269 L53544 4294 L53569 4342 L53569 4464 L53544 4513 L53520 4537 L53471 4562 L53325 4562 L53276 4537 L53252 4513"/></g><g style="fill:#000;fill-opacity:0;stroke:#000;stroke-width:59.0551;stroke-opacity:1;stroke-linecap:round;stroke-linejoin:round"><text x="72834.6" y="4586.61" font-size="682.415" lengthAdjust="spacingAndGlyphs" opacity="0" text-anchor="start" textLength="546.494">4</text><path d="M73205 4221 L73205 4562"/><path d="M73083 4026 L72961 4391 L73278 4391"/></g><g style="fill:#000;fill-opacity:0;stroke:#000;stroke-width:59.0551;stroke-opacity:1;stroke-linecap:round;stroke-linejoin:round"><text x="92519.7" y="4586.61" font-size="682.415" lengthAdjust="spacingAndGlyphs" opacity="0" text-anchor="start" textLength="546.494">5</text><path d="M92914 4050 L92671 4050 L92646 4294 L92671 4269 L92719 4245 L92841 4245 L92890 4269 L92914 4294 L92939 4342 L92939 4464 L92914 4513 L92890 4537 L92841 4562 L92719 4562 L92671 4537 L92646 4513"/></g><g style="fill:#000;fill-opacity:0;stroke:#000;stroke-width:59.0551;stroke-opacity:1;stroke-linecap:round;stroke-linejoin:round"><text x="112205" y="4586.61" font-size="682.415" lengthAdjust="spacingAndGlyphs" opacity="0" text-anchor="start" textLength="546.494">6</text><path d="M112575 4050 L112477 4050 L112429 4074 L112404 4099 L112356 4172 L112331 4269 L112331 4464 L112356 4513 L112380 4537 L112429 4562 L112526 4562 L112575 4537 L112599 4513 L112624 4464 L112624 4342 L112599 4294 L112575 4269 L112526 4245 L112429 4245 L112380 4269 L112356 4294 L112331 4342"/></g><g style="fill:#000;fill-opacity:0;stroke:#000;stroke-width:59.0551;stroke-opacity:1;stroke-linecap:round;stroke-linejoin:round"><path d="M23622 77955 L23622 78742"/></g><g style="fill:#000;fill-opacity:0;stroke:#000;stroke-width:59.0551;stroke-opacity:1;stroke-linecap:round;stroke-linejoin:round"><path d="M43307 77955 L43307 78742"/></g><g style="fill:#000;fill-opacity:0;stroke:#000;stroke-width:59.0551;stroke-opacity:1;stroke-linecap:round;stroke-linejoin:round"><path d="M62992 77955 L62992 78742"/></g><g style="fill:#000;fill-opacity:0;stroke:#000;stroke-width:59.0551;stroke-opacity:1;stroke-linecap:round;stroke-linejoin:round"><path d="M82677 77955 L82677 78742"/></g><g style="fill:#000;fill-opacity:0;stroke:#000;stroke-width:59.0551;stroke-opacity:1;stroke-linecap:round;stroke-linejoin:round"><path d="M102362 77955 L102362 78742"/></g><g style="fill:#000;fill-opacity:0;stroke:#000;stroke-width:59.0551;stroke-opacity:1;stroke-linecap:round;stroke-linejoin:round"><text x="13779.5" y="78605.2" font-size="682.415" lengthAdjust="spacingAndGlyphs" opacity="0" text-anchor="start" textLength="546.494">1</text><path d="M14199 78580 L13906 78580"/><path d="M14052 78580 L14052 78069 L14004 78142 L13955 78190 L13906 78215"/></g><g style="fill:#000;fill-opacity:0;stroke:#000;stroke-width:59.0551;stroke-opacity:1;stroke-linecap:round;stroke-linejoin:round"><text x="33464.6" y="78605.2" font-size="682.415" lengthAdjust="spacingAndGlyphs" opacity="0" text-anchor="start" textLength="546.494">2</text><path d="M33591 78117 L33615 78093 L33664 78069 L33786 78069 L33835 78093 L33859 78117 L33884 78166 L33884 78215 L33859 78288 L33567 78580 L33884 78580"/></g><g style="fill:#000;fill-opacity:0;stroke:#000;stroke-width:59.0551;stroke-opacity:1;stroke-linecap:round;stroke-linejoin:round"><text x="53149.6" y="78605.2" font-size="682.415" lengthAdjust="spacingAndGlyphs" opacity="0" text-anchor="start" textLength="546.494">3</text><path d="M53252 78069 L53569 78069 L53398 78263 L53471 78263 L53520 78288 L53544 78312 L53569 78361 L53569 78483 L53544 78532 L53520 78556 L53471 78580 L53325 78580 L53276 78556 L53252 78532"/></g><g style="fill:#000;fill-opacity:0;stroke:#000;stroke-width:59.0551;stroke-opacity:1;stroke-linecap:round;stroke-linejoin:round"><text x="72834.6" y="78605.2" font-size="682.415" lengthAdjust="spacingAndGlyphs" opacity="0" text-anchor="start" textLength="546.494">4</text><path d="M73205 78239 L73205 78580"/><path d="M73083 78044 L72961 78410 L73278 78410"/></g><g style="fill:#000;fill-opacity:0;stroke:#000;stroke-width:59.0551;stroke-opacity:1;stroke-linecap:round;stroke-linejoin:round"><text x="92519.7" y="78605.2" font-size="682.415" lengthAdjust="spacingAndGlyphs" opacity="0" text-anchor="start" textLength="546.494">5</text><path d="M92914 78069 L92671 78069 L92646 78312 L92671 78288 L92719 78263 L92841 78263 L92890 78288 L92914 78312 L92939 78361 L92939 78483 L92914 78532 L92890 78556 L92841 78580 L92719 78580 L92671 78556 L92646 78532"/></g><g style="fill:#000;fill-opacity:0;stroke:#000;stroke-width:59.0551;stroke-opacity:1;stroke-linecap:round;stroke-linejoin:round"><text x="112205" y="78605.2" font-size="682.415" lengthAdjust="spacingAndGlyphs" opacity="0" text-anchor="start" textLength="546.494">6</text><path d="M112575 78069 L112477 78069 L112429 78093 L112404 78117 L112356 78190 L112331 78288 L112331 78483 L112356 78532 L112380 78556 L112429 78580 L112526 78580 L112575 78556 L112599 78532 L112624 78483 L112624 78361 L112599 78312 L112575 78288 L112526 78263 L112429 78263 L112380 78288 L112356 78312 L112331 78361"/></g><g style="fill:#000;fill-opacity:0;stroke:#000;stroke-width:59.0551;stroke-opacity:1;stroke-linecap:round;stroke-linejoin:round"><path d="M3937 23622 L4724 23622"/></g><g style="fill:#000;fill-opacity:0;stroke:#000;stroke-width:59.0551;stroke-opacity:1;stroke-linecap:round;stroke-linejoin:round"><path d="M3937 43307 L4724 43307"/></g><g style="fill:#000;fill-opacity:0;stroke:#000;stroke-width:59.0551;stroke-opacity:1;stroke-linecap:round;stroke-linejoin:round"><path d="M3937 62992 L4724 62992"/></g><g style="fill:#000;fill-opacity:0;stroke:#000;stroke-width:59.0551;stroke-opacity:1;stroke-linecap:round;stroke-linejoin:round"><text x="4330.71" y="14035.4" font-size="682.415" lengthAdjust="spacingAndGlyphs" opacity="0" text-anchor="middle" textLength="497.75">A</text><path d="M4208 13864 L4452 13864"/><path d="M4160 14011 L4330 13499 L4501 14011"/></g><g style="fill:#000;fill-opacity:0;stroke:#000;stroke-width:59.0551;stroke-opacity:1;stroke-linecap:round;stroke-linejoin:round"><text x="4330.71" y="33720.5" font-size="682.415" lengthAdjust="spacingAndGlyphs" opacity="0" text-anchor="middle" textLength="570.866">B</text><path d="M4367 33428 L4440 33452 L4464 33476 L4489 33525 L4489 33598 L4464 33647 L4440 33671 L4391 33696 L4196 33696 L4196 33184 L4367 33184 L4416 33208 L4440 33233 L4464 33281 L4464 33330 L4440 33379 L4416 33403 L4367 33428 L4196 33428"/></g><g style="fill:#000;fill-opacity:0;stroke:#000;stroke-width:59.0551;stroke-opacity:1;stroke-linecap:round;stroke-linejoin:round"><text x="4330.71" y="53405.5" font-size="682.415" lengthAdjust="spacingAndGlyphs" opacity="0" text-anchor="middle" textLength="570.866">C</text><path d="M4489 53332 L4464 53356 L4391 53381 L4342 53381 L4269 53356 L4221 53308 L4196 53259 L4172 53161 L4172 53088 L4196 52991 L4221 52942 L4269 52893 L4342 52869 L4391 52869 L4464 52893 L4489 52918"/></g><g style="fill:#000;fill-opacity:0;stroke:#000;stroke-width:59.0551;stroke-opacity:1;stroke-linecap:round;stroke-linejoin:round"><text x="4330.71" y="73090.6" font-size="682.415" lengthAdjust="spacingAndGlyphs" opacity="0" text-anchor="middle" textLength="570.866">D</text><path d="M4196 73066 L4196 72554 L4318 72554 L4391 72578 L4440 72627 L4464 72676 L4489 72773 L4489 72846 L4464 72944 L4440 72993 L4391 73041 L4318 73066 L4196 73066"/></g><g style="fill:#000;fill-opacity:0;stroke:#000;stroke-width:59.0551;stroke-opacity:1;stroke-linecap:round;stroke-linejoin:round"><path d="M112992 23622 L112205 23622"/></g><g style="fill:#000;fill-opacity:0;stroke:#000;stroke-width:59.0551;stroke-opacity:1;stroke-linecap:round;stroke-linejoin:round"><path d="M112992 43307 L112205 43307"/></g><g style="fill:#000;fill-opacity:0;stroke:#000;stroke-width:59.0551;stroke-opacity:1;stroke-linecap:round;stroke-linejoin:round"><path d="M112992 62992 L112205 62992"/></g><g style="fill:#000;fill-opacity:0;stroke:#000;stroke-width:59.0551;stroke-opacity:1;stroke-linecap:round;stroke-linejoin:round"><text x="112599" y="14035.4" font-size="682.415" lengthAdjust="spacingAndGlyphs" opacity="0" text-anchor="middle" textLength="497.75">A</text><path d="M112477 13864 L112721 13864"/><path d="M112428 14011 L112599 13499 L112769 14011"/></g><g style="fill:#000;fill-opacity:0;stroke:#000;stroke-width:59.0551;stroke-opacity:1;stroke-linecap:round;stroke-linejoin:round"><text x="112599" y="33720.5" font-size="682.415" lengthAdjust="spacingAndGlyphs" opacity="0" text-anchor="middle" textLength="570.866">B</text><path d="M112635 33428 L112708 33452 L112733 33476 L112757 33525 L112757 33598 L112733 33647 L112708 33671 L112660 33696 L112465 33696 L112465 33184 L112635 33184 L112684 33208 L112708 33233 L112733 33281 L112733 33330 L112708 33379 L112684 33403 L112635 33428 L112465 33428"/></g><g style="fill:#000;fill-opacity:0;stroke:#000;stroke-width:59.0551;stroke-opacity:1;stroke-linecap:round;stroke-linejoin:round"><text x="112599" y="53405.5" font-size="682.415" lengthAdjust="spacingAndGlyphs" opacity="0" text-anchor="middle" textLength="570.866">C</text><path d="M112757 53332 L112733 53356 L112660 53381 L112611 53381 L112538 53356 L112489 53308 L112465 53259 L112440 53161 L112440 53088 L112465 52991 L112489 52942 L112538 52893 L112611 52869 L112660 52869 L112733 52893 L112757 52918"/></g><g style="fill:#000;fill-opacity:0;stroke:#000;stroke-width:59.0551;stroke-opacity:1;stroke-linecap:round;stroke-linejoin:round"><text x="112599" y="73090.6" font-size="682.415" lengthAdjust="spacingAndGlyphs" opacity="0" text-anchor="middle" textLength="570.866">D</text><path d="M112465 73066 L112465 72554 L112587 72554 L112660 72578 L112708 72627 L112733 72676 L112757 72773 L112757 72846 L112733 72944 L112708 72993 L112660 73041 L112587 73066 L112465 73066"/></g><g style="fill:#000;fill-opacity:0;stroke:#000;stroke-width:59.0551;stroke-opacity:1;stroke-linecap:round;stroke-linejoin:round"><text x="78741" y="76321.7" font-size="787.402" lengthAdjust="spacingAndGlyphs" opacity="0" text-anchor="start" textLength="2758.72">Date:</text><path d="M78911 76293 L78911 75703 L79051 75703 L79136 75731 L79192 75787 L79220 75843 L79248 75956 L79248 76040 L79220 76153 L79192 76209 L79136 76265 L79051 76293 L78911 76293"/><path d="M79754 76293 L79754 75984 L79726 75928 L79670 75899 L79557 75899 L79501 75928"/><path d="M79754 76265 L79698 76293 L79557 76293 L79501 76265 L79473 76209 L79473 76153 L79501 76096 L79557 76068 L79698 76068 L79754 76040"/><path d="M79951 75899 L80176 75899"/><path d="M80036 75703 L80036 76209 L80064 76265 L80120 76293 L80176 76293"/><path d="M80598 76265 L80542 76293 L80429 76293 L80373 76265 L80345 76209 L80345 75984 L80373 75928 L80429 75899 L80542 75899 L80598 75928 L80626 75984 L80626 76040 L80345 76096"/><path d="M80879 76237 L80907 76265 L80879 76293 L80851 76265 L80879 76237 L80879 76293"/><path d="M80879 75928 L80907 75956 L80879 75984 L80851 75956 L80879 75928 L80879 75984"/></g><g style="fill:#000;fill-opacity:0;stroke:#000;stroke-width:59.0551;stroke-opacity:1;stroke-linecap:round;stroke-linejoin:round"><path d="M69685 76577 L112205 76577"/></g><g style="fill:#000;fill-opacity:0;stroke:#000;stroke-width:59.0551;stroke-opacity:1;stroke-linecap:round;stroke-linejoin:round"><text x="70079.6" y="77424.1" font-size="787.402" lengthAdjust="spacingAndGlyphs" opacity="0" text-anchor="start" textLength="16960.1">KiCad E.D.A. kicad (5.1.9-0-10_14)</text><path d="M70249 77395 L70249 76805"/><path d="M70587 77395 L70334 77058"/><path d="M70587 76805 L70249 77142"/><path d="M70840 77395 L70840 77002"/><path d="M70840 76805 L70812 76833 L70840 76861 L70868 76833 L70840 76805 L70840 76861"/><path d="M71458 77339 L71430 77367 L71346 77395 L71290 77395 L71205 77367 L71149 77311 L71121 77255 L71093 77142 L71093 77058 L71121 76946 L71149 76889 L71205 76833 L71290 76805 L71346 76805 L71430 76833 L71458 76861"/><path d="M71965 77395 L71965 77086 L71937 77030 L71880 77002 L71768 77002 L71712 77030"/><path d="M71965 77367 L71908 77395 L71768 77395 L71712 77367 L71683 77311 L71683 77255 L71712 77199 L71768 77171 L71908 77171 L71965 77142"/><path d="M72499 77395 L72499 76805"/><path d="M72499 77367 L72443 77395 L72330 77395 L72274 77367 L72246 77339 L72218 77283 L72218 77114 L72246 77058 L72274 77030 L72330 77002 L72443 77002 L72499 77030"/><path d="M73230 77086 L73427 77086"/><path d="M73511 77395 L73230 77395 L73230 76805 L73511 76805"/><path d="M73764 77339 L73793 77367 L73764 77395 L73736 77367 L73764 77339 L73764 77395"/><path d="M74046 77395 L74046 76805 L74186 76805 L74271 76833 L74327 76889 L74355 76946 L74383 77058 L74383 77142 L74355 77255 L74327 77311 L74271 77367 L74186 77395 L74046 77395"/><path d="M74636 77339 L74664 77367 L74636 77395 L74608 77367 L74636 77339 L74636 77395"/><path d="M74889 77227 L75171 77227"/><path d="M74833 77395 L75030 76805 L75227 77395"/><path d="M75424 77339 L75452 77367 L75424 77395 L75395 77367 L75424 77339 L75424 77395"/><path d="M76605 77395 L76605 76805"/><path d="M76661 77171 L76830 77395"/><path d="M76830 77002 L76605 77227"/><path d="M77083 77395 L77083 77002"/><path d="M77083 76805 L77055 76833 L77083 76861 L77111 76833 L77083 76805 L77083 76861"/><path d="M77617 77367 L77561 77395 L77448 77395 L77392 77367 L77364 77339 L77336 77283 L77336 77114 L77364 77058 L77392 77030 L77448 77002 L77561 77002 L77617 77030"/><path d="M78123 77395 L78123 77086 L78095 77030 L78039 77002 L77926 77002 L77870 77030"/><path d="M78123 77367 L78067 77395 L77926 77395 L77870 77367 L77842 77311 L77842 77255 L77870 77199 L77926 77171 L78067 77171 L78123 77142"/><path d="M78658 77395 L78658 76805"/><path d="M78658 77367 L78601 77395 L78489 77395 L78433 77367 L78404 77339 L78376 77283 L78376 77114 L78404 77058 L78433 77030 L78489 77002 L78601 77002 L78658 77030"/><path d="M79557 77620 L79529 77592 L79473 77508 L79445 77452 L79417 77367 L79389 77227 L79389 77114 L79417 76974 L79445 76889 L79473 76833 L79529 76749 L79557 76721"/><path d="M80064 76805 L79782 76805 L79754 77086 L79782 77058 L79839 77030 L79979 77030 L80036 77058 L80064 77086 L80092 77142 L80092 77283 L80064 77339 L80036 77367 L79979 77395 L79839 77395 L79782 77367 L79754 77339"/><path d="M80345 77339 L80373 77367 L80345 77395 L80317 77367 L80345 77339 L80345 77395"/><path d="M80935 77395 L80598 77395"/><path d="M80767 77395 L80767 76805 L80710 76889 L80654 76946 L80598 76974"/><path d="M81188 77339 L81217 77367 L81188 77395 L81160 77367 L81188 77339 L81188 77395"/><path d="M81498 77395 L81610 77395 L81667 77367 L81695 77339 L81751 77255 L81779 77142 L81779 76917 L81751 76861 L81723 76833 L81667 76805 L81554 76805 L81498 76833 L81470 76861 L81442 76917 L81442 77058 L81470 77114 L81498 77142 L81554 77171 L81667 77171 L81723 77142 L81751 77114 L81779 77058"/><path d="M82032 77171 L82482 77171"/><path d="M82876 76805 L82932 76805 L82988 76833 L83016 76861 L83045 76917 L83073 77030 L83073 77171 L83045 77283 L83016 77339 L82988 77367 L82932 77395 L82876 77395 L82820 77367 L82791 77339 L82763 77283 L82735 77171 L82735 77030 L82763 76917 L82791 76861 L82820 76833 L82876 76805"/><path d="M83326 77171 L83776 77171"/><path d="M84366 77395 L84029 77395"/><path d="M84197 77395 L84197 76805 L84141 76889 L84085 76946 L84029 76974"/><path d="M84732 76805 L84788 76805 L84844 76833 L84872 76861 L84901 76917 L84929 77030 L84929 77171 L84901 77283 L84872 77339 L84844 77367 L84788 77395 L84732 77395 L84676 77367 L84647 77339 L84619 77283 L84591 77171 L84591 77030 L84619 76917 L84647 76861 L84676 76833 L84732 76805"/><path d="M85041 77452 L85491 77452"/><path d="M85941 77395 L85604 77395"/><path d="M85772 77395 L85772 76805 L85716 76889 L85660 76946 L85604 76974"/><path d="M86447 77002 L86447 77395"/><path d="M86307 76777 L86166 77199 L86532 77199"/><path d="M86700 77620 L86728 77592 L86785 77508 L86813 77452 L86841 77367 L86869 77227 L86869 77114 L86841 76974 L86813 76889 L86785 76833 L86728 76749 L86700 76721"/></g><g style="fill:#000;fill-opacity:0;stroke:#000;stroke-width:59.0551;stroke-opacity:1;stroke-linecap:round;stroke-linejoin:round"><path d="M69685 75396 L112205 75396"/></g><g style="fill:#000;fill-opacity:0;stroke:#000;stroke-width:118.11;stroke-opacity:1;stroke-linecap:round;stroke-linejoin:round"><text x="103544" y="76321.7" font-size="787.402" lengthAdjust="spacingAndGlyphs" opacity="0" text-anchor="start" textLength="2336.9">Rev:</text><path d="M104099 76293 L103902 76012"/><path d="M103761 76293 L103761 75703 L103986 75703 L104042 75731 L104070 75759 L104099 75815 L104099 75899 L104070 75956 L104042 75984 L103986 76012 L103761 76012"/><path d="M104577 76265 L104520 76293 L104408 76293 L104352 76265 L104323 76209 L104323 75984 L104352 75928 L104408 75899 L104520 75899 L104577 75928 L104605 75984 L104605 76040 L104323 76096"/><path d="M104802 75899 L104942 76293 L105083 75899"/><path d="M105308 76237 L105336 76265 L105308 76293 L105280 76265 L105308 76237 L105308 76293"/><path d="M105308 75928 L105336 75956 L105308 75984 L105280 75956 L105308 75928 L105308 75984"/></g><g style="fill:#000;fill-opacity:0;stroke:#000;stroke-width:59.0551;stroke-opacity:1;stroke-linecap:round;stroke-linejoin:round"><text x="70079.6" y="76321.7" font-size="787.402" lengthAdjust="spacingAndGlyphs" opacity="0" text-anchor="start" textLength="3781.21">Size: A4</text><path d="M70221 76265 L70305 76293 L70446 76293 L70502 76265 L70530 76237 L70559 76181 L70559 76124 L70530 76068 L70502 76040 L70446 76012 L70334 75984 L70277 75956 L70249 75928 L70221 75871 L70221 75815 L70249 75759 L70277 75731 L70334 75703 L70474 75703 L70559 75731"/><path d="M70812 76293 L70812 75899"/><path d="M70812 75703 L70784 75731 L70812 75759 L70840 75731 L70812 75703 L70812 75759"/><path d="M71037 75899 L71346 75899 L71037 76293 L71346 76293"/><path d="M71796 76265 L71740 76293 L71627 76293 L71571 76265 L71543 76209 L71543 75984 L71571 75928 L71627 75899 L71740 75899 L71796 75928 L71824 75984 L71824 76040 L71543 76096"/><path d="M72077 76237 L72105 76265 L72077 76293 L72049 76265 L72077 76237 L72077 76293"/><path d="M72077 75928 L72105 75956 L72077 75984 L72049 75956 L72077 75928 L72077 75984"/><path d="M72780 76124 L73061 76124"/><path d="M72724 76293 L72921 75703 L73118 76293"/><path d="M73568 75899 L73568 76293"/><path d="M73427 75674 L73286 76096 L73652 76096"/></g><g style="fill:#000;fill-opacity:0;stroke:#000;stroke-width:59.0551;stroke-opacity:1;stroke-linecap:round;stroke-linejoin:round"><text x="103544" y="77424.1" font-size="787.402" lengthAdjust="spacingAndGlyphs" opacity="0" text-anchor="start" textLength="3349.27">Id: 1/1</text><path d="M103714 77395 L103714 76805"/><path d="M104248 77395 L104248 76805"/><path d="M104248 77367 L104192 77395 L104079 77395 L104023 77367 L103995 77339 L103967 77283 L103967 77114 L103995 77058 L104023 77030 L104079 77002 L104192 77002 L104248 77030"/><path d="M104529 77339 L104557 77367 L104529 77395 L104501 77367 L104529 77339 L104529 77395"/><path d="M104529 77030 L104557 77058 L104529 77086 L104501 77058 L104529 77030 L104529 77086"/><path d="M105570 77395 L105232 77395"/><path d="M105401 77395 L105401 76805 L105345 76889 L105289 76946 L105232 76974"/><path d="M106245 76777 L105739 77536"/><path d="M106751 77395 L106413 77395"/><path d="M106582 77395 L106582 76805 L106526 76889 L106470 76946 L106413 76974"/></g><g style="fill:#000;fill-opacity:0;stroke:#000;stroke-width:59.0551;stroke-opacity:1;stroke-linecap:round;stroke-linejoin:round"><path d="M69685 73821 L112205 73821"/></g><g style="fill:#000;fill-opacity:0;stroke:#000;stroke-width:157.48;stroke-opacity:1;stroke-linecap:round;stroke-linejoin:round"><text x="70079.6" y="74924.1" font-size="1049.87" lengthAdjust="spacingAndGlyphs" opacity="0" text-anchor="start" textLength="3701.14">Title:</text><path d="M70360 74099 L70810 74099"/><path d="M70486 74886 L70585 74099"/><path d="M70974 74886 L71039 74361"/><path d="M71072 74099 L71030 74136 L71063 74174 L71105 74136 L71072 74099 L71063 74174"/><path d="M71302 74361 L71602 74361"/><path d="M71447 74099 L71363 74774 L71391 74849 L71461 74886 L71536 74886"/><path d="M71911 74886 L71841 74849 L71813 74774 L71897 74099"/><path d="M72516 74849 L72436 74886 L72286 74886 L72216 74849 L72187 74774 L72225 74474 L72272 74399 L72352 74361 L72501 74361 L72572 74399 L72600 74474 L72591 74549 L72206 74624"/><path d="M72895 74811 L72928 74849 L72886 74886 L72853 74849 L72895 74811 L72886 74886"/><path d="M72947 74399 L72980 74436 L72937 74474 L72905 74436 L72947 74399 L72937 74474"/></g><g style="fill:#000;fill-opacity:0;stroke:#000;stroke-width:59.0551;stroke-opacity:1;stroke-linecap:round;stroke-linejoin:round"><text x="70079.6" y="73408.3" font-size="787.402" lengthAdjust="spacingAndGlyphs" opacity="0" text-anchor="start" textLength="11875.1">File: RoboCloud.kicad_pcb</text><path d="M70446 73070 L70249 73070"/><path d="M70249 73380 L70249 72789 L70530 72789"/><path d="M70755 73380 L70755 72986"/><path d="M70755 72789 L70727 72817 L70755 72845 L70784 72817 L70755 72789 L70755 72845"/><path d="M71121 73380 L71065 73352 L71037 73295 L71037 72789"/><path d="M71571 73352 L71515 73380 L71402 73380 L71346 73352 L71318 73295 L71318 73070 L71346 73014 L71402 72986 L71515 72986 L71571 73014 L71599 73070 L71599 73127 L71318 73183"/><path d="M71852 73323 L71880 73352 L71852 73380 L71824 73352 L71852 73323 L71852 73380"/><path d="M71852 73014 L71880 73042 L71852 73070 L71824 73042 L71852 73014 L71852 73070"/><path d="M72921 73380 L72724 73099"/><path d="M72583 73380 L72583 72789 L72808 72789 L72865 72817 L72893 72845 L72921 72902 L72921 72986 L72893 73042 L72865 73070 L72808 73099 L72583 73099"/><path d="M73258 73380 L73202 73352 L73174 73323 L73146 73267 L73146 73099 L73174 73042 L73202 73014 L73258 72986 L73343 72986 L73399 73014 L73427 73042 L73455 73099 L73455 73267 L73427 73323 L73399 73352 L73343 73380 L73258 73380"/><path d="M73708 73380 L73708 72789"/><path d="M73708 73014 L73764 72986 L73877 72986 L73933 73014 L73961 73042 L73989 73099 L73989 73267 L73961 73323 L73933 73352 L73877 73380 L73764 73380 L73708 73352"/><path d="M74327 73380 L74271 73352 L74242 73323 L74214 73267 L74214 73099 L74242 73042 L74271 73014 L74327 72986 L74411 72986 L74467 73014 L74496 73042 L74524 73099 L74524 73267 L74496 73323 L74467 73352 L74411 73380 L74327 73380"/><path d="M75114 73323 L75086 73352 L75002 73380 L74946 73380 L74861 73352 L74805 73295 L74777 73239 L74749 73127 L74749 73042 L74777 72930 L74805 72874 L74861 72817 L74946 72789 L75002 72789 L75086 72817 L75114 72845"/><path d="M75452 73380 L75395 73352 L75367 73295 L75367 72789"/><path d="M75761 73380 L75705 73352 L75677 73323 L75649 73267 L75649 73099 L75677 73042 L75705 73014 L75761 72986 L75845 72986 L75902 73014 L75930 73042 L75958 73099 L75958 73267 L75930 73323 L75902 73352 L75845 73380 L75761 73380"/><path d="M76464 72986 L76464 73380"/><path d="M76211 72986 L76211 73295 L76239 73352 L76295 73380 L76380 73380 L76436 73352 L76464 73323"/><path d="M76998 73380 L76998 72789"/><path d="M76998 73352 L76942 73380 L76830 73380 L76773 73352 L76745 73323 L76717 73267 L76717 73099 L76745 73042 L76773 73014 L76830 72986 L76942 72986 L76998 73014"/><path d="M77280 73323 L77308 73352 L77280 73380 L77251 73352 L77280 73323 L77280 73380"/><path d="M77561 73380 L77561 72789"/><path d="M77617 73155 L77786 73380"/><path d="M77786 72986 L77561 73211"/><path d="M78039 73380 L78039 72986"/><path d="M78039 72789 L78011 72817 L78039 72845 L78067 72817 L78039 72789 L78039 72845"/><path d="M78573 73352 L78517 73380 L78404 73380 L78348 73352 L78320 73323 L78292 73267 L78292 73099 L78320 73042 L78348 73014 L78404 72986 L78517 72986 L78573 73014"/><path d="M79079 73380 L79079 73070 L79051 73014 L78995 72986 L78883 72986 L78826 73014"/><path d="M79079 73352 L79023 73380 L78883 73380 L78826 73352 L78798 73295 L78798 73239 L78826 73183 L78883 73155 L79023 73155 L79079 73127"/><path d="M79614 73380 L79614 72789"/><path d="M79614 73352 L79557 73380 L79445 73380 L79389 73352 L79361 73323 L79332 73267 L79332 73099 L79361 73042 L79389 73014 L79445 72986 L79557 72986 L79614 73014"/><path d="M79754 73436 L80204 73436"/><path d="M80345 72986 L80345 73577"/><path d="M80345 73014 L80401 72986 L80514 72986 L80570 73014 L80598 73042 L80626 73099 L80626 73267 L80598 73323 L80570 73352 L80514 73380 L80401 73380 L80345 73352"/><path d="M81132 73352 L81076 73380 L80964 73380 L80907 73352 L80879 73323 L80851 73267 L80851 73099 L80879 73042 L80907 73014 L80964 72986 L81076 72986 L81132 73014"/><path d="M81385 73380 L81385 72789"/><path d="M81385 73014 L81442 72986 L81554 72986 L81610 73014 L81638 73042 L81667 73099 L81667 73267 L81638 73323 L81610 73352 L81554 73380 L81442 73380 L81385 73352"/></g><g style="fill:#000;fill-opacity:0;stroke:#000;stroke-width:59.0551;stroke-opacity:1;stroke-linecap:round;stroke-linejoin:round"><path d="M69685 71459 L112205 71459"/></g><g style="fill:#000;fill-opacity:0;stroke:#000;stroke-width:59.0551;stroke-opacity:1;stroke-linecap:round;stroke-linejoin:round"><text x="70079.6" y="72345.4" font-size="787.402" lengthAdjust="spacingAndGlyphs" opacity="0" text-anchor="start" textLength="3236.78">Sheet:</text><path d="M70221 72289 L70305 72317 L70446 72317 L70502 72289 L70530 72260 L70559 72204 L70559 72148 L70530 72092 L70502 72064 L70446 72036 L70334 72007 L70277 71979 L70249 71951 L70221 71895 L70221 71839 L70249 71782 L70277 71754 L70334 71726 L70474 71726 L70559 71754"/><path d="M70812 72317 L70812 71726"/><path d="M71065 72317 L71065 72007 L71037 71951 L70980 71923 L70896 71923 L70840 71951 L70812 71979"/><path d="M71571 72289 L71515 72317 L71402 72317 L71346 72289 L71318 72232 L71318 72007 L71346 71951 L71402 71923 L71515 71923 L71571 71951 L71599 72007 L71599 72064 L71318 72120"/><path d="M72077 72289 L72021 72317 L71908 72317 L71852 72289 L71824 72232 L71824 72007 L71852 71951 L71908 71923 L72021 71923 L72077 71951 L72105 72007 L72105 72064 L71824 72120"/><path d="M72274 71923 L72499 71923"/><path d="M72358 71726 L72358 72232 L72386 72289 L72443 72317 L72499 72317"/><path d="M72696 72260 L72724 72289 L72696 72317 L72668 72289 L72696 72260 L72696 72317"/><path d="M72696 71951 L72724 71979 L72696 72007 L72668 71979 L72696 71951 L72696 72007"/></g><g style="fill:#000;fill-opacity:0;stroke:#000;stroke-width:59.0551;stroke-opacity:1;stroke-linecap:round;stroke-linejoin:round"><path d="M77559 75396 L77559 76577"/></g><g style="fill:#000;fill-opacity:0;stroke:#000;stroke-width:59.0551;stroke-opacity:1;stroke-linecap:round;stroke-linejoin:round"><path d="M102756 75396 L102756 77955"/></g><g style="fill:#008484;fill-opacity:0;stroke:#008484;stroke-width:78.7402;stroke-opacity:1;stroke-linecap:round;stroke-linejoin:round"><g><text x="66080" y="28466.5" font-size="577.428" lengthAdjust="spacingAndGlyphs" opacity="0" text-anchor="middle" textLength="1275.78" transform="rotate(-90 66080 28250)">SDA</text></g><path d="M66255 28775 L66275 28714 L66275 28610 L66255 28569 L66234 28549 L66193 28528 L66152 28528 L66110 28549 L66090 28569 L66069 28610 L66049 28693 L66028 28734 L66007 28755 L65966 28775 L65925 28775 L65884 28755 L65863 28734 L65842 28693 L65842 28590 L65863 28528"/><path d="M66275 28342 L65842 28342 L65842 28239 L65863 28177 L65904 28136 L65945 28115 L66028 28095 L66090 28095 L66172 28115 L66214 28136 L66255 28177 L66275 28239 L66275 28342"/><path d="M66152 27930 L66152 27724"/><path d="M66275 27971 L65842 27827 L66275 27682"/><g><text x="65060" y="28466.5" font-size="577.428" lengthAdjust="spacingAndGlyphs" opacity="0" text-anchor="middle" textLength="1298.46" transform="rotate(-90 65060 28250)">SCL</text></g><path d="M65235 28765 L65255 28703 L65255 28600 L65235 28559 L65214 28538 L65173 28518 L65132 28518 L65090 28538 L65070 28559 L65049 28600 L65029 28683 L65008 28724 L64987 28744 L64946 28765 L64905 28765 L64864 28744 L64843 28724 L64822 28683 L64822 28579 L64843 28518"/><path d="M65214 28085 L65235 28105 L65255 28167 L65255 28208 L65235 28270 L65194 28311 L65152 28332 L65070 28353 L65008 28353 L64925 28332 L64884 28311 L64843 28270 L64822 28208 L64822 28167 L64843 28105 L64864 28085"/><path d="M65255 27693 L65255 27899 L64822 27899"/></g><g style="fill:#008484;fill-opacity:0;stroke:#008484;stroke-width:59.0551;stroke-opacity:1;stroke-linecap:round;stroke-linejoin:round"><text x="65780" y="42396.9" font-size="524.934" lengthAdjust="spacingAndGlyphs" opacity="0" text-anchor="middle" textLength="10432.3">Up to 20v input - Center positive</text><path d="M60708 41984 L60708 42303 L60727 42340 L60746 42359 L60783 42378 L60858 42378 L60896 42359 L60914 42340 L60933 42303 L60933 41984"/><path d="M61121 42115 L61121 42509"/><path d="M61121 42134 L61158 42115 L61233 42115 L61271 42134 L61289 42153 L61308 42190 L61308 42303 L61289 42340 L61271 42359 L61233 42378 L61158 42378 L61121 42359"/><path d="M61721 42115 L61871 42115"/><path d="M61777 41984 L61777 42321 L61796 42359 L61833 42378 L61871 42378"/><path d="M62058 42378 L62021 42359 L62002 42340 L61983 42303 L61983 42190 L62002 42153 L62021 42134 L62058 42115 L62114 42115 L62152 42134 L62171 42153 L62189 42190 L62189 42303 L62171 42340 L62152 42359 L62114 42378 L62058 42378"/><path d="M62639 42021 L62658 42003 L62696 41984 L62789 41984 L62827 42003 L62845 42021 L62864 42059 L62864 42096 L62845 42153 L62621 42378 L62864 42378"/><path d="M63108 41984 L63145 41984 L63183 42003 L63202 42021 L63220 42059 L63239 42134 L63239 42228 L63220 42303 L63202 42340 L63183 42359 L63145 42378 L63108 42378 L63070 42359 L63052 42340 L63033 42303 L63014 42228 L63014 42134 L63033 42059 L63052 42021 L63070 42003 L63108 41984"/><path d="M63370 42115 L63464 42378 L63558 42115"/><path d="M64008 42378 L64008 42115"/><path d="M64008 41984 L63989 42003 L64008 42021 L64027 42003 L64008 41984 L64008 42021"/><path d="M64195 42115 L64195 42378"/><path d="M64195 42153 L64214 42134 L64252 42115 L64308 42115 L64345 42134 L64364 42171 L64364 42378"/><path d="M64552 42115 L64552 42509"/><path d="M64552 42134 L64589 42115 L64664 42115 L64702 42134 L64720 42153 L64739 42190 L64739 42303 L64720 42340 L64702 42359 L64664 42378 L64589 42378 L64552 42359"/><path d="M65076 42115 L65076 42378"/><path d="M64908 42115 L64908 42321 L64926 42359 L64964 42378 L65020 42378 L65058 42359 L65076 42340"/><path d="M65208 42115 L65358 42115"/><path d="M65264 41984 L65264 42321 L65283 42359 L65320 42378 L65358 42378"/><path d="M65789 42228 L66089 42228"/><path d="M66801 42340 L66782 42359 L66726 42378 L66689 42378 L66633 42359 L66595 42321 L66576 42284 L66558 42209 L66558 42153 L66576 42078 L66595 42040 L66633 42003 L66689 41984 L66726 41984 L66782 42003 L66801 42021"/><path d="M67120 42359 L67082 42378 L67007 42378 L66970 42359 L66951 42321 L66951 42171 L66970 42134 L67007 42115 L67082 42115 L67120 42134 L67139 42171 L67139 42209 L66951 42246"/><path d="M67307 42115 L67307 42378"/><path d="M67307 42153 L67326 42134 L67364 42115 L67420 42115 L67457 42134 L67476 42171 L67476 42378"/><path d="M67607 42115 L67757 42115"/><path d="M67664 41984 L67664 42321 L67682 42359 L67720 42378 L67757 42378"/><path d="M68039 42359 L68001 42378 L67926 42378 L67889 42359 L67870 42321 L67870 42171 L67889 42134 L67926 42115 L68001 42115 L68039 42134 L68057 42171 L68057 42209 L67870 42246"/><path d="M68226 42378 L68226 42115"/><path d="M68226 42190 L68245 42153 L68264 42134 L68301 42115 L68339 42115"/><path d="M68770 42115 L68770 42509"/><path d="M68770 42134 L68807 42115 L68882 42115 L68920 42134 L68938 42153 L68957 42190 L68957 42303 L68938 42340 L68920 42359 L68882 42378 L68807 42378 L68770 42359"/><path d="M69182 42378 L69145 42359 L69126 42340 L69107 42303 L69107 42190 L69126 42153 L69145 42134 L69182 42115 L69238 42115 L69276 42134 L69295 42153 L69313 42190 L69313 42303 L69295 42340 L69276 42359 L69238 42378 L69182 42378"/><path d="M69463 42359 L69501 42378 L69576 42378 L69613 42359 L69632 42321 L69632 42303 L69613 42265 L69576 42246 L69520 42246 L69482 42228 L69463 42190 L69463 42171 L69482 42134 L69520 42115 L69576 42115 L69613 42134"/><path d="M69801 42378 L69801 42115"/><path d="M69801 41984 L69782 42003 L69801 42021 L69820 42003 L69801 41984 L69801 42021"/><path d="M69932 42115 L70082 42115"/><path d="M69988 41984 L69988 42321 L70007 42359 L70045 42378 L70082 42378"/><path d="M70213 42378 L70213 42115"/><path d="M70213 41984 L70195 42003 L70213 42021 L70232 42003 L70213 41984 L70213 42021"/><path d="M70363 42115 L70457 42378 L70551 42115"/><path d="M70851 42359 L70813 42378 L70738 42378 L70701 42359 L70682 42321 L70682 42171 L70701 42134 L70738 42115 L70813 42115 L70851 42134 L70869 42171 L70869 42209 L70682 42246"/><text x="61760" y="41436.9" font-size="524.934" lengthAdjust="spacingAndGlyphs" opacity="0" text-anchor="middle" textLength="4726.19">Robocloud V1.0</text><path d="M59754 41418 L59622 41230"/><path d="M59529 41418 L59529 41024 L59679 41024 L59716 41043 L59735 41061 L59754 41099 L59754 41155 L59735 41193 L59716 41211 L59679 41230 L59529 41230"/><path d="M59978 41418 L59941 41399 L59922 41380 L59903 41343 L59903 41230 L59922 41193 L59941 41174 L59978 41155 L60035 41155 L60072 41174 L60091 41193 L60110 41230 L60110 41343 L60091 41380 L60072 41399 L60035 41418 L59978 41418"/><path d="M60278 41418 L60278 41024"/><path d="M60278 41174 L60316 41155 L60391 41155 L60428 41174 L60447 41193 L60466 41230 L60466 41343 L60447 41380 L60428 41399 L60391 41418 L60316 41418 L60278 41399"/><path d="M60691 41418 L60653 41399 L60635 41380 L60616 41343 L60616 41230 L60635 41193 L60653 41174 L60691 41155 L60747 41155 L60785 41174 L60803 41193 L60822 41230 L60822 41343 L60803 41380 L60785 41399 L60747 41418 L60691 41418"/><path d="M61160 41399 L61122 41418 L61047 41418 L61010 41399 L60991 41380 L60972 41343 L60972 41230 L60991 41193 L61010 41174 L61047 41155 L61122 41155 L61160 41174"/><path d="M61385 41418 L61347 41399 L61328 41361 L61328 41024"/><path d="M61591 41418 L61553 41399 L61535 41380 L61516 41343 L61516 41230 L61535 41193 L61553 41174 L61591 41155 L61647 41155 L61685 41174 L61703 41193 L61722 41230 L61722 41343 L61703 41380 L61685 41399 L61647 41418 L61591 41418"/><path d="M62059 41155 L62059 41418"/><path d="M61891 41155 L61891 41361 L61909 41399 L61947 41418 L62003 41418 L62041 41399 L62059 41380"/><path d="M62416 41418 L62416 41024"/><path d="M62416 41399 L62378 41418 L62303 41418 L62266 41399 L62247 41380 L62228 41343 L62228 41230 L62247 41193 L62266 41174 L62303 41155 L62378 41155 L62416 41174"/><path d="M62847 41024 L62978 41418 L63109 41024"/><path d="M63447 41418 L63222 41418"/><path d="M63334 41418 L63334 41024 L63297 41080 L63259 41118 L63222 41136"/><path d="M63616 41380 L63634 41399 L63616 41418 L63597 41399 L63616 41380 L63616 41418"/><path d="M63878 41024 L63915 41024 L63953 41043 L63972 41061 L63990 41099 L64009 41174 L64009 41268 L63990 41343 L63972 41380 L63953 41399 L63915 41418 L63878 41418 L63840 41399 L63822 41380 L63803 41343 L63784 41268 L63784 41174 L63803 41099 L63822 41061 L63840 41043 L63878 41024"/><text x="72640" y="43396.9" font-size="524.934" lengthAdjust="spacingAndGlyphs" opacity="0" text-anchor="middle" textLength="9038.15">Made with love by 2231puppy</text><path d="M68253 43378 L68253 42984 L68384 43265 L68515 42984 L68515 43378"/><path d="M68871 43378 L68871 43171 L68852 43134 L68815 43115 L68740 43115 L68702 43134"/><path d="M68871 43359 L68834 43378 L68740 43378 L68702 43359 L68684 43321 L68684 43284 L68702 43246 L68740 43228 L68834 43228 L68871 43209"/><path d="M69227 43378 L69227 42984"/><path d="M69227 43359 L69190 43378 L69115 43378 L69077 43359 L69059 43340 L69040 43303 L69040 43190 L69059 43153 L69077 43134 L69115 43115 L69190 43115 L69227 43134"/><path d="M69565 43359 L69527 43378 L69452 43378 L69415 43359 L69396 43321 L69396 43171 L69415 43134 L69452 43115 L69527 43115 L69565 43134 L69584 43171 L69584 43209 L69396 43246"/><path d="M70015 43115 L70090 43378 L70165 43190 L70240 43378 L70315 43115"/><path d="M70465 43378 L70465 43115"/><path d="M70465 42984 L70446 43003 L70465 43021 L70484 43003 L70465 42984 L70465 43021"/><path d="M70596 43115 L70746 43115"/><path d="M70652 42984 L70652 43321 L70671 43359 L70708 43378 L70746 43378"/><path d="M70877 43378 L70877 42984"/><path d="M71046 43378 L71046 43171 L71027 43134 L70990 43115 L70933 43115 L70896 43134 L70877 43153"/><path d="M71590 43378 L71552 43359 L71533 43321 L71533 42984"/><path d="M71796 43378 L71758 43359 L71740 43340 L71721 43303 L71721 43190 L71740 43153 L71758 43134 L71796 43115 L71852 43115 L71890 43134 L71908 43153 L71927 43190 L71927 43303 L71908 43340 L71890 43359 L71852 43378 L71796 43378"/><path d="M72058 43115 L72152 43378 L72246 43115"/><path d="M72546 43359 L72508 43378 L72433 43378 L72396 43359 L72377 43321 L72377 43171 L72396 43134 L72433 43115 L72508 43115 L72546 43134 L72565 43171 L72565 43209 L72377 43246"/><path d="M73033 43378 L73033 42984"/><path d="M73033 43134 L73071 43115 L73146 43115 L73183 43134 L73202 43153 L73221 43190 L73221 43303 L73202 43340 L73183 43359 L73146 43378 L73071 43378 L73033 43359"/><path d="M73352 43115 L73446 43378"/><path d="M73539 43115 L73446 43378 L73408 43471 L73389 43490 L73352 43509"/><path d="M73971 43021 L73989 43003 L74027 42984 L74121 42984 L74158 43003 L74177 43021 L74196 43059 L74196 43096 L74177 43153 L73952 43378 L74196 43378"/><path d="M74346 43021 L74364 43003 L74402 42984 L74496 42984 L74533 43003 L74552 43021 L74571 43059 L74571 43096 L74552 43153 L74327 43378 L74571 43378"/><path d="M74702 42984 L74945 42984 L74814 43134 L74870 43134 L74908 43153 L74927 43171 L74945 43209 L74945 43303 L74927 43340 L74908 43359 L74870 43378 L74758 43378 L74720 43359 L74702 43340"/><path d="M75320 43378 L75095 43378"/><path d="M75208 43378 L75208 42984 L75170 43040 L75133 43078 L75095 43096"/><path d="M75489 43115 L75489 43509"/><path d="M75489 43134 L75527 43115 L75602 43115 L75639 43134 L75658 43153 L75677 43190 L75677 43303 L75658 43340 L75639 43359 L75602 43378 L75527 43378 L75489 43359"/><path d="M76014 43115 L76014 43378"/><path d="M75845 43115 L75845 43321 L75864 43359 L75902 43378 L75958 43378 L75995 43359 L76014 43340"/><path d="M76202 43115 L76202 43509"/><path d="M76202 43134 L76239 43115 L76314 43115 L76352 43134 L76370 43153 L76389 43190 L76389 43303 L76370 43340 L76352 43359 L76314 43378 L76239 43378 L76202 43359"/><path d="M76558 43115 L76558 43509"/><path d="M76558 43134 L76595 43115 L76670 43115 L76708 43134 L76726 43153 L76745 43190 L76745 43303 L76726 43340 L76708 43359 L76670 43378 L76595 43378 L76558 43359"/><path d="M76876 43115 L76970 43378"/><path d="M77064 43115 L76970 43378 L76933 43471 L76914 43490 L76876 43509"/></g><g style="fill:#008484;fill-opacity:0;stroke:#008484;stroke-width:78.7402;stroke-opacity:1;stroke-linecap:round;stroke-linejoin:round"><g><text x="68040" y="25676.5" font-size="577.428" lengthAdjust="spacingAndGlyphs" opacity="0" text-anchor="middle" textLength="1561.59" transform="rotate(-90 68040 25460)">IO21</text></g><path d="M68235 26099 L67802 26099"/><path d="M67802 25810 L67802 25728 L67823 25686 L67864 25645 L67947 25624 L68091 25624 L68174 25645 L68215 25686 L68235 25728 L68235 25810 L68215 25851 L68174 25893 L68091 25913 L67947 25913 L67864 25893 L67823 25851 L67802 25810"/><path d="M67844 25460 L67823 25439 L67802 25398 L67802 25295 L67823 25253 L67844 25233 L67885 25212 L67926 25212 L67988 25233 L68235 25480 L68235 25212"/><path d="M68235 24800 L68235 25047"/><path d="M68235 24923 L67802 24923 L67864 24965 L67905 25006 L67926 25047"/><g><text x="67000" y="25676.5" font-size="577.428" lengthAdjust="spacingAndGlyphs" opacity="0" text-anchor="middle" textLength="1587.18" transform="rotate(-90 67000 25460)">IO26</text></g><path d="M67195 26099 L66762 26099"/><path d="M66762 25810 L66762 25728 L66783 25686 L66824 25645 L66907 25624 L67051 25624 L67134 25645 L67175 25686 L67195 25728 L67195 25810 L67175 25851 L67134 25893 L67051 25913 L66907 25913 L66824 25893 L66783 25851 L66762 25810"/><path d="M66804 25460 L66783 25439 L66762 25398 L66762 25295 L66783 25253 L66804 25233 L66845 25212 L66886 25212 L66948 25233 L67195 25480 L67195 25212"/><path d="M66762 24841 L66762 24923 L66783 24965 L66804 24985 L66865 25026 L66948 25047 L67113 25047 L67154 25026 L67175 25006 L67195 24965 L67195 24882 L67175 24841 L67154 24820 L67113 24800 L67010 24800 L66969 24820 L66948 24841 L66927 24882 L66927 24965 L66948 25006 L66969 25026 L67010 25047"/><g><text x="66080" y="25676.5" font-size="577.428" lengthAdjust="spacingAndGlyphs" opacity="0" text-anchor="middle" textLength="1587.18" transform="rotate(-90 66080 25460)">IO33</text></g><path d="M66275 26099 L65842 26099"/><path d="M65842 25810 L65842 25728 L65863 25686 L65904 25645 L65987 25624 L66131 25624 L66214 25645 L66255 25686 L66275 25728 L66275 25810 L66255 25851 L66214 25893 L66131 25913 L65987 25913 L65904 25893 L65863 25851 L65842 25810"/><path d="M65842 25480 L65842 25212 L66007 25356 L66007 25295 L66028 25253 L66049 25233 L66090 25212 L66193 25212 L66234 25233 L66255 25253 L66275 25295 L66275 25418 L66255 25460 L66234 25480"/><path d="M65842 25068 L65842 24800 L66007 24944 L66007 24882 L66028 24841 L66049 24820 L66090 24800 L66193 24800 L66234 24820 L66255 24841 L66275 24882 L66275 25006 L66255 25047 L66234 25068"/><g><text x="65060" y="25676.5" font-size="577.428" lengthAdjust="spacingAndGlyphs" opacity="0" text-anchor="middle" textLength="1587.18" transform="rotate(-90 65060 25460)">IO34</text></g><path d="M65255 26099 L64822 26099"/><path d="M64822 25810 L64822 25728 L64843 25686 L64884 25645 L64967 25624 L65111 25624 L65194 25645 L65235 25686 L65255 25728 L65255 25810 L65235 25851 L65194 25893 L65111 25913 L64967 25913 L64884 25893 L64843 25851 L64822 25810"/><path d="M64822 25480 L64822 25212 L64987 25356 L64987 25295 L65008 25253 L65029 25233 L65070 25212 L65173 25212 L65214 25233 L65235 25253 L65255 25295 L65255 25418 L65235 25460 L65214 25480"/><path d="M64967 24841 L65255 24841"/><path d="M64802 24944 L65111 25047 L65111 24779"/><g><text x="64000" y="25636.5" font-size="577.428" lengthAdjust="spacingAndGlyphs" opacity="0" text-anchor="middle" textLength="1587.18" transform="rotate(-90 64000 25420)">IO35</text></g><path d="M64195 26059 L63762 26059"/><path d="M63762 25770 L63762 25688 L63783 25646 L63824 25605 L63907 25584 L64051 25584 L64134 25605 L64175 25646 L64195 25688 L64195 25770 L64175 25811 L64134 25853 L64051 25873 L63907 25873 L63824 25853 L63783 25811 L63762 25770"/><path d="M63762 25440 L63762 25172 L63927 25316 L63927 25255 L63948 25213 L63969 25193 L64010 25172 L64113 25172 L64154 25193 L64175 25213 L64195 25255 L64195 25378 L64175 25420 L64154 25440"/><path d="M63762 24780 L63762 24986 L63969 25007 L63948 24986 L63927 24945 L63927 24842 L63948 24801 L63969 24780 L64010 24760 L64113 24760 L64154 24780 L64175 24801 L64195 24842 L64195 24945 L64175 24986 L64154 25007"/><g><text x="63000" y="25636.5" font-size="577.428" lengthAdjust="spacingAndGlyphs" opacity="0" text-anchor="middle" textLength="1587.18" transform="rotate(-90 63000 25420)">IO36</text></g><path d="M63195 26059 L62762 26059"/><path d="M62762 25770 L62762 25688 L62783 25646 L62824 25605 L62907 25584 L63051 25584 L63134 25605 L63175 25646 L63195 25688 L63195 25770 L63175 25811 L63134 25853 L63051 25873 L62907 25873 L62824 25853 L62783 25811 L62762 25770"/><path d="M62762 25440 L62762 25172 L62927 25316 L62927 25255 L62948 25213 L62969 25193 L63010 25172 L63113 25172 L63154 25193 L63175 25213 L63195 25255 L63195 25378 L63175 25420 L63154 25440"/><path d="M62762 24801 L62762 24883 L62783 24925 L62804 24945 L62865 24986 L62948 25007 L63113 25007 L63154 24986 L63175 24966 L63195 24925 L63195 24842 L63175 24801 L63154 24780 L63113 24760 L63010 24760 L62969 24780 L62948 24801 L62927 24842 L62927 24925 L62948 24966 L62969 24986 L63010 25007"/><g><text x="62000" y="25636.5" font-size="577.428" lengthAdjust="spacingAndGlyphs" opacity="0" text-anchor="middle" textLength="1587.18" transform="rotate(-90 62000 25420)">IO37</text></g><path d="M62195 26059 L61762 26059"/><path d="M61762 25770 L61762 25688 L61783 25646 L61824 25605 L61907 25584 L62051 25584 L62134 25605 L62175 25646 L62195 25688 L62195 25770 L62175 25811 L62134 25853 L62051 25873 L61907 25873 L61824 25853 L61783 25811 L61762 25770"/><path d="M61762 25440 L61762 25172 L61927 25316 L61927 25255 L61948 25213 L61969 25193 L62010 25172 L62113 25172 L62154 25193 L62175 25213 L62195 25255 L62195 25378 L62175 25420 L62154 25440"/><path d="M61762 25028 L61762 24739 L62195 24925"/><g><text x="61000" y="25636.5" font-size="577.428" lengthAdjust="spacingAndGlyphs" opacity="0" text-anchor="middle" textLength="1587.18" transform="rotate(-90 61000 25420)">IO38</text></g><path d="M61195 26059 L60762 26059"/><path d="M60762 25770 L60762 25688 L60783 25646 L60824 25605 L60907 25584 L61051 25584 L61134 25605 L61175 25646 L61195 25688 L61195 25770 L61175 25811 L61134 25853 L61051 25873 L60907 25873 L60824 25853 L60783 25811 L60762 25770"/><path d="M60762 25440 L60762 25172 L60927 25316 L60927 25255 L60948 25213 L60969 25193 L61010 25172 L61113 25172 L61154 25193 L61175 25213 L61195 25255 L61195 25378 L61175 25420 L61154 25440"/><path d="M60948 24925 L60927 24966 L60907 24986 L60865 25007 L60845 25007 L60804 24986 L60783 24966 L60762 24925 L60762 24842 L60783 24801 L60804 24780 L60845 24760 L60865 24760 L60907 24780 L60927 24801 L60948 24842 L60948 24925 L60969 24966 L60989 24986 L61030 25007 L61113 25007 L61154 24986 L61175 24966 L61195 24925 L61195 24842 L61175 24801 L61154 24780 L61113 24760 L61030 24760 L60989 24780 L60969 24801 L60948 24842"/><g><text x="60000" y="25636.5" font-size="577.428" lengthAdjust="spacingAndGlyphs" opacity="0" text-anchor="middle" textLength="1587.18" transform="rotate(-90 60000 25420)">IO39</text></g><path d="M60195 26059 L59762 26059"/><path d="M59762 25770 L59762 25688 L59783 25646 L59824 25605 L59907 25584 L60051 25584 L60134 25605 L60175 25646 L60195 25688 L60195 25770 L60175 25811 L60134 25853 L60051 25873 L59907 25873 L59824 25853 L59783 25811 L59762 25770"/><path d="M59762 25440 L59762 25172 L59927 25316 L59927 25255 L59948 25213 L59969 25193 L60010 25172 L60113 25172 L60154 25193 L60175 25213 L60195 25255 L60195 25378 L60175 25420 L60154 25440"/><path d="M60195 24966 L60195 24883 L60175 24842 L60154 24821 L60092 24780 L60010 24760 L59845 24760 L59804 24780 L59783 24801 L59762 24842 L59762 24925 L59783 24966 L59804 24986 L59845 25007 L59948 25007 L59989 24986 L60010 24966 L60030 24925 L60030 24842 L60010 24801 L59989 24780 L59948 24760"/><g><text x="59000" y="25636.5" font-size="577.428" lengthAdjust="spacingAndGlyphs" opacity="0" text-anchor="middle" textLength="1587.18" transform="rotate(-90 59000 25420)">IO40</text></g><path d="M59195 26059 L58762 26059"/><path d="M58762 25770 L58762 25688 L58783 25646 L58824 25605 L58907 25584 L59051 25584 L59134 25605 L59175 25646 L59195 25688 L59195 25770 L59175 25811 L59134 25853 L59051 25873 L58907 25873 L58824 25853 L58783 25811 L58762 25770"/><path d="M58907 25213 L59195 25213"/><path d="M58742 25316 L59051 25420 L59051 25151"/><path d="M58762 24904 L58762 24863 L58783 24821 L58804 24801 L58845 24780 L58927 24760 L59030 24760 L59113 24780 L59154 24801 L59175 24821 L59195 24863 L59195 24904 L59175 24945 L59154 24966 L59113 24986 L59030 25007 L58927 25007 L58845 24986 L58804 24966 L58783 24945 L58762 24904"/><g><text x="58000" y="25636.5" font-size="577.428" lengthAdjust="spacingAndGlyphs" opacity="0" text-anchor="middle" textLength="1587.18" transform="rotate(-90 58000 25420)">IO41</text></g><path d="M58195 26059 L57762 26059"/><path d="M57762 25770 L57762 25688 L57783 25646 L57824 25605 L57907 25584 L58051 25584 L58134 25605 L58175 25646 L58195 25688 L58195 25770 L58175 25811 L58134 25853 L58051 25873 L57907 25873 L57824 25853 L57783 25811 L57762 25770"/><path d="M57907 25213 L58195 25213"/><path d="M57742 25316 L58051 25420 L58051 25151"/><path d="M58195 24760 L58195 25007"/><path d="M58195 24883 L57762 24883 L57824 24925 L57865 24966 L57886 25007"/><g><text x="57000" y="25636.5" font-size="577.428" lengthAdjust="spacingAndGlyphs" opacity="0" text-anchor="middle" textLength="1587.18" transform="rotate(-90 57000 25420)">IO42</text></g><path d="M57195 26059 L56762 26059"/><path d="M56762 25770 L56762 25688 L56783 25646 L56824 25605 L56907 25584 L57051 25584 L57134 25605 L57175 25646 L57195 25688 L57195 25770 L57175 25811 L57134 25853 L57051 25873 L56907 25873 L56824 25853 L56783 25811 L56762 25770"/><path d="M56907 25213 L57195 25213"/><path d="M56742 25316 L57051 25420 L57051 25151"/><path d="M56804 25007 L56783 24986 L56762 24945 L56762 24842 L56783 24801 L56804 24780 L56845 24760 L56886 24760 L56948 24780 L57195 25028 L57195 24760"/><g><text x="55940" y="25916.5" font-size="577.428" lengthAdjust="spacingAndGlyphs" opacity="0" text-anchor="middle" textLength="844.769" transform="rotate(-90 55940 25700)">TX</text></g><path d="M55702 26029 L55702 25782"/><path d="M56135 25906 L55702 25906"/><path d="M55702 25679 L56135 25390"/><path d="M55702 25390 L56135 25679"/><g><text x="55000" y="25956.5" font-size="577.428" lengthAdjust="spacingAndGlyphs" opacity="0" text-anchor="middle" textLength="947.881" transform="rotate(-90 55000 25740)">RX</text></g><path d="M55195 25812 L54989 25956"/><path d="M55195 26059 L54762 26059 L54762 25894 L54783 25853 L54804 25832 L54845 25812 L54907 25812 L54948 25832 L54969 25853 L54989 25894 L54989 26059"/><path d="M54762 25667 L55195 25379"/><path d="M54762 25379 L55195 25667"/><g><text x="54000" y="25676.9" font-size="524.934" lengthAdjust="spacingAndGlyphs" opacity="0" text-anchor="middle" textLength="1452.19" transform="rotate(-90 54000 25480)">IO45</text></g><path d="M54178 26061 L53784 26061"/><path d="M53784 25798 L53784 25723 L53803 25686 L53840 25648 L53915 25629 L54046 25629 L54121 25648 L54159 25686 L54178 25723 L54178 25798 L54159 25836 L54121 25873 L54046 25892 L53915 25892 L53840 25873 L53803 25836 L53784 25798"/><path d="M53915 25292 L54178 25292"/><path d="M53765 25386 L54046 25480 L54046 25236"/><path d="M53784 24898 L53784 25086 L53971 25105 L53953 25086 L53934 25048 L53934 24955 L53953 24917 L53971 24898 L54009 24880 L54103 24880 L54140 24898 L54159 24917 L54178 24955 L54178 25048 L54159 25086 L54140 25105"/><g><text x="53000" y="25636.5" font-size="577.428" lengthAdjust="spacingAndGlyphs" opacity="0" text-anchor="middle" textLength="1587.18" transform="rotate(-90 53000 25420)">IO46</text></g><path d="M53195 26059 L52762 26059"/><path d="M52762 25770 L52762 25688 L52783 25646 L52824 25605 L52907 25584 L53051 25584 L53134 25605 L53175 25646 L53195 25688 L53195 25770 L53175 25811 L53134 25853 L53051 25873 L52907 25873 L52824 25853 L52783 25811 L52762 25770"/><path d="M52907 25213 L53195 25213"/><path d="M52742 25316 L53051 25420 L53051 25151"/><path d="M52762 24801 L52762 24883 L52783 24925 L52804 24945 L52865 24986 L52948 25007 L53113 25007 L53154 24986 L53175 24966 L53195 24925 L53195 24842 L53175 24801 L53154 24780 L53113 24760 L53010 24760 L52969 24780 L52948 24801 L52927 24842 L52927 24925 L52948 24966 L52969 24986 L53010 25007"/></g><g style="fill:#008484;fill-opacity:0;stroke:#008484;stroke-width:47.2441;stroke-opacity:1;stroke-linecap:round;stroke-linejoin:round"><path d="M77307 27763 L77307 26236"/><path d="M75547 25775 L75547 26188"/><path d="M76531 25775 L75547 25775"/><path d="M75547 27811 L75157 27811"/><path d="M75547 28224 L75547 27811"/><path d="M76531 28224 L75547 28224"/><path d="M64424 39512 L68455 39512"/><path d="M64424 41339 L68455 41339"/><path d="M64424 39512 L64424 41339"/><path d="M68455 39512 L68455 41339"/><path d="M64424 40107 L68455 40107"/><path d="M65711 39512 L65711 40107"/><path d="M67168 39512 L67168 40107"/><path d="M61045 38790 L61045 38137"/><path d="M60903 38790 L61045 38790"/><path d="M61045 31609 L61045 32262"/><path d="M60943 31609 L61045 31609"/><path d="M48742 38792 L48742 31605"/><path d="M51529 38786 L48742 38792"/><path d="M51270 31605 L48742 31605"/><path d="M51529 38786 L51529 38940"/><path d="M73751 34323 L73751 33800"/><path d="M74275 34323 L73751 34323"/><path d="M74775 34323 L74775 33276"/><path d="M74775 33276 L75798 33276"/><path d="M74775 34323 L75798 34323"/><path d="M75798 34323 L75798 33276"/><path d="M68442 35499 L68557 35499"/><path d="M68442 35900 L68557 35900"/></g><g style="fill:#008484;fill-opacity:0;stroke:#008484;stroke-width:60;stroke-opacity:1;stroke-linecap:round;stroke-linejoin:round"><path d="M65715 33185 L69085 33185"/><path d="M69085 33185 L69085 31871"/><path d="M69085 29815 L65715 29815"/><path d="M65715 29815 L65715 31129"/><path d="M65715 31871 L65715 33185"/><path d="M69085 31129 L69085 29815"/></g><g style="fill:#008484;fill-opacity:0;stroke:#008484;stroke-width:47.2441;stroke-opacity:1;stroke-linecap:round;stroke-linejoin:round"><path d="M64057 39150 L63942 39150"/><path d="M64057 38749 L63942 38749"/><path d="M69892 35900 L70007 35900"/><path d="M69892 35499 L70007 35499"/><path d="M66092 38850 L66207 38850"/><path d="M66092 38449 L66207 38449"/><path d="M66092 38100 L66207 38100"/><path d="M66092 37699 L66207 37699"/><path d="M66092 36999 L66207 36999"/><path d="M66092 37400 L66207 37400"/></g><g style="fill:#008484;fill-opacity:0;stroke:#008484;stroke-width:60;stroke-opacity:1;stroke-linecap:round;stroke-linejoin:round"><path d="M57295 42415 L58105 42415"/><path d="M58105 41785 L57295 41785"/></g><g style="fill:#008484;fill-opacity:0;stroke:#008484;stroke-width:47.2441;stroke-opacity:1;stroke-linecap:round;stroke-linejoin:round"><path d="M53500 27323 L53500 26276"/><path d="M53500 27323 L68523 27323"/><path d="M68523 27323 L68523 26276"/><path d="M53500 26276 L68523 26276"/><path d="M52476 26276 L53000 26276"/><path d="M52476 26800 L52476 26276"/><path d="M71755 41036 L71755 40012"/><path d="M77543 41036 L71755 41036"/><path d="M71755 37413 L72503 37413"/><path d="M71755 38476 L71755 37413"/><path d="M77543 37413 L77543 41036"/><path d="M74078 37413 L77543 37413"/><path d="M72090 41114 L71676 41114"/><path d="M71676 40701 L71676 41114"/><path d="M55879 40285 L56470 40285"/><path d="M56470 40285 L56470 43144"/><path d="M52729 40285 L52729 43144"/><path d="M52729 40285 L53320 40285"/><path d="M72023 27323 L72023 26276"/><path d="M71000 27323 L72023 27323"/><path d="M71000 26276 L72023 26276"/><path d="M71000 27323 L71000 26276"/><path d="M70500 27323 L69976 27323"/><path d="M69976 27323 L69976 26800"/><path d="M71276 34323 L71276 33800"/><path d="M71800 34323 L71276 34323"/><path d="M72300 34323 L72300 33276"/><path d="M72300 33276 L73323 33276"/><path d="M72300 34323 L73323 34323"/><path d="M73323 34323 L73323 33276"/><path d="M71299 35494 L71500 35494"/><path d="M71299 35905 L71500 35905"/><path d="M72900 35905 L72699 35905"/><path d="M72900 35494 L72699 35494"/><path d="M75744 30749 L75744 30950"/><path d="M76155 30749 L76155 30950"/><path d="M52100 40605 L51899 40605"/><path d="M52100 40194 L51899 40194"/><path d="M51899 42305 L52100 42305"/><path d="M51899 41894 L52100 41894"/></g><g style="fill:#008484;fill-opacity:0;stroke:#008484;stroke-width:60;stroke-opacity:1;stroke-linecap:round;stroke-linejoin:round"><path d="M58865 39130 L57035 39130"/><path d="M57035 39697 L57035 40002"/><path d="M57035 40570 L58865 40570"/><path d="M58865 40002 L58865 39697"/><circle cx="59565" cy="40273.2" r="150"/><path d="M71822 32627 L71997 32627"/><path d="M74677 32627 L74677 32452"/><path d="M74677 29772 L74502 29772"/><path d="M71822 29772 L71822 29947"/><path d="M71822 32452 L71822 32627"/><path d="M74502 32627 L74677 32627"/><path d="M74677 29947 L74677 29772"/><path d="M71997 29772 L71822 29772"/><path d="M71552 31813 L71552 31963"/><path d="M71552 31963 L71652 31963"/><path d="M71652 31963 L71652 31813"/><path d="M71652 31813 L71552 31813"/><path d="M73470 32797 L73470 32897"/><path d="M73470 32897 L73620 32897"/><path d="M73620 32897 L73620 32797"/><path d="M73620 32797 L73470 32797"/><path d="M74947 31223 L74947 31373"/><path d="M74947 31373 L74847 31373"/><path d="M74847 31373 L74847 31223"/><path d="M74847 31223 L74947 31223"/><path d="M73667 29602 L73667 29502"/><path d="M73667 29502 L73817 29502"/><path d="M73817 29502 L73817 29602"/><path d="M73817 29602 L73667 29602"/><path d="M65096 35976 L65495 35976"/><path d="M65096 34173 L65495 34173"/><path d="M65096 35626 L65495 35626"/><path d="M65096 33823 L65495 33823"/></g><g style="fill:#008484;fill-opacity:0;stroke:#008484;stroke-width:59.0551;stroke-opacity:1;stroke-linecap:round;stroke-linejoin:round"><g><text x="51909.4" y="26996.9" font-size="524.934" lengthAdjust="spacingAndGlyphs" opacity="0" text-anchor="middle" textLength="1470.94" transform="rotate(-90 51909.4 26800)">PINS</text></g><path d="M52087 27390 L51693 27390 L51693 27240 L51712 27203 L51731 27184 L51768 27165 L51825 27165 L51862 27184 L51881 27203 L51900 27240 L51900 27390"/><path d="M52087 26996 L51693 26996"/><path d="M52087 26809 L51693 26809 L52087 26584 L51693 26584"/><path d="M52068 26415 L52087 26359 L52087 26265 L52068 26228 L52050 26209 L52012 26190 L51975 26190 L51937 26209 L51918 26228 L51900 26265 L51881 26340 L51862 26378 L51843 26396 L51806 26415 L51768 26415 L51731 26396 L51712 26378 L51693 26340 L51693 26246 L51712 26190"/><g><text x="69582.7" y="26996.9" font-size="524.934" lengthAdjust="spacingAndGlyphs" opacity="0" text-anchor="middle" textLength="1276.62" transform="rotate(-90 69582.7 26800)">GND</text></g><path d="M69385 27099 L69367 27137 L69367 27193 L69385 27249 L69423 27287 L69460 27306 L69535 27324 L69592 27324 L69667 27306 L69704 27287 L69742 27249 L69760 27193 L69760 27156 L69742 27099 L69723 27081 L69592 27081 L69592 27156"/><path d="M69760 26912 L69367 26912 L69760 26687 L69367 26687"/><path d="M69760 26500 L69367 26500 L69367 26406 L69385 26350 L69423 26312 L69460 26293 L69535 26275 L69592 26275 L69667 26293 L69704 26312 L69742 26350 L69760 26406 L69760 26500"/></g><g style="fill:#c2c200;fill-opacity:0;stroke:#c2c200;stroke-width:39.3701;stroke-opacity:1;stroke-linecap:round;stroke-linejoin:round"><path d="M77800 24675 L77800 44400"/><path d="M47500 24675 L77800 24675"/><path d="M47500 44400 L47500 24675"/><path d="M77800 44400 L47500 44400"/></g></svg>