%TF.GenerationSoftware,KiCad,Pcbnew,(5.1.9-0-10_14)*%
%TF.CreationDate,2021-04-08T19:41:26-04:00*%
%TF.ProjectId,RoboCloud,526f626f-436c-46f7-9564-2e6b69636164,rev?*%
%TF.SameCoordinates,Original*%
%TF.FileFunction,Legend,Top*%
%TF.FilePolarity,Positive*%
%FSLAX46Y46*%
G04 Gerber Fmt 4.6, Leading zero omitted, Abs format (unit mm)*
G04 Created by KiCad (PCBNEW (5.1.9-0-10_14)) date 2021-04-08 19:41:26*
%MOMM*%
%LPD*%
G01*
G04 APERTURE LIST*
%ADD10C,0.150000*%
%ADD11C,0.200000*%
%ADD12C,0.127000*%
%ADD13C,0.120000*%
%ADD14C,0.152400*%
G04 APERTURE END LIST*
D10*
X191516190Y-91725714D02*
X194563809Y-91725714D01*
X191516190Y-105695714D02*
X194563809Y-105695714D01*
X193040000Y-107219523D02*
X193040000Y-104171904D01*
D11*
X168288438Y-73090714D02*
X168340819Y-72933571D01*
X168340819Y-72671666D01*
X168288438Y-72566904D01*
X168236057Y-72514523D01*
X168131295Y-72462142D01*
X168026533Y-72462142D01*
X167921771Y-72514523D01*
X167869390Y-72566904D01*
X167817009Y-72671666D01*
X167764628Y-72881190D01*
X167712247Y-72985952D01*
X167659866Y-73038333D01*
X167555104Y-73090714D01*
X167450342Y-73090714D01*
X167345580Y-73038333D01*
X167293200Y-72985952D01*
X167240819Y-72881190D01*
X167240819Y-72619285D01*
X167293200Y-72462142D01*
X168340819Y-71990714D02*
X167240819Y-71990714D01*
X167240819Y-71728809D01*
X167293200Y-71571666D01*
X167397961Y-71466904D01*
X167502723Y-71414523D01*
X167712247Y-71362142D01*
X167869390Y-71362142D01*
X168078914Y-71414523D01*
X168183676Y-71466904D01*
X168288438Y-71571666D01*
X168340819Y-71728809D01*
X168340819Y-71990714D01*
X168026533Y-70943095D02*
X168026533Y-70419285D01*
X168340819Y-71047857D02*
X167240819Y-70681190D01*
X168340819Y-70314523D01*
X165697638Y-73064523D02*
X165750019Y-72907380D01*
X165750019Y-72645476D01*
X165697638Y-72540714D01*
X165645257Y-72488333D01*
X165540495Y-72435952D01*
X165435733Y-72435952D01*
X165330971Y-72488333D01*
X165278590Y-72540714D01*
X165226209Y-72645476D01*
X165173828Y-72855000D01*
X165121447Y-72959761D01*
X165069066Y-73012142D01*
X164964304Y-73064523D01*
X164859542Y-73064523D01*
X164754780Y-73012142D01*
X164702400Y-72959761D01*
X164650019Y-72855000D01*
X164650019Y-72593095D01*
X164702400Y-72435952D01*
X165645257Y-71335952D02*
X165697638Y-71388333D01*
X165750019Y-71545476D01*
X165750019Y-71650238D01*
X165697638Y-71807380D01*
X165592876Y-71912142D01*
X165488114Y-71964523D01*
X165278590Y-72016904D01*
X165121447Y-72016904D01*
X164911923Y-71964523D01*
X164807161Y-71912142D01*
X164702400Y-71807380D01*
X164650019Y-71650238D01*
X164650019Y-71545476D01*
X164702400Y-71388333D01*
X164754780Y-71335952D01*
X165750019Y-70340714D02*
X165750019Y-70864523D01*
X164650019Y-70864523D01*
D10*
X154295485Y-106640380D02*
X154295485Y-107449904D01*
X154343104Y-107545142D01*
X154390723Y-107592761D01*
X154485961Y-107640380D01*
X154676438Y-107640380D01*
X154771676Y-107592761D01*
X154819295Y-107545142D01*
X154866914Y-107449904D01*
X154866914Y-106640380D01*
X155343104Y-106973714D02*
X155343104Y-107973714D01*
X155343104Y-107021333D02*
X155438342Y-106973714D01*
X155628819Y-106973714D01*
X155724057Y-107021333D01*
X155771676Y-107068952D01*
X155819295Y-107164190D01*
X155819295Y-107449904D01*
X155771676Y-107545142D01*
X155724057Y-107592761D01*
X155628819Y-107640380D01*
X155438342Y-107640380D01*
X155343104Y-107592761D01*
X156866914Y-106973714D02*
X157247866Y-106973714D01*
X157009771Y-106640380D02*
X157009771Y-107497523D01*
X157057390Y-107592761D01*
X157152628Y-107640380D01*
X157247866Y-107640380D01*
X157724057Y-107640380D02*
X157628819Y-107592761D01*
X157581200Y-107545142D01*
X157533580Y-107449904D01*
X157533580Y-107164190D01*
X157581200Y-107068952D01*
X157628819Y-107021333D01*
X157724057Y-106973714D01*
X157866914Y-106973714D01*
X157962152Y-107021333D01*
X158009771Y-107068952D01*
X158057390Y-107164190D01*
X158057390Y-107449904D01*
X158009771Y-107545142D01*
X157962152Y-107592761D01*
X157866914Y-107640380D01*
X157724057Y-107640380D01*
X159200247Y-106735619D02*
X159247866Y-106688000D01*
X159343104Y-106640380D01*
X159581200Y-106640380D01*
X159676438Y-106688000D01*
X159724057Y-106735619D01*
X159771676Y-106830857D01*
X159771676Y-106926095D01*
X159724057Y-107068952D01*
X159152628Y-107640380D01*
X159771676Y-107640380D01*
X160390723Y-106640380D02*
X160485961Y-106640380D01*
X160581200Y-106688000D01*
X160628819Y-106735619D01*
X160676438Y-106830857D01*
X160724057Y-107021333D01*
X160724057Y-107259428D01*
X160676438Y-107449904D01*
X160628819Y-107545142D01*
X160581200Y-107592761D01*
X160485961Y-107640380D01*
X160390723Y-107640380D01*
X160295485Y-107592761D01*
X160247866Y-107545142D01*
X160200247Y-107449904D01*
X160152628Y-107259428D01*
X160152628Y-107021333D01*
X160200247Y-106830857D01*
X160247866Y-106735619D01*
X160295485Y-106688000D01*
X160390723Y-106640380D01*
X161057390Y-106973714D02*
X161295485Y-107640380D01*
X161533580Y-106973714D01*
X162676438Y-107640380D02*
X162676438Y-106973714D01*
X162676438Y-106640380D02*
X162628819Y-106688000D01*
X162676438Y-106735619D01*
X162724057Y-106688000D01*
X162676438Y-106640380D01*
X162676438Y-106735619D01*
X163152628Y-106973714D02*
X163152628Y-107640380D01*
X163152628Y-107068952D02*
X163200247Y-107021333D01*
X163295485Y-106973714D01*
X163438342Y-106973714D01*
X163533580Y-107021333D01*
X163581200Y-107116571D01*
X163581200Y-107640380D01*
X164057390Y-106973714D02*
X164057390Y-107973714D01*
X164057390Y-107021333D02*
X164152628Y-106973714D01*
X164343104Y-106973714D01*
X164438342Y-107021333D01*
X164485961Y-107068952D01*
X164533580Y-107164190D01*
X164533580Y-107449904D01*
X164485961Y-107545142D01*
X164438342Y-107592761D01*
X164343104Y-107640380D01*
X164152628Y-107640380D01*
X164057390Y-107592761D01*
X165390723Y-106973714D02*
X165390723Y-107640380D01*
X164962152Y-106973714D02*
X164962152Y-107497523D01*
X165009771Y-107592761D01*
X165105009Y-107640380D01*
X165247866Y-107640380D01*
X165343104Y-107592761D01*
X165390723Y-107545142D01*
X165724057Y-106973714D02*
X166105009Y-106973714D01*
X165866914Y-106640380D02*
X165866914Y-107497523D01*
X165914533Y-107592761D01*
X166009771Y-107640380D01*
X166105009Y-107640380D01*
X167200247Y-107259428D02*
X167962152Y-107259428D01*
X169057390Y-106640380D02*
X169628819Y-106640380D01*
X169343104Y-107640380D02*
X169343104Y-106640380D01*
X170343104Y-107592761D02*
X170247866Y-107640380D01*
X170057390Y-107640380D01*
X169962152Y-107592761D01*
X169914533Y-107497523D01*
X169914533Y-107116571D01*
X169962152Y-107021333D01*
X170057390Y-106973714D01*
X170247866Y-106973714D01*
X170343104Y-107021333D01*
X170390723Y-107116571D01*
X170390723Y-107211809D01*
X169914533Y-107307047D01*
X170819295Y-107640380D02*
X170819295Y-106973714D01*
X170819295Y-107164190D02*
X170866914Y-107068952D01*
X170914533Y-107021333D01*
X171009771Y-106973714D01*
X171105009Y-106973714D01*
X171438342Y-107640380D02*
X171438342Y-106973714D01*
X171438342Y-107068952D02*
X171485961Y-107021333D01*
X171581200Y-106973714D01*
X171724057Y-106973714D01*
X171819295Y-107021333D01*
X171866914Y-107116571D01*
X171866914Y-107640380D01*
X171866914Y-107116571D02*
X171914533Y-107021333D01*
X172009771Y-106973714D01*
X172152628Y-106973714D01*
X172247866Y-107021333D01*
X172295485Y-107116571D01*
X172295485Y-107640380D01*
X172771676Y-107640380D02*
X172771676Y-106973714D01*
X172771676Y-106640380D02*
X172724057Y-106688000D01*
X172771676Y-106735619D01*
X172819295Y-106688000D01*
X172771676Y-106640380D01*
X172771676Y-106735619D01*
X173247866Y-106973714D02*
X173247866Y-107640380D01*
X173247866Y-107068952D02*
X173295485Y-107021333D01*
X173390723Y-106973714D01*
X173533580Y-106973714D01*
X173628819Y-107021333D01*
X173676438Y-107116571D01*
X173676438Y-107640380D01*
X174581200Y-107640380D02*
X174581200Y-107116571D01*
X174533580Y-107021333D01*
X174438342Y-106973714D01*
X174247866Y-106973714D01*
X174152628Y-107021333D01*
X174581200Y-107592761D02*
X174485961Y-107640380D01*
X174247866Y-107640380D01*
X174152628Y-107592761D01*
X174105009Y-107497523D01*
X174105009Y-107402285D01*
X174152628Y-107307047D01*
X174247866Y-107259428D01*
X174485961Y-107259428D01*
X174581200Y-107211809D01*
X175200247Y-107640380D02*
X175105009Y-107592761D01*
X175057390Y-107497523D01*
X175057390Y-106640380D01*
X176343104Y-107640380D02*
X176343104Y-106640380D01*
X176343104Y-107021333D02*
X176438342Y-106973714D01*
X176628819Y-106973714D01*
X176724057Y-107021333D01*
X176771676Y-107068952D01*
X176819295Y-107164190D01*
X176819295Y-107449904D01*
X176771676Y-107545142D01*
X176724057Y-107592761D01*
X176628819Y-107640380D01*
X176438342Y-107640380D01*
X176343104Y-107592761D01*
X177390723Y-107640380D02*
X177295485Y-107592761D01*
X177247866Y-107497523D01*
X177247866Y-106640380D01*
X177914533Y-107640380D02*
X177819295Y-107592761D01*
X177771676Y-107545142D01*
X177724057Y-107449904D01*
X177724057Y-107164190D01*
X177771676Y-107068952D01*
X177819295Y-107021333D01*
X177914533Y-106973714D01*
X178057390Y-106973714D01*
X178152628Y-107021333D01*
X178200247Y-107068952D01*
X178247866Y-107164190D01*
X178247866Y-107449904D01*
X178200247Y-107545142D01*
X178152628Y-107592761D01*
X178057390Y-107640380D01*
X177914533Y-107640380D01*
X179105009Y-107592761D02*
X179009771Y-107640380D01*
X178819295Y-107640380D01*
X178724057Y-107592761D01*
X178676438Y-107545142D01*
X178628819Y-107449904D01*
X178628819Y-107164190D01*
X178676438Y-107068952D01*
X178724057Y-107021333D01*
X178819295Y-106973714D01*
X179009771Y-106973714D01*
X179105009Y-107021333D01*
X179533580Y-107640380D02*
X179533580Y-106640380D01*
X179628819Y-107259428D02*
X179914533Y-107640380D01*
X179914533Y-106973714D02*
X179533580Y-107354666D01*
X156194761Y-109672380D02*
X155861428Y-109196190D01*
X155623333Y-109672380D02*
X155623333Y-108672380D01*
X156004285Y-108672380D01*
X156099523Y-108720000D01*
X156147142Y-108767619D01*
X156194761Y-108862857D01*
X156194761Y-109005714D01*
X156147142Y-109100952D01*
X156099523Y-109148571D01*
X156004285Y-109196190D01*
X155623333Y-109196190D01*
X156766190Y-109672380D02*
X156670952Y-109624761D01*
X156623333Y-109577142D01*
X156575714Y-109481904D01*
X156575714Y-109196190D01*
X156623333Y-109100952D01*
X156670952Y-109053333D01*
X156766190Y-109005714D01*
X156909047Y-109005714D01*
X157004285Y-109053333D01*
X157051904Y-109100952D01*
X157099523Y-109196190D01*
X157099523Y-109481904D01*
X157051904Y-109577142D01*
X157004285Y-109624761D01*
X156909047Y-109672380D01*
X156766190Y-109672380D01*
X157528095Y-109672380D02*
X157528095Y-108672380D01*
X157528095Y-109053333D02*
X157623333Y-109005714D01*
X157813809Y-109005714D01*
X157909047Y-109053333D01*
X157956666Y-109100952D01*
X158004285Y-109196190D01*
X158004285Y-109481904D01*
X157956666Y-109577142D01*
X157909047Y-109624761D01*
X157813809Y-109672380D01*
X157623333Y-109672380D01*
X157528095Y-109624761D01*
X158575714Y-109672380D02*
X158480476Y-109624761D01*
X158432857Y-109577142D01*
X158385238Y-109481904D01*
X158385238Y-109196190D01*
X158432857Y-109100952D01*
X158480476Y-109053333D01*
X158575714Y-109005714D01*
X158718571Y-109005714D01*
X158813809Y-109053333D01*
X158861428Y-109100952D01*
X158909047Y-109196190D01*
X158909047Y-109481904D01*
X158861428Y-109577142D01*
X158813809Y-109624761D01*
X158718571Y-109672380D01*
X158575714Y-109672380D01*
X159766190Y-109624761D02*
X159670952Y-109672380D01*
X159480476Y-109672380D01*
X159385238Y-109624761D01*
X159337619Y-109577142D01*
X159290000Y-109481904D01*
X159290000Y-109196190D01*
X159337619Y-109100952D01*
X159385238Y-109053333D01*
X159480476Y-109005714D01*
X159670952Y-109005714D01*
X159766190Y-109053333D01*
X160337619Y-109672380D02*
X160242380Y-109624761D01*
X160194761Y-109529523D01*
X160194761Y-108672380D01*
X160861428Y-109672380D02*
X160766190Y-109624761D01*
X160718571Y-109577142D01*
X160670952Y-109481904D01*
X160670952Y-109196190D01*
X160718571Y-109100952D01*
X160766190Y-109053333D01*
X160861428Y-109005714D01*
X161004285Y-109005714D01*
X161099523Y-109053333D01*
X161147142Y-109100952D01*
X161194761Y-109196190D01*
X161194761Y-109481904D01*
X161147142Y-109577142D01*
X161099523Y-109624761D01*
X161004285Y-109672380D01*
X160861428Y-109672380D01*
X162051904Y-109005714D02*
X162051904Y-109672380D01*
X161623333Y-109005714D02*
X161623333Y-109529523D01*
X161670952Y-109624761D01*
X161766190Y-109672380D01*
X161909047Y-109672380D01*
X162004285Y-109624761D01*
X162051904Y-109577142D01*
X162956666Y-109672380D02*
X162956666Y-108672380D01*
X162956666Y-109624761D02*
X162861428Y-109672380D01*
X162670952Y-109672380D01*
X162575714Y-109624761D01*
X162528095Y-109577142D01*
X162480476Y-109481904D01*
X162480476Y-109196190D01*
X162528095Y-109100952D01*
X162575714Y-109053333D01*
X162670952Y-109005714D01*
X162861428Y-109005714D01*
X162956666Y-109053333D01*
X164051904Y-108672380D02*
X164385238Y-109672380D01*
X164718571Y-108672380D01*
X165575714Y-109672380D02*
X165004285Y-109672380D01*
X165290000Y-109672380D02*
X165290000Y-108672380D01*
X165194761Y-108815238D01*
X165099523Y-108910476D01*
X165004285Y-108958095D01*
X166004285Y-109577142D02*
X166051904Y-109624761D01*
X166004285Y-109672380D01*
X165956666Y-109624761D01*
X166004285Y-109577142D01*
X166004285Y-109672380D01*
X166670952Y-108672380D02*
X166766190Y-108672380D01*
X166861428Y-108720000D01*
X166909047Y-108767619D01*
X166956666Y-108862857D01*
X167004285Y-109053333D01*
X167004285Y-109291428D01*
X166956666Y-109481904D01*
X166909047Y-109577142D01*
X166861428Y-109624761D01*
X166766190Y-109672380D01*
X166670952Y-109672380D01*
X166575714Y-109624761D01*
X166528095Y-109577142D01*
X166480476Y-109481904D01*
X166432857Y-109291428D01*
X166432857Y-109053333D01*
X166480476Y-108862857D01*
X166528095Y-108767619D01*
X166575714Y-108720000D01*
X166670952Y-108672380D01*
X169197142Y-109672380D02*
X169197142Y-108672380D01*
X169530476Y-109386666D01*
X169863809Y-108672380D01*
X169863809Y-109672380D01*
X170768571Y-109672380D02*
X170768571Y-109148571D01*
X170720952Y-109053333D01*
X170625714Y-109005714D01*
X170435238Y-109005714D01*
X170340000Y-109053333D01*
X170768571Y-109624761D02*
X170673333Y-109672380D01*
X170435238Y-109672380D01*
X170340000Y-109624761D01*
X170292380Y-109529523D01*
X170292380Y-109434285D01*
X170340000Y-109339047D01*
X170435238Y-109291428D01*
X170673333Y-109291428D01*
X170768571Y-109243809D01*
X171673333Y-109672380D02*
X171673333Y-108672380D01*
X171673333Y-109624761D02*
X171578095Y-109672380D01*
X171387619Y-109672380D01*
X171292380Y-109624761D01*
X171244761Y-109577142D01*
X171197142Y-109481904D01*
X171197142Y-109196190D01*
X171244761Y-109100952D01*
X171292380Y-109053333D01*
X171387619Y-109005714D01*
X171578095Y-109005714D01*
X171673333Y-109053333D01*
X172530476Y-109624761D02*
X172435238Y-109672380D01*
X172244761Y-109672380D01*
X172149523Y-109624761D01*
X172101904Y-109529523D01*
X172101904Y-109148571D01*
X172149523Y-109053333D01*
X172244761Y-109005714D01*
X172435238Y-109005714D01*
X172530476Y-109053333D01*
X172578095Y-109148571D01*
X172578095Y-109243809D01*
X172101904Y-109339047D01*
X173673333Y-109005714D02*
X173863809Y-109672380D01*
X174054285Y-109196190D01*
X174244761Y-109672380D01*
X174435238Y-109005714D01*
X174816190Y-109672380D02*
X174816190Y-109005714D01*
X174816190Y-108672380D02*
X174768571Y-108720000D01*
X174816190Y-108767619D01*
X174863809Y-108720000D01*
X174816190Y-108672380D01*
X174816190Y-108767619D01*
X175149523Y-109005714D02*
X175530476Y-109005714D01*
X175292380Y-108672380D02*
X175292380Y-109529523D01*
X175340000Y-109624761D01*
X175435238Y-109672380D01*
X175530476Y-109672380D01*
X175863809Y-109672380D02*
X175863809Y-108672380D01*
X176292380Y-109672380D02*
X176292380Y-109148571D01*
X176244761Y-109053333D01*
X176149523Y-109005714D01*
X176006666Y-109005714D01*
X175911428Y-109053333D01*
X175863809Y-109100952D01*
X177673333Y-109672380D02*
X177578095Y-109624761D01*
X177530476Y-109529523D01*
X177530476Y-108672380D01*
X178197142Y-109672380D02*
X178101904Y-109624761D01*
X178054285Y-109577142D01*
X178006666Y-109481904D01*
X178006666Y-109196190D01*
X178054285Y-109100952D01*
X178101904Y-109053333D01*
X178197142Y-109005714D01*
X178340000Y-109005714D01*
X178435238Y-109053333D01*
X178482857Y-109100952D01*
X178530476Y-109196190D01*
X178530476Y-109481904D01*
X178482857Y-109577142D01*
X178435238Y-109624761D01*
X178340000Y-109672380D01*
X178197142Y-109672380D01*
X178863809Y-109005714D02*
X179101904Y-109672380D01*
X179340000Y-109005714D01*
X180101904Y-109624761D02*
X180006666Y-109672380D01*
X179816190Y-109672380D01*
X179720952Y-109624761D01*
X179673333Y-109529523D01*
X179673333Y-109148571D01*
X179720952Y-109053333D01*
X179816190Y-109005714D01*
X180006666Y-109005714D01*
X180101904Y-109053333D01*
X180149523Y-109148571D01*
X180149523Y-109243809D01*
X179673333Y-109339047D01*
X181340000Y-109672380D02*
X181340000Y-108672380D01*
X181340000Y-109053333D02*
X181435238Y-109005714D01*
X181625714Y-109005714D01*
X181720952Y-109053333D01*
X181768571Y-109100952D01*
X181816190Y-109196190D01*
X181816190Y-109481904D01*
X181768571Y-109577142D01*
X181720952Y-109624761D01*
X181625714Y-109672380D01*
X181435238Y-109672380D01*
X181340000Y-109624761D01*
X182149523Y-109005714D02*
X182387619Y-109672380D01*
X182625714Y-109005714D02*
X182387619Y-109672380D01*
X182292380Y-109910476D01*
X182244761Y-109958095D01*
X182149523Y-110005714D01*
X183720952Y-108767619D02*
X183768571Y-108720000D01*
X183863809Y-108672380D01*
X184101904Y-108672380D01*
X184197142Y-108720000D01*
X184244761Y-108767619D01*
X184292380Y-108862857D01*
X184292380Y-108958095D01*
X184244761Y-109100952D01*
X183673333Y-109672380D01*
X184292380Y-109672380D01*
X184673333Y-108767619D02*
X184720952Y-108720000D01*
X184816190Y-108672380D01*
X185054285Y-108672380D01*
X185149523Y-108720000D01*
X185197142Y-108767619D01*
X185244761Y-108862857D01*
X185244761Y-108958095D01*
X185197142Y-109100952D01*
X184625714Y-109672380D01*
X185244761Y-109672380D01*
X185578095Y-108672380D02*
X186197142Y-108672380D01*
X185863809Y-109053333D01*
X186006666Y-109053333D01*
X186101904Y-109100952D01*
X186149523Y-109148571D01*
X186197142Y-109243809D01*
X186197142Y-109481904D01*
X186149523Y-109577142D01*
X186101904Y-109624761D01*
X186006666Y-109672380D01*
X185720952Y-109672380D01*
X185625714Y-109624761D01*
X185578095Y-109577142D01*
X187149523Y-109672380D02*
X186578095Y-109672380D01*
X186863809Y-109672380D02*
X186863809Y-108672380D01*
X186768571Y-108815238D01*
X186673333Y-108910476D01*
X186578095Y-108958095D01*
X187578095Y-109005714D02*
X187578095Y-110005714D01*
X187578095Y-109053333D02*
X187673333Y-109005714D01*
X187863809Y-109005714D01*
X187959047Y-109053333D01*
X188006666Y-109100952D01*
X188054285Y-109196190D01*
X188054285Y-109481904D01*
X188006666Y-109577142D01*
X187959047Y-109624761D01*
X187863809Y-109672380D01*
X187673333Y-109672380D01*
X187578095Y-109624761D01*
X188911428Y-109005714D02*
X188911428Y-109672380D01*
X188482857Y-109005714D02*
X188482857Y-109529523D01*
X188530476Y-109624761D01*
X188625714Y-109672380D01*
X188768571Y-109672380D01*
X188863809Y-109624761D01*
X188911428Y-109577142D01*
X189387619Y-109005714D02*
X189387619Y-110005714D01*
X189387619Y-109053333D02*
X189482857Y-109005714D01*
X189673333Y-109005714D01*
X189768571Y-109053333D01*
X189816190Y-109100952D01*
X189863809Y-109196190D01*
X189863809Y-109481904D01*
X189816190Y-109577142D01*
X189768571Y-109624761D01*
X189673333Y-109672380D01*
X189482857Y-109672380D01*
X189387619Y-109624761D01*
X190292380Y-109005714D02*
X190292380Y-110005714D01*
X190292380Y-109053333D02*
X190387619Y-109005714D01*
X190578095Y-109005714D01*
X190673333Y-109053333D01*
X190720952Y-109100952D01*
X190768571Y-109196190D01*
X190768571Y-109481904D01*
X190720952Y-109577142D01*
X190673333Y-109624761D01*
X190578095Y-109672380D01*
X190387619Y-109672380D01*
X190292380Y-109624761D01*
X191101904Y-109005714D02*
X191339999Y-109672380D01*
X191578095Y-109005714D02*
X191339999Y-109672380D01*
X191244761Y-109910476D01*
X191197142Y-109958095D01*
X191101904Y-110005714D01*
D11*
X173319219Y-66292209D02*
X172219219Y-66292209D01*
X172219219Y-65558876D02*
X172219219Y-65349352D01*
X172271600Y-65244590D01*
X172376361Y-65139828D01*
X172585885Y-65087447D01*
X172952552Y-65087447D01*
X173162076Y-65139828D01*
X173266838Y-65244590D01*
X173319219Y-65349352D01*
X173319219Y-65558876D01*
X173266838Y-65663638D01*
X173162076Y-65768400D01*
X172952552Y-65820780D01*
X172585885Y-65820780D01*
X172376361Y-65768400D01*
X172271600Y-65663638D01*
X172219219Y-65558876D01*
X172323980Y-64668400D02*
X172271600Y-64616019D01*
X172219219Y-64511257D01*
X172219219Y-64249352D01*
X172271600Y-64144590D01*
X172323980Y-64092209D01*
X172428742Y-64039828D01*
X172533504Y-64039828D01*
X172690647Y-64092209D01*
X173319219Y-64720780D01*
X173319219Y-64039828D01*
X173319219Y-62992209D02*
X173319219Y-63620780D01*
X173319219Y-63306495D02*
X172219219Y-63306495D01*
X172376361Y-63411257D01*
X172481123Y-63516019D01*
X172533504Y-63620780D01*
X170677619Y-66292209D02*
X169577619Y-66292209D01*
X169577619Y-65558876D02*
X169577619Y-65349352D01*
X169630000Y-65244590D01*
X169734761Y-65139828D01*
X169944285Y-65087447D01*
X170310952Y-65087447D01*
X170520476Y-65139828D01*
X170625238Y-65244590D01*
X170677619Y-65349352D01*
X170677619Y-65558876D01*
X170625238Y-65663638D01*
X170520476Y-65768400D01*
X170310952Y-65820780D01*
X169944285Y-65820780D01*
X169734761Y-65768400D01*
X169630000Y-65663638D01*
X169577619Y-65558876D01*
X169682380Y-64668400D02*
X169630000Y-64616019D01*
X169577619Y-64511257D01*
X169577619Y-64249352D01*
X169630000Y-64144590D01*
X169682380Y-64092209D01*
X169787142Y-64039828D01*
X169891904Y-64039828D01*
X170049047Y-64092209D01*
X170677619Y-64720780D01*
X170677619Y-64039828D01*
X169577619Y-63096971D02*
X169577619Y-63306495D01*
X169630000Y-63411257D01*
X169682380Y-63463638D01*
X169839523Y-63568400D01*
X170049047Y-63620780D01*
X170468095Y-63620780D01*
X170572857Y-63568400D01*
X170625238Y-63516019D01*
X170677619Y-63411257D01*
X170677619Y-63201733D01*
X170625238Y-63096971D01*
X170572857Y-63044590D01*
X170468095Y-62992209D01*
X170206190Y-62992209D01*
X170101428Y-63044590D01*
X170049047Y-63096971D01*
X169996666Y-63201733D01*
X169996666Y-63411257D01*
X170049047Y-63516019D01*
X170101428Y-63568400D01*
X170206190Y-63620780D01*
X168340819Y-66292209D02*
X167240819Y-66292209D01*
X167240819Y-65558876D02*
X167240819Y-65349352D01*
X167293200Y-65244590D01*
X167397961Y-65139828D01*
X167607485Y-65087447D01*
X167974152Y-65087447D01*
X168183676Y-65139828D01*
X168288438Y-65244590D01*
X168340819Y-65349352D01*
X168340819Y-65558876D01*
X168288438Y-65663638D01*
X168183676Y-65768400D01*
X167974152Y-65820780D01*
X167607485Y-65820780D01*
X167397961Y-65768400D01*
X167293200Y-65663638D01*
X167240819Y-65558876D01*
X167240819Y-64720780D02*
X167240819Y-64039828D01*
X167659866Y-64406495D01*
X167659866Y-64249352D01*
X167712247Y-64144590D01*
X167764628Y-64092209D01*
X167869390Y-64039828D01*
X168131295Y-64039828D01*
X168236057Y-64092209D01*
X168288438Y-64144590D01*
X168340819Y-64249352D01*
X168340819Y-64563638D01*
X168288438Y-64668400D01*
X168236057Y-64720780D01*
X167240819Y-63673161D02*
X167240819Y-62992209D01*
X167659866Y-63358876D01*
X167659866Y-63201733D01*
X167712247Y-63096971D01*
X167764628Y-63044590D01*
X167869390Y-62992209D01*
X168131295Y-62992209D01*
X168236057Y-63044590D01*
X168288438Y-63096971D01*
X168340819Y-63201733D01*
X168340819Y-63516019D01*
X168288438Y-63620780D01*
X168236057Y-63673161D01*
X165750019Y-66292209D02*
X164650019Y-66292209D01*
X164650019Y-65558876D02*
X164650019Y-65349352D01*
X164702400Y-65244590D01*
X164807161Y-65139828D01*
X165016685Y-65087447D01*
X165383352Y-65087447D01*
X165592876Y-65139828D01*
X165697638Y-65244590D01*
X165750019Y-65349352D01*
X165750019Y-65558876D01*
X165697638Y-65663638D01*
X165592876Y-65768400D01*
X165383352Y-65820780D01*
X165016685Y-65820780D01*
X164807161Y-65768400D01*
X164702400Y-65663638D01*
X164650019Y-65558876D01*
X164650019Y-64720780D02*
X164650019Y-64039828D01*
X165069066Y-64406495D01*
X165069066Y-64249352D01*
X165121447Y-64144590D01*
X165173828Y-64092209D01*
X165278590Y-64039828D01*
X165540495Y-64039828D01*
X165645257Y-64092209D01*
X165697638Y-64144590D01*
X165750019Y-64249352D01*
X165750019Y-64563638D01*
X165697638Y-64668400D01*
X165645257Y-64720780D01*
X165016685Y-63096971D02*
X165750019Y-63096971D01*
X164597638Y-63358876D02*
X165383352Y-63620780D01*
X165383352Y-62939828D01*
X163057619Y-66190609D02*
X161957619Y-66190609D01*
X161957619Y-65457276D02*
X161957619Y-65247752D01*
X162010000Y-65142990D01*
X162114761Y-65038228D01*
X162324285Y-64985847D01*
X162690952Y-64985847D01*
X162900476Y-65038228D01*
X163005238Y-65142990D01*
X163057619Y-65247752D01*
X163057619Y-65457276D01*
X163005238Y-65562038D01*
X162900476Y-65666800D01*
X162690952Y-65719180D01*
X162324285Y-65719180D01*
X162114761Y-65666800D01*
X162010000Y-65562038D01*
X161957619Y-65457276D01*
X161957619Y-64619180D02*
X161957619Y-63938228D01*
X162376666Y-64304895D01*
X162376666Y-64147752D01*
X162429047Y-64042990D01*
X162481428Y-63990609D01*
X162586190Y-63938228D01*
X162848095Y-63938228D01*
X162952857Y-63990609D01*
X163005238Y-64042990D01*
X163057619Y-64147752D01*
X163057619Y-64462038D01*
X163005238Y-64566800D01*
X162952857Y-64619180D01*
X161957619Y-62942990D02*
X161957619Y-63466800D01*
X162481428Y-63519180D01*
X162429047Y-63466800D01*
X162376666Y-63362038D01*
X162376666Y-63100133D01*
X162429047Y-62995371D01*
X162481428Y-62942990D01*
X162586190Y-62890609D01*
X162848095Y-62890609D01*
X162952857Y-62942990D01*
X163005238Y-62995371D01*
X163057619Y-63100133D01*
X163057619Y-63362038D01*
X163005238Y-63466800D01*
X162952857Y-63519180D01*
X160517619Y-66190609D02*
X159417619Y-66190609D01*
X159417619Y-65457276D02*
X159417619Y-65247752D01*
X159470000Y-65142990D01*
X159574761Y-65038228D01*
X159784285Y-64985847D01*
X160150952Y-64985847D01*
X160360476Y-65038228D01*
X160465238Y-65142990D01*
X160517619Y-65247752D01*
X160517619Y-65457276D01*
X160465238Y-65562038D01*
X160360476Y-65666800D01*
X160150952Y-65719180D01*
X159784285Y-65719180D01*
X159574761Y-65666800D01*
X159470000Y-65562038D01*
X159417619Y-65457276D01*
X159417619Y-64619180D02*
X159417619Y-63938228D01*
X159836666Y-64304895D01*
X159836666Y-64147752D01*
X159889047Y-64042990D01*
X159941428Y-63990609D01*
X160046190Y-63938228D01*
X160308095Y-63938228D01*
X160412857Y-63990609D01*
X160465238Y-64042990D01*
X160517619Y-64147752D01*
X160517619Y-64462038D01*
X160465238Y-64566800D01*
X160412857Y-64619180D01*
X159417619Y-62995371D02*
X159417619Y-63204895D01*
X159470000Y-63309657D01*
X159522380Y-63362038D01*
X159679523Y-63466800D01*
X159889047Y-63519180D01*
X160308095Y-63519180D01*
X160412857Y-63466800D01*
X160465238Y-63414419D01*
X160517619Y-63309657D01*
X160517619Y-63100133D01*
X160465238Y-62995371D01*
X160412857Y-62942990D01*
X160308095Y-62890609D01*
X160046190Y-62890609D01*
X159941428Y-62942990D01*
X159889047Y-62995371D01*
X159836666Y-63100133D01*
X159836666Y-63309657D01*
X159889047Y-63414419D01*
X159941428Y-63466800D01*
X160046190Y-63519180D01*
X157977619Y-66190609D02*
X156877619Y-66190609D01*
X156877619Y-65457276D02*
X156877619Y-65247752D01*
X156930000Y-65142990D01*
X157034761Y-65038228D01*
X157244285Y-64985847D01*
X157610952Y-64985847D01*
X157820476Y-65038228D01*
X157925238Y-65142990D01*
X157977619Y-65247752D01*
X157977619Y-65457276D01*
X157925238Y-65562038D01*
X157820476Y-65666800D01*
X157610952Y-65719180D01*
X157244285Y-65719180D01*
X157034761Y-65666800D01*
X156930000Y-65562038D01*
X156877619Y-65457276D01*
X156877619Y-64619180D02*
X156877619Y-63938228D01*
X157296666Y-64304895D01*
X157296666Y-64147752D01*
X157349047Y-64042990D01*
X157401428Y-63990609D01*
X157506190Y-63938228D01*
X157768095Y-63938228D01*
X157872857Y-63990609D01*
X157925238Y-64042990D01*
X157977619Y-64147752D01*
X157977619Y-64462038D01*
X157925238Y-64566800D01*
X157872857Y-64619180D01*
X156877619Y-63571561D02*
X156877619Y-62838228D01*
X157977619Y-63309657D01*
X155437619Y-66190609D02*
X154337619Y-66190609D01*
X154337619Y-65457276D02*
X154337619Y-65247752D01*
X154390000Y-65142990D01*
X154494761Y-65038228D01*
X154704285Y-64985847D01*
X155070952Y-64985847D01*
X155280476Y-65038228D01*
X155385238Y-65142990D01*
X155437619Y-65247752D01*
X155437619Y-65457276D01*
X155385238Y-65562038D01*
X155280476Y-65666800D01*
X155070952Y-65719180D01*
X154704285Y-65719180D01*
X154494761Y-65666800D01*
X154390000Y-65562038D01*
X154337619Y-65457276D01*
X154337619Y-64619180D02*
X154337619Y-63938228D01*
X154756666Y-64304895D01*
X154756666Y-64147752D01*
X154809047Y-64042990D01*
X154861428Y-63990609D01*
X154966190Y-63938228D01*
X155228095Y-63938228D01*
X155332857Y-63990609D01*
X155385238Y-64042990D01*
X155437619Y-64147752D01*
X155437619Y-64462038D01*
X155385238Y-64566800D01*
X155332857Y-64619180D01*
X154809047Y-63309657D02*
X154756666Y-63414419D01*
X154704285Y-63466800D01*
X154599523Y-63519180D01*
X154547142Y-63519180D01*
X154442380Y-63466800D01*
X154390000Y-63414419D01*
X154337619Y-63309657D01*
X154337619Y-63100133D01*
X154390000Y-62995371D01*
X154442380Y-62942990D01*
X154547142Y-62890609D01*
X154599523Y-62890609D01*
X154704285Y-62942990D01*
X154756666Y-62995371D01*
X154809047Y-63100133D01*
X154809047Y-63309657D01*
X154861428Y-63414419D01*
X154913809Y-63466800D01*
X155018571Y-63519180D01*
X155228095Y-63519180D01*
X155332857Y-63466800D01*
X155385238Y-63414419D01*
X155437619Y-63309657D01*
X155437619Y-63100133D01*
X155385238Y-62995371D01*
X155332857Y-62942990D01*
X155228095Y-62890609D01*
X155018571Y-62890609D01*
X154913809Y-62942990D01*
X154861428Y-62995371D01*
X154809047Y-63100133D01*
X152897619Y-66190609D02*
X151797619Y-66190609D01*
X151797619Y-65457276D02*
X151797619Y-65247752D01*
X151850000Y-65142990D01*
X151954761Y-65038228D01*
X152164285Y-64985847D01*
X152530952Y-64985847D01*
X152740476Y-65038228D01*
X152845238Y-65142990D01*
X152897619Y-65247752D01*
X152897619Y-65457276D01*
X152845238Y-65562038D01*
X152740476Y-65666800D01*
X152530952Y-65719180D01*
X152164285Y-65719180D01*
X151954761Y-65666800D01*
X151850000Y-65562038D01*
X151797619Y-65457276D01*
X151797619Y-64619180D02*
X151797619Y-63938228D01*
X152216666Y-64304895D01*
X152216666Y-64147752D01*
X152269047Y-64042990D01*
X152321428Y-63990609D01*
X152426190Y-63938228D01*
X152688095Y-63938228D01*
X152792857Y-63990609D01*
X152845238Y-64042990D01*
X152897619Y-64147752D01*
X152897619Y-64462038D01*
X152845238Y-64566800D01*
X152792857Y-64619180D01*
X152897619Y-63414419D02*
X152897619Y-63204895D01*
X152845238Y-63100133D01*
X152792857Y-63047752D01*
X152635714Y-62942990D01*
X152426190Y-62890609D01*
X152007142Y-62890609D01*
X151902380Y-62942990D01*
X151850000Y-62995371D01*
X151797619Y-63100133D01*
X151797619Y-63309657D01*
X151850000Y-63414419D01*
X151902380Y-63466800D01*
X152007142Y-63519180D01*
X152269047Y-63519180D01*
X152373809Y-63466800D01*
X152426190Y-63414419D01*
X152478571Y-63309657D01*
X152478571Y-63100133D01*
X152426190Y-62995371D01*
X152373809Y-62942990D01*
X152269047Y-62890609D01*
X150357619Y-66190609D02*
X149257619Y-66190609D01*
X149257619Y-65457276D02*
X149257619Y-65247752D01*
X149310000Y-65142990D01*
X149414761Y-65038228D01*
X149624285Y-64985847D01*
X149990952Y-64985847D01*
X150200476Y-65038228D01*
X150305238Y-65142990D01*
X150357619Y-65247752D01*
X150357619Y-65457276D01*
X150305238Y-65562038D01*
X150200476Y-65666800D01*
X149990952Y-65719180D01*
X149624285Y-65719180D01*
X149414761Y-65666800D01*
X149310000Y-65562038D01*
X149257619Y-65457276D01*
X149624285Y-64042990D02*
X150357619Y-64042990D01*
X149205238Y-64304895D02*
X149990952Y-64566800D01*
X149990952Y-63885847D01*
X149257619Y-63257276D02*
X149257619Y-63152514D01*
X149310000Y-63047752D01*
X149362380Y-62995371D01*
X149467142Y-62942990D01*
X149676666Y-62890609D01*
X149938571Y-62890609D01*
X150148095Y-62942990D01*
X150252857Y-62995371D01*
X150305238Y-63047752D01*
X150357619Y-63152514D01*
X150357619Y-63257276D01*
X150305238Y-63362038D01*
X150252857Y-63414419D01*
X150148095Y-63466800D01*
X149938571Y-63519180D01*
X149676666Y-63519180D01*
X149467142Y-63466800D01*
X149362380Y-63414419D01*
X149310000Y-63362038D01*
X149257619Y-63257276D01*
X147817619Y-66190609D02*
X146717619Y-66190609D01*
X146717619Y-65457276D02*
X146717619Y-65247752D01*
X146770000Y-65142990D01*
X146874761Y-65038228D01*
X147084285Y-64985847D01*
X147450952Y-64985847D01*
X147660476Y-65038228D01*
X147765238Y-65142990D01*
X147817619Y-65247752D01*
X147817619Y-65457276D01*
X147765238Y-65562038D01*
X147660476Y-65666800D01*
X147450952Y-65719180D01*
X147084285Y-65719180D01*
X146874761Y-65666800D01*
X146770000Y-65562038D01*
X146717619Y-65457276D01*
X147084285Y-64042990D02*
X147817619Y-64042990D01*
X146665238Y-64304895D02*
X147450952Y-64566800D01*
X147450952Y-63885847D01*
X147817619Y-62890609D02*
X147817619Y-63519180D01*
X147817619Y-63204895D02*
X146717619Y-63204895D01*
X146874761Y-63309657D01*
X146979523Y-63414419D01*
X147031904Y-63519180D01*
X145277619Y-66190609D02*
X144177619Y-66190609D01*
X144177619Y-65457276D02*
X144177619Y-65247752D01*
X144230000Y-65142990D01*
X144334761Y-65038228D01*
X144544285Y-64985847D01*
X144910952Y-64985847D01*
X145120476Y-65038228D01*
X145225238Y-65142990D01*
X145277619Y-65247752D01*
X145277619Y-65457276D01*
X145225238Y-65562038D01*
X145120476Y-65666800D01*
X144910952Y-65719180D01*
X144544285Y-65719180D01*
X144334761Y-65666800D01*
X144230000Y-65562038D01*
X144177619Y-65457276D01*
X144544285Y-64042990D02*
X145277619Y-64042990D01*
X144125238Y-64304895D02*
X144910952Y-64566800D01*
X144910952Y-63885847D01*
X144282380Y-63519180D02*
X144230000Y-63466800D01*
X144177619Y-63362038D01*
X144177619Y-63100133D01*
X144230000Y-62995371D01*
X144282380Y-62942990D01*
X144387142Y-62890609D01*
X144491904Y-62890609D01*
X144649047Y-62942990D01*
X145277619Y-63571561D01*
X145277619Y-62890609D01*
X141485219Y-66116095D02*
X141485219Y-65487523D01*
X142585219Y-65801809D02*
X141485219Y-65801809D01*
X141485219Y-65225619D02*
X142585219Y-64492285D01*
X141485219Y-64492285D02*
X142585219Y-65225619D01*
X140197619Y-65562933D02*
X139673809Y-65929600D01*
X140197619Y-66191504D02*
X139097619Y-66191504D01*
X139097619Y-65772457D01*
X139150000Y-65667695D01*
X139202380Y-65615314D01*
X139307142Y-65562933D01*
X139464285Y-65562933D01*
X139569047Y-65615314D01*
X139621428Y-65667695D01*
X139673809Y-65772457D01*
X139673809Y-66191504D01*
X139097619Y-65196266D02*
X140197619Y-64462933D01*
X139097619Y-64462933D02*
X140197619Y-65196266D01*
X137612380Y-66195390D02*
X136612380Y-66195390D01*
X136612380Y-65528723D02*
X136612380Y-65338247D01*
X136660000Y-65243009D01*
X136755238Y-65147771D01*
X136945714Y-65100152D01*
X137279047Y-65100152D01*
X137469523Y-65147771D01*
X137564761Y-65243009D01*
X137612380Y-65338247D01*
X137612380Y-65528723D01*
X137564761Y-65623961D01*
X137469523Y-65719200D01*
X137279047Y-65766819D01*
X136945714Y-65766819D01*
X136755238Y-65719200D01*
X136660000Y-65623961D01*
X136612380Y-65528723D01*
X136945714Y-64243009D02*
X137612380Y-64243009D01*
X136564761Y-64481104D02*
X137279047Y-64719200D01*
X137279047Y-64100152D01*
X136612380Y-63243009D02*
X136612380Y-63719200D01*
X137088571Y-63766819D01*
X137040952Y-63719200D01*
X136993333Y-63623961D01*
X136993333Y-63385866D01*
X137040952Y-63290628D01*
X137088571Y-63243009D01*
X137183809Y-63195390D01*
X137421904Y-63195390D01*
X137517142Y-63243009D01*
X137564761Y-63290628D01*
X137612380Y-63385866D01*
X137612380Y-63623961D01*
X137564761Y-63719200D01*
X137517142Y-63766819D01*
X135117619Y-66190609D02*
X134017619Y-66190609D01*
X134017619Y-65457276D02*
X134017619Y-65247752D01*
X134070000Y-65142990D01*
X134174761Y-65038228D01*
X134384285Y-64985847D01*
X134750952Y-64985847D01*
X134960476Y-65038228D01*
X135065238Y-65142990D01*
X135117619Y-65247752D01*
X135117619Y-65457276D01*
X135065238Y-65562038D01*
X134960476Y-65666800D01*
X134750952Y-65719180D01*
X134384285Y-65719180D01*
X134174761Y-65666800D01*
X134070000Y-65562038D01*
X134017619Y-65457276D01*
X134384285Y-64042990D02*
X135117619Y-64042990D01*
X133965238Y-64304895D02*
X134750952Y-64566800D01*
X134750952Y-63885847D01*
X134017619Y-62995371D02*
X134017619Y-63204895D01*
X134070000Y-63309657D01*
X134122380Y-63362038D01*
X134279523Y-63466800D01*
X134489047Y-63519180D01*
X134908095Y-63519180D01*
X135012857Y-63466800D01*
X135065238Y-63414419D01*
X135117619Y-63309657D01*
X135117619Y-63100133D01*
X135065238Y-62995371D01*
X135012857Y-62942990D01*
X134908095Y-62890609D01*
X134646190Y-62890609D01*
X134541428Y-62942990D01*
X134489047Y-62995371D01*
X134436666Y-63100133D01*
X134436666Y-63309657D01*
X134489047Y-63414419D01*
X134541428Y-63466800D01*
X134646190Y-63519180D01*
D12*
%TO.C,J2*%
X197140000Y-103378000D02*
X188940000Y-103378000D01*
X188940000Y-93218000D02*
X197140000Y-93218000D01*
X188940000Y-103378000D02*
X188940000Y-93218000D01*
X197140000Y-93218000D02*
X197140000Y-103378000D01*
D11*
X188040000Y-100838000D02*
G75*
G03*
X188040000Y-100838000I-100000J0D01*
G01*
D13*
%TO.C,REF\u002A\u002A*%
X151383276Y-106694500D02*
X151892724Y-106694500D01*
X151383276Y-105649500D02*
X151892724Y-105649500D01*
%TO.C,C*%
X146983233Y-106682000D02*
X147275767Y-106682000D01*
X146983233Y-105662000D02*
X147275767Y-105662000D01*
D14*
%TO.C,SW1*%
X149644100Y-107391200D02*
X144995900Y-107391200D01*
X144995900Y-108833341D02*
X144995900Y-109606659D01*
X144995900Y-111048800D02*
X149644100Y-111048800D01*
X149644100Y-109606659D02*
X149644100Y-108833341D01*
X151803100Y-110295000D02*
G75*
G03*
X151803100Y-110295000I-381000J0D01*
G01*
D13*
%TO.C,REF\u002A\u002A*%
X194390000Y-71690000D02*
X191890000Y-71690000D01*
X191890000Y-71690000D02*
X191890000Y-70640000D01*
X191890000Y-70640000D02*
X190900000Y-70640000D01*
X194390000Y-65470000D02*
X191890000Y-65470000D01*
X191890000Y-65470000D02*
X191890000Y-66520000D01*
X196360000Y-70520000D02*
X196360000Y-66640000D01*
%TO.C,D1*%
X170608600Y-100362000D02*
X170608600Y-101872000D01*
X166907600Y-100362000D02*
X166907600Y-101872000D01*
X163637600Y-101872000D02*
X173877600Y-101872000D01*
X173877600Y-100362000D02*
X173877600Y-105003000D01*
X163637600Y-100362000D02*
X163637600Y-105003000D01*
X163637600Y-105003000D02*
X173877600Y-105003000D01*
X163637600Y-100362000D02*
X173877600Y-100362000D01*
%TO.C,U2*%
X130886000Y-98518000D02*
X130886000Y-98908000D01*
X130226000Y-80278000D02*
X123806000Y-80278000D01*
X130886000Y-98518000D02*
X123806000Y-98533000D01*
X123806000Y-98533000D02*
X123806000Y-80278000D01*
X154796000Y-80288000D02*
X155056000Y-80288000D01*
X155056000Y-80288000D02*
X155056000Y-81948000D01*
X154696000Y-98528000D02*
X155056000Y-98528000D01*
X155056000Y-98528000D02*
X155056000Y-96868000D01*
%TO.C,M2*%
X192528500Y-87182000D02*
X192528500Y-84522000D01*
X189928500Y-87182000D02*
X192528500Y-87182000D01*
X189928500Y-84522000D02*
X192528500Y-84522000D01*
X189928500Y-87182000D02*
X189928500Y-84522000D01*
X188658500Y-87182000D02*
X187328500Y-87182000D01*
X187328500Y-87182000D02*
X187328500Y-85852000D01*
%TO.C,C1*%
X173843733Y-91188000D02*
X174136267Y-91188000D01*
X173843733Y-90168000D02*
X174136267Y-90168000D01*
D14*
%TO.C,C2*%
X175475900Y-79067660D02*
X175475900Y-75730100D01*
X166916100Y-80952340D02*
X166916100Y-84289900D01*
X166916100Y-75730100D02*
X166916100Y-79067660D01*
X175475900Y-75730100D02*
X166916100Y-75730100D01*
X175475900Y-84289900D02*
X175475900Y-80952340D01*
X166916100Y-84289900D02*
X175475900Y-84289900D01*
D13*
%TO.C,C3*%
X162706267Y-98423000D02*
X162413733Y-98423000D01*
X162706267Y-99443000D02*
X162413733Y-99443000D01*
%TO.C,C4*%
X177526733Y-90168000D02*
X177819267Y-90168000D01*
X177526733Y-91188000D02*
X177819267Y-91188000D01*
%TO.C,C5*%
X167874733Y-97661000D02*
X168167267Y-97661000D01*
X167874733Y-98681000D02*
X168167267Y-98681000D01*
%TO.C,C6*%
X167874733Y-95756000D02*
X168167267Y-95756000D01*
X167874733Y-96776000D02*
X168167267Y-96776000D01*
%TO.C,C7*%
X167874733Y-94998000D02*
X168167267Y-94998000D01*
X167874733Y-93978000D02*
X168167267Y-93978000D01*
D14*
%TO.C,D2*%
X147586700Y-103339900D02*
X145529300Y-103339900D01*
X145529300Y-104940100D02*
X147586700Y-104940100D01*
D13*
%TO.C,PINS*%
X133290000Y-68072000D02*
X133290000Y-66742000D01*
X133290000Y-66742000D02*
X134620000Y-66742000D01*
X135890000Y-66742000D02*
X174050000Y-66742000D01*
X174050000Y-69402000D02*
X174050000Y-66742000D01*
X135890000Y-69402000D02*
X174050000Y-69402000D01*
X135890000Y-69402000D02*
X135890000Y-66742000D01*
%TO.C,J3*%
X133934000Y-102326000D02*
X135434000Y-102326000D01*
X133934000Y-102326000D02*
X133934000Y-109586000D01*
X143434000Y-102326000D02*
X143434000Y-109586000D01*
X141934000Y-102326000D02*
X143434000Y-102326000D01*
%TO.C,GND*%
X177740000Y-69402000D02*
X177740000Y-68072000D01*
X179070000Y-69402000D02*
X177740000Y-69402000D01*
X180340000Y-69402000D02*
X180340000Y-66742000D01*
X180340000Y-66742000D02*
X182940000Y-66742000D01*
X180340000Y-69402000D02*
X182940000Y-69402000D01*
X182940000Y-69402000D02*
X182940000Y-66742000D01*
%TO.C,M1*%
X186242000Y-87182000D02*
X186242000Y-84522000D01*
X183642000Y-87182000D02*
X186242000Y-87182000D01*
X183642000Y-84522000D02*
X186242000Y-84522000D01*
X183642000Y-87182000D02*
X183642000Y-84522000D01*
X182372000Y-87182000D02*
X181042000Y-87182000D01*
X181042000Y-87182000D02*
X181042000Y-85852000D01*
%TO.C,R1*%
X181101276Y-91200500D02*
X181610724Y-91200500D01*
X181101276Y-90155500D02*
X181610724Y-90155500D01*
%TO.C,R2*%
X185166724Y-90155500D02*
X184657276Y-90155500D01*
X185166724Y-91200500D02*
X184657276Y-91200500D01*
%TO.C,Re*%
X193435500Y-78104276D02*
X193435500Y-78613724D01*
X192390500Y-78104276D02*
X192390500Y-78613724D01*
%TO.C,R4*%
X132334724Y-102093500D02*
X131825276Y-102093500D01*
X132334724Y-103138500D02*
X131825276Y-103138500D01*
%TO.C,R5*%
X131825276Y-106411500D02*
X132334724Y-106411500D01*
X131825276Y-107456500D02*
X132334724Y-107456500D01*
D14*
%TO.C,SW1*%
X151676100Y-102294000D02*
G75*
G03*
X151676100Y-102294000I-381000J0D01*
G01*
X149517100Y-101605659D02*
X149517100Y-100832341D01*
X144868900Y-103047800D02*
X149517100Y-103047800D01*
X144868900Y-100832341D02*
X144868900Y-101605659D01*
X149517100Y-99390200D02*
X144868900Y-99390200D01*
%TO.C,U1*%
X187495500Y-75189199D02*
X187114500Y-75189199D01*
X187495500Y-74935199D02*
X187495500Y-75189199D01*
X187114500Y-74935199D02*
X187495500Y-74935199D01*
X187114500Y-75189199D02*
X187114500Y-74935199D01*
X190113801Y-79307499D02*
X190367801Y-79307499D01*
X190113801Y-79688500D02*
X190113801Y-79307499D01*
X190367801Y-79688500D02*
X190113801Y-79688500D01*
X190367801Y-79307499D02*
X190367801Y-79688500D01*
X186995501Y-83306801D02*
X186614501Y-83306801D01*
X186995501Y-83560801D02*
X186995501Y-83306801D01*
X186614501Y-83560801D02*
X186995501Y-83560801D01*
X186614501Y-83306801D02*
X186614501Y-83560801D01*
X181996199Y-80807499D02*
X181742199Y-80807499D01*
X181996199Y-81188499D02*
X181996199Y-80807499D01*
X181742199Y-81188499D02*
X181996199Y-81188499D01*
X181742199Y-80807499D02*
X181742199Y-81188499D01*
X182872660Y-75620999D02*
X182427999Y-75620999D01*
X189682001Y-76065660D02*
X189682001Y-75620999D01*
X189237340Y-82875001D02*
X189682001Y-82875001D01*
X182427999Y-82430340D02*
X182427999Y-82875001D01*
X182427999Y-75620999D02*
X182427999Y-76065660D01*
X189682001Y-75620999D02*
X189237340Y-75620999D01*
X189682001Y-82875001D02*
X189682001Y-82430340D01*
X182427999Y-82875001D02*
X182872660Y-82875001D01*
X165343840Y-85911500D02*
X166357300Y-85911500D01*
X165343840Y-90491500D02*
X166357300Y-90491500D01*
X165343840Y-86800500D02*
X166357300Y-86800500D01*
X165343840Y-91380500D02*
X166357300Y-91380500D01*
%TO.C,PINS*%
D10*
X132302380Y-69572000D02*
X131302380Y-69572000D01*
X131302380Y-69191047D01*
X131350000Y-69095809D01*
X131397619Y-69048190D01*
X131492857Y-69000571D01*
X131635714Y-69000571D01*
X131730952Y-69048190D01*
X131778571Y-69095809D01*
X131826190Y-69191047D01*
X131826190Y-69572000D01*
X132302380Y-68572000D02*
X131302380Y-68572000D01*
X132302380Y-68095809D02*
X131302380Y-68095809D01*
X132302380Y-67524380D01*
X131302380Y-67524380D01*
X132254761Y-67095809D02*
X132302380Y-66952952D01*
X132302380Y-66714857D01*
X132254761Y-66619619D01*
X132207142Y-66572000D01*
X132111904Y-66524380D01*
X132016666Y-66524380D01*
X131921428Y-66572000D01*
X131873809Y-66619619D01*
X131826190Y-66714857D01*
X131778571Y-66905333D01*
X131730952Y-67000571D01*
X131683333Y-67048190D01*
X131588095Y-67095809D01*
X131492857Y-67095809D01*
X131397619Y-67048190D01*
X131350000Y-67000571D01*
X131302380Y-66905333D01*
X131302380Y-66667238D01*
X131350000Y-66524380D01*
%TO.C,GND*%
X176240000Y-68833904D02*
X176192380Y-68929142D01*
X176192380Y-69072000D01*
X176240000Y-69214857D01*
X176335238Y-69310095D01*
X176430476Y-69357714D01*
X176620952Y-69405333D01*
X176763809Y-69405333D01*
X176954285Y-69357714D01*
X177049523Y-69310095D01*
X177144761Y-69214857D01*
X177192380Y-69072000D01*
X177192380Y-68976761D01*
X177144761Y-68833904D01*
X177097142Y-68786285D01*
X176763809Y-68786285D01*
X176763809Y-68976761D01*
X177192380Y-68357714D02*
X176192380Y-68357714D01*
X177192380Y-67786285D01*
X176192380Y-67786285D01*
X177192380Y-67310095D02*
X176192380Y-67310095D01*
X176192380Y-67072000D01*
X176240000Y-66929142D01*
X176335238Y-66833904D01*
X176430476Y-66786285D01*
X176620952Y-66738666D01*
X176763809Y-66738666D01*
X176954285Y-66786285D01*
X177049523Y-66833904D01*
X177144761Y-66929142D01*
X177192380Y-67072000D01*
X177192380Y-67310095D01*
%TD*%
M02*
