%TF.GenerationSoftware,KiCad,Pcbnew,(5.1.9-0-10_14)*%
%TF.CreationDate,2021-04-08T19:41:26-04:00*%
%TF.ProjectId,RoboCloud,526f626f-436c-46f7-9564-2e6b69636164,rev?*%
%TF.SameCoordinates,Original*%
%TF.FileFunction,Other,Fab,Top*%
%FSLAX46Y46*%
G04 Gerber Fmt 4.6, Leading zero omitted, Abs format (unit mm)*
G04 Created by KiCad (PCBNEW (5.1.9-0-10_14)) date 2021-04-08 19:41:26*
%MOMM*%
%LPD*%
G01*
G04 APERTURE LIST*
%ADD10C,0.127000*%
%ADD11C,0.200000*%
%ADD12C,0.100000*%
%ADD13C,0.152400*%
%ADD14C,0.150000*%
%ADD15C,0.060000*%
G04 APERTURE END LIST*
D10*
%TO.C,J2*%
X197140000Y-103378000D02*
X188940000Y-103378000D01*
X188940000Y-103378000D02*
X188940000Y-93218000D01*
X188940000Y-93218000D02*
X197140000Y-93218000D01*
X197140000Y-93218000D02*
X197140000Y-103378000D01*
D11*
X188040000Y-100838000D02*
G75*
G03*
X188040000Y-100838000I-100000J0D01*
G01*
D12*
%TO.C,REF\u002A\u002A*%
X152438000Y-106584500D02*
X150838000Y-106584500D01*
X152438000Y-105759500D02*
X152438000Y-106584500D01*
X150838000Y-105759500D02*
X152438000Y-105759500D01*
X150838000Y-106584500D02*
X150838000Y-105759500D01*
%TO.C,C*%
X147929500Y-106572000D02*
X146329500Y-106572000D01*
X147929500Y-105772000D02*
X147929500Y-106572000D01*
X146329500Y-105772000D02*
X147929500Y-105772000D01*
X146329500Y-106572000D02*
X146329500Y-105772000D01*
D13*
%TO.C,SW1*%
X149517100Y-107518200D02*
X145122900Y-107518200D01*
X145122900Y-107518200D02*
X145122900Y-110921800D01*
X145122900Y-110921800D02*
X149517100Y-110921800D01*
X149517100Y-110921800D02*
X149517100Y-107518200D01*
X149951001Y-112200000D02*
G75*
G03*
X149951001Y-112200000I-381000J0D01*
G01*
D12*
%TO.C,REF\u002A\u002A*%
X192000000Y-71580000D02*
X192000000Y-65580000D01*
X196250000Y-71580000D02*
X196250000Y-65580000D01*
X192000000Y-71580000D02*
X196250000Y-71580000D01*
X192000000Y-65580000D02*
X196250000Y-65580000D01*
X192000000Y-70580000D02*
X192707107Y-70080000D01*
X192707107Y-70080000D02*
X192000000Y-69580000D01*
%TO.C,D1*%
X170607600Y-100482000D02*
X170607600Y-101752000D01*
X166907600Y-100482000D02*
X166907600Y-101752000D01*
X163757600Y-101752000D02*
X173757600Y-101752000D01*
X173757600Y-100482000D02*
X163757600Y-100482000D01*
X173757600Y-104882000D02*
X173757600Y-100482000D01*
X163757600Y-104882000D02*
X173757600Y-104882000D01*
X163757600Y-100482000D02*
X163757600Y-104882000D01*
%TO.C,U2*%
X131236000Y-98408000D02*
X154936000Y-98408000D01*
X130736000Y-97908000D02*
X130236000Y-98408000D01*
X131236000Y-98408000D02*
X130736000Y-97908000D01*
X154936000Y-98408000D02*
X154936000Y-80408000D01*
X123936000Y-98408000D02*
X130236000Y-98408000D01*
X123933000Y-98408000D02*
X123933000Y-80408000D01*
X123936000Y-80408000D02*
X154936000Y-80408000D01*
X130233000Y-80408000D02*
X130233000Y-98408000D01*
%TO.C,M2*%
X187388500Y-86487000D02*
X187388500Y-84582000D01*
X187388500Y-84582000D02*
X192468500Y-84582000D01*
X192468500Y-84582000D02*
X192468500Y-87122000D01*
X192468500Y-87122000D02*
X188023500Y-87122000D01*
X188023500Y-87122000D02*
X187388500Y-86487000D01*
%TO.C,C1*%
X174790000Y-91078000D02*
X173190000Y-91078000D01*
X174790000Y-90278000D02*
X174790000Y-91078000D01*
X173190000Y-90278000D02*
X174790000Y-90278000D01*
X173190000Y-91078000D02*
X173190000Y-90278000D01*
D13*
%TO.C,C2*%
X167551100Y-80010000D02*
G75*
G03*
X167551100Y-80010000I0J0D01*
G01*
X167043100Y-75857100D02*
X167043100Y-84162900D01*
X175348900Y-75857100D02*
X167043100Y-75857100D01*
X175348900Y-84162900D02*
X175348900Y-75857100D01*
X167043100Y-84162900D02*
X175348900Y-84162900D01*
X167043100Y-82086450D02*
X169119550Y-84162900D01*
X167043100Y-77933550D02*
X169119550Y-75857100D01*
D12*
%TO.C,C3*%
X161760000Y-98533000D02*
X163360000Y-98533000D01*
X161760000Y-99333000D02*
X161760000Y-98533000D01*
X163360000Y-99333000D02*
X161760000Y-99333000D01*
X163360000Y-98533000D02*
X163360000Y-99333000D01*
%TO.C,C4*%
X176873000Y-91078000D02*
X176873000Y-90278000D01*
X176873000Y-90278000D02*
X178473000Y-90278000D01*
X178473000Y-90278000D02*
X178473000Y-91078000D01*
X178473000Y-91078000D02*
X176873000Y-91078000D01*
%TO.C,C5*%
X167221000Y-98571000D02*
X167221000Y-97771000D01*
X167221000Y-97771000D02*
X168821000Y-97771000D01*
X168821000Y-97771000D02*
X168821000Y-98571000D01*
X168821000Y-98571000D02*
X167221000Y-98571000D01*
%TO.C,C6*%
X167221000Y-96666000D02*
X167221000Y-95866000D01*
X167221000Y-95866000D02*
X168821000Y-95866000D01*
X168821000Y-95866000D02*
X168821000Y-96666000D01*
X168821000Y-96666000D02*
X167221000Y-96666000D01*
%TO.C,C7*%
X168821000Y-94888000D02*
X167221000Y-94888000D01*
X168821000Y-94088000D02*
X168821000Y-94888000D01*
X167221000Y-94088000D02*
X168821000Y-94088000D01*
X167221000Y-94888000D02*
X167221000Y-94088000D01*
D13*
%TO.C,D2*%
X145656300Y-103466900D02*
X145656300Y-104813100D01*
X147459700Y-103466900D02*
X145656300Y-103466900D01*
X147459700Y-104813100D02*
X147459700Y-103466900D01*
X145656300Y-104813100D02*
X147459700Y-104813100D01*
X145656300Y-104476550D02*
X145992850Y-104813100D01*
X145656300Y-103803450D02*
X145992850Y-103466900D01*
X147916900Y-103936800D02*
X147459700Y-103936800D01*
X147916900Y-104343200D02*
X147916900Y-103936800D01*
X147459700Y-104343200D02*
X147916900Y-104343200D01*
X147459700Y-103936800D02*
X147459700Y-104343200D01*
X145199100Y-104343200D02*
X145656300Y-104343200D01*
X145199100Y-103936800D02*
X145199100Y-104343200D01*
X145656300Y-103936800D02*
X145199100Y-103936800D01*
X145656300Y-104343200D02*
X145656300Y-103936800D01*
D12*
%TO.C,PINS*%
X173990000Y-69342000D02*
X133350000Y-69342000D01*
X173990000Y-66802000D02*
X173990000Y-69342000D01*
X133985000Y-66802000D02*
X173990000Y-66802000D01*
X133350000Y-67437000D02*
X133985000Y-66802000D01*
X133350000Y-69342000D02*
X133350000Y-67437000D01*
%TO.C,J3*%
X134084000Y-112926000D02*
X134084000Y-102476000D01*
X134084000Y-102476000D02*
X143284000Y-102476000D01*
X134084000Y-112926000D02*
X143284000Y-112926000D01*
X143284000Y-112926000D02*
X143284000Y-102476000D01*
%TO.C,GND*%
X178435000Y-69342000D02*
X177800000Y-68707000D01*
X182880000Y-69342000D02*
X178435000Y-69342000D01*
X182880000Y-66802000D02*
X182880000Y-69342000D01*
X177800000Y-66802000D02*
X182880000Y-66802000D01*
X177800000Y-68707000D02*
X177800000Y-66802000D01*
%TO.C,M1*%
X181102000Y-86487000D02*
X181102000Y-84582000D01*
X181102000Y-84582000D02*
X186182000Y-84582000D01*
X186182000Y-84582000D02*
X186182000Y-87122000D01*
X186182000Y-87122000D02*
X181737000Y-87122000D01*
X181737000Y-87122000D02*
X181102000Y-86487000D01*
%TO.C,R1*%
X182156000Y-91090500D02*
X180556000Y-91090500D01*
X182156000Y-90265500D02*
X182156000Y-91090500D01*
X180556000Y-90265500D02*
X182156000Y-90265500D01*
X180556000Y-91090500D02*
X180556000Y-90265500D01*
%TO.C,R2*%
X184112000Y-90265500D02*
X185712000Y-90265500D01*
X184112000Y-91090500D02*
X184112000Y-90265500D01*
X185712000Y-91090500D02*
X184112000Y-91090500D01*
X185712000Y-90265500D02*
X185712000Y-91090500D01*
%TO.C,Re*%
X192500500Y-77559000D02*
X193325500Y-77559000D01*
X193325500Y-77559000D02*
X193325500Y-79159000D01*
X193325500Y-79159000D02*
X192500500Y-79159000D01*
X192500500Y-79159000D02*
X192500500Y-77559000D01*
%TO.C,R4*%
X131280000Y-102203500D02*
X132880000Y-102203500D01*
X131280000Y-103028500D02*
X131280000Y-102203500D01*
X132880000Y-103028500D02*
X131280000Y-103028500D01*
X132880000Y-102203500D02*
X132880000Y-103028500D01*
%TO.C,R5*%
X131280000Y-107346500D02*
X131280000Y-106521500D01*
X131280000Y-106521500D02*
X132880000Y-106521500D01*
X132880000Y-106521500D02*
X132880000Y-107346500D01*
X132880000Y-107346500D02*
X131280000Y-107346500D01*
D13*
%TO.C,SW1*%
X149824001Y-104199000D02*
G75*
G03*
X149824001Y-104199000I-381000J0D01*
G01*
X149390100Y-102920800D02*
X149390100Y-99517200D01*
X144995900Y-102920800D02*
X149390100Y-102920800D01*
X144995900Y-99517200D02*
X144995900Y-102920800D01*
X149390100Y-99517200D02*
X144995900Y-99517200D01*
%TO.C,U1*%
X182554999Y-82748001D02*
X182554999Y-82748001D01*
X182554999Y-75747999D02*
X182554999Y-82748001D01*
X182554999Y-75747999D02*
X182554999Y-75747999D01*
X189555001Y-75747999D02*
X182554999Y-75747999D01*
X189555001Y-75747999D02*
X189555001Y-75747999D01*
X189555001Y-82748001D02*
X189555001Y-75747999D01*
X189555001Y-82748001D02*
X189555001Y-82748001D01*
X182554999Y-82748001D02*
X189555001Y-82748001D01*
X189555001Y-76373000D02*
X189555001Y-76373000D01*
X189555001Y-76623000D02*
X189555001Y-76373000D01*
X189555001Y-76623000D02*
X189555001Y-76623000D01*
X189555001Y-76373000D02*
X189555001Y-76623000D01*
X189555001Y-76873000D02*
X189555001Y-76873000D01*
X189555001Y-77123000D02*
X189555001Y-76873000D01*
X189555001Y-77123000D02*
X189555001Y-77123000D01*
X189555001Y-76873000D02*
X189555001Y-77123000D01*
X189555001Y-77373000D02*
X189555001Y-77373000D01*
X189555001Y-77623000D02*
X189555001Y-77373000D01*
X189555001Y-77623000D02*
X189555001Y-77623000D01*
X189555001Y-77373000D02*
X189555001Y-77623000D01*
X189555001Y-77873000D02*
X189555001Y-77873000D01*
X189555001Y-78123000D02*
X189555001Y-77873000D01*
X189555001Y-78123000D02*
X189555001Y-78123000D01*
X189555001Y-77873000D02*
X189555001Y-78123000D01*
X189555001Y-78373000D02*
X189555001Y-78373000D01*
X189555001Y-78623000D02*
X189555001Y-78373000D01*
X189555001Y-78623000D02*
X189555001Y-78623000D01*
X189555001Y-78373000D02*
X189555001Y-78623000D01*
X189555001Y-78873000D02*
X189555001Y-78873000D01*
X189555001Y-79123000D02*
X189555001Y-78873000D01*
X189555001Y-79123000D02*
X189555001Y-79123000D01*
X189555001Y-78873000D02*
X189555001Y-79123000D01*
X189555001Y-79373000D02*
X189555001Y-79373000D01*
X189555001Y-79623000D02*
X189555001Y-79373000D01*
X189555001Y-79623000D02*
X189555001Y-79623000D01*
X189555001Y-79373000D02*
X189555001Y-79623000D01*
X189555001Y-79873000D02*
X189555001Y-79873000D01*
X189555001Y-80123000D02*
X189555001Y-79873000D01*
X189555001Y-80123000D02*
X189555001Y-80123000D01*
X189555001Y-79873000D02*
X189555001Y-80123000D01*
X189555001Y-80373000D02*
X189555001Y-80373000D01*
X189555001Y-80623000D02*
X189555001Y-80373000D01*
X189555001Y-80623000D02*
X189555001Y-80623000D01*
X189555001Y-80373000D02*
X189555001Y-80623000D01*
X189555001Y-80873000D02*
X189555001Y-80873000D01*
X189555001Y-81123000D02*
X189555001Y-80873000D01*
X189555001Y-81123000D02*
X189555001Y-81123000D01*
X189555001Y-80873000D02*
X189555001Y-81123000D01*
X189555001Y-81373000D02*
X189555001Y-81373000D01*
X189555001Y-81623000D02*
X189555001Y-81373000D01*
X189555001Y-81623000D02*
X189555001Y-81623000D01*
X189555001Y-81373000D02*
X189555001Y-81623000D01*
X189555001Y-81873000D02*
X189555001Y-81873000D01*
X189555001Y-82123000D02*
X189555001Y-81873000D01*
X189555001Y-82123000D02*
X189555001Y-82123000D01*
X189555001Y-81873000D02*
X189555001Y-82123000D01*
X188930000Y-82748001D02*
X188930000Y-82748001D01*
X188680000Y-82748001D02*
X188930000Y-82748001D01*
X188680000Y-82748001D02*
X188680000Y-82748001D01*
X188930000Y-82748001D02*
X188680000Y-82748001D01*
X188430000Y-82748001D02*
X188430000Y-82748001D01*
X188180000Y-82748001D02*
X188430000Y-82748001D01*
X188180000Y-82748001D02*
X188180000Y-82748001D01*
X188430000Y-82748001D02*
X188180000Y-82748001D01*
X187930000Y-82748001D02*
X187930000Y-82748001D01*
X187680000Y-82748001D02*
X187930000Y-82748001D01*
X187680000Y-82748001D02*
X187680000Y-82748001D01*
X187930000Y-82748001D02*
X187680000Y-82748001D01*
X187430000Y-82748001D02*
X187430000Y-82748001D01*
X187180000Y-82748001D02*
X187430000Y-82748001D01*
X187180000Y-82748001D02*
X187180000Y-82748001D01*
X187430000Y-82748001D02*
X187180000Y-82748001D01*
X186930000Y-82748001D02*
X186930000Y-82748001D01*
X186680000Y-82748001D02*
X186930000Y-82748001D01*
X186680000Y-82748001D02*
X186680000Y-82748001D01*
X186930000Y-82748001D02*
X186680000Y-82748001D01*
X186430000Y-82748001D02*
X186430000Y-82748001D01*
X186180000Y-82748001D02*
X186430000Y-82748001D01*
X186180000Y-82748001D02*
X186180000Y-82748001D01*
X186430000Y-82748001D02*
X186180000Y-82748001D01*
X185930000Y-82748001D02*
X185930000Y-82748001D01*
X185680000Y-82748001D02*
X185930000Y-82748001D01*
X185680000Y-82748001D02*
X185680000Y-82748001D01*
X185930000Y-82748001D02*
X185680000Y-82748001D01*
X185430000Y-82748001D02*
X185430000Y-82748001D01*
X185180000Y-82748001D02*
X185430000Y-82748001D01*
X185180000Y-82748001D02*
X185180000Y-82748001D01*
X185430000Y-82748001D02*
X185180000Y-82748001D01*
X184930000Y-82748001D02*
X184930000Y-82748001D01*
X184680000Y-82748001D02*
X184930000Y-82748001D01*
X184680000Y-82748001D02*
X184680000Y-82748001D01*
X184930000Y-82748001D02*
X184680000Y-82748001D01*
X184430000Y-82748001D02*
X184430000Y-82748001D01*
X184180000Y-82748001D02*
X184430000Y-82748001D01*
X184180000Y-82748001D02*
X184180000Y-82748001D01*
X184430000Y-82748001D02*
X184180000Y-82748001D01*
X183930000Y-82748001D02*
X183930000Y-82748001D01*
X183680000Y-82748001D02*
X183930000Y-82748001D01*
X183680000Y-82748001D02*
X183680000Y-82748001D01*
X183930000Y-82748001D02*
X183680000Y-82748001D01*
X183430000Y-82748001D02*
X183430000Y-82748001D01*
X183180000Y-82748001D02*
X183430000Y-82748001D01*
X183180000Y-82748001D02*
X183180000Y-82748001D01*
X183430000Y-82748001D02*
X183180000Y-82748001D01*
X182554999Y-82123000D02*
X182554999Y-82123000D01*
X182554999Y-81873000D02*
X182554999Y-82123000D01*
X182554999Y-81873000D02*
X182554999Y-81873000D01*
X182554999Y-82123000D02*
X182554999Y-81873000D01*
X182554999Y-81623000D02*
X182554999Y-81623000D01*
X182554999Y-81373000D02*
X182554999Y-81623000D01*
X182554999Y-81373000D02*
X182554999Y-81373000D01*
X182554999Y-81623000D02*
X182554999Y-81373000D01*
X182554999Y-81123000D02*
X182554999Y-81123000D01*
X182554999Y-80873000D02*
X182554999Y-81123000D01*
X182554999Y-80873000D02*
X182554999Y-80873000D01*
X182554999Y-81123000D02*
X182554999Y-80873000D01*
X182554999Y-80623000D02*
X182554999Y-80623000D01*
X182554999Y-80373000D02*
X182554999Y-80623000D01*
X182554999Y-80373000D02*
X182554999Y-80373000D01*
X182554999Y-80623000D02*
X182554999Y-80373000D01*
X182554999Y-80123000D02*
X182554999Y-80123000D01*
X182554999Y-79873000D02*
X182554999Y-80123000D01*
X182554999Y-79873000D02*
X182554999Y-79873000D01*
X182554999Y-80123000D02*
X182554999Y-79873000D01*
X182554999Y-79623000D02*
X182554999Y-79623000D01*
X182554999Y-79373000D02*
X182554999Y-79623000D01*
X182554999Y-79373000D02*
X182554999Y-79373000D01*
X182554999Y-79623000D02*
X182554999Y-79373000D01*
X182554999Y-79123000D02*
X182554999Y-79123000D01*
X182554999Y-78873000D02*
X182554999Y-79123000D01*
X182554999Y-78873000D02*
X182554999Y-78873000D01*
X182554999Y-79123000D02*
X182554999Y-78873000D01*
X182554999Y-78623000D02*
X182554999Y-78623000D01*
X182554999Y-78373000D02*
X182554999Y-78623000D01*
X182554999Y-78373000D02*
X182554999Y-78373000D01*
X182554999Y-78623000D02*
X182554999Y-78373000D01*
X182554999Y-78123000D02*
X182554999Y-78123000D01*
X182554999Y-77873000D02*
X182554999Y-78123000D01*
X182554999Y-77873000D02*
X182554999Y-77873000D01*
X182554999Y-78123000D02*
X182554999Y-77873000D01*
X182554999Y-77623000D02*
X182554999Y-77623000D01*
X182554999Y-77373000D02*
X182554999Y-77623000D01*
X182554999Y-77373000D02*
X182554999Y-77373000D01*
X182554999Y-77623000D02*
X182554999Y-77373000D01*
X182554999Y-77123000D02*
X182554999Y-77123000D01*
X182554999Y-76873000D02*
X182554999Y-77123000D01*
X182554999Y-76873000D02*
X182554999Y-76873000D01*
X182554999Y-77123000D02*
X182554999Y-76873000D01*
X182554999Y-76623000D02*
X182554999Y-76623000D01*
X182554999Y-76373000D02*
X182554999Y-76623000D01*
X182554999Y-76373000D02*
X182554999Y-76373000D01*
X182554999Y-76623000D02*
X182554999Y-76373000D01*
X183180000Y-75747999D02*
X183180000Y-75747999D01*
X183430000Y-75747999D02*
X183180000Y-75747999D01*
X183430000Y-75747999D02*
X183430000Y-75747999D01*
X183180000Y-75747999D02*
X183430000Y-75747999D01*
X183680000Y-75747999D02*
X183680000Y-75747999D01*
X183930000Y-75747999D02*
X183680000Y-75747999D01*
X183930000Y-75747999D02*
X183930000Y-75747999D01*
X183680000Y-75747999D02*
X183930000Y-75747999D01*
X184180000Y-75747999D02*
X184180000Y-75747999D01*
X184430000Y-75747999D02*
X184180000Y-75747999D01*
X184430000Y-75747999D02*
X184430000Y-75747999D01*
X184180000Y-75747999D02*
X184430000Y-75747999D01*
X184680000Y-75747999D02*
X184680000Y-75747999D01*
X184930000Y-75747999D02*
X184680000Y-75747999D01*
X184930000Y-75747999D02*
X184930000Y-75747999D01*
X184680000Y-75747999D02*
X184930000Y-75747999D01*
X185180000Y-75747999D02*
X185180000Y-75747999D01*
X185430000Y-75747999D02*
X185180000Y-75747999D01*
X185430000Y-75747999D02*
X185430000Y-75747999D01*
X185180000Y-75747999D02*
X185430000Y-75747999D01*
X185680000Y-75747999D02*
X185680000Y-75747999D01*
X185930000Y-75747999D02*
X185680000Y-75747999D01*
X185930000Y-75747999D02*
X185930000Y-75747999D01*
X185680000Y-75747999D02*
X185930000Y-75747999D01*
X186180000Y-75747999D02*
X186180000Y-75747999D01*
X186430000Y-75747999D02*
X186180000Y-75747999D01*
X186430000Y-75747999D02*
X186430000Y-75747999D01*
X186180000Y-75747999D02*
X186430000Y-75747999D01*
X186680000Y-75747999D02*
X186680000Y-75747999D01*
X186930000Y-75747999D02*
X186680000Y-75747999D01*
X186930000Y-75747999D02*
X186930000Y-75747999D01*
X186680000Y-75747999D02*
X186930000Y-75747999D01*
X187180000Y-75747999D02*
X187180000Y-75747999D01*
X187430000Y-75747999D02*
X187180000Y-75747999D01*
X187430000Y-75747999D02*
X187430000Y-75747999D01*
X187180000Y-75747999D02*
X187430000Y-75747999D01*
X187680000Y-75747999D02*
X187680000Y-75747999D01*
X187930000Y-75747999D02*
X187680000Y-75747999D01*
X187930000Y-75747999D02*
X187930000Y-75747999D01*
X187680000Y-75747999D02*
X187930000Y-75747999D01*
X188180000Y-75747999D02*
X188180000Y-75747999D01*
X188430000Y-75747999D02*
X188180000Y-75747999D01*
X188430000Y-75747999D02*
X188430000Y-75747999D01*
X188180000Y-75747999D02*
X188430000Y-75747999D01*
X188680000Y-75747999D02*
X188680000Y-75747999D01*
X188930000Y-75747999D02*
X188680000Y-75747999D01*
X188930000Y-75747999D02*
X188930000Y-75747999D01*
X188680000Y-75747999D02*
X188930000Y-75747999D01*
X182554999Y-77017999D02*
X183824999Y-75747999D01*
X158432500Y-92011500D02*
X164655500Y-92011500D01*
X158432500Y-85280500D02*
X158432500Y-92011500D01*
X164655500Y-85280500D02*
X158432500Y-85280500D01*
X164655500Y-92011500D02*
X164655500Y-85280500D01*
X165493700Y-88226900D02*
X164655500Y-88226900D01*
X165493700Y-89065100D02*
X165493700Y-88226900D01*
X164655500Y-89065100D02*
X165493700Y-89065100D01*
X168846500Y-85911499D02*
X164655500Y-85911499D01*
X168846500Y-86800499D02*
X168846500Y-85911499D01*
X164655500Y-86800499D02*
X168846500Y-86800499D01*
X164655500Y-85911499D02*
X164655500Y-86800499D01*
X168846500Y-90491501D02*
X164655500Y-90491501D01*
X168846500Y-91380501D02*
X168846500Y-90491501D01*
X164655500Y-91380501D02*
X168846500Y-91380501D01*
X164655500Y-90491501D02*
X164655500Y-91380501D01*
%TD*%
%TO.C,D1*%
D14*
X168019504Y-99814380D02*
X168019504Y-98814380D01*
X168257600Y-98814380D01*
X168400457Y-98862000D01*
X168495695Y-98957238D01*
X168543314Y-99052476D01*
X168590933Y-99242952D01*
X168590933Y-99385809D01*
X168543314Y-99576285D01*
X168495695Y-99671523D01*
X168400457Y-99766761D01*
X168257600Y-99814380D01*
X168019504Y-99814380D01*
X169543314Y-99814380D02*
X168971885Y-99814380D01*
X169257600Y-99814380D02*
X169257600Y-98814380D01*
X169162361Y-98957238D01*
X169067123Y-99052476D01*
X168971885Y-99100095D01*
%TO.C,M2*%
X190380880Y-86661523D02*
X189380880Y-86661523D01*
X190095166Y-86328190D01*
X189380880Y-85994857D01*
X190380880Y-85994857D01*
X189476119Y-85566285D02*
X189428500Y-85518666D01*
X189380880Y-85423428D01*
X189380880Y-85185333D01*
X189428500Y-85090095D01*
X189476119Y-85042476D01*
X189571357Y-84994857D01*
X189666595Y-84994857D01*
X189809452Y-85042476D01*
X190380880Y-85613904D01*
X190380880Y-84994857D01*
%TO.C,C1*%
D15*
X173923333Y-90820857D02*
X173904285Y-90839904D01*
X173847142Y-90858952D01*
X173809047Y-90858952D01*
X173751904Y-90839904D01*
X173713809Y-90801809D01*
X173694761Y-90763714D01*
X173675714Y-90687523D01*
X173675714Y-90630380D01*
X173694761Y-90554190D01*
X173713809Y-90516095D01*
X173751904Y-90478000D01*
X173809047Y-90458952D01*
X173847142Y-90458952D01*
X173904285Y-90478000D01*
X173923333Y-90497047D01*
X174304285Y-90858952D02*
X174075714Y-90858952D01*
X174190000Y-90858952D02*
X174190000Y-90458952D01*
X174151904Y-90516095D01*
X174113809Y-90554190D01*
X174075714Y-90573238D01*
%TO.C,C4*%
X177606333Y-90820857D02*
X177587285Y-90839904D01*
X177530142Y-90858952D01*
X177492047Y-90858952D01*
X177434904Y-90839904D01*
X177396809Y-90801809D01*
X177377761Y-90763714D01*
X177358714Y-90687523D01*
X177358714Y-90630380D01*
X177377761Y-90554190D01*
X177396809Y-90516095D01*
X177434904Y-90478000D01*
X177492047Y-90458952D01*
X177530142Y-90458952D01*
X177587285Y-90478000D01*
X177606333Y-90497047D01*
X177949190Y-90592285D02*
X177949190Y-90858952D01*
X177853952Y-90439904D02*
X177758714Y-90725619D01*
X178006333Y-90725619D01*
%TO.C,PINS*%
D14*
X152170000Y-68524380D02*
X152170000Y-67524380D01*
X152550952Y-67524380D01*
X152646190Y-67572000D01*
X152693809Y-67619619D01*
X152741428Y-67714857D01*
X152741428Y-67857714D01*
X152693809Y-67952952D01*
X152646190Y-68000571D01*
X152550952Y-68048190D01*
X152170000Y-68048190D01*
X153170000Y-68524380D02*
X153170000Y-67524380D01*
X153646190Y-68524380D02*
X153646190Y-67524380D01*
X154217619Y-68524380D01*
X154217619Y-67524380D01*
X154646190Y-68476761D02*
X154789047Y-68524380D01*
X155027142Y-68524380D01*
X155122380Y-68476761D01*
X155170000Y-68429142D01*
X155217619Y-68333904D01*
X155217619Y-68238666D01*
X155170000Y-68143428D01*
X155122380Y-68095809D01*
X155027142Y-68048190D01*
X154836666Y-68000571D01*
X154741428Y-67952952D01*
X154693809Y-67905333D01*
X154646190Y-67810095D01*
X154646190Y-67714857D01*
X154693809Y-67619619D01*
X154741428Y-67572000D01*
X154836666Y-67524380D01*
X155074761Y-67524380D01*
X155217619Y-67572000D01*
%TO.C,GND*%
X179578095Y-67572000D02*
X179482857Y-67524380D01*
X179340000Y-67524380D01*
X179197142Y-67572000D01*
X179101904Y-67667238D01*
X179054285Y-67762476D01*
X179006666Y-67952952D01*
X179006666Y-68095809D01*
X179054285Y-68286285D01*
X179101904Y-68381523D01*
X179197142Y-68476761D01*
X179340000Y-68524380D01*
X179435238Y-68524380D01*
X179578095Y-68476761D01*
X179625714Y-68429142D01*
X179625714Y-68095809D01*
X179435238Y-68095809D01*
X180054285Y-68524380D02*
X180054285Y-67524380D01*
X180625714Y-68524380D01*
X180625714Y-67524380D01*
X181101904Y-68524380D02*
X181101904Y-67524380D01*
X181340000Y-67524380D01*
X181482857Y-67572000D01*
X181578095Y-67667238D01*
X181625714Y-67762476D01*
X181673333Y-67952952D01*
X181673333Y-68095809D01*
X181625714Y-68286285D01*
X181578095Y-68381523D01*
X181482857Y-68476761D01*
X181340000Y-68524380D01*
X181101904Y-68524380D01*
%TO.C,M1*%
X182832476Y-86304380D02*
X182832476Y-85304380D01*
X183165809Y-86018666D01*
X183499142Y-85304380D01*
X183499142Y-86304380D01*
X184499142Y-86304380D02*
X183927714Y-86304380D01*
X184213428Y-86304380D02*
X184213428Y-85304380D01*
X184118190Y-85447238D01*
X184022952Y-85542476D01*
X183927714Y-85590095D01*
%TO.C,R1*%
D15*
X181289333Y-90858952D02*
X181156000Y-90668476D01*
X181060761Y-90858952D02*
X181060761Y-90458952D01*
X181213142Y-90458952D01*
X181251238Y-90478000D01*
X181270285Y-90497047D01*
X181289333Y-90535142D01*
X181289333Y-90592285D01*
X181270285Y-90630380D01*
X181251238Y-90649428D01*
X181213142Y-90668476D01*
X181060761Y-90668476D01*
X181670285Y-90858952D02*
X181441714Y-90858952D01*
X181556000Y-90858952D02*
X181556000Y-90458952D01*
X181517904Y-90516095D01*
X181479809Y-90554190D01*
X181441714Y-90573238D01*
%TO.C,R2*%
X184845333Y-90858952D02*
X184712000Y-90668476D01*
X184616761Y-90858952D02*
X184616761Y-90458952D01*
X184769142Y-90458952D01*
X184807238Y-90478000D01*
X184826285Y-90497047D01*
X184845333Y-90535142D01*
X184845333Y-90592285D01*
X184826285Y-90630380D01*
X184807238Y-90649428D01*
X184769142Y-90668476D01*
X184616761Y-90668476D01*
X184997714Y-90497047D02*
X185016761Y-90478000D01*
X185054857Y-90458952D01*
X185150095Y-90458952D01*
X185188190Y-90478000D01*
X185207238Y-90497047D01*
X185226285Y-90535142D01*
X185226285Y-90573238D01*
X185207238Y-90630380D01*
X184978666Y-90858952D01*
X185226285Y-90858952D01*
%TO.C,U1*%
D14*
X182955000Y-75700380D02*
X182955000Y-75938476D01*
X182716904Y-75843238D02*
X182955000Y-75938476D01*
X183193095Y-75843238D01*
X182812142Y-76128952D02*
X182955000Y-75938476D01*
X183097857Y-76128952D01*
X182955000Y-75700380D02*
X182955000Y-75938476D01*
X182716904Y-75843238D02*
X182955000Y-75938476D01*
X183193095Y-75843238D01*
X182812142Y-76128952D02*
X182955000Y-75938476D01*
X183097857Y-76128952D01*
X163853880Y-90936001D02*
X164091976Y-90936001D01*
X163996738Y-91174096D02*
X164091976Y-90936001D01*
X163996738Y-90697905D01*
X164282452Y-91078858D02*
X164091976Y-90936001D01*
X164282452Y-90793143D01*
%TD*%
M02*
