%TF.GenerationSoftware,KiCad,Pcbnew,(5.1.9-0-10_14)*%
%TF.CreationDate,2021-04-08T19:41:26-04:00*%
%TF.ProjectId,RoboCloud,526f626f-436c-46f7-9564-2e6b69636164,rev?*%
%TF.SameCoordinates,Original*%
%TF.FileFunction,Copper,L2,Bot*%
%TF.FilePolarity,Positive*%
%FSLAX46Y46*%
G04 Gerber Fmt 4.6, Leading zero omitted, Abs format (unit mm)*
G04 Created by KiCad (PCBNEW (5.1.9-0-10_14)) date 2021-04-08 19:41:26*
%MOMM*%
%LPD*%
G01*
G04 APERTURE LIST*
%TA.AperFunction,ComponentPad*%
%ADD10C,1.950000*%
%TD*%
%TA.AperFunction,ComponentPad*%
%ADD11R,1.950000X1.950000*%
%TD*%
%TA.AperFunction,ComponentPad*%
%ADD12R,2.000000X2.000000*%
%TD*%
%TA.AperFunction,ComponentPad*%
%ADD13O,2.000000X2.000000*%
%TD*%
%TA.AperFunction,ComponentPad*%
%ADD14O,1.700000X1.700000*%
%TD*%
%TA.AperFunction,ComponentPad*%
%ADD15R,1.700000X1.700000*%
%TD*%
%TA.AperFunction,ComponentPad*%
%ADD16O,0.800000X1.400000*%
%TD*%
%TA.AperFunction,ViaPad*%
%ADD17C,3.200000*%
%TD*%
%TA.AperFunction,ViaPad*%
%ADD18C,0.800000*%
%TD*%
%TA.AperFunction,ViaPad*%
%ADD19C,0.400000*%
%TD*%
%TA.AperFunction,ViaPad*%
%ADD20C,0.450000*%
%TD*%
%TA.AperFunction,Conductor*%
%ADD21C,1.600000*%
%TD*%
%TA.AperFunction,Conductor*%
%ADD22C,0.250000*%
%TD*%
%TA.AperFunction,Conductor*%
%ADD23C,0.800000*%
%TD*%
%TA.AperFunction,Conductor*%
%ADD24C,1.200000*%
%TD*%
%TA.AperFunction,Conductor*%
%ADD25C,0.200000*%
%TD*%
%TA.AperFunction,Conductor*%
%ADD26C,0.254000*%
%TD*%
%TA.AperFunction,Conductor*%
%ADD27C,0.100000*%
%TD*%
G04 APERTURE END LIST*
D10*
%TO.P,J2,2*%
%TO.N,GND*%
X193040000Y-95758000D03*
D11*
%TO.P,J2,1*%
%TO.N,Net-(C2-Pad1)*%
X193040000Y-100838000D03*
%TD*%
D12*
%TO.P,D1,1*%
%TO.N,Net-(C2-Pad1)*%
X166217600Y-103632000D03*
D13*
%TO.P,D1,2*%
%TO.N,Net-(D1-Pad2)*%
X171297600Y-103632000D03*
%TD*%
D14*
%TO.P,M2,2*%
%TO.N,Net-(M2-Pad2)*%
X191198500Y-85852000D03*
D15*
%TO.P,M2,1*%
%TO.N,Net-(M2-Pad1)*%
X188658500Y-85852000D03*
%TD*%
%TO.P,PINS,1*%
%TO.N,Net-(J1-Pad1)*%
X134620000Y-68072000D03*
D14*
%TO.P,PINS,2*%
%TO.N,Net-(J1-Pad2)*%
X137160000Y-68072000D03*
%TO.P,PINS,3*%
%TO.N,Net-(J1-Pad3)*%
X139700000Y-68072000D03*
%TO.P,PINS,4*%
%TO.N,Net-(J1-Pad4)*%
X142240000Y-68072000D03*
%TO.P,PINS,5*%
%TO.N,Net-(J1-Pad5)*%
X144780000Y-68072000D03*
%TO.P,PINS,6*%
%TO.N,Net-(J1-Pad6)*%
X147320000Y-68072000D03*
%TO.P,PINS,7*%
%TO.N,Net-(J1-Pad7)*%
X149860000Y-68072000D03*
%TO.P,PINS,8*%
%TO.N,Net-(J1-Pad8)*%
X152400000Y-68072000D03*
%TO.P,PINS,9*%
%TO.N,Net-(J1-Pad9)*%
X154940000Y-68072000D03*
%TO.P,PINS,10*%
%TO.N,Net-(J1-Pad10)*%
X157480000Y-68072000D03*
%TO.P,PINS,11*%
%TO.N,Net-(J1-Pad11)*%
X160020000Y-68072000D03*
%TO.P,PINS,12*%
%TO.N,Net-(J1-Pad12)*%
X162560000Y-68072000D03*
%TO.P,PINS,13*%
%TO.N,Net-(J1-Pad13)*%
X165100000Y-68072000D03*
%TO.P,PINS,14*%
%TO.N,Net-(J1-Pad14)*%
X167640000Y-68072000D03*
%TO.P,PINS,15*%
%TO.N,Net-(J1-Pad15)*%
X170180000Y-68072000D03*
%TO.P,PINS,16*%
%TO.N,Net-(J1-Pad16)*%
X172720000Y-68072000D03*
%TD*%
D16*
%TO.P,J3,S1*%
%TO.N,GND*%
X134554000Y-104586000D03*
X142814000Y-104586000D03*
X143174000Y-110536000D03*
X134194000Y-110536000D03*
%TD*%
D15*
%TO.P,GND,1*%
%TO.N,GND*%
X179070000Y-68072000D03*
D14*
%TO.P,GND,2*%
X181610000Y-68072000D03*
%TD*%
%TO.P,M1,2*%
%TO.N,Net-(M1-Pad2)*%
X184912000Y-85852000D03*
D15*
%TO.P,M1,1*%
%TO.N,Net-(M1-Pad1)*%
X182372000Y-85852000D03*
%TD*%
D17*
%TO.N,Net-(C2-Pad1)*%
X179425600Y-81280000D03*
X191820800Y-82042000D03*
X183159400Y-99631500D03*
D18*
%TO.N,Net-(C4-Pad2)*%
X181406800Y-76504800D03*
X191516000Y-78105000D03*
X187452000Y-90424000D03*
D17*
%TO.N,Net-(D1-Pad2)*%
X164719000Y-96012000D03*
X171958000Y-86360000D03*
D18*
%TO.N,Net-(J3-PadA6)*%
X137668000Y-100711000D03*
X153162000Y-87122000D03*
%TO.N,Net-(J3-PadA7)*%
X153162000Y-88646000D03*
X138049000Y-105410000D03*
X138938000Y-101600000D03*
%TO.N,Net-(J3-PadB5)*%
X133477000Y-105791000D03*
D19*
X139192000Y-103632000D03*
D18*
%TO.N,Net-(R1-Pad2)*%
X182245000Y-89408000D03*
X195051459Y-80010000D03*
%TO.N,Net-(U1-Pad39)*%
X153543000Y-99441000D03*
D20*
X187947300Y-74968100D03*
%TO.N,Net-(U1-Pad40)*%
X187337700Y-74930000D03*
D18*
X152527000Y-99441000D03*
D20*
%TO.N,Net-(U1-Pad41)*%
X186829700Y-74930000D03*
D18*
X156083000Y-96139000D03*
D20*
%TO.N,Net-(U1-Pad42)*%
X186296300Y-74891900D03*
D18*
X156083000Y-94615000D03*
D20*
%TO.N,Net-(U1-Pad43)*%
X185801000Y-74930000D03*
D18*
X156083000Y-93091000D03*
D20*
%TO.N,Net-(U1-Pad44)*%
X185229500Y-74828400D03*
D18*
X156083000Y-91694000D03*
D20*
%TO.N,GND*%
X136448800Y-103530400D03*
D18*
X195840584Y-81478394D03*
X151130000Y-93980000D03*
X176530000Y-76200000D03*
D19*
X132080000Y-102616000D03*
D18*
X160845500Y-96266000D03*
X151130000Y-99822000D03*
D20*
X141033500Y-103568500D03*
D18*
X135763000Y-94742000D03*
%TO.N,Net-(C4-Pad1)*%
X176784000Y-89027000D03*
X184023000Y-83693000D03*
X180721000Y-89408000D03*
%TD*%
D21*
%TO.N,Net-(C2-Pad1)*%
X183159400Y-99631500D02*
X173837600Y-90309700D01*
X173837600Y-90309700D02*
X173837600Y-89103200D01*
X179425600Y-83515200D02*
X179425600Y-81280000D01*
X173837600Y-89103200D02*
X179425600Y-83515200D01*
D22*
X191058800Y-81280000D02*
X191820800Y-82042000D01*
D23*
X179425600Y-81280000D02*
X191058800Y-81280000D01*
D22*
%TO.N,Net-(C4-Pad2)*%
X189915800Y-76504800D02*
X191516000Y-78105000D01*
X181406800Y-76504800D02*
X189915800Y-76504800D01*
X195173600Y-82499200D02*
X195173600Y-81762600D01*
X190634499Y-84676999D02*
X191762501Y-84676999D01*
X190023499Y-86416001D02*
X190023499Y-85287999D01*
X190023499Y-86633301D02*
X190132149Y-86524651D01*
X195173600Y-81762600D02*
X191516000Y-78105000D01*
X190023499Y-87852501D02*
X190023499Y-86633301D01*
X192887600Y-83769200D02*
X193903600Y-83769200D01*
X187452000Y-90424000D02*
X190023499Y-87852501D01*
X191871151Y-84785649D02*
X192887600Y-83769200D01*
X190023499Y-85287999D02*
X190634499Y-84676999D01*
X193903600Y-83769200D02*
X195173600Y-82499200D01*
X191762501Y-84676999D02*
X191871151Y-84785649D01*
X190132149Y-86524651D02*
X190023499Y-86416001D01*
D21*
%TO.N,Net-(D1-Pad2)*%
X164719000Y-93599000D02*
X171958000Y-86360000D01*
X164719000Y-96012000D02*
X164719000Y-93599000D01*
D22*
X164719000Y-97053400D02*
X164719000Y-96012000D01*
D24*
X171297600Y-103632000D02*
X164719000Y-97053400D01*
D22*
%TO.N,Net-(J3-PadA6)*%
X151892000Y-87122000D02*
X153162000Y-87122000D01*
X137668000Y-100711000D02*
X151892000Y-87122000D01*
%TO.N,Net-(J3-PadA7)*%
X140208000Y-101600000D02*
X153162000Y-88646000D01*
X138938000Y-101600000D02*
X140208000Y-101600000D01*
X138787910Y-104798090D02*
X138176000Y-105410000D01*
X138787910Y-103983912D02*
X138787910Y-104798090D01*
X138766999Y-103554999D02*
X138766999Y-103963001D01*
X138938000Y-101600000D02*
X138787910Y-101750090D01*
X138766999Y-103963001D02*
X138787910Y-103983912D01*
X138787910Y-103534088D02*
X138766999Y-103554999D01*
X138787910Y-101750090D02*
X138787910Y-103534088D01*
%TO.N,Net-(J3-PadB5)*%
X139237920Y-105294082D02*
X139237920Y-103632000D01*
X138341003Y-106190999D02*
X139237920Y-105294082D01*
X133876999Y-106190999D02*
X138341003Y-106190999D01*
X133477000Y-105791000D02*
X133876999Y-106190999D01*
%TO.N,Net-(R1-Pad2)*%
X195617144Y-80010000D02*
X195051459Y-80010000D01*
X182245000Y-89408000D02*
X183986001Y-91149001D01*
X187800001Y-91149001D02*
X196565585Y-82383417D01*
X183986001Y-91149001D02*
X187800001Y-91149001D01*
X196565585Y-82383417D02*
X196565585Y-80958441D01*
X196565585Y-80958441D02*
X195617144Y-80010000D01*
%TO.N,Net-(U1-Pad39)*%
X187902010Y-74030031D02*
X187947300Y-74968100D01*
X186324941Y-72452962D02*
X187902010Y-74030031D01*
X136778999Y-102685999D02*
X138589999Y-100874999D01*
X153543000Y-100006685D02*
X146908677Y-106641008D01*
X139859999Y-100874999D02*
X152813999Y-87920999D01*
X154323593Y-87920999D02*
X169791631Y-72452961D01*
X132751999Y-104705999D02*
X134771999Y-102685999D01*
X132751999Y-106139001D02*
X132751999Y-104705999D01*
X152813999Y-87920999D02*
X154323593Y-87920999D01*
X138589999Y-100874999D02*
X139859999Y-100874999D01*
X146908677Y-106641008D02*
X133254006Y-106641008D01*
X134771999Y-102685999D02*
X136778999Y-102685999D01*
X133254006Y-106641008D02*
X132751999Y-106139001D01*
X169791631Y-72452961D02*
X186324941Y-72452962D01*
X153543000Y-99441000D02*
X153543000Y-100006685D01*
X187947300Y-74968100D02*
X187947300Y-74968100D01*
%TO.N,Net-(U1-Pad40)*%
X186138540Y-72902971D02*
X169978031Y-72902971D01*
X187325000Y-74089431D02*
X186138540Y-72902971D01*
X152527000Y-90354002D02*
X152527000Y-99441000D01*
X169978031Y-72902971D02*
X152527000Y-90354002D01*
X187325000Y-74739500D02*
X187325000Y-74089431D01*
%TO.N,Net-(U1-Pad41)*%
X186817000Y-74217841D02*
X186817000Y-74752200D01*
X185952139Y-73352980D02*
X186817000Y-74217841D01*
X172078199Y-73352979D02*
X185952139Y-73352980D01*
X156083000Y-96139000D02*
X154457981Y-94513981D01*
X154457981Y-90973197D02*
X172078199Y-73352979D01*
X154457981Y-94513981D02*
X154457981Y-90973197D01*
%TO.N,Net-(U1-Pad42)*%
X186309000Y-74346251D02*
X186309000Y-74752200D01*
X185765738Y-73802989D02*
X186309000Y-74346251D01*
X154907990Y-91159598D02*
X172264599Y-73802989D01*
X154907990Y-93439990D02*
X154907990Y-91159598D01*
X172264599Y-73802989D02*
X185765738Y-73802989D01*
X156083000Y-94615000D02*
X154907990Y-93439990D01*
%TO.N,Net-(U1-Pad43)*%
X185557001Y-74252999D02*
X185801000Y-74549000D01*
X172450999Y-74252999D02*
X185557001Y-74252999D01*
X155357999Y-91345999D02*
X172450999Y-74252999D01*
X155357999Y-92365999D02*
X155357999Y-91345999D01*
X156083000Y-93091000D02*
X155357999Y-92365999D01*
X185801000Y-74573198D02*
X185746299Y-74627899D01*
X185801000Y-74549000D02*
X185801000Y-74573198D01*
X185746299Y-74627899D02*
X185746299Y-74853800D01*
%TO.N,Net-(U1-Pad44)*%
X172974000Y-74803000D02*
X185250999Y-74803000D01*
X156083000Y-91694000D02*
X172974000Y-74803000D01*
D25*
%TO.N,GND*%
X195840584Y-81828530D02*
X194310000Y-80297946D01*
X195840584Y-81478394D02*
X195840584Y-81828530D01*
X194310000Y-80297946D02*
X194310000Y-78740000D01*
D22*
%TO.N,Net-(C4-Pad1)*%
X183547001Y-87032997D02*
X181171998Y-89408000D01*
X183547001Y-84168999D02*
X183547001Y-87032997D01*
X181171998Y-89408000D02*
X180721000Y-89408000D01*
X184023000Y-83693000D02*
X183547001Y-84168999D01*
X177165000Y-89408000D02*
X176784000Y-89027000D01*
X180721000Y-89408000D02*
X177165000Y-89408000D01*
%TD*%
D26*
%TO.N,GND*%
X196723000Y-80041054D02*
X196180948Y-79499002D01*
X196157145Y-79469999D01*
X196041420Y-79375026D01*
X195909391Y-79304454D01*
X195766183Y-79261013D01*
X195711233Y-79206063D01*
X195541715Y-79092795D01*
X195353357Y-79014774D01*
X195153398Y-78975000D01*
X194949520Y-78975000D01*
X194749561Y-79014774D01*
X194561203Y-79092795D01*
X194391685Y-79206063D01*
X194247522Y-79350226D01*
X194134254Y-79519744D01*
X194096556Y-79610754D01*
X192551000Y-78065199D01*
X192551000Y-78003061D01*
X192511226Y-77803102D01*
X192433205Y-77614744D01*
X192319937Y-77445226D01*
X192175774Y-77301063D01*
X192006256Y-77187795D01*
X191817898Y-77109774D01*
X191617939Y-77070000D01*
X191555802Y-77070000D01*
X190479604Y-75993803D01*
X190455801Y-75964799D01*
X190340076Y-75869826D01*
X190208047Y-75799254D01*
X190064786Y-75755797D01*
X189953133Y-75744800D01*
X189953122Y-75744800D01*
X189915800Y-75741124D01*
X189878478Y-75744800D01*
X188319469Y-75744800D01*
X188354663Y-75730222D01*
X188495518Y-75636105D01*
X188615305Y-75516318D01*
X188709422Y-75375463D01*
X188774251Y-75218953D01*
X188807300Y-75052803D01*
X188807300Y-74883397D01*
X188774251Y-74717247D01*
X188709422Y-74560737D01*
X188686889Y-74527015D01*
X188663813Y-74049047D01*
X188665686Y-74030030D01*
X188660211Y-73974441D01*
X188659325Y-73956092D01*
X188656551Y-73937284D01*
X188651012Y-73881044D01*
X188645650Y-73863369D01*
X188642956Y-73845099D01*
X188623963Y-73791874D01*
X188607555Y-73737784D01*
X188598848Y-73721495D01*
X188592641Y-73704100D01*
X188563624Y-73655595D01*
X188536983Y-73605754D01*
X188525267Y-73591478D01*
X188515785Y-73575628D01*
X188477872Y-73533727D01*
X188465809Y-73519028D01*
X188452815Y-73506034D01*
X188415341Y-73464618D01*
X188400004Y-73453224D01*
X186888740Y-71941960D01*
X186864942Y-71912962D01*
X186835942Y-71889162D01*
X186749217Y-71817988D01*
X186617187Y-71747416D01*
X186517383Y-71717142D01*
X186473927Y-71703960D01*
X186362274Y-71692963D01*
X186324941Y-71689286D01*
X186287609Y-71692963D01*
X169828953Y-71692961D01*
X169791630Y-71689285D01*
X169754307Y-71692961D01*
X169754299Y-71692961D01*
X169642646Y-71703958D01*
X169561763Y-71728493D01*
X169499384Y-71747415D01*
X169367354Y-71817987D01*
X169280628Y-71889162D01*
X169280624Y-71889166D01*
X169251631Y-71912960D01*
X169227837Y-71941953D01*
X154189157Y-86980634D01*
X154157226Y-86820102D01*
X154079205Y-86631744D01*
X153965937Y-86462226D01*
X153821774Y-86318063D01*
X153652256Y-86204795D01*
X153463898Y-86126774D01*
X153263939Y-86087000D01*
X153060061Y-86087000D01*
X152860102Y-86126774D01*
X152671744Y-86204795D01*
X152502226Y-86318063D01*
X152458289Y-86362000D01*
X151938027Y-86362000D01*
X151909431Y-86358523D01*
X151863370Y-86362000D01*
X151854667Y-86362000D01*
X151826108Y-86364813D01*
X151760148Y-86369792D01*
X151751722Y-86372139D01*
X151743014Y-86372997D01*
X151679669Y-86392212D01*
X151615933Y-86409968D01*
X151608128Y-86413913D01*
X151599753Y-86416454D01*
X151541370Y-86447661D01*
X151482327Y-86477508D01*
X151475440Y-86482902D01*
X151467724Y-86487026D01*
X151416569Y-86529008D01*
X151393999Y-86546684D01*
X151387714Y-86552689D01*
X151351999Y-86581999D01*
X151333720Y-86604272D01*
X137651165Y-99676000D01*
X137566061Y-99676000D01*
X137366102Y-99715774D01*
X137177744Y-99793795D01*
X137008226Y-99907063D01*
X136864063Y-100051226D01*
X136750795Y-100220744D01*
X136672774Y-100409102D01*
X136633000Y-100609061D01*
X136633000Y-100812939D01*
X136672774Y-101012898D01*
X136750795Y-101201256D01*
X136864063Y-101370774D01*
X136941743Y-101448454D01*
X136464198Y-101925999D01*
X134809321Y-101925999D01*
X134771998Y-101922323D01*
X134734675Y-101925999D01*
X134734666Y-101925999D01*
X134623013Y-101936996D01*
X134479752Y-101980453D01*
X134347723Y-102051025D01*
X134347721Y-102051026D01*
X134347722Y-102051026D01*
X134260995Y-102122200D01*
X134260991Y-102122204D01*
X134231998Y-102145998D01*
X134208204Y-102174991D01*
X132240997Y-104142200D01*
X132211999Y-104165998D01*
X132188201Y-104194996D01*
X132188200Y-104194997D01*
X132117025Y-104281723D01*
X132046453Y-104413753D01*
X132002997Y-104557014D01*
X131988323Y-104705999D01*
X131992000Y-104743331D01*
X131991999Y-106101678D01*
X131988323Y-106139001D01*
X131991999Y-106176323D01*
X131991999Y-106176333D01*
X132002996Y-106287986D01*
X132021432Y-106348761D01*
X132046453Y-106431247D01*
X132117025Y-106563277D01*
X132143008Y-106594937D01*
X132211998Y-106679002D01*
X132241002Y-106702805D01*
X132690202Y-107152005D01*
X132714005Y-107181009D01*
X132787152Y-107241039D01*
X132829729Y-107275982D01*
X132961759Y-107346554D01*
X133105020Y-107390011D01*
X133216673Y-107401008D01*
X133216682Y-107401008D01*
X133254005Y-107404684D01*
X133291328Y-107401008D01*
X146871355Y-107401008D01*
X146908677Y-107404684D01*
X146945999Y-107401008D01*
X146946010Y-107401008D01*
X147057663Y-107390011D01*
X147200924Y-107346554D01*
X147332953Y-107275982D01*
X147448678Y-107181009D01*
X147472481Y-107152005D01*
X151992486Y-102632000D01*
X164579528Y-102632000D01*
X164579528Y-104632000D01*
X164591788Y-104756482D01*
X164628098Y-104876180D01*
X164687063Y-104986494D01*
X164766415Y-105083185D01*
X164863106Y-105162537D01*
X164973420Y-105221502D01*
X165093118Y-105257812D01*
X165217600Y-105270072D01*
X167217600Y-105270072D01*
X167342082Y-105257812D01*
X167461780Y-105221502D01*
X167572094Y-105162537D01*
X167668785Y-105083185D01*
X167748137Y-104986494D01*
X167807102Y-104876180D01*
X167843412Y-104756482D01*
X167855672Y-104632000D01*
X167855672Y-102632000D01*
X167843412Y-102507518D01*
X167807102Y-102387820D01*
X167748137Y-102277506D01*
X167668785Y-102180815D01*
X167572094Y-102101463D01*
X167461780Y-102042498D01*
X167342082Y-102006188D01*
X167217600Y-101993928D01*
X165217600Y-101993928D01*
X165093118Y-102006188D01*
X164973420Y-102042498D01*
X164863106Y-102101463D01*
X164766415Y-102180815D01*
X164687063Y-102277506D01*
X164628098Y-102387820D01*
X164591788Y-102507518D01*
X164579528Y-102632000D01*
X151992486Y-102632000D01*
X154054003Y-100570484D01*
X154083001Y-100546686D01*
X154177974Y-100430961D01*
X154248546Y-100298932D01*
X154291987Y-100155724D01*
X154346937Y-100100774D01*
X154460205Y-99931256D01*
X154538226Y-99742898D01*
X154578000Y-99542939D01*
X154578000Y-99339061D01*
X154538226Y-99139102D01*
X154460205Y-98950744D01*
X154346937Y-98781226D01*
X154202774Y-98637063D01*
X154033256Y-98523795D01*
X153844898Y-98445774D01*
X153644939Y-98406000D01*
X153441061Y-98406000D01*
X153287000Y-98436644D01*
X153287000Y-90668803D01*
X170292833Y-73662971D01*
X170693405Y-73662971D01*
X153946979Y-90409398D01*
X153917981Y-90433196D01*
X153894183Y-90462194D01*
X153894182Y-90462195D01*
X153823007Y-90548921D01*
X153752435Y-90680951D01*
X153708979Y-90824212D01*
X153694305Y-90973197D01*
X153697982Y-91010529D01*
X153697981Y-94476658D01*
X153694305Y-94513981D01*
X153697981Y-94551303D01*
X153697981Y-94551313D01*
X153708978Y-94662966D01*
X153752435Y-94806227D01*
X153823007Y-94938257D01*
X153862852Y-94986807D01*
X153917980Y-95053982D01*
X153946984Y-95077785D01*
X155048000Y-96178802D01*
X155048000Y-96240939D01*
X155087774Y-96440898D01*
X155165795Y-96629256D01*
X155279063Y-96798774D01*
X155423226Y-96942937D01*
X155592744Y-97056205D01*
X155781102Y-97134226D01*
X155981061Y-97174000D01*
X156184939Y-97174000D01*
X156384898Y-97134226D01*
X156573256Y-97056205D01*
X156742774Y-96942937D01*
X156886937Y-96798774D01*
X157000205Y-96629256D01*
X157078226Y-96440898D01*
X157118000Y-96240939D01*
X157118000Y-96037061D01*
X157078226Y-95837102D01*
X157000205Y-95648744D01*
X156886937Y-95479226D01*
X156784711Y-95377000D01*
X156886937Y-95274774D01*
X157000205Y-95105256D01*
X157078226Y-94916898D01*
X157118000Y-94716939D01*
X157118000Y-94513061D01*
X157078226Y-94313102D01*
X157000205Y-94124744D01*
X156886937Y-93955226D01*
X156784711Y-93853000D01*
X156886937Y-93750774D01*
X157000205Y-93581256D01*
X157078226Y-93392898D01*
X157118000Y-93192939D01*
X157118000Y-92989061D01*
X157078226Y-92789102D01*
X157000205Y-92600744D01*
X156886937Y-92431226D01*
X156848211Y-92392500D01*
X156886937Y-92353774D01*
X157000205Y-92184256D01*
X157078226Y-91995898D01*
X157118000Y-91795939D01*
X157118000Y-91733801D01*
X173288802Y-75563000D01*
X180975921Y-75563000D01*
X180916544Y-75587595D01*
X180747026Y-75700863D01*
X180602863Y-75845026D01*
X180489595Y-76014544D01*
X180411574Y-76202902D01*
X180371800Y-76402861D01*
X180371800Y-76606739D01*
X180411574Y-76806698D01*
X180489595Y-76995056D01*
X180602863Y-77164574D01*
X180747026Y-77308737D01*
X180916544Y-77422005D01*
X181104902Y-77500026D01*
X181304861Y-77539800D01*
X181508739Y-77539800D01*
X181708698Y-77500026D01*
X181897056Y-77422005D01*
X182066574Y-77308737D01*
X182110511Y-77264800D01*
X189600999Y-77264800D01*
X190481000Y-78144802D01*
X190481000Y-78206939D01*
X190520774Y-78406898D01*
X190598795Y-78595256D01*
X190712063Y-78764774D01*
X190856226Y-78908937D01*
X191025744Y-79022205D01*
X191214102Y-79100226D01*
X191414061Y-79140000D01*
X191476199Y-79140000D01*
X192168593Y-79832394D01*
X192040928Y-79807000D01*
X191600672Y-79807000D01*
X191168875Y-79892890D01*
X190762131Y-80061369D01*
X190487307Y-80245000D01*
X181416035Y-80245000D01*
X181406231Y-80221331D01*
X181161638Y-79855271D01*
X180850329Y-79543962D01*
X180484269Y-79299369D01*
X180077525Y-79130890D01*
X179645728Y-79045000D01*
X179205472Y-79045000D01*
X178773675Y-79130890D01*
X178366931Y-79299369D01*
X178000871Y-79543962D01*
X177689562Y-79855271D01*
X177444969Y-80221331D01*
X177276490Y-80628075D01*
X177190600Y-81059872D01*
X177190600Y-81500128D01*
X177276490Y-81931925D01*
X177444969Y-82338669D01*
X177689562Y-82704729D01*
X177948118Y-82963285D01*
X174158665Y-86752739D01*
X174193000Y-86580128D01*
X174193000Y-86139872D01*
X174107110Y-85708075D01*
X173938631Y-85301331D01*
X173694038Y-84935271D01*
X173382729Y-84623962D01*
X173016669Y-84379369D01*
X172609925Y-84210890D01*
X172178128Y-84125000D01*
X171737872Y-84125000D01*
X171306075Y-84210890D01*
X170899331Y-84379369D01*
X170533271Y-84623962D01*
X170221962Y-84935271D01*
X169977369Y-85301331D01*
X169808890Y-85708075D01*
X169723000Y-86139872D01*
X169723000Y-86565604D01*
X163754155Y-92534450D01*
X163699393Y-92579392D01*
X163520069Y-92797899D01*
X163519613Y-92798753D01*
X163386818Y-93047193D01*
X163304764Y-93317692D01*
X163277057Y-93599000D01*
X163284001Y-93669502D01*
X163284001Y-94286232D01*
X162982962Y-94587271D01*
X162738369Y-94953331D01*
X162569890Y-95360075D01*
X162484000Y-95791872D01*
X162484000Y-96232128D01*
X162569890Y-96663925D01*
X162738369Y-97070669D01*
X162982962Y-97436729D01*
X163294271Y-97748038D01*
X163660331Y-97992631D01*
X164067075Y-98161110D01*
X164083405Y-98164358D01*
X169662600Y-103743554D01*
X169662600Y-103793033D01*
X169725432Y-104108912D01*
X169848682Y-104406463D01*
X170027613Y-104674252D01*
X170255348Y-104901987D01*
X170523137Y-105080918D01*
X170820688Y-105204168D01*
X171136567Y-105267000D01*
X171458633Y-105267000D01*
X171774512Y-105204168D01*
X172072063Y-105080918D01*
X172339852Y-104901987D01*
X172567587Y-104674252D01*
X172746518Y-104406463D01*
X172869768Y-104108912D01*
X172932600Y-103793033D01*
X172932600Y-103470967D01*
X172869768Y-103155088D01*
X172746518Y-102857537D01*
X172567587Y-102589748D01*
X172339852Y-102362013D01*
X172072063Y-102183082D01*
X171774512Y-102059832D01*
X171458633Y-101997000D01*
X171409154Y-101997000D01*
X166612790Y-97200637D01*
X166699631Y-97070669D01*
X166868110Y-96663925D01*
X166954000Y-96232128D01*
X166954000Y-95791872D01*
X166868110Y-95360075D01*
X166699631Y-94953331D01*
X166455038Y-94587271D01*
X166154000Y-94286233D01*
X166154000Y-94193395D01*
X171752396Y-88595000D01*
X172178128Y-88595000D01*
X172518274Y-88527341D01*
X172505418Y-88551392D01*
X172423364Y-88821891D01*
X172411904Y-88938247D01*
X172395657Y-89103200D01*
X172402600Y-89173692D01*
X172402600Y-90239208D01*
X172395657Y-90309700D01*
X172406915Y-90424000D01*
X172423364Y-90591008D01*
X172505418Y-90861507D01*
X172638668Y-91110800D01*
X172817992Y-91329307D01*
X172872755Y-91374250D01*
X180924400Y-99425896D01*
X180924400Y-99851628D01*
X181010290Y-100283425D01*
X181178769Y-100690169D01*
X181423362Y-101056229D01*
X181734671Y-101367538D01*
X182100731Y-101612131D01*
X182507475Y-101780610D01*
X182939272Y-101866500D01*
X183379528Y-101866500D01*
X183811325Y-101780610D01*
X184218069Y-101612131D01*
X184584129Y-101367538D01*
X184895438Y-101056229D01*
X185140031Y-100690169D01*
X185308510Y-100283425D01*
X185392137Y-99863000D01*
X191426928Y-99863000D01*
X191426928Y-101813000D01*
X191439188Y-101937482D01*
X191475498Y-102057180D01*
X191534463Y-102167494D01*
X191613815Y-102264185D01*
X191710506Y-102343537D01*
X191820820Y-102402502D01*
X191940518Y-102438812D01*
X192065000Y-102451072D01*
X194015000Y-102451072D01*
X194139482Y-102438812D01*
X194259180Y-102402502D01*
X194369494Y-102343537D01*
X194466185Y-102264185D01*
X194545537Y-102167494D01*
X194604502Y-102057180D01*
X194640812Y-101937482D01*
X194653072Y-101813000D01*
X194653072Y-99863000D01*
X194640812Y-99738518D01*
X194604502Y-99618820D01*
X194545537Y-99508506D01*
X194466185Y-99411815D01*
X194369494Y-99332463D01*
X194259180Y-99273498D01*
X194139482Y-99237188D01*
X194015000Y-99224928D01*
X192065000Y-99224928D01*
X191940518Y-99237188D01*
X191820820Y-99273498D01*
X191710506Y-99332463D01*
X191613815Y-99411815D01*
X191534463Y-99508506D01*
X191475498Y-99618820D01*
X191439188Y-99738518D01*
X191426928Y-99863000D01*
X185392137Y-99863000D01*
X185394400Y-99851628D01*
X185394400Y-99411372D01*
X185308510Y-98979575D01*
X185140031Y-98572831D01*
X184895438Y-98206771D01*
X184584129Y-97895462D01*
X184218069Y-97650869D01*
X183811325Y-97482390D01*
X183379528Y-97396500D01*
X182953796Y-97396500D01*
X182432880Y-96875584D01*
X192102021Y-96875584D01*
X192194766Y-97137429D01*
X192480120Y-97275820D01*
X192786990Y-97355883D01*
X193103584Y-97374540D01*
X193417733Y-97331074D01*
X193717367Y-97227156D01*
X193885234Y-97137429D01*
X193977979Y-96875584D01*
X193040000Y-95937605D01*
X192102021Y-96875584D01*
X182432880Y-96875584D01*
X181378880Y-95821584D01*
X191423460Y-95821584D01*
X191466926Y-96135733D01*
X191570844Y-96435367D01*
X191660571Y-96603234D01*
X191922416Y-96695979D01*
X192860395Y-95758000D01*
X193219605Y-95758000D01*
X194157584Y-96695979D01*
X194419429Y-96603234D01*
X194557820Y-96317880D01*
X194637883Y-96011010D01*
X194656540Y-95694416D01*
X194613074Y-95380267D01*
X194509156Y-95080633D01*
X194419429Y-94912766D01*
X194157584Y-94820021D01*
X193219605Y-95758000D01*
X192860395Y-95758000D01*
X191922416Y-94820021D01*
X191660571Y-94912766D01*
X191522180Y-95198120D01*
X191442117Y-95504990D01*
X191423460Y-95821584D01*
X181378880Y-95821584D01*
X180197712Y-94640416D01*
X192102021Y-94640416D01*
X193040000Y-95578395D01*
X193977979Y-94640416D01*
X193885234Y-94378571D01*
X193599880Y-94240180D01*
X193293010Y-94160117D01*
X192976416Y-94141460D01*
X192662267Y-94184926D01*
X192362633Y-94288844D01*
X192194766Y-94378571D01*
X192102021Y-94640416D01*
X180197712Y-94640416D01*
X175272600Y-89715305D01*
X175272600Y-89697595D01*
X175764306Y-89205889D01*
X175788774Y-89328898D01*
X175866795Y-89517256D01*
X175980063Y-89686774D01*
X176124226Y-89830937D01*
X176293744Y-89944205D01*
X176482102Y-90022226D01*
X176682061Y-90062000D01*
X176776319Y-90062000D01*
X176872753Y-90113546D01*
X177016014Y-90157003D01*
X177127667Y-90168000D01*
X177127676Y-90168000D01*
X177164999Y-90171676D01*
X177202322Y-90168000D01*
X180017289Y-90168000D01*
X180061226Y-90211937D01*
X180230744Y-90325205D01*
X180419102Y-90403226D01*
X180619061Y-90443000D01*
X180822939Y-90443000D01*
X181022898Y-90403226D01*
X181211256Y-90325205D01*
X181380774Y-90211937D01*
X181483000Y-90109711D01*
X181585226Y-90211937D01*
X181754744Y-90325205D01*
X181943102Y-90403226D01*
X182143061Y-90443000D01*
X182205199Y-90443000D01*
X183422202Y-91660004D01*
X183446000Y-91689002D01*
X183561725Y-91783975D01*
X183693754Y-91854547D01*
X183837015Y-91898004D01*
X183948668Y-91909001D01*
X183948677Y-91909001D01*
X183986000Y-91912677D01*
X184023323Y-91909001D01*
X187762679Y-91909001D01*
X187800001Y-91912677D01*
X187837323Y-91909001D01*
X187837334Y-91909001D01*
X187948987Y-91898004D01*
X188092248Y-91854547D01*
X188224277Y-91783975D01*
X188340002Y-91689002D01*
X188363805Y-91659998D01*
X196723000Y-83300804D01*
X196723000Y-111633000D01*
X143841919Y-111633000D01*
X143964013Y-111516612D01*
X144081614Y-111349410D01*
X144164336Y-111162478D01*
X144209000Y-110963000D01*
X144209000Y-110663000D01*
X143301000Y-110663000D01*
X143301000Y-110683000D01*
X143047000Y-110683000D01*
X143047000Y-110663000D01*
X142139000Y-110663000D01*
X142139000Y-110963000D01*
X142183664Y-111162478D01*
X142266386Y-111349410D01*
X142383987Y-111516612D01*
X142506081Y-111633000D01*
X134861919Y-111633000D01*
X134984013Y-111516612D01*
X135101614Y-111349410D01*
X135184336Y-111162478D01*
X135229000Y-110963000D01*
X135229000Y-110663000D01*
X134321000Y-110663000D01*
X134321000Y-110683000D01*
X134067000Y-110683000D01*
X134067000Y-110663000D01*
X133159000Y-110663000D01*
X133159000Y-110963000D01*
X133203664Y-111162478D01*
X133286386Y-111349410D01*
X133403987Y-111516612D01*
X133526081Y-111633000D01*
X122047000Y-111633000D01*
X122047000Y-110109000D01*
X133159000Y-110109000D01*
X133159000Y-110409000D01*
X134067000Y-110409000D01*
X134067000Y-109369002D01*
X134321000Y-109369002D01*
X134321000Y-110409000D01*
X135229000Y-110409000D01*
X135229000Y-110109000D01*
X142139000Y-110109000D01*
X142139000Y-110409000D01*
X143047000Y-110409000D01*
X143047000Y-109369002D01*
X143301000Y-109369002D01*
X143301000Y-110409000D01*
X144209000Y-110409000D01*
X144209000Y-110109000D01*
X144164336Y-109909522D01*
X144081614Y-109722590D01*
X143964013Y-109555388D01*
X143816052Y-109414342D01*
X143643418Y-109304872D01*
X143460123Y-109241334D01*
X143301000Y-109369002D01*
X143047000Y-109369002D01*
X142887877Y-109241334D01*
X142704582Y-109304872D01*
X142531948Y-109414342D01*
X142383987Y-109555388D01*
X142266386Y-109722590D01*
X142183664Y-109909522D01*
X142139000Y-110109000D01*
X135229000Y-110109000D01*
X135184336Y-109909522D01*
X135101614Y-109722590D01*
X134984013Y-109555388D01*
X134836052Y-109414342D01*
X134663418Y-109304872D01*
X134480123Y-109241334D01*
X134321000Y-109369002D01*
X134067000Y-109369002D01*
X133907877Y-109241334D01*
X133724582Y-109304872D01*
X133551948Y-109414342D01*
X133403987Y-109555388D01*
X133286386Y-109722590D01*
X133203664Y-109909522D01*
X133159000Y-110109000D01*
X122047000Y-110109000D01*
X122047000Y-67222000D01*
X133131928Y-67222000D01*
X133131928Y-68922000D01*
X133144188Y-69046482D01*
X133180498Y-69166180D01*
X133239463Y-69276494D01*
X133318815Y-69373185D01*
X133415506Y-69452537D01*
X133525820Y-69511502D01*
X133645518Y-69547812D01*
X133770000Y-69560072D01*
X135470000Y-69560072D01*
X135594482Y-69547812D01*
X135714180Y-69511502D01*
X135824494Y-69452537D01*
X135921185Y-69373185D01*
X136000537Y-69276494D01*
X136059502Y-69166180D01*
X136081513Y-69093620D01*
X136213368Y-69225475D01*
X136456589Y-69387990D01*
X136726842Y-69499932D01*
X137013740Y-69557000D01*
X137306260Y-69557000D01*
X137593158Y-69499932D01*
X137863411Y-69387990D01*
X138106632Y-69225475D01*
X138313475Y-69018632D01*
X138430000Y-68844240D01*
X138546525Y-69018632D01*
X138753368Y-69225475D01*
X138996589Y-69387990D01*
X139266842Y-69499932D01*
X139553740Y-69557000D01*
X139846260Y-69557000D01*
X140133158Y-69499932D01*
X140403411Y-69387990D01*
X140646632Y-69225475D01*
X140853475Y-69018632D01*
X140970000Y-68844240D01*
X141086525Y-69018632D01*
X141293368Y-69225475D01*
X141536589Y-69387990D01*
X141806842Y-69499932D01*
X142093740Y-69557000D01*
X142386260Y-69557000D01*
X142673158Y-69499932D01*
X142943411Y-69387990D01*
X143186632Y-69225475D01*
X143393475Y-69018632D01*
X143510000Y-68844240D01*
X143626525Y-69018632D01*
X143833368Y-69225475D01*
X144076589Y-69387990D01*
X144346842Y-69499932D01*
X144633740Y-69557000D01*
X144926260Y-69557000D01*
X145213158Y-69499932D01*
X145483411Y-69387990D01*
X145726632Y-69225475D01*
X145933475Y-69018632D01*
X146050000Y-68844240D01*
X146166525Y-69018632D01*
X146373368Y-69225475D01*
X146616589Y-69387990D01*
X146886842Y-69499932D01*
X147173740Y-69557000D01*
X147466260Y-69557000D01*
X147753158Y-69499932D01*
X148023411Y-69387990D01*
X148266632Y-69225475D01*
X148473475Y-69018632D01*
X148590000Y-68844240D01*
X148706525Y-69018632D01*
X148913368Y-69225475D01*
X149156589Y-69387990D01*
X149426842Y-69499932D01*
X149713740Y-69557000D01*
X150006260Y-69557000D01*
X150293158Y-69499932D01*
X150563411Y-69387990D01*
X150806632Y-69225475D01*
X151013475Y-69018632D01*
X151130000Y-68844240D01*
X151246525Y-69018632D01*
X151453368Y-69225475D01*
X151696589Y-69387990D01*
X151966842Y-69499932D01*
X152253740Y-69557000D01*
X152546260Y-69557000D01*
X152833158Y-69499932D01*
X153103411Y-69387990D01*
X153346632Y-69225475D01*
X153553475Y-69018632D01*
X153670000Y-68844240D01*
X153786525Y-69018632D01*
X153993368Y-69225475D01*
X154236589Y-69387990D01*
X154506842Y-69499932D01*
X154793740Y-69557000D01*
X155086260Y-69557000D01*
X155373158Y-69499932D01*
X155643411Y-69387990D01*
X155886632Y-69225475D01*
X156093475Y-69018632D01*
X156210000Y-68844240D01*
X156326525Y-69018632D01*
X156533368Y-69225475D01*
X156776589Y-69387990D01*
X157046842Y-69499932D01*
X157333740Y-69557000D01*
X157626260Y-69557000D01*
X157913158Y-69499932D01*
X158183411Y-69387990D01*
X158426632Y-69225475D01*
X158633475Y-69018632D01*
X158750000Y-68844240D01*
X158866525Y-69018632D01*
X159073368Y-69225475D01*
X159316589Y-69387990D01*
X159586842Y-69499932D01*
X159873740Y-69557000D01*
X160166260Y-69557000D01*
X160453158Y-69499932D01*
X160723411Y-69387990D01*
X160966632Y-69225475D01*
X161173475Y-69018632D01*
X161290000Y-68844240D01*
X161406525Y-69018632D01*
X161613368Y-69225475D01*
X161856589Y-69387990D01*
X162126842Y-69499932D01*
X162413740Y-69557000D01*
X162706260Y-69557000D01*
X162993158Y-69499932D01*
X163263411Y-69387990D01*
X163506632Y-69225475D01*
X163713475Y-69018632D01*
X163830000Y-68844240D01*
X163946525Y-69018632D01*
X164153368Y-69225475D01*
X164396589Y-69387990D01*
X164666842Y-69499932D01*
X164953740Y-69557000D01*
X165246260Y-69557000D01*
X165533158Y-69499932D01*
X165803411Y-69387990D01*
X166046632Y-69225475D01*
X166253475Y-69018632D01*
X166370000Y-68844240D01*
X166486525Y-69018632D01*
X166693368Y-69225475D01*
X166936589Y-69387990D01*
X167206842Y-69499932D01*
X167493740Y-69557000D01*
X167786260Y-69557000D01*
X168073158Y-69499932D01*
X168343411Y-69387990D01*
X168586632Y-69225475D01*
X168793475Y-69018632D01*
X168910000Y-68844240D01*
X169026525Y-69018632D01*
X169233368Y-69225475D01*
X169476589Y-69387990D01*
X169746842Y-69499932D01*
X170033740Y-69557000D01*
X170326260Y-69557000D01*
X170613158Y-69499932D01*
X170883411Y-69387990D01*
X171126632Y-69225475D01*
X171333475Y-69018632D01*
X171450000Y-68844240D01*
X171566525Y-69018632D01*
X171773368Y-69225475D01*
X172016589Y-69387990D01*
X172286842Y-69499932D01*
X172573740Y-69557000D01*
X172866260Y-69557000D01*
X173153158Y-69499932D01*
X173423411Y-69387990D01*
X173666632Y-69225475D01*
X173873475Y-69018632D01*
X173938042Y-68922000D01*
X177581928Y-68922000D01*
X177594188Y-69046482D01*
X177630498Y-69166180D01*
X177689463Y-69276494D01*
X177768815Y-69373185D01*
X177865506Y-69452537D01*
X177975820Y-69511502D01*
X178095518Y-69547812D01*
X178220000Y-69560072D01*
X178784250Y-69557000D01*
X178943000Y-69398250D01*
X178943000Y-68199000D01*
X179197000Y-68199000D01*
X179197000Y-69398250D01*
X179355750Y-69557000D01*
X179920000Y-69560072D01*
X180044482Y-69547812D01*
X180164180Y-69511502D01*
X180274494Y-69452537D01*
X180371185Y-69373185D01*
X180450537Y-69276494D01*
X180509502Y-69166180D01*
X180533966Y-69085534D01*
X180609731Y-69169588D01*
X180843080Y-69343641D01*
X181105901Y-69468825D01*
X181253110Y-69513476D01*
X181483000Y-69392155D01*
X181483000Y-68199000D01*
X181737000Y-68199000D01*
X181737000Y-69392155D01*
X181966890Y-69513476D01*
X182114099Y-69468825D01*
X182376920Y-69343641D01*
X182610269Y-69169588D01*
X182805178Y-68953355D01*
X182954157Y-68703252D01*
X183051481Y-68428891D01*
X182930814Y-68199000D01*
X181737000Y-68199000D01*
X181483000Y-68199000D01*
X179197000Y-68199000D01*
X178943000Y-68199000D01*
X177743750Y-68199000D01*
X177585000Y-68357750D01*
X177581928Y-68922000D01*
X173938042Y-68922000D01*
X174035990Y-68775411D01*
X174147932Y-68505158D01*
X174205000Y-68218260D01*
X174205000Y-67925740D01*
X174147932Y-67638842D01*
X174035990Y-67368589D01*
X173938043Y-67222000D01*
X177581928Y-67222000D01*
X177585000Y-67786250D01*
X177743750Y-67945000D01*
X178943000Y-67945000D01*
X178943000Y-66745750D01*
X179197000Y-66745750D01*
X179197000Y-67945000D01*
X181483000Y-67945000D01*
X181483000Y-66751845D01*
X181737000Y-66751845D01*
X181737000Y-67945000D01*
X182930814Y-67945000D01*
X183051481Y-67715109D01*
X182954157Y-67440748D01*
X182805178Y-67190645D01*
X182610269Y-66974412D01*
X182376920Y-66800359D01*
X182114099Y-66675175D01*
X181966890Y-66630524D01*
X181737000Y-66751845D01*
X181483000Y-66751845D01*
X181253110Y-66630524D01*
X181105901Y-66675175D01*
X180843080Y-66800359D01*
X180609731Y-66974412D01*
X180533966Y-67058466D01*
X180509502Y-66977820D01*
X180450537Y-66867506D01*
X180371185Y-66770815D01*
X180274494Y-66691463D01*
X180164180Y-66632498D01*
X180044482Y-66596188D01*
X179920000Y-66583928D01*
X179355750Y-66587000D01*
X179197000Y-66745750D01*
X178943000Y-66745750D01*
X178784250Y-66587000D01*
X178220000Y-66583928D01*
X178095518Y-66596188D01*
X177975820Y-66632498D01*
X177865506Y-66691463D01*
X177768815Y-66770815D01*
X177689463Y-66867506D01*
X177630498Y-66977820D01*
X177594188Y-67097518D01*
X177581928Y-67222000D01*
X173938043Y-67222000D01*
X173873475Y-67125368D01*
X173666632Y-66918525D01*
X173423411Y-66756010D01*
X173153158Y-66644068D01*
X172866260Y-66587000D01*
X172573740Y-66587000D01*
X172286842Y-66644068D01*
X172016589Y-66756010D01*
X171773368Y-66918525D01*
X171566525Y-67125368D01*
X171450000Y-67299760D01*
X171333475Y-67125368D01*
X171126632Y-66918525D01*
X170883411Y-66756010D01*
X170613158Y-66644068D01*
X170326260Y-66587000D01*
X170033740Y-66587000D01*
X169746842Y-66644068D01*
X169476589Y-66756010D01*
X169233368Y-66918525D01*
X169026525Y-67125368D01*
X168910000Y-67299760D01*
X168793475Y-67125368D01*
X168586632Y-66918525D01*
X168343411Y-66756010D01*
X168073158Y-66644068D01*
X167786260Y-66587000D01*
X167493740Y-66587000D01*
X167206842Y-66644068D01*
X166936589Y-66756010D01*
X166693368Y-66918525D01*
X166486525Y-67125368D01*
X166370000Y-67299760D01*
X166253475Y-67125368D01*
X166046632Y-66918525D01*
X165803411Y-66756010D01*
X165533158Y-66644068D01*
X165246260Y-66587000D01*
X164953740Y-66587000D01*
X164666842Y-66644068D01*
X164396589Y-66756010D01*
X164153368Y-66918525D01*
X163946525Y-67125368D01*
X163830000Y-67299760D01*
X163713475Y-67125368D01*
X163506632Y-66918525D01*
X163263411Y-66756010D01*
X162993158Y-66644068D01*
X162706260Y-66587000D01*
X162413740Y-66587000D01*
X162126842Y-66644068D01*
X161856589Y-66756010D01*
X161613368Y-66918525D01*
X161406525Y-67125368D01*
X161290000Y-67299760D01*
X161173475Y-67125368D01*
X160966632Y-66918525D01*
X160723411Y-66756010D01*
X160453158Y-66644068D01*
X160166260Y-66587000D01*
X159873740Y-66587000D01*
X159586842Y-66644068D01*
X159316589Y-66756010D01*
X159073368Y-66918525D01*
X158866525Y-67125368D01*
X158750000Y-67299760D01*
X158633475Y-67125368D01*
X158426632Y-66918525D01*
X158183411Y-66756010D01*
X157913158Y-66644068D01*
X157626260Y-66587000D01*
X157333740Y-66587000D01*
X157046842Y-66644068D01*
X156776589Y-66756010D01*
X156533368Y-66918525D01*
X156326525Y-67125368D01*
X156210000Y-67299760D01*
X156093475Y-67125368D01*
X155886632Y-66918525D01*
X155643411Y-66756010D01*
X155373158Y-66644068D01*
X155086260Y-66587000D01*
X154793740Y-66587000D01*
X154506842Y-66644068D01*
X154236589Y-66756010D01*
X153993368Y-66918525D01*
X153786525Y-67125368D01*
X153670000Y-67299760D01*
X153553475Y-67125368D01*
X153346632Y-66918525D01*
X153103411Y-66756010D01*
X152833158Y-66644068D01*
X152546260Y-66587000D01*
X152253740Y-66587000D01*
X151966842Y-66644068D01*
X151696589Y-66756010D01*
X151453368Y-66918525D01*
X151246525Y-67125368D01*
X151130000Y-67299760D01*
X151013475Y-67125368D01*
X150806632Y-66918525D01*
X150563411Y-66756010D01*
X150293158Y-66644068D01*
X150006260Y-66587000D01*
X149713740Y-66587000D01*
X149426842Y-66644068D01*
X149156589Y-66756010D01*
X148913368Y-66918525D01*
X148706525Y-67125368D01*
X148590000Y-67299760D01*
X148473475Y-67125368D01*
X148266632Y-66918525D01*
X148023411Y-66756010D01*
X147753158Y-66644068D01*
X147466260Y-66587000D01*
X147173740Y-66587000D01*
X146886842Y-66644068D01*
X146616589Y-66756010D01*
X146373368Y-66918525D01*
X146166525Y-67125368D01*
X146050000Y-67299760D01*
X145933475Y-67125368D01*
X145726632Y-66918525D01*
X145483411Y-66756010D01*
X145213158Y-66644068D01*
X144926260Y-66587000D01*
X144633740Y-66587000D01*
X144346842Y-66644068D01*
X144076589Y-66756010D01*
X143833368Y-66918525D01*
X143626525Y-67125368D01*
X143510000Y-67299760D01*
X143393475Y-67125368D01*
X143186632Y-66918525D01*
X142943411Y-66756010D01*
X142673158Y-66644068D01*
X142386260Y-66587000D01*
X142093740Y-66587000D01*
X141806842Y-66644068D01*
X141536589Y-66756010D01*
X141293368Y-66918525D01*
X141086525Y-67125368D01*
X140970000Y-67299760D01*
X140853475Y-67125368D01*
X140646632Y-66918525D01*
X140403411Y-66756010D01*
X140133158Y-66644068D01*
X139846260Y-66587000D01*
X139553740Y-66587000D01*
X139266842Y-66644068D01*
X138996589Y-66756010D01*
X138753368Y-66918525D01*
X138546525Y-67125368D01*
X138430000Y-67299760D01*
X138313475Y-67125368D01*
X138106632Y-66918525D01*
X137863411Y-66756010D01*
X137593158Y-66644068D01*
X137306260Y-66587000D01*
X137013740Y-66587000D01*
X136726842Y-66644068D01*
X136456589Y-66756010D01*
X136213368Y-66918525D01*
X136081513Y-67050380D01*
X136059502Y-66977820D01*
X136000537Y-66867506D01*
X135921185Y-66770815D01*
X135824494Y-66691463D01*
X135714180Y-66632498D01*
X135594482Y-66596188D01*
X135470000Y-66583928D01*
X133770000Y-66583928D01*
X133645518Y-66596188D01*
X133525820Y-66632498D01*
X133415506Y-66691463D01*
X133318815Y-66770815D01*
X133239463Y-66867506D01*
X133180498Y-66977820D01*
X133144188Y-67097518D01*
X133131928Y-67222000D01*
X122047000Y-67222000D01*
X122047000Y-63627000D01*
X196723000Y-63627000D01*
X196723000Y-80041054D01*
%TA.AperFunction,Conductor*%
D27*
G36*
X196723000Y-80041054D02*
G01*
X196180948Y-79499002D01*
X196157145Y-79469999D01*
X196041420Y-79375026D01*
X195909391Y-79304454D01*
X195766183Y-79261013D01*
X195711233Y-79206063D01*
X195541715Y-79092795D01*
X195353357Y-79014774D01*
X195153398Y-78975000D01*
X194949520Y-78975000D01*
X194749561Y-79014774D01*
X194561203Y-79092795D01*
X194391685Y-79206063D01*
X194247522Y-79350226D01*
X194134254Y-79519744D01*
X194096556Y-79610754D01*
X192551000Y-78065199D01*
X192551000Y-78003061D01*
X192511226Y-77803102D01*
X192433205Y-77614744D01*
X192319937Y-77445226D01*
X192175774Y-77301063D01*
X192006256Y-77187795D01*
X191817898Y-77109774D01*
X191617939Y-77070000D01*
X191555802Y-77070000D01*
X190479604Y-75993803D01*
X190455801Y-75964799D01*
X190340076Y-75869826D01*
X190208047Y-75799254D01*
X190064786Y-75755797D01*
X189953133Y-75744800D01*
X189953122Y-75744800D01*
X189915800Y-75741124D01*
X189878478Y-75744800D01*
X188319469Y-75744800D01*
X188354663Y-75730222D01*
X188495518Y-75636105D01*
X188615305Y-75516318D01*
X188709422Y-75375463D01*
X188774251Y-75218953D01*
X188807300Y-75052803D01*
X188807300Y-74883397D01*
X188774251Y-74717247D01*
X188709422Y-74560737D01*
X188686889Y-74527015D01*
X188663813Y-74049047D01*
X188665686Y-74030030D01*
X188660211Y-73974441D01*
X188659325Y-73956092D01*
X188656551Y-73937284D01*
X188651012Y-73881044D01*
X188645650Y-73863369D01*
X188642956Y-73845099D01*
X188623963Y-73791874D01*
X188607555Y-73737784D01*
X188598848Y-73721495D01*
X188592641Y-73704100D01*
X188563624Y-73655595D01*
X188536983Y-73605754D01*
X188525267Y-73591478D01*
X188515785Y-73575628D01*
X188477872Y-73533727D01*
X188465809Y-73519028D01*
X188452815Y-73506034D01*
X188415341Y-73464618D01*
X188400004Y-73453224D01*
X186888740Y-71941960D01*
X186864942Y-71912962D01*
X186835942Y-71889162D01*
X186749217Y-71817988D01*
X186617187Y-71747416D01*
X186517383Y-71717142D01*
X186473927Y-71703960D01*
X186362274Y-71692963D01*
X186324941Y-71689286D01*
X186287609Y-71692963D01*
X169828953Y-71692961D01*
X169791630Y-71689285D01*
X169754307Y-71692961D01*
X169754299Y-71692961D01*
X169642646Y-71703958D01*
X169561763Y-71728493D01*
X169499384Y-71747415D01*
X169367354Y-71817987D01*
X169280628Y-71889162D01*
X169280624Y-71889166D01*
X169251631Y-71912960D01*
X169227837Y-71941953D01*
X154189157Y-86980634D01*
X154157226Y-86820102D01*
X154079205Y-86631744D01*
X153965937Y-86462226D01*
X153821774Y-86318063D01*
X153652256Y-86204795D01*
X153463898Y-86126774D01*
X153263939Y-86087000D01*
X153060061Y-86087000D01*
X152860102Y-86126774D01*
X152671744Y-86204795D01*
X152502226Y-86318063D01*
X152458289Y-86362000D01*
X151938027Y-86362000D01*
X151909431Y-86358523D01*
X151863370Y-86362000D01*
X151854667Y-86362000D01*
X151826108Y-86364813D01*
X151760148Y-86369792D01*
X151751722Y-86372139D01*
X151743014Y-86372997D01*
X151679669Y-86392212D01*
X151615933Y-86409968D01*
X151608128Y-86413913D01*
X151599753Y-86416454D01*
X151541370Y-86447661D01*
X151482327Y-86477508D01*
X151475440Y-86482902D01*
X151467724Y-86487026D01*
X151416569Y-86529008D01*
X151393999Y-86546684D01*
X151387714Y-86552689D01*
X151351999Y-86581999D01*
X151333720Y-86604272D01*
X137651165Y-99676000D01*
X137566061Y-99676000D01*
X137366102Y-99715774D01*
X137177744Y-99793795D01*
X137008226Y-99907063D01*
X136864063Y-100051226D01*
X136750795Y-100220744D01*
X136672774Y-100409102D01*
X136633000Y-100609061D01*
X136633000Y-100812939D01*
X136672774Y-101012898D01*
X136750795Y-101201256D01*
X136864063Y-101370774D01*
X136941743Y-101448454D01*
X136464198Y-101925999D01*
X134809321Y-101925999D01*
X134771998Y-101922323D01*
X134734675Y-101925999D01*
X134734666Y-101925999D01*
X134623013Y-101936996D01*
X134479752Y-101980453D01*
X134347723Y-102051025D01*
X134347721Y-102051026D01*
X134347722Y-102051026D01*
X134260995Y-102122200D01*
X134260991Y-102122204D01*
X134231998Y-102145998D01*
X134208204Y-102174991D01*
X132240997Y-104142200D01*
X132211999Y-104165998D01*
X132188201Y-104194996D01*
X132188200Y-104194997D01*
X132117025Y-104281723D01*
X132046453Y-104413753D01*
X132002997Y-104557014D01*
X131988323Y-104705999D01*
X131992000Y-104743331D01*
X131991999Y-106101678D01*
X131988323Y-106139001D01*
X131991999Y-106176323D01*
X131991999Y-106176333D01*
X132002996Y-106287986D01*
X132021432Y-106348761D01*
X132046453Y-106431247D01*
X132117025Y-106563277D01*
X132143008Y-106594937D01*
X132211998Y-106679002D01*
X132241002Y-106702805D01*
X132690202Y-107152005D01*
X132714005Y-107181009D01*
X132787152Y-107241039D01*
X132829729Y-107275982D01*
X132961759Y-107346554D01*
X133105020Y-107390011D01*
X133216673Y-107401008D01*
X133216682Y-107401008D01*
X133254005Y-107404684D01*
X133291328Y-107401008D01*
X146871355Y-107401008D01*
X146908677Y-107404684D01*
X146945999Y-107401008D01*
X146946010Y-107401008D01*
X147057663Y-107390011D01*
X147200924Y-107346554D01*
X147332953Y-107275982D01*
X147448678Y-107181009D01*
X147472481Y-107152005D01*
X151992486Y-102632000D01*
X164579528Y-102632000D01*
X164579528Y-104632000D01*
X164591788Y-104756482D01*
X164628098Y-104876180D01*
X164687063Y-104986494D01*
X164766415Y-105083185D01*
X164863106Y-105162537D01*
X164973420Y-105221502D01*
X165093118Y-105257812D01*
X165217600Y-105270072D01*
X167217600Y-105270072D01*
X167342082Y-105257812D01*
X167461780Y-105221502D01*
X167572094Y-105162537D01*
X167668785Y-105083185D01*
X167748137Y-104986494D01*
X167807102Y-104876180D01*
X167843412Y-104756482D01*
X167855672Y-104632000D01*
X167855672Y-102632000D01*
X167843412Y-102507518D01*
X167807102Y-102387820D01*
X167748137Y-102277506D01*
X167668785Y-102180815D01*
X167572094Y-102101463D01*
X167461780Y-102042498D01*
X167342082Y-102006188D01*
X167217600Y-101993928D01*
X165217600Y-101993928D01*
X165093118Y-102006188D01*
X164973420Y-102042498D01*
X164863106Y-102101463D01*
X164766415Y-102180815D01*
X164687063Y-102277506D01*
X164628098Y-102387820D01*
X164591788Y-102507518D01*
X164579528Y-102632000D01*
X151992486Y-102632000D01*
X154054003Y-100570484D01*
X154083001Y-100546686D01*
X154177974Y-100430961D01*
X154248546Y-100298932D01*
X154291987Y-100155724D01*
X154346937Y-100100774D01*
X154460205Y-99931256D01*
X154538226Y-99742898D01*
X154578000Y-99542939D01*
X154578000Y-99339061D01*
X154538226Y-99139102D01*
X154460205Y-98950744D01*
X154346937Y-98781226D01*
X154202774Y-98637063D01*
X154033256Y-98523795D01*
X153844898Y-98445774D01*
X153644939Y-98406000D01*
X153441061Y-98406000D01*
X153287000Y-98436644D01*
X153287000Y-90668803D01*
X170292833Y-73662971D01*
X170693405Y-73662971D01*
X153946979Y-90409398D01*
X153917981Y-90433196D01*
X153894183Y-90462194D01*
X153894182Y-90462195D01*
X153823007Y-90548921D01*
X153752435Y-90680951D01*
X153708979Y-90824212D01*
X153694305Y-90973197D01*
X153697982Y-91010529D01*
X153697981Y-94476658D01*
X153694305Y-94513981D01*
X153697981Y-94551303D01*
X153697981Y-94551313D01*
X153708978Y-94662966D01*
X153752435Y-94806227D01*
X153823007Y-94938257D01*
X153862852Y-94986807D01*
X153917980Y-95053982D01*
X153946984Y-95077785D01*
X155048000Y-96178802D01*
X155048000Y-96240939D01*
X155087774Y-96440898D01*
X155165795Y-96629256D01*
X155279063Y-96798774D01*
X155423226Y-96942937D01*
X155592744Y-97056205D01*
X155781102Y-97134226D01*
X155981061Y-97174000D01*
X156184939Y-97174000D01*
X156384898Y-97134226D01*
X156573256Y-97056205D01*
X156742774Y-96942937D01*
X156886937Y-96798774D01*
X157000205Y-96629256D01*
X157078226Y-96440898D01*
X157118000Y-96240939D01*
X157118000Y-96037061D01*
X157078226Y-95837102D01*
X157000205Y-95648744D01*
X156886937Y-95479226D01*
X156784711Y-95377000D01*
X156886937Y-95274774D01*
X157000205Y-95105256D01*
X157078226Y-94916898D01*
X157118000Y-94716939D01*
X157118000Y-94513061D01*
X157078226Y-94313102D01*
X157000205Y-94124744D01*
X156886937Y-93955226D01*
X156784711Y-93853000D01*
X156886937Y-93750774D01*
X157000205Y-93581256D01*
X157078226Y-93392898D01*
X157118000Y-93192939D01*
X157118000Y-92989061D01*
X157078226Y-92789102D01*
X157000205Y-92600744D01*
X156886937Y-92431226D01*
X156848211Y-92392500D01*
X156886937Y-92353774D01*
X157000205Y-92184256D01*
X157078226Y-91995898D01*
X157118000Y-91795939D01*
X157118000Y-91733801D01*
X173288802Y-75563000D01*
X180975921Y-75563000D01*
X180916544Y-75587595D01*
X180747026Y-75700863D01*
X180602863Y-75845026D01*
X180489595Y-76014544D01*
X180411574Y-76202902D01*
X180371800Y-76402861D01*
X180371800Y-76606739D01*
X180411574Y-76806698D01*
X180489595Y-76995056D01*
X180602863Y-77164574D01*
X180747026Y-77308737D01*
X180916544Y-77422005D01*
X181104902Y-77500026D01*
X181304861Y-77539800D01*
X181508739Y-77539800D01*
X181708698Y-77500026D01*
X181897056Y-77422005D01*
X182066574Y-77308737D01*
X182110511Y-77264800D01*
X189600999Y-77264800D01*
X190481000Y-78144802D01*
X190481000Y-78206939D01*
X190520774Y-78406898D01*
X190598795Y-78595256D01*
X190712063Y-78764774D01*
X190856226Y-78908937D01*
X191025744Y-79022205D01*
X191214102Y-79100226D01*
X191414061Y-79140000D01*
X191476199Y-79140000D01*
X192168593Y-79832394D01*
X192040928Y-79807000D01*
X191600672Y-79807000D01*
X191168875Y-79892890D01*
X190762131Y-80061369D01*
X190487307Y-80245000D01*
X181416035Y-80245000D01*
X181406231Y-80221331D01*
X181161638Y-79855271D01*
X180850329Y-79543962D01*
X180484269Y-79299369D01*
X180077525Y-79130890D01*
X179645728Y-79045000D01*
X179205472Y-79045000D01*
X178773675Y-79130890D01*
X178366931Y-79299369D01*
X178000871Y-79543962D01*
X177689562Y-79855271D01*
X177444969Y-80221331D01*
X177276490Y-80628075D01*
X177190600Y-81059872D01*
X177190600Y-81500128D01*
X177276490Y-81931925D01*
X177444969Y-82338669D01*
X177689562Y-82704729D01*
X177948118Y-82963285D01*
X174158665Y-86752739D01*
X174193000Y-86580128D01*
X174193000Y-86139872D01*
X174107110Y-85708075D01*
X173938631Y-85301331D01*
X173694038Y-84935271D01*
X173382729Y-84623962D01*
X173016669Y-84379369D01*
X172609925Y-84210890D01*
X172178128Y-84125000D01*
X171737872Y-84125000D01*
X171306075Y-84210890D01*
X170899331Y-84379369D01*
X170533271Y-84623962D01*
X170221962Y-84935271D01*
X169977369Y-85301331D01*
X169808890Y-85708075D01*
X169723000Y-86139872D01*
X169723000Y-86565604D01*
X163754155Y-92534450D01*
X163699393Y-92579392D01*
X163520069Y-92797899D01*
X163519613Y-92798753D01*
X163386818Y-93047193D01*
X163304764Y-93317692D01*
X163277057Y-93599000D01*
X163284001Y-93669502D01*
X163284001Y-94286232D01*
X162982962Y-94587271D01*
X162738369Y-94953331D01*
X162569890Y-95360075D01*
X162484000Y-95791872D01*
X162484000Y-96232128D01*
X162569890Y-96663925D01*
X162738369Y-97070669D01*
X162982962Y-97436729D01*
X163294271Y-97748038D01*
X163660331Y-97992631D01*
X164067075Y-98161110D01*
X164083405Y-98164358D01*
X169662600Y-103743554D01*
X169662600Y-103793033D01*
X169725432Y-104108912D01*
X169848682Y-104406463D01*
X170027613Y-104674252D01*
X170255348Y-104901987D01*
X170523137Y-105080918D01*
X170820688Y-105204168D01*
X171136567Y-105267000D01*
X171458633Y-105267000D01*
X171774512Y-105204168D01*
X172072063Y-105080918D01*
X172339852Y-104901987D01*
X172567587Y-104674252D01*
X172746518Y-104406463D01*
X172869768Y-104108912D01*
X172932600Y-103793033D01*
X172932600Y-103470967D01*
X172869768Y-103155088D01*
X172746518Y-102857537D01*
X172567587Y-102589748D01*
X172339852Y-102362013D01*
X172072063Y-102183082D01*
X171774512Y-102059832D01*
X171458633Y-101997000D01*
X171409154Y-101997000D01*
X166612790Y-97200637D01*
X166699631Y-97070669D01*
X166868110Y-96663925D01*
X166954000Y-96232128D01*
X166954000Y-95791872D01*
X166868110Y-95360075D01*
X166699631Y-94953331D01*
X166455038Y-94587271D01*
X166154000Y-94286233D01*
X166154000Y-94193395D01*
X171752396Y-88595000D01*
X172178128Y-88595000D01*
X172518274Y-88527341D01*
X172505418Y-88551392D01*
X172423364Y-88821891D01*
X172411904Y-88938247D01*
X172395657Y-89103200D01*
X172402600Y-89173692D01*
X172402600Y-90239208D01*
X172395657Y-90309700D01*
X172406915Y-90424000D01*
X172423364Y-90591008D01*
X172505418Y-90861507D01*
X172638668Y-91110800D01*
X172817992Y-91329307D01*
X172872755Y-91374250D01*
X180924400Y-99425896D01*
X180924400Y-99851628D01*
X181010290Y-100283425D01*
X181178769Y-100690169D01*
X181423362Y-101056229D01*
X181734671Y-101367538D01*
X182100731Y-101612131D01*
X182507475Y-101780610D01*
X182939272Y-101866500D01*
X183379528Y-101866500D01*
X183811325Y-101780610D01*
X184218069Y-101612131D01*
X184584129Y-101367538D01*
X184895438Y-101056229D01*
X185140031Y-100690169D01*
X185308510Y-100283425D01*
X185392137Y-99863000D01*
X191426928Y-99863000D01*
X191426928Y-101813000D01*
X191439188Y-101937482D01*
X191475498Y-102057180D01*
X191534463Y-102167494D01*
X191613815Y-102264185D01*
X191710506Y-102343537D01*
X191820820Y-102402502D01*
X191940518Y-102438812D01*
X192065000Y-102451072D01*
X194015000Y-102451072D01*
X194139482Y-102438812D01*
X194259180Y-102402502D01*
X194369494Y-102343537D01*
X194466185Y-102264185D01*
X194545537Y-102167494D01*
X194604502Y-102057180D01*
X194640812Y-101937482D01*
X194653072Y-101813000D01*
X194653072Y-99863000D01*
X194640812Y-99738518D01*
X194604502Y-99618820D01*
X194545537Y-99508506D01*
X194466185Y-99411815D01*
X194369494Y-99332463D01*
X194259180Y-99273498D01*
X194139482Y-99237188D01*
X194015000Y-99224928D01*
X192065000Y-99224928D01*
X191940518Y-99237188D01*
X191820820Y-99273498D01*
X191710506Y-99332463D01*
X191613815Y-99411815D01*
X191534463Y-99508506D01*
X191475498Y-99618820D01*
X191439188Y-99738518D01*
X191426928Y-99863000D01*
X185392137Y-99863000D01*
X185394400Y-99851628D01*
X185394400Y-99411372D01*
X185308510Y-98979575D01*
X185140031Y-98572831D01*
X184895438Y-98206771D01*
X184584129Y-97895462D01*
X184218069Y-97650869D01*
X183811325Y-97482390D01*
X183379528Y-97396500D01*
X182953796Y-97396500D01*
X182432880Y-96875584D01*
X192102021Y-96875584D01*
X192194766Y-97137429D01*
X192480120Y-97275820D01*
X192786990Y-97355883D01*
X193103584Y-97374540D01*
X193417733Y-97331074D01*
X193717367Y-97227156D01*
X193885234Y-97137429D01*
X193977979Y-96875584D01*
X193040000Y-95937605D01*
X192102021Y-96875584D01*
X182432880Y-96875584D01*
X181378880Y-95821584D01*
X191423460Y-95821584D01*
X191466926Y-96135733D01*
X191570844Y-96435367D01*
X191660571Y-96603234D01*
X191922416Y-96695979D01*
X192860395Y-95758000D01*
X193219605Y-95758000D01*
X194157584Y-96695979D01*
X194419429Y-96603234D01*
X194557820Y-96317880D01*
X194637883Y-96011010D01*
X194656540Y-95694416D01*
X194613074Y-95380267D01*
X194509156Y-95080633D01*
X194419429Y-94912766D01*
X194157584Y-94820021D01*
X193219605Y-95758000D01*
X192860395Y-95758000D01*
X191922416Y-94820021D01*
X191660571Y-94912766D01*
X191522180Y-95198120D01*
X191442117Y-95504990D01*
X191423460Y-95821584D01*
X181378880Y-95821584D01*
X180197712Y-94640416D01*
X192102021Y-94640416D01*
X193040000Y-95578395D01*
X193977979Y-94640416D01*
X193885234Y-94378571D01*
X193599880Y-94240180D01*
X193293010Y-94160117D01*
X192976416Y-94141460D01*
X192662267Y-94184926D01*
X192362633Y-94288844D01*
X192194766Y-94378571D01*
X192102021Y-94640416D01*
X180197712Y-94640416D01*
X175272600Y-89715305D01*
X175272600Y-89697595D01*
X175764306Y-89205889D01*
X175788774Y-89328898D01*
X175866795Y-89517256D01*
X175980063Y-89686774D01*
X176124226Y-89830937D01*
X176293744Y-89944205D01*
X176482102Y-90022226D01*
X176682061Y-90062000D01*
X176776319Y-90062000D01*
X176872753Y-90113546D01*
X177016014Y-90157003D01*
X177127667Y-90168000D01*
X177127676Y-90168000D01*
X177164999Y-90171676D01*
X177202322Y-90168000D01*
X180017289Y-90168000D01*
X180061226Y-90211937D01*
X180230744Y-90325205D01*
X180419102Y-90403226D01*
X180619061Y-90443000D01*
X180822939Y-90443000D01*
X181022898Y-90403226D01*
X181211256Y-90325205D01*
X181380774Y-90211937D01*
X181483000Y-90109711D01*
X181585226Y-90211937D01*
X181754744Y-90325205D01*
X181943102Y-90403226D01*
X182143061Y-90443000D01*
X182205199Y-90443000D01*
X183422202Y-91660004D01*
X183446000Y-91689002D01*
X183561725Y-91783975D01*
X183693754Y-91854547D01*
X183837015Y-91898004D01*
X183948668Y-91909001D01*
X183948677Y-91909001D01*
X183986000Y-91912677D01*
X184023323Y-91909001D01*
X187762679Y-91909001D01*
X187800001Y-91912677D01*
X187837323Y-91909001D01*
X187837334Y-91909001D01*
X187948987Y-91898004D01*
X188092248Y-91854547D01*
X188224277Y-91783975D01*
X188340002Y-91689002D01*
X188363805Y-91659998D01*
X196723000Y-83300804D01*
X196723000Y-111633000D01*
X143841919Y-111633000D01*
X143964013Y-111516612D01*
X144081614Y-111349410D01*
X144164336Y-111162478D01*
X144209000Y-110963000D01*
X144209000Y-110663000D01*
X143301000Y-110663000D01*
X143301000Y-110683000D01*
X143047000Y-110683000D01*
X143047000Y-110663000D01*
X142139000Y-110663000D01*
X142139000Y-110963000D01*
X142183664Y-111162478D01*
X142266386Y-111349410D01*
X142383987Y-111516612D01*
X142506081Y-111633000D01*
X134861919Y-111633000D01*
X134984013Y-111516612D01*
X135101614Y-111349410D01*
X135184336Y-111162478D01*
X135229000Y-110963000D01*
X135229000Y-110663000D01*
X134321000Y-110663000D01*
X134321000Y-110683000D01*
X134067000Y-110683000D01*
X134067000Y-110663000D01*
X133159000Y-110663000D01*
X133159000Y-110963000D01*
X133203664Y-111162478D01*
X133286386Y-111349410D01*
X133403987Y-111516612D01*
X133526081Y-111633000D01*
X122047000Y-111633000D01*
X122047000Y-110109000D01*
X133159000Y-110109000D01*
X133159000Y-110409000D01*
X134067000Y-110409000D01*
X134067000Y-109369002D01*
X134321000Y-109369002D01*
X134321000Y-110409000D01*
X135229000Y-110409000D01*
X135229000Y-110109000D01*
X142139000Y-110109000D01*
X142139000Y-110409000D01*
X143047000Y-110409000D01*
X143047000Y-109369002D01*
X143301000Y-109369002D01*
X143301000Y-110409000D01*
X144209000Y-110409000D01*
X144209000Y-110109000D01*
X144164336Y-109909522D01*
X144081614Y-109722590D01*
X143964013Y-109555388D01*
X143816052Y-109414342D01*
X143643418Y-109304872D01*
X143460123Y-109241334D01*
X143301000Y-109369002D01*
X143047000Y-109369002D01*
X142887877Y-109241334D01*
X142704582Y-109304872D01*
X142531948Y-109414342D01*
X142383987Y-109555388D01*
X142266386Y-109722590D01*
X142183664Y-109909522D01*
X142139000Y-110109000D01*
X135229000Y-110109000D01*
X135184336Y-109909522D01*
X135101614Y-109722590D01*
X134984013Y-109555388D01*
X134836052Y-109414342D01*
X134663418Y-109304872D01*
X134480123Y-109241334D01*
X134321000Y-109369002D01*
X134067000Y-109369002D01*
X133907877Y-109241334D01*
X133724582Y-109304872D01*
X133551948Y-109414342D01*
X133403987Y-109555388D01*
X133286386Y-109722590D01*
X133203664Y-109909522D01*
X133159000Y-110109000D01*
X122047000Y-110109000D01*
X122047000Y-67222000D01*
X133131928Y-67222000D01*
X133131928Y-68922000D01*
X133144188Y-69046482D01*
X133180498Y-69166180D01*
X133239463Y-69276494D01*
X133318815Y-69373185D01*
X133415506Y-69452537D01*
X133525820Y-69511502D01*
X133645518Y-69547812D01*
X133770000Y-69560072D01*
X135470000Y-69560072D01*
X135594482Y-69547812D01*
X135714180Y-69511502D01*
X135824494Y-69452537D01*
X135921185Y-69373185D01*
X136000537Y-69276494D01*
X136059502Y-69166180D01*
X136081513Y-69093620D01*
X136213368Y-69225475D01*
X136456589Y-69387990D01*
X136726842Y-69499932D01*
X137013740Y-69557000D01*
X137306260Y-69557000D01*
X137593158Y-69499932D01*
X137863411Y-69387990D01*
X138106632Y-69225475D01*
X138313475Y-69018632D01*
X138430000Y-68844240D01*
X138546525Y-69018632D01*
X138753368Y-69225475D01*
X138996589Y-69387990D01*
X139266842Y-69499932D01*
X139553740Y-69557000D01*
X139846260Y-69557000D01*
X140133158Y-69499932D01*
X140403411Y-69387990D01*
X140646632Y-69225475D01*
X140853475Y-69018632D01*
X140970000Y-68844240D01*
X141086525Y-69018632D01*
X141293368Y-69225475D01*
X141536589Y-69387990D01*
X141806842Y-69499932D01*
X142093740Y-69557000D01*
X142386260Y-69557000D01*
X142673158Y-69499932D01*
X142943411Y-69387990D01*
X143186632Y-69225475D01*
X143393475Y-69018632D01*
X143510000Y-68844240D01*
X143626525Y-69018632D01*
X143833368Y-69225475D01*
X144076589Y-69387990D01*
X144346842Y-69499932D01*
X144633740Y-69557000D01*
X144926260Y-69557000D01*
X145213158Y-69499932D01*
X145483411Y-69387990D01*
X145726632Y-69225475D01*
X145933475Y-69018632D01*
X146050000Y-68844240D01*
X146166525Y-69018632D01*
X146373368Y-69225475D01*
X146616589Y-69387990D01*
X146886842Y-69499932D01*
X147173740Y-69557000D01*
X147466260Y-69557000D01*
X147753158Y-69499932D01*
X148023411Y-69387990D01*
X148266632Y-69225475D01*
X148473475Y-69018632D01*
X148590000Y-68844240D01*
X148706525Y-69018632D01*
X148913368Y-69225475D01*
X149156589Y-69387990D01*
X149426842Y-69499932D01*
X149713740Y-69557000D01*
X150006260Y-69557000D01*
X150293158Y-69499932D01*
X150563411Y-69387990D01*
X150806632Y-69225475D01*
X151013475Y-69018632D01*
X151130000Y-68844240D01*
X151246525Y-69018632D01*
X151453368Y-69225475D01*
X151696589Y-69387990D01*
X151966842Y-69499932D01*
X152253740Y-69557000D01*
X152546260Y-69557000D01*
X152833158Y-69499932D01*
X153103411Y-69387990D01*
X153346632Y-69225475D01*
X153553475Y-69018632D01*
X153670000Y-68844240D01*
X153786525Y-69018632D01*
X153993368Y-69225475D01*
X154236589Y-69387990D01*
X154506842Y-69499932D01*
X154793740Y-69557000D01*
X155086260Y-69557000D01*
X155373158Y-69499932D01*
X155643411Y-69387990D01*
X155886632Y-69225475D01*
X156093475Y-69018632D01*
X156210000Y-68844240D01*
X156326525Y-69018632D01*
X156533368Y-69225475D01*
X156776589Y-69387990D01*
X157046842Y-69499932D01*
X157333740Y-69557000D01*
X157626260Y-69557000D01*
X157913158Y-69499932D01*
X158183411Y-69387990D01*
X158426632Y-69225475D01*
X158633475Y-69018632D01*
X158750000Y-68844240D01*
X158866525Y-69018632D01*
X159073368Y-69225475D01*
X159316589Y-69387990D01*
X159586842Y-69499932D01*
X159873740Y-69557000D01*
X160166260Y-69557000D01*
X160453158Y-69499932D01*
X160723411Y-69387990D01*
X160966632Y-69225475D01*
X161173475Y-69018632D01*
X161290000Y-68844240D01*
X161406525Y-69018632D01*
X161613368Y-69225475D01*
X161856589Y-69387990D01*
X162126842Y-69499932D01*
X162413740Y-69557000D01*
X162706260Y-69557000D01*
X162993158Y-69499932D01*
X163263411Y-69387990D01*
X163506632Y-69225475D01*
X163713475Y-69018632D01*
X163830000Y-68844240D01*
X163946525Y-69018632D01*
X164153368Y-69225475D01*
X164396589Y-69387990D01*
X164666842Y-69499932D01*
X164953740Y-69557000D01*
X165246260Y-69557000D01*
X165533158Y-69499932D01*
X165803411Y-69387990D01*
X166046632Y-69225475D01*
X166253475Y-69018632D01*
X166370000Y-68844240D01*
X166486525Y-69018632D01*
X166693368Y-69225475D01*
X166936589Y-69387990D01*
X167206842Y-69499932D01*
X167493740Y-69557000D01*
X167786260Y-69557000D01*
X168073158Y-69499932D01*
X168343411Y-69387990D01*
X168586632Y-69225475D01*
X168793475Y-69018632D01*
X168910000Y-68844240D01*
X169026525Y-69018632D01*
X169233368Y-69225475D01*
X169476589Y-69387990D01*
X169746842Y-69499932D01*
X170033740Y-69557000D01*
X170326260Y-69557000D01*
X170613158Y-69499932D01*
X170883411Y-69387990D01*
X171126632Y-69225475D01*
X171333475Y-69018632D01*
X171450000Y-68844240D01*
X171566525Y-69018632D01*
X171773368Y-69225475D01*
X172016589Y-69387990D01*
X172286842Y-69499932D01*
X172573740Y-69557000D01*
X172866260Y-69557000D01*
X173153158Y-69499932D01*
X173423411Y-69387990D01*
X173666632Y-69225475D01*
X173873475Y-69018632D01*
X173938042Y-68922000D01*
X177581928Y-68922000D01*
X177594188Y-69046482D01*
X177630498Y-69166180D01*
X177689463Y-69276494D01*
X177768815Y-69373185D01*
X177865506Y-69452537D01*
X177975820Y-69511502D01*
X178095518Y-69547812D01*
X178220000Y-69560072D01*
X178784250Y-69557000D01*
X178943000Y-69398250D01*
X178943000Y-68199000D01*
X179197000Y-68199000D01*
X179197000Y-69398250D01*
X179355750Y-69557000D01*
X179920000Y-69560072D01*
X180044482Y-69547812D01*
X180164180Y-69511502D01*
X180274494Y-69452537D01*
X180371185Y-69373185D01*
X180450537Y-69276494D01*
X180509502Y-69166180D01*
X180533966Y-69085534D01*
X180609731Y-69169588D01*
X180843080Y-69343641D01*
X181105901Y-69468825D01*
X181253110Y-69513476D01*
X181483000Y-69392155D01*
X181483000Y-68199000D01*
X181737000Y-68199000D01*
X181737000Y-69392155D01*
X181966890Y-69513476D01*
X182114099Y-69468825D01*
X182376920Y-69343641D01*
X182610269Y-69169588D01*
X182805178Y-68953355D01*
X182954157Y-68703252D01*
X183051481Y-68428891D01*
X182930814Y-68199000D01*
X181737000Y-68199000D01*
X181483000Y-68199000D01*
X179197000Y-68199000D01*
X178943000Y-68199000D01*
X177743750Y-68199000D01*
X177585000Y-68357750D01*
X177581928Y-68922000D01*
X173938042Y-68922000D01*
X174035990Y-68775411D01*
X174147932Y-68505158D01*
X174205000Y-68218260D01*
X174205000Y-67925740D01*
X174147932Y-67638842D01*
X174035990Y-67368589D01*
X173938043Y-67222000D01*
X177581928Y-67222000D01*
X177585000Y-67786250D01*
X177743750Y-67945000D01*
X178943000Y-67945000D01*
X178943000Y-66745750D01*
X179197000Y-66745750D01*
X179197000Y-67945000D01*
X181483000Y-67945000D01*
X181483000Y-66751845D01*
X181737000Y-66751845D01*
X181737000Y-67945000D01*
X182930814Y-67945000D01*
X183051481Y-67715109D01*
X182954157Y-67440748D01*
X182805178Y-67190645D01*
X182610269Y-66974412D01*
X182376920Y-66800359D01*
X182114099Y-66675175D01*
X181966890Y-66630524D01*
X181737000Y-66751845D01*
X181483000Y-66751845D01*
X181253110Y-66630524D01*
X181105901Y-66675175D01*
X180843080Y-66800359D01*
X180609731Y-66974412D01*
X180533966Y-67058466D01*
X180509502Y-66977820D01*
X180450537Y-66867506D01*
X180371185Y-66770815D01*
X180274494Y-66691463D01*
X180164180Y-66632498D01*
X180044482Y-66596188D01*
X179920000Y-66583928D01*
X179355750Y-66587000D01*
X179197000Y-66745750D01*
X178943000Y-66745750D01*
X178784250Y-66587000D01*
X178220000Y-66583928D01*
X178095518Y-66596188D01*
X177975820Y-66632498D01*
X177865506Y-66691463D01*
X177768815Y-66770815D01*
X177689463Y-66867506D01*
X177630498Y-66977820D01*
X177594188Y-67097518D01*
X177581928Y-67222000D01*
X173938043Y-67222000D01*
X173873475Y-67125368D01*
X173666632Y-66918525D01*
X173423411Y-66756010D01*
X173153158Y-66644068D01*
X172866260Y-66587000D01*
X172573740Y-66587000D01*
X172286842Y-66644068D01*
X172016589Y-66756010D01*
X171773368Y-66918525D01*
X171566525Y-67125368D01*
X171450000Y-67299760D01*
X171333475Y-67125368D01*
X171126632Y-66918525D01*
X170883411Y-66756010D01*
X170613158Y-66644068D01*
X170326260Y-66587000D01*
X170033740Y-66587000D01*
X169746842Y-66644068D01*
X169476589Y-66756010D01*
X169233368Y-66918525D01*
X169026525Y-67125368D01*
X168910000Y-67299760D01*
X168793475Y-67125368D01*
X168586632Y-66918525D01*
X168343411Y-66756010D01*
X168073158Y-66644068D01*
X167786260Y-66587000D01*
X167493740Y-66587000D01*
X167206842Y-66644068D01*
X166936589Y-66756010D01*
X166693368Y-66918525D01*
X166486525Y-67125368D01*
X166370000Y-67299760D01*
X166253475Y-67125368D01*
X166046632Y-66918525D01*
X165803411Y-66756010D01*
X165533158Y-66644068D01*
X165246260Y-66587000D01*
X164953740Y-66587000D01*
X164666842Y-66644068D01*
X164396589Y-66756010D01*
X164153368Y-66918525D01*
X163946525Y-67125368D01*
X163830000Y-67299760D01*
X163713475Y-67125368D01*
X163506632Y-66918525D01*
X163263411Y-66756010D01*
X162993158Y-66644068D01*
X162706260Y-66587000D01*
X162413740Y-66587000D01*
X162126842Y-66644068D01*
X161856589Y-66756010D01*
X161613368Y-66918525D01*
X161406525Y-67125368D01*
X161290000Y-67299760D01*
X161173475Y-67125368D01*
X160966632Y-66918525D01*
X160723411Y-66756010D01*
X160453158Y-66644068D01*
X160166260Y-66587000D01*
X159873740Y-66587000D01*
X159586842Y-66644068D01*
X159316589Y-66756010D01*
X159073368Y-66918525D01*
X158866525Y-67125368D01*
X158750000Y-67299760D01*
X158633475Y-67125368D01*
X158426632Y-66918525D01*
X158183411Y-66756010D01*
X157913158Y-66644068D01*
X157626260Y-66587000D01*
X157333740Y-66587000D01*
X157046842Y-66644068D01*
X156776589Y-66756010D01*
X156533368Y-66918525D01*
X156326525Y-67125368D01*
X156210000Y-67299760D01*
X156093475Y-67125368D01*
X155886632Y-66918525D01*
X155643411Y-66756010D01*
X155373158Y-66644068D01*
X155086260Y-66587000D01*
X154793740Y-66587000D01*
X154506842Y-66644068D01*
X154236589Y-66756010D01*
X153993368Y-66918525D01*
X153786525Y-67125368D01*
X153670000Y-67299760D01*
X153553475Y-67125368D01*
X153346632Y-66918525D01*
X153103411Y-66756010D01*
X152833158Y-66644068D01*
X152546260Y-66587000D01*
X152253740Y-66587000D01*
X151966842Y-66644068D01*
X151696589Y-66756010D01*
X151453368Y-66918525D01*
X151246525Y-67125368D01*
X151130000Y-67299760D01*
X151013475Y-67125368D01*
X150806632Y-66918525D01*
X150563411Y-66756010D01*
X150293158Y-66644068D01*
X150006260Y-66587000D01*
X149713740Y-66587000D01*
X149426842Y-66644068D01*
X149156589Y-66756010D01*
X148913368Y-66918525D01*
X148706525Y-67125368D01*
X148590000Y-67299760D01*
X148473475Y-67125368D01*
X148266632Y-66918525D01*
X148023411Y-66756010D01*
X147753158Y-66644068D01*
X147466260Y-66587000D01*
X147173740Y-66587000D01*
X146886842Y-66644068D01*
X146616589Y-66756010D01*
X146373368Y-66918525D01*
X146166525Y-67125368D01*
X146050000Y-67299760D01*
X145933475Y-67125368D01*
X145726632Y-66918525D01*
X145483411Y-66756010D01*
X145213158Y-66644068D01*
X144926260Y-66587000D01*
X144633740Y-66587000D01*
X144346842Y-66644068D01*
X144076589Y-66756010D01*
X143833368Y-66918525D01*
X143626525Y-67125368D01*
X143510000Y-67299760D01*
X143393475Y-67125368D01*
X143186632Y-66918525D01*
X142943411Y-66756010D01*
X142673158Y-66644068D01*
X142386260Y-66587000D01*
X142093740Y-66587000D01*
X141806842Y-66644068D01*
X141536589Y-66756010D01*
X141293368Y-66918525D01*
X141086525Y-67125368D01*
X140970000Y-67299760D01*
X140853475Y-67125368D01*
X140646632Y-66918525D01*
X140403411Y-66756010D01*
X140133158Y-66644068D01*
X139846260Y-66587000D01*
X139553740Y-66587000D01*
X139266842Y-66644068D01*
X138996589Y-66756010D01*
X138753368Y-66918525D01*
X138546525Y-67125368D01*
X138430000Y-67299760D01*
X138313475Y-67125368D01*
X138106632Y-66918525D01*
X137863411Y-66756010D01*
X137593158Y-66644068D01*
X137306260Y-66587000D01*
X137013740Y-66587000D01*
X136726842Y-66644068D01*
X136456589Y-66756010D01*
X136213368Y-66918525D01*
X136081513Y-67050380D01*
X136059502Y-66977820D01*
X136000537Y-66867506D01*
X135921185Y-66770815D01*
X135824494Y-66691463D01*
X135714180Y-66632498D01*
X135594482Y-66596188D01*
X135470000Y-66583928D01*
X133770000Y-66583928D01*
X133645518Y-66596188D01*
X133525820Y-66632498D01*
X133415506Y-66691463D01*
X133318815Y-66770815D01*
X133239463Y-66867506D01*
X133180498Y-66977820D01*
X133144188Y-67097518D01*
X133131928Y-67222000D01*
X122047000Y-67222000D01*
X122047000Y-63627000D01*
X196723000Y-63627000D01*
X196723000Y-80041054D01*
G37*
%TD.AperFunction*%
D26*
X151767001Y-98737288D02*
X151723063Y-98781226D01*
X151609795Y-98950744D01*
X151531774Y-99139102D01*
X151492000Y-99339061D01*
X151492000Y-99542939D01*
X151531774Y-99742898D01*
X151609795Y-99931256D01*
X151723063Y-100100774D01*
X151867226Y-100244937D01*
X152036744Y-100358205D01*
X152093266Y-100381617D01*
X146593876Y-105881008D01*
X142941002Y-105881008D01*
X142941002Y-105753000D01*
X143100123Y-105880666D01*
X143283418Y-105817128D01*
X143456052Y-105707658D01*
X143604013Y-105566612D01*
X143721614Y-105399410D01*
X143804336Y-105212478D01*
X143849000Y-105013000D01*
X143849000Y-104713000D01*
X142941000Y-104713000D01*
X142941000Y-104733000D01*
X142687000Y-104733000D01*
X142687000Y-104713000D01*
X141779000Y-104713000D01*
X141779000Y-105013000D01*
X141823664Y-105212478D01*
X141906386Y-105399410D01*
X142023987Y-105566612D01*
X142171948Y-105707658D01*
X142344582Y-105817128D01*
X142527877Y-105880666D01*
X142686998Y-105753000D01*
X142686998Y-105881008D01*
X139725796Y-105881008D01*
X139748924Y-105857880D01*
X139777921Y-105834083D01*
X139872894Y-105718358D01*
X139943466Y-105586329D01*
X139986923Y-105443068D01*
X139997920Y-105331415D01*
X139997920Y-105331406D01*
X140001596Y-105294083D01*
X139997920Y-105256760D01*
X139997920Y-103860433D01*
X140027000Y-103714240D01*
X140027000Y-103549760D01*
X139994911Y-103388440D01*
X139973190Y-103336000D01*
X141169355Y-103336000D01*
X141187890Y-103524193D01*
X141242784Y-103705154D01*
X141331927Y-103871928D01*
X141451893Y-104018107D01*
X141598072Y-104138073D01*
X141764846Y-104227216D01*
X141779000Y-104231510D01*
X141779000Y-104459000D01*
X142687000Y-104459000D01*
X142687000Y-104439000D01*
X142941000Y-104439000D01*
X142941000Y-104459000D01*
X143849000Y-104459000D01*
X143849000Y-104159000D01*
X143804336Y-103959522D01*
X143721614Y-103772590D01*
X143604013Y-103605388D01*
X143456052Y-103464342D01*
X143390122Y-103422535D01*
X143398645Y-103336000D01*
X143380110Y-103147807D01*
X143325216Y-102966846D01*
X143236073Y-102800072D01*
X143116107Y-102653893D01*
X142969928Y-102533927D01*
X142803154Y-102444784D01*
X142622193Y-102389890D01*
X142481162Y-102376000D01*
X142086838Y-102376000D01*
X141945807Y-102389890D01*
X141764846Y-102444784D01*
X141598072Y-102533927D01*
X141451893Y-102653893D01*
X141331927Y-102800072D01*
X141242784Y-102966846D01*
X141187890Y-103147807D01*
X141169355Y-103336000D01*
X139973190Y-103336000D01*
X139931967Y-103236479D01*
X139840587Y-103099719D01*
X139724281Y-102983413D01*
X139587521Y-102892033D01*
X139547910Y-102875626D01*
X139547910Y-102437255D01*
X139597774Y-102403937D01*
X139641711Y-102360000D01*
X140170678Y-102360000D01*
X140208000Y-102363676D01*
X140245322Y-102360000D01*
X140245333Y-102360000D01*
X140356986Y-102349003D01*
X140500247Y-102305546D01*
X140632276Y-102234974D01*
X140748001Y-102140001D01*
X140771804Y-102110997D01*
X151767000Y-91115803D01*
X151767001Y-98737288D01*
%TA.AperFunction,Conductor*%
D27*
G36*
X151767001Y-98737288D02*
G01*
X151723063Y-98781226D01*
X151609795Y-98950744D01*
X151531774Y-99139102D01*
X151492000Y-99339061D01*
X151492000Y-99542939D01*
X151531774Y-99742898D01*
X151609795Y-99931256D01*
X151723063Y-100100774D01*
X151867226Y-100244937D01*
X152036744Y-100358205D01*
X152093266Y-100381617D01*
X146593876Y-105881008D01*
X142941002Y-105881008D01*
X142941002Y-105753000D01*
X143100123Y-105880666D01*
X143283418Y-105817128D01*
X143456052Y-105707658D01*
X143604013Y-105566612D01*
X143721614Y-105399410D01*
X143804336Y-105212478D01*
X143849000Y-105013000D01*
X143849000Y-104713000D01*
X142941000Y-104713000D01*
X142941000Y-104733000D01*
X142687000Y-104733000D01*
X142687000Y-104713000D01*
X141779000Y-104713000D01*
X141779000Y-105013000D01*
X141823664Y-105212478D01*
X141906386Y-105399410D01*
X142023987Y-105566612D01*
X142171948Y-105707658D01*
X142344582Y-105817128D01*
X142527877Y-105880666D01*
X142686998Y-105753000D01*
X142686998Y-105881008D01*
X139725796Y-105881008D01*
X139748924Y-105857880D01*
X139777921Y-105834083D01*
X139872894Y-105718358D01*
X139943466Y-105586329D01*
X139986923Y-105443068D01*
X139997920Y-105331415D01*
X139997920Y-105331406D01*
X140001596Y-105294083D01*
X139997920Y-105256760D01*
X139997920Y-103860433D01*
X140027000Y-103714240D01*
X140027000Y-103549760D01*
X139994911Y-103388440D01*
X139973190Y-103336000D01*
X141169355Y-103336000D01*
X141187890Y-103524193D01*
X141242784Y-103705154D01*
X141331927Y-103871928D01*
X141451893Y-104018107D01*
X141598072Y-104138073D01*
X141764846Y-104227216D01*
X141779000Y-104231510D01*
X141779000Y-104459000D01*
X142687000Y-104459000D01*
X142687000Y-104439000D01*
X142941000Y-104439000D01*
X142941000Y-104459000D01*
X143849000Y-104459000D01*
X143849000Y-104159000D01*
X143804336Y-103959522D01*
X143721614Y-103772590D01*
X143604013Y-103605388D01*
X143456052Y-103464342D01*
X143390122Y-103422535D01*
X143398645Y-103336000D01*
X143380110Y-103147807D01*
X143325216Y-102966846D01*
X143236073Y-102800072D01*
X143116107Y-102653893D01*
X142969928Y-102533927D01*
X142803154Y-102444784D01*
X142622193Y-102389890D01*
X142481162Y-102376000D01*
X142086838Y-102376000D01*
X141945807Y-102389890D01*
X141764846Y-102444784D01*
X141598072Y-102533927D01*
X141451893Y-102653893D01*
X141331927Y-102800072D01*
X141242784Y-102966846D01*
X141187890Y-103147807D01*
X141169355Y-103336000D01*
X139973190Y-103336000D01*
X139931967Y-103236479D01*
X139840587Y-103099719D01*
X139724281Y-102983413D01*
X139587521Y-102892033D01*
X139547910Y-102875626D01*
X139547910Y-102437255D01*
X139597774Y-102403937D01*
X139641711Y-102360000D01*
X140170678Y-102360000D01*
X140208000Y-102363676D01*
X140245322Y-102360000D01*
X140245333Y-102360000D01*
X140356986Y-102349003D01*
X140500247Y-102305546D01*
X140632276Y-102234974D01*
X140748001Y-102140001D01*
X140771804Y-102110997D01*
X151767000Y-91115803D01*
X151767001Y-98737288D01*
G37*
%TD.AperFunction*%
D26*
X138027911Y-103373328D02*
X138017996Y-103406014D01*
X138006999Y-103517667D01*
X138006999Y-103517677D01*
X138003323Y-103554999D01*
X138006999Y-103592321D01*
X138006999Y-103925679D01*
X138003323Y-103963001D01*
X138006999Y-104000323D01*
X138006999Y-104000334D01*
X138017996Y-104111987D01*
X138027910Y-104144670D01*
X138027910Y-104375000D01*
X137947061Y-104375000D01*
X137747102Y-104414774D01*
X137558744Y-104492795D01*
X137389226Y-104606063D01*
X137245063Y-104750226D01*
X137131795Y-104919744D01*
X137053774Y-105108102D01*
X137014000Y-105308061D01*
X137014000Y-105430999D01*
X135439396Y-105430999D01*
X135461614Y-105399410D01*
X135544336Y-105212478D01*
X135589000Y-105013000D01*
X135589000Y-104713000D01*
X134681000Y-104713000D01*
X134681000Y-104733000D01*
X134427000Y-104733000D01*
X134427000Y-104713000D01*
X134407000Y-104713000D01*
X134407000Y-104459000D01*
X134427000Y-104459000D01*
X134427000Y-104439000D01*
X134681000Y-104439000D01*
X134681000Y-104459000D01*
X135589000Y-104459000D01*
X135589000Y-104159000D01*
X135587861Y-104153913D01*
X135695964Y-104081681D01*
X135829681Y-103947964D01*
X135934741Y-103790731D01*
X136007108Y-103616022D01*
X136040927Y-103445999D01*
X136741677Y-103445999D01*
X136778999Y-103449675D01*
X136816321Y-103445999D01*
X136816332Y-103445999D01*
X136927985Y-103435002D01*
X137071246Y-103391545D01*
X137203275Y-103320973D01*
X137319000Y-103226000D01*
X137342803Y-103196996D01*
X138027910Y-102511889D01*
X138027911Y-103373328D01*
%TA.AperFunction,Conductor*%
D27*
G36*
X138027911Y-103373328D02*
G01*
X138017996Y-103406014D01*
X138006999Y-103517667D01*
X138006999Y-103517677D01*
X138003323Y-103554999D01*
X138006999Y-103592321D01*
X138006999Y-103925679D01*
X138003323Y-103963001D01*
X138006999Y-104000323D01*
X138006999Y-104000334D01*
X138017996Y-104111987D01*
X138027910Y-104144670D01*
X138027910Y-104375000D01*
X137947061Y-104375000D01*
X137747102Y-104414774D01*
X137558744Y-104492795D01*
X137389226Y-104606063D01*
X137245063Y-104750226D01*
X137131795Y-104919744D01*
X137053774Y-105108102D01*
X137014000Y-105308061D01*
X137014000Y-105430999D01*
X135439396Y-105430999D01*
X135461614Y-105399410D01*
X135544336Y-105212478D01*
X135589000Y-105013000D01*
X135589000Y-104713000D01*
X134681000Y-104713000D01*
X134681000Y-104733000D01*
X134427000Y-104733000D01*
X134427000Y-104713000D01*
X134407000Y-104713000D01*
X134407000Y-104459000D01*
X134427000Y-104459000D01*
X134427000Y-104439000D01*
X134681000Y-104439000D01*
X134681000Y-104459000D01*
X135589000Y-104459000D01*
X135589000Y-104159000D01*
X135587861Y-104153913D01*
X135695964Y-104081681D01*
X135829681Y-103947964D01*
X135934741Y-103790731D01*
X136007108Y-103616022D01*
X136040927Y-103445999D01*
X136741677Y-103445999D01*
X136778999Y-103449675D01*
X136816321Y-103445999D01*
X136816332Y-103445999D01*
X136927985Y-103435002D01*
X137071246Y-103391545D01*
X137203275Y-103320973D01*
X137319000Y-103226000D01*
X137342803Y-103196996D01*
X138027910Y-102511889D01*
X138027911Y-103373328D01*
G37*
%TD.AperFunction*%
%TD*%
M02*
