%TF.GenerationSoftware,KiCad,Pcbnew,(5.1.9-0-10_14)*%
%TF.CreationDate,2021-04-08T19:41:26-04:00*%
%TF.ProjectId,RoboCloud,526f626f-436c-46f7-9564-2e6b69636164,rev?*%
%TF.SameCoordinates,Original*%
%TF.FileFunction,Soldermask,Top*%
%TF.FilePolarity,Negative*%
%FSLAX46Y46*%
G04 Gerber Fmt 4.6, Leading zero omitted, Abs format (unit mm)*
G04 Created by KiCad (PCBNEW (5.1.9-0-10_14)) date 2021-04-08 19:41:26*
%MOMM*%
%LPD*%
G01*
G04 APERTURE LIST*
%ADD10C,1.950000*%
%ADD11R,1.950000X1.950000*%
%ADD12R,0.990600X0.711200*%
%ADD13R,2.000000X2.000000*%
%ADD14O,2.000000X2.000000*%
%ADD15R,4.100000X4.100000*%
%ADD16R,0.900000X1.500000*%
%ADD17R,1.500000X0.900000*%
%ADD18O,1.700000X1.700000*%
%ADD19R,1.700000X1.700000*%
%ADD20R,3.708400X1.219200*%
%ADD21R,1.168400X0.457200*%
%ADD22O,0.800000X1.400000*%
%ADD23R,0.300000X0.700000*%
%ADD24O,0.950000X0.650000*%
%ADD25C,0.650000*%
%ADD26R,0.704800X0.199200*%
%ADD27R,0.199200X0.704800*%
%ADD28R,5.499999X5.499999*%
%ADD29R,2.489200X0.939800*%
%ADD30R,6.934200X6.781800*%
G04 APERTURE END LIST*
D10*
%TO.C,J2*%
X193040000Y-95758000D03*
D11*
X193040000Y-100838000D03*
%TD*%
%TO.C,REF\u002A\u002A*%
G36*
G01*
X152063000Y-106409500D02*
X152063000Y-105934500D01*
G75*
G02*
X152300500Y-105697000I237500J0D01*
G01*
X152800500Y-105697000D01*
G75*
G02*
X153038000Y-105934500I0J-237500D01*
G01*
X153038000Y-106409500D01*
G75*
G02*
X152800500Y-106647000I-237500J0D01*
G01*
X152300500Y-106647000D01*
G75*
G02*
X152063000Y-106409500I0J237500D01*
G01*
G37*
G36*
G01*
X150238000Y-106409500D02*
X150238000Y-105934500D01*
G75*
G02*
X150475500Y-105697000I237500J0D01*
G01*
X150975500Y-105697000D01*
G75*
G02*
X151213000Y-105934500I0J-237500D01*
G01*
X151213000Y-106409500D01*
G75*
G02*
X150975500Y-106647000I-237500J0D01*
G01*
X150475500Y-106647000D01*
G75*
G02*
X150238000Y-106409500I0J237500D01*
G01*
G37*
%TD*%
%TO.C,C*%
G36*
G01*
X147454500Y-106409500D02*
X147454500Y-105934500D01*
G75*
G02*
X147692000Y-105697000I237500J0D01*
G01*
X148292000Y-105697000D01*
G75*
G02*
X148529500Y-105934500I0J-237500D01*
G01*
X148529500Y-106409500D01*
G75*
G02*
X148292000Y-106647000I-237500J0D01*
G01*
X147692000Y-106647000D01*
G75*
G02*
X147454500Y-106409500I0J237500D01*
G01*
G37*
G36*
G01*
X145729500Y-106409500D02*
X145729500Y-105934500D01*
G75*
G02*
X145967000Y-105697000I237500J0D01*
G01*
X146567000Y-105697000D01*
G75*
G02*
X146804500Y-105934500I0J-237500D01*
G01*
X146804500Y-106409500D01*
G75*
G02*
X146567000Y-106647000I-237500J0D01*
G01*
X145967000Y-106647000D01*
G75*
G02*
X145729500Y-106409500I0J237500D01*
G01*
G37*
%TD*%
D12*
%TO.C,SW1*%
X145069999Y-108145001D03*
X149570001Y-108145001D03*
X145069999Y-110294999D03*
X149570001Y-110294999D03*
%TD*%
%TO.C,REF\u002A\u002A*%
G36*
G01*
X196200001Y-66380000D02*
X194899999Y-66380000D01*
G75*
G02*
X194650000Y-66130001I0J249999D01*
G01*
X194650000Y-65429999D01*
G75*
G02*
X194899999Y-65180000I249999J0D01*
G01*
X196200001Y-65180000D01*
G75*
G02*
X196450000Y-65429999I0J-249999D01*
G01*
X196450000Y-66130001D01*
G75*
G02*
X196200001Y-66380000I-249999J0D01*
G01*
G37*
G36*
G01*
X196200001Y-71980000D02*
X194899999Y-71980000D01*
G75*
G02*
X194650000Y-71730001I0J249999D01*
G01*
X194650000Y-71029999D01*
G75*
G02*
X194899999Y-70780000I249999J0D01*
G01*
X196200001Y-70780000D01*
G75*
G02*
X196450000Y-71029999I0J-249999D01*
G01*
X196450000Y-71730001D01*
G75*
G02*
X196200001Y-71980000I-249999J0D01*
G01*
G37*
G36*
G01*
X192300000Y-67380000D02*
X191050000Y-67380000D01*
G75*
G02*
X190900000Y-67230000I0J150000D01*
G01*
X190900000Y-66930000D01*
G75*
G02*
X191050000Y-66780000I150000J0D01*
G01*
X192300000Y-66780000D01*
G75*
G02*
X192450000Y-66930000I0J-150000D01*
G01*
X192450000Y-67230000D01*
G75*
G02*
X192300000Y-67380000I-150000J0D01*
G01*
G37*
G36*
G01*
X192300000Y-68380000D02*
X191050000Y-68380000D01*
G75*
G02*
X190900000Y-68230000I0J150000D01*
G01*
X190900000Y-67930000D01*
G75*
G02*
X191050000Y-67780000I150000J0D01*
G01*
X192300000Y-67780000D01*
G75*
G02*
X192450000Y-67930000I0J-150000D01*
G01*
X192450000Y-68230000D01*
G75*
G02*
X192300000Y-68380000I-150000J0D01*
G01*
G37*
G36*
G01*
X192300000Y-69380000D02*
X191050000Y-69380000D01*
G75*
G02*
X190900000Y-69230000I0J150000D01*
G01*
X190900000Y-68930000D01*
G75*
G02*
X191050000Y-68780000I150000J0D01*
G01*
X192300000Y-68780000D01*
G75*
G02*
X192450000Y-68930000I0J-150000D01*
G01*
X192450000Y-69230000D01*
G75*
G02*
X192300000Y-69380000I-150000J0D01*
G01*
G37*
G36*
G01*
X192300000Y-70380000D02*
X191050000Y-70380000D01*
G75*
G02*
X190900000Y-70230000I0J150000D01*
G01*
X190900000Y-69930000D01*
G75*
G02*
X191050000Y-69780000I150000J0D01*
G01*
X192300000Y-69780000D01*
G75*
G02*
X192450000Y-69930000I0J-150000D01*
G01*
X192450000Y-70230000D01*
G75*
G02*
X192300000Y-70380000I-150000J0D01*
G01*
G37*
%TD*%
D13*
%TO.C,D1*%
X166217600Y-103632000D03*
D14*
X171297600Y-103632000D03*
%TD*%
D15*
%TO.C,U2*%
X139521000Y-90598000D03*
D16*
X131581000Y-80783000D03*
X132981000Y-80783000D03*
X134481000Y-80783000D03*
X136081000Y-80783000D03*
D17*
X154731000Y-84158000D03*
X154731000Y-82658000D03*
D16*
X154081000Y-80783000D03*
X152581000Y-80783000D03*
X151081000Y-80783000D03*
X149581000Y-80783000D03*
X148081000Y-80783000D03*
X146581000Y-80783000D03*
X145081000Y-80783000D03*
X143581000Y-80783000D03*
X142081000Y-80783000D03*
X140581000Y-80783000D03*
X139081000Y-80783000D03*
X137581000Y-80783000D03*
X150981000Y-98033000D03*
X149481000Y-98033000D03*
X147981000Y-98033000D03*
X146481000Y-98033000D03*
X144981000Y-98033000D03*
X143481000Y-98033000D03*
X141981000Y-98033000D03*
X140481000Y-98033000D03*
X138981000Y-98033000D03*
X137481000Y-98033000D03*
X135981000Y-98033000D03*
X134481000Y-98033000D03*
X132981000Y-98033000D03*
D17*
X154731000Y-85658000D03*
X154731000Y-87158000D03*
X154731000Y-88658000D03*
X154731000Y-90158000D03*
X154731000Y-91658000D03*
X154731000Y-93158000D03*
X154731000Y-94658000D03*
X154731000Y-96158000D03*
D16*
X153981000Y-98033000D03*
X152481000Y-98033000D03*
X131481000Y-98033000D03*
%TD*%
D18*
%TO.C,M2*%
X191198500Y-85852000D03*
D19*
X188658500Y-85852000D03*
%TD*%
%TO.C,C1*%
G36*
G01*
X172590000Y-90915500D02*
X172590000Y-90440500D01*
G75*
G02*
X172827500Y-90203000I237500J0D01*
G01*
X173427500Y-90203000D01*
G75*
G02*
X173665000Y-90440500I0J-237500D01*
G01*
X173665000Y-90915500D01*
G75*
G02*
X173427500Y-91153000I-237500J0D01*
G01*
X172827500Y-91153000D01*
G75*
G02*
X172590000Y-90915500I0J237500D01*
G01*
G37*
G36*
G01*
X174315000Y-90915500D02*
X174315000Y-90440500D01*
G75*
G02*
X174552500Y-90203000I237500J0D01*
G01*
X175152500Y-90203000D01*
G75*
G02*
X175390000Y-90440500I0J-237500D01*
G01*
X175390000Y-90915500D01*
G75*
G02*
X175152500Y-91153000I-237500J0D01*
G01*
X174552500Y-91153000D01*
G75*
G02*
X174315000Y-90915500I0J237500D01*
G01*
G37*
%TD*%
D20*
%TO.C,C2*%
X168097200Y-80010000D03*
X174294800Y-80010000D03*
%TD*%
%TO.C,C3*%
G36*
G01*
X163960000Y-98695500D02*
X163960000Y-99170500D01*
G75*
G02*
X163722500Y-99408000I-237500J0D01*
G01*
X163122500Y-99408000D01*
G75*
G02*
X162885000Y-99170500I0J237500D01*
G01*
X162885000Y-98695500D01*
G75*
G02*
X163122500Y-98458000I237500J0D01*
G01*
X163722500Y-98458000D01*
G75*
G02*
X163960000Y-98695500I0J-237500D01*
G01*
G37*
G36*
G01*
X162235000Y-98695500D02*
X162235000Y-99170500D01*
G75*
G02*
X161997500Y-99408000I-237500J0D01*
G01*
X161397500Y-99408000D01*
G75*
G02*
X161160000Y-99170500I0J237500D01*
G01*
X161160000Y-98695500D01*
G75*
G02*
X161397500Y-98458000I237500J0D01*
G01*
X161997500Y-98458000D01*
G75*
G02*
X162235000Y-98695500I0J-237500D01*
G01*
G37*
%TD*%
%TO.C,C4*%
G36*
G01*
X177998000Y-90915500D02*
X177998000Y-90440500D01*
G75*
G02*
X178235500Y-90203000I237500J0D01*
G01*
X178835500Y-90203000D01*
G75*
G02*
X179073000Y-90440500I0J-237500D01*
G01*
X179073000Y-90915500D01*
G75*
G02*
X178835500Y-91153000I-237500J0D01*
G01*
X178235500Y-91153000D01*
G75*
G02*
X177998000Y-90915500I0J237500D01*
G01*
G37*
G36*
G01*
X176273000Y-90915500D02*
X176273000Y-90440500D01*
G75*
G02*
X176510500Y-90203000I237500J0D01*
G01*
X177110500Y-90203000D01*
G75*
G02*
X177348000Y-90440500I0J-237500D01*
G01*
X177348000Y-90915500D01*
G75*
G02*
X177110500Y-91153000I-237500J0D01*
G01*
X176510500Y-91153000D01*
G75*
G02*
X176273000Y-90915500I0J237500D01*
G01*
G37*
%TD*%
%TO.C,C5*%
G36*
G01*
X168346000Y-98408500D02*
X168346000Y-97933500D01*
G75*
G02*
X168583500Y-97696000I237500J0D01*
G01*
X169183500Y-97696000D01*
G75*
G02*
X169421000Y-97933500I0J-237500D01*
G01*
X169421000Y-98408500D01*
G75*
G02*
X169183500Y-98646000I-237500J0D01*
G01*
X168583500Y-98646000D01*
G75*
G02*
X168346000Y-98408500I0J237500D01*
G01*
G37*
G36*
G01*
X166621000Y-98408500D02*
X166621000Y-97933500D01*
G75*
G02*
X166858500Y-97696000I237500J0D01*
G01*
X167458500Y-97696000D01*
G75*
G02*
X167696000Y-97933500I0J-237500D01*
G01*
X167696000Y-98408500D01*
G75*
G02*
X167458500Y-98646000I-237500J0D01*
G01*
X166858500Y-98646000D01*
G75*
G02*
X166621000Y-98408500I0J237500D01*
G01*
G37*
%TD*%
%TO.C,C6*%
G36*
G01*
X168346000Y-96503500D02*
X168346000Y-96028500D01*
G75*
G02*
X168583500Y-95791000I237500J0D01*
G01*
X169183500Y-95791000D01*
G75*
G02*
X169421000Y-96028500I0J-237500D01*
G01*
X169421000Y-96503500D01*
G75*
G02*
X169183500Y-96741000I-237500J0D01*
G01*
X168583500Y-96741000D01*
G75*
G02*
X168346000Y-96503500I0J237500D01*
G01*
G37*
G36*
G01*
X166621000Y-96503500D02*
X166621000Y-96028500D01*
G75*
G02*
X166858500Y-95791000I237500J0D01*
G01*
X167458500Y-95791000D01*
G75*
G02*
X167696000Y-96028500I0J-237500D01*
G01*
X167696000Y-96503500D01*
G75*
G02*
X167458500Y-96741000I-237500J0D01*
G01*
X166858500Y-96741000D01*
G75*
G02*
X166621000Y-96503500I0J237500D01*
G01*
G37*
%TD*%
%TO.C,C7*%
G36*
G01*
X166621000Y-94725500D02*
X166621000Y-94250500D01*
G75*
G02*
X166858500Y-94013000I237500J0D01*
G01*
X167458500Y-94013000D01*
G75*
G02*
X167696000Y-94250500I0J-237500D01*
G01*
X167696000Y-94725500D01*
G75*
G02*
X167458500Y-94963000I-237500J0D01*
G01*
X166858500Y-94963000D01*
G75*
G02*
X166621000Y-94725500I0J237500D01*
G01*
G37*
G36*
G01*
X168346000Y-94725500D02*
X168346000Y-94250500D01*
G75*
G02*
X168583500Y-94013000I237500J0D01*
G01*
X169183500Y-94013000D01*
G75*
G02*
X169421000Y-94250500I0J-237500D01*
G01*
X169421000Y-94725500D01*
G75*
G02*
X169183500Y-94963000I-237500J0D01*
G01*
X168583500Y-94963000D01*
G75*
G02*
X168346000Y-94725500I0J237500D01*
G01*
G37*
%TD*%
D21*
%TO.C,D2*%
X145427700Y-104140000D03*
X147688300Y-104140000D03*
%TD*%
D19*
%TO.C,PINS*%
X134620000Y-68072000D03*
D18*
X137160000Y-68072000D03*
X139700000Y-68072000D03*
X142240000Y-68072000D03*
X144780000Y-68072000D03*
X147320000Y-68072000D03*
X149860000Y-68072000D03*
X152400000Y-68072000D03*
X154940000Y-68072000D03*
X157480000Y-68072000D03*
X160020000Y-68072000D03*
X162560000Y-68072000D03*
X165100000Y-68072000D03*
X167640000Y-68072000D03*
X170180000Y-68072000D03*
X172720000Y-68072000D03*
%TD*%
D22*
%TO.C,J3*%
X134554000Y-104586000D03*
D23*
X135934000Y-102676000D03*
X136434000Y-102676000D03*
X136934000Y-102676000D03*
X137434000Y-102676000D03*
X137934000Y-102676000D03*
X138434000Y-102676000D03*
X138934000Y-102676000D03*
X141434000Y-102676000D03*
X140434000Y-102676000D03*
X139934000Y-102676000D03*
X139434000Y-102676000D03*
X140934000Y-102676000D03*
X141184000Y-104376000D03*
D22*
X142814000Y-104586000D03*
X143174000Y-110536000D03*
X134194000Y-110536000D03*
D24*
X142284000Y-103336000D03*
D25*
X135084000Y-103336000D03*
D23*
X140684000Y-104376000D03*
X140184000Y-104376000D03*
X139684000Y-104376000D03*
X139184000Y-104376000D03*
X138684000Y-104376000D03*
X138184000Y-104376000D03*
X137684000Y-104376000D03*
X137184000Y-104376000D03*
X136684000Y-104376000D03*
X136184000Y-104376000D03*
X135684000Y-104376000D03*
%TD*%
D19*
%TO.C,GND*%
X179070000Y-68072000D03*
D18*
X181610000Y-68072000D03*
%TD*%
%TO.C,M1*%
X184912000Y-85852000D03*
D19*
X182372000Y-85852000D03*
%TD*%
%TO.C,R1*%
G36*
G01*
X179956000Y-90915500D02*
X179956000Y-90440500D01*
G75*
G02*
X180193500Y-90203000I237500J0D01*
G01*
X180693500Y-90203000D01*
G75*
G02*
X180931000Y-90440500I0J-237500D01*
G01*
X180931000Y-90915500D01*
G75*
G02*
X180693500Y-91153000I-237500J0D01*
G01*
X180193500Y-91153000D01*
G75*
G02*
X179956000Y-90915500I0J237500D01*
G01*
G37*
G36*
G01*
X181781000Y-90915500D02*
X181781000Y-90440500D01*
G75*
G02*
X182018500Y-90203000I237500J0D01*
G01*
X182518500Y-90203000D01*
G75*
G02*
X182756000Y-90440500I0J-237500D01*
G01*
X182756000Y-90915500D01*
G75*
G02*
X182518500Y-91153000I-237500J0D01*
G01*
X182018500Y-91153000D01*
G75*
G02*
X181781000Y-90915500I0J237500D01*
G01*
G37*
%TD*%
%TO.C,R2*%
G36*
G01*
X186312000Y-90440500D02*
X186312000Y-90915500D01*
G75*
G02*
X186074500Y-91153000I-237500J0D01*
G01*
X185574500Y-91153000D01*
G75*
G02*
X185337000Y-90915500I0J237500D01*
G01*
X185337000Y-90440500D01*
G75*
G02*
X185574500Y-90203000I237500J0D01*
G01*
X186074500Y-90203000D01*
G75*
G02*
X186312000Y-90440500I0J-237500D01*
G01*
G37*
G36*
G01*
X184487000Y-90440500D02*
X184487000Y-90915500D01*
G75*
G02*
X184249500Y-91153000I-237500J0D01*
G01*
X183749500Y-91153000D01*
G75*
G02*
X183512000Y-90915500I0J237500D01*
G01*
X183512000Y-90440500D01*
G75*
G02*
X183749500Y-90203000I237500J0D01*
G01*
X184249500Y-90203000D01*
G75*
G02*
X184487000Y-90440500I0J-237500D01*
G01*
G37*
%TD*%
%TO.C,Re*%
G36*
G01*
X192675500Y-78784000D02*
X193150500Y-78784000D01*
G75*
G02*
X193388000Y-79021500I0J-237500D01*
G01*
X193388000Y-79521500D01*
G75*
G02*
X193150500Y-79759000I-237500J0D01*
G01*
X192675500Y-79759000D01*
G75*
G02*
X192438000Y-79521500I0J237500D01*
G01*
X192438000Y-79021500D01*
G75*
G02*
X192675500Y-78784000I237500J0D01*
G01*
G37*
G36*
G01*
X192675500Y-76959000D02*
X193150500Y-76959000D01*
G75*
G02*
X193388000Y-77196500I0J-237500D01*
G01*
X193388000Y-77696500D01*
G75*
G02*
X193150500Y-77934000I-237500J0D01*
G01*
X192675500Y-77934000D01*
G75*
G02*
X192438000Y-77696500I0J237500D01*
G01*
X192438000Y-77196500D01*
G75*
G02*
X192675500Y-76959000I237500J0D01*
G01*
G37*
%TD*%
%TO.C,R4*%
G36*
G01*
X133480000Y-102378500D02*
X133480000Y-102853500D01*
G75*
G02*
X133242500Y-103091000I-237500J0D01*
G01*
X132742500Y-103091000D01*
G75*
G02*
X132505000Y-102853500I0J237500D01*
G01*
X132505000Y-102378500D01*
G75*
G02*
X132742500Y-102141000I237500J0D01*
G01*
X133242500Y-102141000D01*
G75*
G02*
X133480000Y-102378500I0J-237500D01*
G01*
G37*
G36*
G01*
X131655000Y-102378500D02*
X131655000Y-102853500D01*
G75*
G02*
X131417500Y-103091000I-237500J0D01*
G01*
X130917500Y-103091000D01*
G75*
G02*
X130680000Y-102853500I0J237500D01*
G01*
X130680000Y-102378500D01*
G75*
G02*
X130917500Y-102141000I237500J0D01*
G01*
X131417500Y-102141000D01*
G75*
G02*
X131655000Y-102378500I0J-237500D01*
G01*
G37*
%TD*%
%TO.C,R5*%
G36*
G01*
X132505000Y-107171500D02*
X132505000Y-106696500D01*
G75*
G02*
X132742500Y-106459000I237500J0D01*
G01*
X133242500Y-106459000D01*
G75*
G02*
X133480000Y-106696500I0J-237500D01*
G01*
X133480000Y-107171500D01*
G75*
G02*
X133242500Y-107409000I-237500J0D01*
G01*
X132742500Y-107409000D01*
G75*
G02*
X132505000Y-107171500I0J237500D01*
G01*
G37*
G36*
G01*
X130680000Y-107171500D02*
X130680000Y-106696500D01*
G75*
G02*
X130917500Y-106459000I237500J0D01*
G01*
X131417500Y-106459000D01*
G75*
G02*
X131655000Y-106696500I0J-237500D01*
G01*
X131655000Y-107171500D01*
G75*
G02*
X131417500Y-107409000I-237500J0D01*
G01*
X130917500Y-107409000D01*
G75*
G02*
X130680000Y-107171500I0J237500D01*
G01*
G37*
%TD*%
D12*
%TO.C,SW1*%
X149443001Y-102293999D03*
X144942999Y-102293999D03*
X149443001Y-100144001D03*
X144942999Y-100144001D03*
%TD*%
D26*
%TO.C,U1*%
X182602602Y-76498000D03*
X182602602Y-76997999D03*
X182602602Y-77498001D03*
X182602602Y-77998000D03*
X182602602Y-78497999D03*
X182602602Y-78998000D03*
X182602602Y-79498000D03*
X182602602Y-79998001D03*
X182602602Y-80498000D03*
X182602602Y-80997999D03*
X182602602Y-81498001D03*
X182602602Y-81998000D03*
D27*
X183305000Y-82700398D03*
X183804999Y-82700398D03*
X184305001Y-82700398D03*
X184805000Y-82700398D03*
X185304999Y-82700398D03*
X185805000Y-82700398D03*
X186305000Y-82700398D03*
X186805001Y-82700398D03*
X187305000Y-82700398D03*
X187804999Y-82700398D03*
X188305001Y-82700398D03*
X188805000Y-82700398D03*
D26*
X189507398Y-81998000D03*
X189507398Y-81498001D03*
X189507398Y-80997999D03*
X189507398Y-80498000D03*
X189507398Y-79998001D03*
X189507398Y-79498000D03*
X189507398Y-78998000D03*
X189507398Y-78497999D03*
X189507398Y-77998000D03*
X189507398Y-77498001D03*
X189507398Y-76997999D03*
X189507398Y-76498000D03*
D27*
X188805000Y-75795602D03*
X188305001Y-75795602D03*
X187804999Y-75795602D03*
X187305000Y-75795602D03*
X186805001Y-75795602D03*
X186305000Y-75795602D03*
X185805000Y-75795602D03*
X185304999Y-75795602D03*
X184805000Y-75795602D03*
X184305001Y-75795602D03*
X183804999Y-75795602D03*
X183305000Y-75795602D03*
D28*
X186055000Y-79248000D03*
%TD*%
D29*
%TO.C,U1*%
X167957500Y-90936001D03*
D30*
X161544000Y-88646000D03*
D29*
X167957500Y-86355999D03*
%TD*%
M02*
