M48
; DRILL file {KiCad (5.1.9-0-10_14)} date Thursday, April 08, 2021 at 07:40:52 PM
; FORMAT={-:-/ absolute / inch / decimal}
; #@! TF.CreationDate,2021-04-08T19:40:52-04:00
; #@! TF.GenerationSoftware,Kicad,Pcbnew,(5.1.9-0-10_14)
; #@! TF.FileFunction,Plated,1,2,PTH
FMAT,2
INCH
T1C0.0079
T2C0.0118
T3C0.0157
T4C0.0197
T5C0.0394
T6C0.0433
T7C0.0512
T8C0.0630
%
G90
G05
T1
X5.48Y-4.08
T2
X5.2Y-4.04
X5.372Y-4.076
X5.5525Y-4.0775
X7.2925Y-2.946
X7.315Y-2.95
X7.3345Y-2.9485
X7.3555Y-2.95
X7.3755Y-2.95
X7.3995Y-2.9515
T3
X5.255Y-4.165
X5.345Y-3.73
X5.42Y-3.965
X5.435Y-4.15
X5.47Y-4.0
X5.95Y-3.7
X5.95Y-3.93
X6.005Y-3.915
X6.03Y-3.43
X6.03Y-3.49
X6.045Y-3.915
X6.145Y-3.61
X6.145Y-3.665
X6.145Y-3.725
X6.145Y-3.785
X6.3325Y-3.79
X6.95Y-3.0
X6.96Y-3.505
X7.115Y-3.52
X7.142Y-3.012
X7.175Y-3.52
X7.245Y-3.295
X7.38Y-3.56
X7.54Y-3.075
X7.6792Y-3.15
X7.7103Y-3.2078
T5
X5.3Y-2.68
X5.4Y-2.68
X5.5Y-2.68
X5.6Y-2.68
X5.7Y-2.68
X5.8Y-2.68
X5.9Y-2.68
X6.0Y-2.68
X6.1Y-2.68
X6.2Y-2.68
X6.3Y-2.68
X6.4Y-2.68
X6.5Y-2.68
X6.6Y-2.68
X6.7Y-2.68
X6.8Y-2.68
X7.05Y-2.68
X7.15Y-2.68
X7.18Y-3.38
X7.28Y-3.38
X7.4275Y-3.38
X7.5275Y-3.38
T6
X6.544Y-4.08
X6.744Y-4.08
T7
X7.6Y-3.77
X7.6Y-3.97
T8
X6.485Y-3.78
X6.77Y-3.4
X7.064Y-3.2
X7.211Y-3.9225
X7.552Y-3.23
T4
G00X5.2832Y-4.34
M15
G01X5.2832Y-4.3636
M16
G05
G00X5.2974Y-4.1057
M15
G01X5.2974Y-4.1294
M16
G05
G00X5.6226Y-4.1057
M15
G01X5.6226Y-4.1294
M16
G05
G00X5.6368Y-4.34
M15
G01X5.6368Y-4.3636
M16
G05
T0
M30
