<?xml version="1.0" standalone="no"?>
 <!DOCTYPE svg PUBLIC "-//W3C//DTD SVG 1.1//EN" 
 "http://www.w3.org/Graphics/SVG/1.1/DTD/svg11.dtd"> 
<svg
  xmlns:svg="http://www.w3.org/2000/svg"
  xmlns="http://www.w3.org/2000/svg"
  xmlns:xlink="http://www.w3.org/1999/xlink"
  version="1.1"
  width="29.700220cm" height="21.000720cm" viewBox="0 0 116930 82680">
<title>SVG Picture created as RoboCloud-F_Paste.svg date 2021/04/07 08:56:12 </title>
  <desc>Picture generated by PCBNEW </desc>
<g style="fill:#000000; fill-opacity:1;stroke:#000000; stroke-opacity:1;
stroke-linecap:round; stroke-linejoin:round;"
 transform="translate(0 0) scale(1 1)">
</g>
<g style="fill:#000000; fill-opacity:0.0; 
stroke:#000000; stroke-width:-0.000393701; stroke-opacity:1; 
stroke-linecap:round; stroke-linejoin:round;">
</g>
<g style="fill:#000000; fill-opacity:0.0; 
stroke:#000000; stroke-width:60; stroke-opacity:1; 
stroke-linecap:round; stroke-linejoin:round;">
<path d="M72206 30156
L72206 30619
" />
<path d="M72206 30619
L72669 30619
" />
<path d="M72669 30619
L72669 30156
" />
<path d="M72669 30156
L72206 30156
" />
<path d="M72206 30698
L72206 31160
" />
<path d="M72206 31160
L72669 31160
" />
<path d="M72669 31160
L72669 30698
" />
<path d="M72669 30698
L72206 30698
" />
<path d="M72206 31239
L72206 31701
" />
<path d="M72206 31701
L72669 31701
" />
<path d="M72669 31701
L72669 31239
" />
<path d="M72669 31239
L72206 31239
" />
<path d="M72206 31780
L72206 32243
" />
<path d="M72206 32243
L72669 32243
" />
<path d="M72669 32243
L72669 31780
" />
<path d="M72669 31780
L72206 31780
" />
<path d="M72748 30156
L72748 30619
" />
<path d="M72748 30619
L73210 30619
" />
<path d="M73210 30619
L73210 30156
" />
<path d="M73210 30156
L72748 30156
" />
<path d="M72748 30698
L72748 31160
" />
<path d="M72748 31160
L73210 31160
" />
<path d="M73210 31160
L73210 30698
" />
<path d="M73210 30698
L72748 30698
" />
<path d="M72748 31239
L72748 31701
" />
<path d="M72748 31701
L73210 31701
" />
<path d="M73210 31701
L73210 31239
" />
<path d="M73210 31239
L72748 31239
" />
<path d="M72748 31780
L72748 32243
" />
<path d="M72748 32243
L73210 32243
" />
<path d="M73210 32243
L73210 31780
" />
<path d="M73210 31780
L72748 31780
" />
<path d="M73289 30156
L73289 30619
" />
<path d="M73289 30619
L73751 30619
" />
<path d="M73751 30619
L73751 30156
" />
<path d="M73751 30156
L73289 30156
" />
<path d="M73289 30698
L73289 31160
" />
<path d="M73289 31160
L73751 31160
" />
<path d="M73751 31160
L73751 30698
" />
<path d="M73751 30698
L73289 30698
" />
<path d="M73289 31239
L73289 31701
" />
<path d="M73289 31701
L73751 31701
" />
<path d="M73751 31701
L73751 31239
" />
<path d="M73751 31239
L73289 31239
" />
<path d="M73289 31780
L73289 32243
" />
<path d="M73289 32243
L73751 32243
" />
<path d="M73751 32243
L73751 31780
" />
<path d="M73751 31780
L73289 31780
" />
<path d="M73830 30156
L73830 30619
" />
<path d="M73830 30619
L74293 30619
" />
<path d="M74293 30619
L74293 30156
" />
<path d="M74293 30156
L73830 30156
" />
<path d="M73830 30698
L73830 31160
" />
<path d="M73830 31160
L74293 31160
" />
<path d="M74293 31160
L74293 30698
" />
<path d="M74293 30698
L73830 30698
" />
<path d="M73830 31239
L73830 31701
" />
<path d="M73830 31701
L74293 31701
" />
<path d="M74293 31701
L74293 31239
" />
<path d="M74293 31239
L73830 31239
" />
<path d="M73830 31780
L73830 32243
" />
<path d="M73830 32243
L74293 32243
" />
<path d="M74293 32243
L74293 31780
" />
<path d="M74293 31780
L73830 31780
" />
<g >
</g>
<g style="fill:#000000; fill-opacity:0.0; 
stroke:#000000; stroke-width:0; stroke-opacity:1; 
stroke-linecap:round; stroke-linejoin:round;">
</g>
<g style="fill:#000000; fill-opacity:1.0; 
stroke:#000000; stroke-width:0; stroke-opacity:1; 
stroke-linecap:round; stroke-linejoin:round;">
<path style="fill:#000000; fill-opacity:1.0; 
stroke:#000000; stroke-width:0; stroke-opacity:1; 
stroke-linecap:round; stroke-linejoin:round;fill-rule:evenodd;"
d="M 77253.7,25661.9
77263.3,25663.3
77272.7,25665.7
77281.8,25668.9
77290.5,25673
77298.8,25678
77306.5,25683.8
77313.7,25690.2
77320.2,25697.4
77325.9,25705.2
77330.9,25713.4
77335,25722.2
77338.3,25731.3
77340.6,25740.6
77342,25750.2
77342.5,25759.8
77342.5,26035.4
77342,26045.1
77340.6,26054.6
77338.3,26064
77335,26073.1
77330.9,26081.8
77325.9,26090.1
77320.2,26097.9
77313.7,26105
77306.5,26111.5
77298.8,26117.3
77290.5,26122.2
77281.8,26126.4
77272.7,26129.6
77263.3,26132
77253.7,26133.4
77244.1,26133.9
76732.3,26133.9
76722.6,26133.4
76713.1,26132
76703.7,26129.6
76694.6,26126.4
76685.9,26122.2
76677.6,26117.3
76669.8,26111.5
76662.7,26105
76656.2,26097.9
76650.4,26090.1
76645.5,26081.8
76641.4,26073.1
76638.1,26064
76635.7,26054.6
76634.3,26045.1
76633.9,26035.4
76633.9,25759.8
76634.3,25750.2
76635.7,25740.6
76638.1,25731.3
76641.4,25722.2
76645.5,25713.4
76650.4,25705.2
76656.2,25697.4
76662.7,25690.2
76669.8,25683.8
76677.6,25678
76685.9,25673
76694.6,25668.9
76703.7,25665.7
76713.1,25663.3
76722.6,25661.9
76732.3,25661.4
77244.1,25661.4
Z" /> 
<path style="fill:#000000; fill-opacity:1.0; 
stroke:#000000; stroke-width:0; stroke-opacity:1; 
stroke-linecap:round; stroke-linejoin:round;fill-rule:evenodd;"
d="M 77253.7,27866.6
77263.3,27868
77272.7,27870.4
77281.8,27873.6
77290.5,27877.8
77298.8,27882.7
77306.5,27888.5
77313.7,27895
77320.2,27902.1
77325.9,27909.9
77330.9,27918.2
77335,27926.9
77338.3,27936
77340.6,27945.4
77342,27954.9
77342.5,27964.6
77342.5,28240.2
77342,28249.8
77340.6,28259.4
77338.3,28268.7
77335,28277.8
77330.9,28286.6
77325.9,28294.8
77320.2,28302.6
77313.7,28309.8
77306.5,28316.2
77298.8,28322
77290.5,28327
77281.8,28331.1
77272.7,28334.3
77263.3,28336.7
77253.7,28338.1
77244.1,28338.6
76732.3,28338.6
76722.6,28338.1
76713.1,28336.7
76703.7,28334.3
76694.6,28331.1
76685.9,28327
76677.6,28322
76669.8,28316.2
76662.7,28309.8
76656.2,28302.6
76650.4,28294.8
76645.5,28286.6
76641.4,28277.8
76638.1,28268.7
76635.7,28259.4
76634.3,28249.8
76633.9,28240.2
76633.9,27964.6
76634.3,27954.9
76635.7,27945.4
76638.1,27936
76641.4,27926.9
76645.5,27918.2
76650.4,27909.9
76656.2,27902.1
76662.7,27895
76669.8,27888.5
76677.6,27882.7
76685.9,27877.8
76694.6,27873.6
76703.7,27870.4
76713.1,27868
76722.6,27866.6
76732.3,27866.1
77244.1,27866.1
Z" /> 
<path style="fill:#000000; fill-opacity:1.0; 
stroke:#000000; stroke-width:0; stroke-opacity:1; 
stroke-linecap:round; stroke-linejoin:round;fill-rule:evenodd;"
d="M 75714.4,26291.6
75720.2,26292.5
75725.8,26293.9
75731.3,26295.8
75736.5,26298.3
75741.5,26301.3
75746.1,26304.7
75750.4,26308.6
75754.3,26312.9
75757.8,26317.6
75760.7,26322.6
75763.2,26327.8
75765.2,26333.3
75766.6,26338.9
75767.4,26344.6
75767.7,26350.4
75767.7,26468.5
75767.4,26474.3
75766.6,26480
75765.2,26485.6
75763.2,26491.1
75760.7,26496.3
75757.8,26501.3
75754.3,26506
75750.4,26510.3
75746.1,26514.2
75741.5,26517.6
75736.5,26520.6
75731.3,26523.1
75725.8,26525
75720.2,26526.4
75714.4,26527.3
75708.7,26527.6
75216.5,26527.6
75210.7,26527.3
75205,26526.4
75199.4,26525
75193.9,26523.1
75188.7,26520.6
75183.7,26517.6
75179.1,26514.2
75174.8,26510.3
75170.9,26506
75167.4,26501.3
75164.5,26496.3
75162,26491.1
75160,26485.6
75158.6,26480
75157.8,26474.3
75157.5,26468.5
75157.5,26350.4
75157.8,26344.6
75158.6,26338.9
75160,26333.3
75162,26327.8
75164.5,26322.6
75167.4,26317.6
75170.9,26312.9
75174.8,26308.6
75179.1,26304.7
75183.7,26301.3
75188.7,26298.3
75193.9,26295.8
75199.4,26293.9
75205,26292.5
75210.7,26291.6
75216.5,26291.3
75708.7,26291.3
Z" /> 
<path style="fill:#000000; fill-opacity:1.0; 
stroke:#000000; stroke-width:0; stroke-opacity:1; 
stroke-linecap:round; stroke-linejoin:round;fill-rule:evenodd;"
d="M 75714.4,26685.3
75720.2,26686.2
75725.8,26687.6
75731.3,26689.5
75736.5,26692
75741.5,26695
75746.1,26698.4
75750.4,26702.3
75754.3,26706.6
75757.8,26711.3
75760.7,26716.3
75763.2,26721.5
75765.2,26727
75766.6,26732.6
75767.4,26738.3
75767.7,26744.1
75767.7,26862.2
75767.4,26868
75766.6,26873.7
75765.2,26879.3
75763.2,26884.8
75760.7,26890
75757.8,26895
75754.3,26899.7
75750.4,26904
75746.1,26907.9
75741.5,26911.3
75736.5,26914.3
75731.3,26916.8
75725.8,26918.7
75720.2,26920.1
75714.4,26921
75708.7,26921.3
75216.5,26921.3
75210.7,26921
75205,26920.1
75199.4,26918.7
75193.9,26916.8
75188.7,26914.3
75183.7,26911.3
75179.1,26907.9
75174.8,26904
75170.9,26899.7
75167.4,26895
75164.5,26890
75162,26884.8
75160,26879.3
75158.6,26873.7
75157.8,26868
75157.5,26862.2
75157.5,26744.1
75157.8,26738.3
75158.6,26732.6
75160,26727
75162,26721.5
75164.5,26716.3
75167.4,26711.3
75170.9,26706.6
75174.8,26702.3
75179.1,26698.4
75183.7,26695
75188.7,26692
75193.9,26689.5
75199.4,26687.6
75205,26686.2
75210.7,26685.3
75216.5,26685
75708.7,26685
Z" /> 
<path style="fill:#000000; fill-opacity:1.0; 
stroke:#000000; stroke-width:0; stroke-opacity:1; 
stroke-linecap:round; stroke-linejoin:round;fill-rule:evenodd;"
d="M 75714.4,27079
75720.2,27079.9
75725.8,27081.3
75731.3,27083.2
75736.5,27085.7
75741.5,27088.7
75746.1,27092.1
75750.4,27096
75754.3,27100.3
75757.8,27105
75760.7,27110
75763.2,27115.2
75765.2,27120.7
75766.6,27126.3
75767.4,27132
75767.7,27137.8
75767.7,27255.9
75767.4,27261.7
75766.6,27267.4
75765.2,27273
75763.2,27278.5
75760.7,27283.7
75757.8,27288.7
75754.3,27293.4
75750.4,27297.7
75746.1,27301.6
75741.5,27305
75736.5,27308
75731.3,27310.5
75725.8,27312.4
75720.2,27313.8
75714.4,27314.7
75708.7,27315
75216.5,27315
75210.7,27314.7
75205,27313.8
75199.4,27312.4
75193.9,27310.5
75188.7,27308
75183.7,27305
75179.1,27301.6
75174.8,27297.7
75170.9,27293.4
75167.4,27288.7
75164.5,27283.7
75162,27278.5
75160,27273
75158.6,27267.4
75157.8,27261.7
75157.5,27255.9
75157.5,27137.8
75157.8,27132
75158.6,27126.3
75160,27120.7
75162,27115.2
75164.5,27110
75167.4,27105
75170.9,27100.3
75174.8,27096
75179.1,27092.1
75183.7,27088.7
75188.7,27085.7
75193.9,27083.2
75199.4,27081.3
75205,27079.9
75210.7,27079
75216.5,27078.7
75708.7,27078.7
Z" /> 
<path style="fill:#000000; fill-opacity:1.0; 
stroke:#000000; stroke-width:0; stroke-opacity:1; 
stroke-linecap:round; stroke-linejoin:round;fill-rule:evenodd;"
d="M 75714.4,27472.7
75720.2,27473.6
75725.8,27475
75731.3,27476.9
75736.5,27479.4
75741.5,27482.4
75746.1,27485.8
75750.4,27489.7
75754.3,27494
75757.8,27498.7
75760.7,27503.7
75763.2,27508.9
75765.2,27514.4
75766.6,27520
75767.4,27525.7
75767.7,27531.5
75767.7,27649.6
75767.4,27655.4
75766.6,27661.1
75765.2,27666.7
75763.2,27672.2
75760.7,27677.4
75757.8,27682.4
75754.3,27687.1
75750.4,27691.4
75746.1,27695.3
75741.5,27698.7
75736.5,27701.7
75731.3,27704.2
75725.8,27706.1
75720.2,27707.5
75714.4,27708.4
75708.7,27708.7
75216.5,27708.7
75210.7,27708.4
75205,27707.5
75199.4,27706.1
75193.9,27704.2
75188.7,27701.7
75183.7,27698.7
75179.1,27695.3
75174.8,27691.4
75170.9,27687.1
75167.4,27682.4
75164.5,27677.4
75162,27672.2
75160,27666.7
75158.6,27661.1
75157.8,27655.4
75157.5,27649.6
75157.5,27531.5
75157.8,27525.7
75158.6,27520
75160,27514.4
75162,27508.9
75164.5,27503.7
75167.4,27498.7
75170.9,27494
75174.8,27489.7
75179.1,27485.8
75183.7,27482.4
75188.7,27479.4
75193.9,27476.9
75199.4,27475
75205,27473.6
75210.7,27472.7
75216.5,27472.4
75708.7,27472.4
Z" /> 
</g>
<g >
</g>
<g >
</g>
<g style="fill:#000000; fill-opacity:1.0; 
stroke:#000000; stroke-width:0; stroke-opacity:1; 
stroke-linecap:round; stroke-linejoin:round;">
<path style="fill:#000000; fill-opacity:1.0; 
stroke:#000000; stroke-width:0; stroke-opacity:1; 
stroke-linecap:round; stroke-linejoin:round;fill-rule:evenodd;"
d="M 55736.6,36475.6
54122.4,36475.6
54122.4,34861.4
55736.6,34861.4
Z" /> 
<path style="fill:#000000; fill-opacity:1.0; 
stroke:#000000; stroke-width:0; stroke-opacity:1; 
stroke-linecap:round; stroke-linejoin:round;fill-rule:evenodd;"
d="M 51980.7,32099.6
51626.4,32099.6
51626.4,31509.1
51980.7,31509.1
Z" /> 
<path style="fill:#000000; fill-opacity:1.0; 
stroke:#000000; stroke-width:0; stroke-opacity:1; 
stroke-linecap:round; stroke-linejoin:round;fill-rule:evenodd;"
d="M 52531.9,32099.6
52177.6,32099.6
52177.6,31509.1
52531.9,31509.1
Z" /> 
<path style="fill:#000000; fill-opacity:1.0; 
stroke:#000000; stroke-width:0; stroke-opacity:1; 
stroke-linecap:round; stroke-linejoin:round;fill-rule:evenodd;"
d="M 53122.4,32099.6
52768.1,32099.6
52768.1,31509.1
53122.4,31509.1
Z" /> 
<path style="fill:#000000; fill-opacity:1.0; 
stroke:#000000; stroke-width:0; stroke-opacity:1; 
stroke-linecap:round; stroke-linejoin:round;fill-rule:evenodd;"
d="M 53752.4,32099.6
53398,32099.6
53398,31509.1
53752.4,31509.1
Z" /> 
<path style="fill:#000000; fill-opacity:1.0; 
stroke:#000000; stroke-width:0; stroke-opacity:1; 
stroke-linecap:round; stroke-linejoin:round;fill-rule:evenodd;"
d="M 61213,33310.2
60622.4,33310.2
60622.4,32955.9
61213,32955.9
Z" /> 
<path style="fill:#000000; fill-opacity:1.0; 
stroke:#000000; stroke-width:0; stroke-opacity:1; 
stroke-linecap:round; stroke-linejoin:round;fill-rule:evenodd;"
d="M 61213,32719.7
60622.4,32719.7
60622.4,32365.4
61213,32365.4
Z" /> 
<path style="fill:#000000; fill-opacity:1.0; 
stroke:#000000; stroke-width:0; stroke-opacity:1; 
stroke-linecap:round; stroke-linejoin:round;fill-rule:evenodd;"
d="M 60839,32099.6
60484.6,32099.6
60484.6,31509.1
60839,31509.1
Z" /> 
<path style="fill:#000000; fill-opacity:1.0; 
stroke:#000000; stroke-width:0; stroke-opacity:1; 
stroke-linecap:round; stroke-linejoin:round;fill-rule:evenodd;"
d="M 60248.4,32099.6
59894.1,32099.6
59894.1,31509.1
60248.4,31509.1
Z" /> 
<path style="fill:#000000; fill-opacity:1.0; 
stroke:#000000; stroke-width:0; stroke-opacity:1; 
stroke-linecap:round; stroke-linejoin:round;fill-rule:evenodd;"
d="M 59657.9,32099.6
59303.5,32099.6
59303.5,31509.1
59657.9,31509.1
Z" /> 
<path style="fill:#000000; fill-opacity:1.0; 
stroke:#000000; stroke-width:0; stroke-opacity:1; 
stroke-linecap:round; stroke-linejoin:round;fill-rule:evenodd;"
d="M 59067.3,32099.6
58713,32099.6
58713,31509.1
59067.3,31509.1
Z" /> 
<path style="fill:#000000; fill-opacity:1.0; 
stroke:#000000; stroke-width:0; stroke-opacity:1; 
stroke-linecap:round; stroke-linejoin:round;fill-rule:evenodd;"
d="M 58476.8,32099.6
58122.4,32099.6
58122.4,31509.1
58476.8,31509.1
Z" /> 
<path style="fill:#000000; fill-opacity:1.0; 
stroke:#000000; stroke-width:0; stroke-opacity:1; 
stroke-linecap:round; stroke-linejoin:round;fill-rule:evenodd;"
d="M 57886.2,32099.6
57531.9,32099.6
57531.9,31509.1
57886.2,31509.1
Z" /> 
<path style="fill:#000000; fill-opacity:1.0; 
stroke:#000000; stroke-width:0; stroke-opacity:1; 
stroke-linecap:round; stroke-linejoin:round;fill-rule:evenodd;"
d="M 57295.7,32099.6
56941.3,32099.6
56941.3,31509.1
57295.7,31509.1
Z" /> 
<path style="fill:#000000; fill-opacity:1.0; 
stroke:#000000; stroke-width:0; stroke-opacity:1; 
stroke-linecap:round; stroke-linejoin:round;fill-rule:evenodd;"
d="M 56705.1,32099.6
56350.8,32099.6
56350.8,31509.1
56705.1,31509.1
Z" /> 
<path style="fill:#000000; fill-opacity:1.0; 
stroke:#000000; stroke-width:0; stroke-opacity:1; 
stroke-linecap:round; stroke-linejoin:round;fill-rule:evenodd;"
d="M 56114.6,32099.6
55760.2,32099.6
55760.2,31509.1
56114.6,31509.1
Z" /> 
<path style="fill:#000000; fill-opacity:1.0; 
stroke:#000000; stroke-width:0; stroke-opacity:1; 
stroke-linecap:round; stroke-linejoin:round;fill-rule:evenodd;"
d="M 55524,32099.6
55169.7,32099.6
55169.7,31509.1
55524,31509.1
Z" /> 
<path style="fill:#000000; fill-opacity:1.0; 
stroke:#000000; stroke-width:0; stroke-opacity:1; 
stroke-linecap:round; stroke-linejoin:round;fill-rule:evenodd;"
d="M 54933.5,32099.6
54579.1,32099.6
54579.1,31509.1
54933.5,31509.1
Z" /> 
<path style="fill:#000000; fill-opacity:1.0; 
stroke:#000000; stroke-width:0; stroke-opacity:1; 
stroke-linecap:round; stroke-linejoin:round;fill-rule:evenodd;"
d="M 54342.9,32099.6
53988.6,32099.6
53988.6,31509.1
54342.9,31509.1
Z" /> 
<path style="fill:#000000; fill-opacity:1.0; 
stroke:#000000; stroke-width:0; stroke-opacity:1; 
stroke-linecap:round; stroke-linejoin:round;fill-rule:evenodd;"
d="M 59618.5,38890.9
59264.2,38890.9
59264.2,38300.4
59618.5,38300.4
Z" /> 
<path style="fill:#000000; fill-opacity:1.0; 
stroke:#000000; stroke-width:0; stroke-opacity:1; 
stroke-linecap:round; stroke-linejoin:round;fill-rule:evenodd;"
d="M 59028,38890.9
58673.6,38890.9
58673.6,38300.4
59028,38300.4
Z" /> 
<path style="fill:#000000; fill-opacity:1.0; 
stroke:#000000; stroke-width:0; stroke-opacity:1; 
stroke-linecap:round; stroke-linejoin:round;fill-rule:evenodd;"
d="M 58437.4,38890.9
58083.1,38890.9
58083.1,38300.4
58437.4,38300.4
Z" /> 
<path style="fill:#000000; fill-opacity:1.0; 
stroke:#000000; stroke-width:0; stroke-opacity:1; 
stroke-linecap:round; stroke-linejoin:round;fill-rule:evenodd;"
d="M 57846.9,38890.9
57492.5,38890.9
57492.5,38300.4
57846.9,38300.4
Z" /> 
<path style="fill:#000000; fill-opacity:1.0; 
stroke:#000000; stroke-width:0; stroke-opacity:1; 
stroke-linecap:round; stroke-linejoin:round;fill-rule:evenodd;"
d="M 57256.3,38890.9
56902,38890.9
56902,38300.4
57256.3,38300.4
Z" /> 
<path style="fill:#000000; fill-opacity:1.0; 
stroke:#000000; stroke-width:0; stroke-opacity:1; 
stroke-linecap:round; stroke-linejoin:round;fill-rule:evenodd;"
d="M 56665.7,38890.9
56311.4,38890.9
56311.4,38300.4
56665.7,38300.4
Z" /> 
<path style="fill:#000000; fill-opacity:1.0; 
stroke:#000000; stroke-width:0; stroke-opacity:1; 
stroke-linecap:round; stroke-linejoin:round;fill-rule:evenodd;"
d="M 56075.2,38890.9
55720.9,38890.9
55720.9,38300.4
56075.2,38300.4
Z" /> 
<path style="fill:#000000; fill-opacity:1.0; 
stroke:#000000; stroke-width:0; stroke-opacity:1; 
stroke-linecap:round; stroke-linejoin:round;fill-rule:evenodd;"
d="M 55484.6,38890.9
55130.3,38890.9
55130.3,38300.4
55484.6,38300.4
Z" /> 
<path style="fill:#000000; fill-opacity:1.0; 
stroke:#000000; stroke-width:0; stroke-opacity:1; 
stroke-linecap:round; stroke-linejoin:round;fill-rule:evenodd;"
d="M 54894.1,38890.9
54539.8,38890.9
54539.8,38300.4
54894.1,38300.4
Z" /> 
<path style="fill:#000000; fill-opacity:1.0; 
stroke:#000000; stroke-width:0; stroke-opacity:1; 
stroke-linecap:round; stroke-linejoin:round;fill-rule:evenodd;"
d="M 54303.5,38890.9
53949.2,38890.9
53949.2,38300.4
54303.5,38300.4
Z" /> 
<path style="fill:#000000; fill-opacity:1.0; 
stroke:#000000; stroke-width:0; stroke-opacity:1; 
stroke-linecap:round; stroke-linejoin:round;fill-rule:evenodd;"
d="M 53713,38890.9
53358.7,38890.9
53358.7,38300.4
53713,38300.4
Z" /> 
<path style="fill:#000000; fill-opacity:1.0; 
stroke:#000000; stroke-width:0; stroke-opacity:1; 
stroke-linecap:round; stroke-linejoin:round;fill-rule:evenodd;"
d="M 53122.4,38890.9
52768.1,38890.9
52768.1,38300.4
53122.4,38300.4
Z" /> 
<path style="fill:#000000; fill-opacity:1.0; 
stroke:#000000; stroke-width:0; stroke-opacity:1; 
stroke-linecap:round; stroke-linejoin:round;fill-rule:evenodd;"
d="M 52531.9,38890.9
52177.6,38890.9
52177.6,38300.4
52531.9,38300.4
Z" /> 
<path style="fill:#000000; fill-opacity:1.0; 
stroke:#000000; stroke-width:0; stroke-opacity:1; 
stroke-linecap:round; stroke-linejoin:round;fill-rule:evenodd;"
d="M 61213,33900.8
60622.4,33900.8
60622.4,33546.5
61213,33546.5
Z" /> 
<path style="fill:#000000; fill-opacity:1.0; 
stroke:#000000; stroke-width:0; stroke-opacity:1; 
stroke-linecap:round; stroke-linejoin:round;fill-rule:evenodd;"
d="M 61213,34491.3
60622.4,34491.3
60622.4,34137
61213,34137
Z" /> 
<path style="fill:#000000; fill-opacity:1.0; 
stroke:#000000; stroke-width:0; stroke-opacity:1; 
stroke-linecap:round; stroke-linejoin:round;fill-rule:evenodd;"
d="M 61213,35081.9
60622.4,35081.9
60622.4,34727.6
61213,34727.6
Z" /> 
<path style="fill:#000000; fill-opacity:1.0; 
stroke:#000000; stroke-width:0; stroke-opacity:1; 
stroke-linecap:round; stroke-linejoin:round;fill-rule:evenodd;"
d="M 61213,35672.4
60622.4,35672.4
60622.4,35318.1
61213,35318.1
Z" /> 
<path style="fill:#000000; fill-opacity:1.0; 
stroke:#000000; stroke-width:0; stroke-opacity:1; 
stroke-linecap:round; stroke-linejoin:round;fill-rule:evenodd;"
d="M 61213,36263
60622.4,36263
60622.4,35908.7
61213,35908.7
Z" /> 
<path style="fill:#000000; fill-opacity:1.0; 
stroke:#000000; stroke-width:0; stroke-opacity:1; 
stroke-linecap:round; stroke-linejoin:round;fill-rule:evenodd;"
d="M 61213,36853.5
60622.4,36853.5
60622.4,36499.2
61213,36499.2
Z" /> 
<path style="fill:#000000; fill-opacity:1.0; 
stroke:#000000; stroke-width:0; stroke-opacity:1; 
stroke-linecap:round; stroke-linejoin:round;fill-rule:evenodd;"
d="M 61213,37444.1
60622.4,37444.1
60622.4,37089.8
61213,37089.8
Z" /> 
<path style="fill:#000000; fill-opacity:1.0; 
stroke:#000000; stroke-width:0; stroke-opacity:1; 
stroke-linecap:round; stroke-linejoin:round;fill-rule:evenodd;"
d="M 61213,38034.6
60622.4,38034.6
60622.4,37680.3
61213,37680.3
Z" /> 
<path style="fill:#000000; fill-opacity:1.0; 
stroke:#000000; stroke-width:0; stroke-opacity:1; 
stroke-linecap:round; stroke-linejoin:round;fill-rule:evenodd;"
d="M 60445.3,38300.4
60799.6,38300.4
60799.6,38890.9
60445.3,38890.9
Z" /> 
<path style="fill:#000000; fill-opacity:1.0; 
stroke:#000000; stroke-width:0; stroke-opacity:1; 
stroke-linecap:round; stroke-linejoin:round;fill-rule:evenodd;"
d="M 59854.7,38300.4
60209.1,38300.4
60209.1,38890.9
59854.7,38890.9
Z" /> 
<path style="fill:#000000; fill-opacity:1.0; 
stroke:#000000; stroke-width:0; stroke-opacity:1; 
stroke-linecap:round; stroke-linejoin:round;fill-rule:evenodd;"
d="M 51941.3,38890.9
51587,38890.9
51587,38300.4
51941.3,38300.4
Z" /> 
</g>
<g >
</g>
<g >
</g>
<g style="fill:#000000; fill-opacity:1.0; 
stroke:#000000; stroke-width:0; stroke-opacity:1; 
stroke-linecap:round; stroke-linejoin:round;">
<path style="fill:#000000; fill-opacity:1.0; 
stroke:#000000; stroke-width:0; stroke-opacity:1; 
stroke-linecap:round; stroke-linejoin:round;fill-rule:evenodd;"
d="M 68287.7,35513.4
68296.8,35514.8
68305.7,35517
68314.3,35520.1
68322.6,35524
68330.5,35528.8
68337.9,35534.2
68344.7,35540.4
68350.8,35547.2
68356.3,35554.5
68361,35562.4
68364.9,35570.7
68368,35579.4
68370.3,35588.3
68371.6,35597.3
68372,35606.5
68372,35793.5
68371.6,35802.7
68370.3,35811.7
68368,35820.6
68364.9,35829.3
68361,35837.6
68356.3,35845.5
68350.8,35852.8
68344.7,35859.6
68337.9,35865.8
68330.5,35871.2
68322.6,35876
68314.3,35879.9
68305.7,35883
68296.8,35885.2
68287.7,35886.6
68278.5,35887
68042.3,35887
68033.2,35886.6
68024.1,35885.2
68015.2,35883
68006.5,35879.9
67998.2,35876
67990.4,35871.2
67983,35865.8
67976.2,35859.6
67970,35852.8
67964.6,35845.5
67959.9,35837.6
67955.9,35829.3
67952.8,35820.6
67950.6,35811.7
67949.3,35802.7
67948.8,35793.5
67948.8,35606.5
67949.3,35597.3
67950.6,35588.3
67952.8,35579.4
67955.9,35570.7
67959.9,35562.4
67964.6,35554.5
67970,35547.2
67976.2,35540.4
67983,35534.2
67990.4,35528.8
67998.2,35524
68006.5,35520.1
68015.2,35517
68024.1,35514.8
68033.2,35513.4
68042.3,35513
68278.5,35513
Z" /> 
<path style="fill:#000000; fill-opacity:1.0; 
stroke:#000000; stroke-width:0; stroke-opacity:1; 
stroke-linecap:round; stroke-linejoin:round;fill-rule:evenodd;"
d="M 68966.8,35513.4
68975.9,35514.8
68984.8,35517
68993.5,35520.1
69001.8,35524
69009.6,35528.8
69017,35534.2
69023.8,35540.4
69030,35547.2
69035.4,35554.5
69040.1,35562.4
69044.1,35570.7
69047.2,35579.4
69049.4,35588.3
69050.7,35597.3
69051.2,35606.5
69051.2,35793.5
69050.7,35802.7
69049.4,35811.7
69047.2,35820.6
69044.1,35829.3
69040.1,35837.6
69035.4,35845.5
69030,35852.8
69023.8,35859.6
69017,35865.8
69009.6,35871.2
69001.8,35876
68993.5,35879.9
68984.8,35883
68975.9,35885.2
68966.8,35886.6
68957.7,35887
68721.5,35887
68712.3,35886.6
68703.2,35885.2
68694.3,35883
68685.7,35879.9
68677.4,35876
68669.5,35871.2
68662.1,35865.8
68655.3,35859.6
68649.2,35852.8
68643.7,35845.5
68639,35837.6
68635.1,35829.3
68632,35820.6
68629.7,35811.7
68628.4,35802.7
68628,35793.5
68628,35606.5
68628.4,35597.3
68629.7,35588.3
68632,35579.4
68635.1,35570.7
68639,35562.4
68643.7,35554.5
68649.2,35547.2
68655.3,35540.4
68662.1,35534.2
68669.5,35528.8
68677.4,35524
68685.7,35520.1
68694.3,35517
68703.2,35514.8
68712.3,35513.4
68721.5,35513
68957.7,35513
Z" /> 
</g>
<g >
</g>
<g style="fill:#000000; fill-opacity:1.0; 
stroke:#000000; stroke-width:0; stroke-opacity:1; 
stroke-linecap:round; stroke-linejoin:round;">
<path style="fill:#000000; fill-opacity:1.0; 
stroke:#000000; stroke-width:0; stroke-opacity:1; 
stroke-linecap:round; stroke-linejoin:round;fill-rule:evenodd;"
d="M 65450,31740
65450,31260
66910,31260
66910,31740
Z" /> 
<path style="fill:#000000; fill-opacity:1.0; 
stroke:#000000; stroke-width:0; stroke-opacity:1; 
stroke-linecap:round; stroke-linejoin:round;fill-rule:evenodd;"
d="M 67890,31740
67890,31260
69350,31260
69350,31740
Z" /> 
</g>
<g >
</g>
<g style="fill:#000000; fill-opacity:1.0; 
stroke:#000000; stroke-width:0; stroke-opacity:1; 
stroke-linecap:round; stroke-linejoin:round;">
<path style="fill:#000000; fill-opacity:1.0; 
stroke:#000000; stroke-width:0; stroke-opacity:1; 
stroke-linecap:round; stroke-linejoin:round;fill-rule:evenodd;"
d="M 64466.8,38763.4
64475.9,38764.8
64484.8,38767
64493.5,38770.1
64501.8,38774
64509.6,38778.8
64517,38784.2
64523.8,38790.4
64530,38797.2
64535.4,38804.5
64540.1,38812.4
64544.1,38820.7
64547.2,38829.4
64549.4,38838.3
64550.7,38847.3
64551.2,38856.5
64551.2,39043.5
64550.7,39052.7
64549.4,39061.7
64547.2,39070.6
64544.1,39079.3
64540.1,39087.6
64535.4,39095.5
64530,39102.8
64523.8,39109.6
64517,39115.8
64509.6,39121.2
64501.8,39126
64493.5,39129.9
64484.8,39133
64475.9,39135.2
64466.8,39136.6
64457.7,39137
64221.5,39137
64212.3,39136.6
64203.2,39135.2
64194.3,39133
64185.7,39129.9
64177.4,39126
64169.5,39121.2
64162.1,39115.8
64155.3,39109.6
64149.2,39102.8
64143.7,39095.5
64139,39087.6
64135.1,39079.3
64132,39070.6
64129.7,39061.7
64128.4,39052.7
64128,39043.5
64128,38856.5
64128.4,38847.3
64129.7,38838.3
64132,38829.4
64135.1,38820.7
64139,38812.4
64143.7,38804.5
64149.2,38797.2
64155.3,38790.4
64162.1,38784.2
64169.5,38778.8
64177.4,38774
64185.7,38770.1
64194.3,38767
64203.2,38764.8
64212.3,38763.4
64221.5,38763
64457.7,38763
Z" /> 
<path style="fill:#000000; fill-opacity:1.0; 
stroke:#000000; stroke-width:0; stroke-opacity:1; 
stroke-linecap:round; stroke-linejoin:round;fill-rule:evenodd;"
d="M 63787.7,38763.4
63796.8,38764.8
63805.7,38767
63814.3,38770.1
63822.6,38774
63830.5,38778.8
63837.9,38784.2
63844.7,38790.4
63850.8,38797.2
63856.3,38804.5
63861,38812.4
63864.9,38820.7
63868,38829.4
63870.3,38838.3
63871.6,38847.3
63872,38856.5
63872,39043.5
63871.6,39052.7
63870.3,39061.7
63868,39070.6
63864.9,39079.3
63861,39087.6
63856.3,39095.5
63850.8,39102.8
63844.7,39109.6
63837.9,39115.8
63830.5,39121.2
63822.6,39126
63814.3,39129.9
63805.7,39133
63796.8,39135.2
63787.7,39136.6
63778.5,39137
63542.3,39137
63533.2,39136.6
63524.1,39135.2
63515.2,39133
63506.5,39129.9
63498.2,39126
63490.4,39121.2
63483,39115.8
63476.2,39109.6
63470,39102.8
63464.6,39095.5
63459.9,39087.6
63455.9,39079.3
63452.8,39070.6
63450.6,39061.7
63449.3,39052.7
63448.8,39043.5
63448.8,38856.5
63449.3,38847.3
63450.6,38838.3
63452.8,38829.4
63455.9,38820.7
63459.9,38812.4
63464.6,38804.5
63470,38797.2
63476.2,38790.4
63483,38784.2
63490.4,38778.8
63498.2,38774
63506.5,38770.1
63515.2,38767
63524.1,38764.8
63533.2,38763.4
63542.3,38763
63778.5,38763
Z" /> 
</g>
<g >
</g>
<g style="fill:#000000; fill-opacity:1.0; 
stroke:#000000; stroke-width:0; stroke-opacity:1; 
stroke-linecap:round; stroke-linejoin:round;">
<path style="fill:#000000; fill-opacity:1.0; 
stroke:#000000; stroke-width:0; stroke-opacity:1; 
stroke-linecap:round; stroke-linejoin:round;fill-rule:evenodd;"
d="M 70416.8,35513.4
70425.9,35514.8
70434.8,35517
70443.5,35520.1
70451.8,35524
70459.6,35528.8
70467,35534.2
70473.8,35540.4
70480,35547.2
70485.4,35554.5
70490.1,35562.4
70494.1,35570.7
70497.2,35579.4
70499.4,35588.3
70500.7,35597.3
70501.2,35606.5
70501.2,35793.5
70500.7,35802.7
70499.4,35811.7
70497.2,35820.6
70494.1,35829.3
70490.1,35837.6
70485.4,35845.5
70480,35852.8
70473.8,35859.6
70467,35865.8
70459.6,35871.2
70451.8,35876
70443.5,35879.9
70434.8,35883
70425.9,35885.2
70416.8,35886.6
70407.7,35887
70171.5,35887
70162.3,35886.6
70153.2,35885.2
70144.3,35883
70135.7,35879.9
70127.4,35876
70119.5,35871.2
70112.1,35865.8
70105.3,35859.6
70099.2,35852.8
70093.7,35845.5
70089,35837.6
70085.1,35829.3
70082,35820.6
70079.7,35811.7
70078.4,35802.7
70078,35793.5
70078,35606.5
70078.4,35597.3
70079.7,35588.3
70082,35579.4
70085.1,35570.7
70089,35562.4
70093.7,35554.5
70099.2,35547.2
70105.3,35540.4
70112.1,35534.2
70119.5,35528.8
70127.4,35524
70135.7,35520.1
70144.3,35517
70153.2,35514.8
70162.3,35513.4
70171.5,35513
70407.7,35513
Z" /> 
<path style="fill:#000000; fill-opacity:1.0; 
stroke:#000000; stroke-width:0; stroke-opacity:1; 
stroke-linecap:round; stroke-linejoin:round;fill-rule:evenodd;"
d="M 69737.7,35513.4
69746.8,35514.8
69755.7,35517
69764.3,35520.1
69772.6,35524
69780.5,35528.8
69787.9,35534.2
69794.7,35540.4
69800.8,35547.2
69806.3,35554.5
69811,35562.4
69814.9,35570.7
69818,35579.4
69820.3,35588.3
69821.6,35597.3
69822,35606.5
69822,35793.5
69821.6,35802.7
69820.3,35811.7
69818,35820.6
69814.9,35829.3
69811,35837.6
69806.3,35845.5
69800.8,35852.8
69794.7,35859.6
69787.9,35865.8
69780.5,35871.2
69772.6,35876
69764.3,35879.9
69755.7,35883
69746.8,35885.2
69737.7,35886.6
69728.5,35887
69492.3,35887
69483.2,35886.6
69474.1,35885.2
69465.2,35883
69456.5,35879.9
69448.2,35876
69440.4,35871.2
69433,35865.8
69426.2,35859.6
69420,35852.8
69414.6,35845.5
69409.9,35837.6
69405.9,35829.3
69402.8,35820.6
69400.6,35811.7
69399.3,35802.7
69398.8,35793.5
69398.8,35606.5
69399.3,35597.3
69400.6,35588.3
69402.8,35579.4
69405.9,35570.7
69409.9,35562.4
69414.6,35554.5
69420,35547.2
69426.2,35540.4
69433,35534.2
69440.4,35528.8
69448.2,35524
69456.5,35520.1
69465.2,35517
69474.1,35514.8
69483.2,35513.4
69492.3,35513
69728.5,35513
Z" /> 
</g>
<g >
</g>
<g style="fill:#000000; fill-opacity:1.0; 
stroke:#000000; stroke-width:0; stroke-opacity:1; 
stroke-linecap:round; stroke-linejoin:round;">
<path style="fill:#000000; fill-opacity:1.0; 
stroke:#000000; stroke-width:0; stroke-opacity:1; 
stroke-linecap:round; stroke-linejoin:round;fill-rule:evenodd;"
d="M 66616.8,38463.4
66625.9,38464.8
66634.8,38467
66643.5,38470.1
66651.8,38474
66659.6,38478.8
66667,38484.2
66673.8,38490.4
66680,38497.2
66685.4,38504.5
66690.1,38512.4
66694.1,38520.7
66697.2,38529.4
66699.4,38538.3
66700.7,38547.3
66701.2,38556.5
66701.2,38743.5
66700.7,38752.7
66699.4,38761.7
66697.2,38770.6
66694.1,38779.3
66690.1,38787.6
66685.4,38795.5
66680,38802.8
66673.8,38809.6
66667,38815.8
66659.6,38821.2
66651.8,38826
66643.5,38829.9
66634.8,38833
66625.9,38835.2
66616.8,38836.6
66607.7,38837
66371.5,38837
66362.3,38836.6
66353.2,38835.2
66344.3,38833
66335.7,38829.9
66327.4,38826
66319.5,38821.2
66312.1,38815.8
66305.3,38809.6
66299.2,38802.8
66293.7,38795.5
66289,38787.6
66285.1,38779.3
66282,38770.6
66279.7,38761.7
66278.4,38752.7
66278,38743.5
66278,38556.5
66278.4,38547.3
66279.7,38538.3
66282,38529.4
66285.1,38520.7
66289,38512.4
66293.7,38504.5
66299.2,38497.2
66305.3,38490.4
66312.1,38484.2
66319.5,38478.8
66327.4,38474
66335.7,38470.1
66344.3,38467
66353.2,38464.8
66362.3,38463.4
66371.5,38463
66607.7,38463
Z" /> 
<path style="fill:#000000; fill-opacity:1.0; 
stroke:#000000; stroke-width:0; stroke-opacity:1; 
stroke-linecap:round; stroke-linejoin:round;fill-rule:evenodd;"
d="M 65937.7,38463.4
65946.8,38464.8
65955.7,38467
65964.3,38470.1
65972.6,38474
65980.5,38478.8
65987.9,38484.2
65994.7,38490.4
66000.8,38497.2
66006.3,38504.5
66011,38512.4
66014.9,38520.7
66018,38529.4
66020.3,38538.3
66021.6,38547.3
66022,38556.5
66022,38743.5
66021.6,38752.7
66020.3,38761.7
66018,38770.6
66014.9,38779.3
66011,38787.6
66006.3,38795.5
66000.8,38802.8
65994.7,38809.6
65987.9,38815.8
65980.5,38821.2
65972.6,38826
65964.3,38829.9
65955.7,38833
65946.8,38835.2
65937.7,38836.6
65928.5,38837
65692.3,38837
65683.2,38836.6
65674.1,38835.2
65665.2,38833
65656.5,38829.9
65648.2,38826
65640.4,38821.2
65633,38815.8
65626.2,38809.6
65620,38802.8
65614.6,38795.5
65609.9,38787.6
65605.9,38779.3
65602.8,38770.6
65600.6,38761.7
65599.3,38752.7
65598.8,38743.5
65598.8,38556.5
65599.3,38547.3
65600.6,38538.3
65602.8,38529.4
65605.9,38520.7
65609.9,38512.4
65614.6,38504.5
65620,38497.2
65626.2,38490.4
65633,38484.2
65640.4,38478.8
65648.2,38474
65656.5,38470.1
65665.2,38467
65674.1,38464.8
65683.2,38463.4
65692.3,38463
65928.5,38463
Z" /> 
</g>
<g >
</g>
<g style="fill:#000000; fill-opacity:1.0; 
stroke:#000000; stroke-width:0; stroke-opacity:1; 
stroke-linecap:round; stroke-linejoin:round;">
<path style="fill:#000000; fill-opacity:1.0; 
stroke:#000000; stroke-width:0; stroke-opacity:1; 
stroke-linecap:round; stroke-linejoin:round;fill-rule:evenodd;"
d="M 66616.8,37713.4
66625.9,37714.8
66634.8,37717
66643.5,37720.1
66651.8,37724
66659.6,37728.8
66667,37734.2
66673.8,37740.4
66680,37747.2
66685.4,37754.5
66690.1,37762.4
66694.1,37770.7
66697.2,37779.4
66699.4,37788.3
66700.7,37797.3
66701.2,37806.5
66701.2,37993.5
66700.7,38002.7
66699.4,38011.7
66697.2,38020.6
66694.1,38029.3
66690.1,38037.6
66685.4,38045.5
66680,38052.8
66673.8,38059.6
66667,38065.8
66659.6,38071.2
66651.8,38076
66643.5,38079.9
66634.8,38083
66625.9,38085.2
66616.8,38086.6
66607.7,38087
66371.5,38087
66362.3,38086.6
66353.2,38085.2
66344.3,38083
66335.7,38079.9
66327.4,38076
66319.5,38071.2
66312.1,38065.8
66305.3,38059.6
66299.2,38052.8
66293.7,38045.5
66289,38037.6
66285.1,38029.3
66282,38020.6
66279.7,38011.7
66278.4,38002.7
66278,37993.5
66278,37806.5
66278.4,37797.3
66279.7,37788.3
66282,37779.4
66285.1,37770.7
66289,37762.4
66293.7,37754.5
66299.2,37747.2
66305.3,37740.4
66312.1,37734.2
66319.5,37728.8
66327.4,37724
66335.7,37720.1
66344.3,37717
66353.2,37714.8
66362.3,37713.4
66371.5,37713
66607.7,37713
Z" /> 
<path style="fill:#000000; fill-opacity:1.0; 
stroke:#000000; stroke-width:0; stroke-opacity:1; 
stroke-linecap:round; stroke-linejoin:round;fill-rule:evenodd;"
d="M 65937.7,37713.4
65946.8,37714.8
65955.7,37717
65964.3,37720.1
65972.6,37724
65980.5,37728.8
65987.9,37734.2
65994.7,37740.4
66000.8,37747.2
66006.3,37754.5
66011,37762.4
66014.9,37770.7
66018,37779.4
66020.3,37788.3
66021.6,37797.3
66022,37806.5
66022,37993.5
66021.6,38002.7
66020.3,38011.7
66018,38020.6
66014.9,38029.3
66011,38037.6
66006.3,38045.5
66000.8,38052.8
65994.7,38059.6
65987.9,38065.8
65980.5,38071.2
65972.6,38076
65964.3,38079.9
65955.7,38083
65946.8,38085.2
65937.7,38086.6
65928.5,38087
65692.3,38087
65683.2,38086.6
65674.1,38085.2
65665.2,38083
65656.5,38079.9
65648.2,38076
65640.4,38071.2
65633,38065.8
65626.2,38059.6
65620,38052.8
65614.6,38045.5
65609.9,38037.6
65605.9,38029.3
65602.8,38020.6
65600.6,38011.7
65599.3,38002.7
65598.8,37993.5
65598.8,37806.5
65599.3,37797.3
65600.6,37788.3
65602.8,37779.4
65605.9,37770.7
65609.9,37762.4
65614.6,37754.5
65620,37747.2
65626.2,37740.4
65633,37734.2
65640.4,37728.8
65648.2,37724
65656.5,37720.1
65665.2,37717
65674.1,37714.8
65683.2,37713.4
65692.3,37713
65928.5,37713
Z" /> 
</g>
<g >
</g>
<g style="fill:#000000; fill-opacity:1.0; 
stroke:#000000; stroke-width:0; stroke-opacity:1; 
stroke-linecap:round; stroke-linejoin:round;">
<path style="fill:#000000; fill-opacity:1.0; 
stroke:#000000; stroke-width:0; stroke-opacity:1; 
stroke-linecap:round; stroke-linejoin:round;fill-rule:evenodd;"
d="M 65937.7,37013.4
65946.8,37014.8
65955.7,37017
65964.3,37020.1
65972.6,37024
65980.5,37028.8
65987.9,37034.2
65994.7,37040.4
66000.8,37047.2
66006.3,37054.5
66011,37062.4
66014.9,37070.7
66018,37079.4
66020.3,37088.3
66021.6,37097.3
66022,37106.5
66022,37293.5
66021.6,37302.7
66020.3,37311.7
66018,37320.6
66014.9,37329.3
66011,37337.6
66006.3,37345.5
66000.8,37352.8
65994.7,37359.6
65987.9,37365.8
65980.5,37371.2
65972.6,37376
65964.3,37379.9
65955.7,37383
65946.8,37385.2
65937.7,37386.6
65928.5,37387
65692.3,37387
65683.2,37386.6
65674.1,37385.2
65665.2,37383
65656.5,37379.9
65648.2,37376
65640.4,37371.2
65633,37365.8
65626.2,37359.6
65620,37352.8
65614.6,37345.5
65609.9,37337.6
65605.9,37329.3
65602.8,37320.6
65600.6,37311.7
65599.3,37302.7
65598.8,37293.5
65598.8,37106.5
65599.3,37097.3
65600.6,37088.3
65602.8,37079.4
65605.9,37070.7
65609.9,37062.4
65614.6,37054.5
65620,37047.2
65626.2,37040.4
65633,37034.2
65640.4,37028.8
65648.2,37024
65656.5,37020.1
65665.2,37017
65674.1,37014.8
65683.2,37013.4
65692.3,37013
65928.5,37013
Z" /> 
<path style="fill:#000000; fill-opacity:1.0; 
stroke:#000000; stroke-width:0; stroke-opacity:1; 
stroke-linecap:round; stroke-linejoin:round;fill-rule:evenodd;"
d="M 66616.8,37013.4
66625.9,37014.8
66634.8,37017
66643.5,37020.1
66651.8,37024
66659.6,37028.8
66667,37034.2
66673.8,37040.4
66680,37047.2
66685.4,37054.5
66690.1,37062.4
66694.1,37070.7
66697.2,37079.4
66699.4,37088.3
66700.7,37097.3
66701.2,37106.5
66701.2,37293.5
66700.7,37302.7
66699.4,37311.7
66697.2,37320.6
66694.1,37329.3
66690.1,37337.6
66685.4,37345.5
66680,37352.8
66673.8,37359.6
66667,37365.8
66659.6,37371.2
66651.8,37376
66643.5,37379.9
66634.8,37383
66625.9,37385.2
66616.8,37386.6
66607.7,37387
66371.5,37387
66362.3,37386.6
66353.2,37385.2
66344.3,37383
66335.7,37379.9
66327.4,37376
66319.5,37371.2
66312.1,37365.8
66305.3,37359.6
66299.2,37352.8
66293.7,37345.5
66289,37337.6
66285.1,37329.3
66282,37320.6
66279.7,37311.7
66278.4,37302.7
66278,37293.5
66278,37106.5
66278.4,37097.3
66279.7,37088.3
66282,37079.4
66285.1,37070.7
66289,37062.4
66293.7,37054.5
66299.2,37047.2
66305.3,37040.4
66312.1,37034.2
66319.5,37028.8
66327.4,37024
66335.7,37020.1
66344.3,37017
66353.2,37014.8
66362.3,37013.4
66371.5,37013
66607.7,37013
Z" /> 
</g>
<g >
</g>
<g style="fill:#000000; fill-opacity:1.0; 
stroke:#000000; stroke-width:0; stroke-opacity:1; 
stroke-linecap:round; stroke-linejoin:round;">
<path style="fill:#000000; fill-opacity:1.0; 
stroke:#000000; stroke-width:0; stroke-opacity:1; 
stroke-linecap:round; stroke-linejoin:round;fill-rule:evenodd;"
d="M 57025,42190
57025,42010
57485,42010
57485,42190
Z" /> 
<path style="fill:#000000; fill-opacity:1.0; 
stroke:#000000; stroke-width:0; stroke-opacity:1; 
stroke-linecap:round; stroke-linejoin:round;fill-rule:evenodd;"
d="M 57915,42190
57915,42010
58375,42010
58375,42190
Z" /> 
</g>
<g >
</g>
<g >
</g>
<g >
</g>
<g style="fill:#000000; fill-opacity:1.0; 
stroke:#000000; stroke-width:0; stroke-opacity:1; 
stroke-linecap:round; stroke-linejoin:round;">
<path style="fill:#000000; fill-opacity:1.0; 
stroke:#000000; stroke-width:0; stroke-opacity:1; 
stroke-linecap:round; stroke-linejoin:round;fill-rule:evenodd;"
d="M 53458.3,40561.4
53458.3,40285.8
53576.4,40285.8
53576.4,40561.4
Z" /> 
<path style="fill:#000000; fill-opacity:1.0; 
stroke:#000000; stroke-width:0; stroke-opacity:1; 
stroke-linecap:round; stroke-linejoin:round;fill-rule:evenodd;"
d="M 53655.1,40561.4
53655.1,40285.8
53773.2,40285.8
53773.2,40561.4
Z" /> 
<path style="fill:#000000; fill-opacity:1.0; 
stroke:#000000; stroke-width:0; stroke-opacity:1; 
stroke-linecap:round; stroke-linejoin:round;fill-rule:evenodd;"
d="M 53852,40561.4
53852,40285.8
53970.1,40285.8
53970.1,40561.4
Z" /> 
<path style="fill:#000000; fill-opacity:1.0; 
stroke:#000000; stroke-width:0; stroke-opacity:1; 
stroke-linecap:round; stroke-linejoin:round;fill-rule:evenodd;"
d="M 54048.8,40561.4
54048.8,40285.8
54166.9,40285.8
54166.9,40561.4
Z" /> 
<path style="fill:#000000; fill-opacity:1.0; 
stroke:#000000; stroke-width:0; stroke-opacity:1; 
stroke-linecap:round; stroke-linejoin:round;fill-rule:evenodd;"
d="M 54245.7,40561.4
54245.7,40285.8
54363.8,40285.8
54363.8,40561.4
Z" /> 
<path style="fill:#000000; fill-opacity:1.0; 
stroke:#000000; stroke-width:0; stroke-opacity:1; 
stroke-linecap:round; stroke-linejoin:round;fill-rule:evenodd;"
d="M 54442.5,40561.4
54442.5,40285.8
54560.6,40285.8
54560.6,40561.4
Z" /> 
<path style="fill:#000000; fill-opacity:1.0; 
stroke:#000000; stroke-width:0; stroke-opacity:1; 
stroke-linecap:round; stroke-linejoin:round;fill-rule:evenodd;"
d="M 54639.4,40561.4
54639.4,40285.8
54757.5,40285.8
54757.5,40561.4
Z" /> 
<path style="fill:#000000; fill-opacity:1.0; 
stroke:#000000; stroke-width:0; stroke-opacity:1; 
stroke-linecap:round; stroke-linejoin:round;fill-rule:evenodd;"
d="M 55623.6,40561.4
55623.6,40285.8
55741.7,40285.8
55741.7,40561.4
Z" /> 
<path style="fill:#000000; fill-opacity:1.0; 
stroke:#000000; stroke-width:0; stroke-opacity:1; 
stroke-linecap:round; stroke-linejoin:round;fill-rule:evenodd;"
d="M 55229.9,40561.4
55229.9,40285.8
55348,40285.8
55348,40561.4
Z" /> 
<path style="fill:#000000; fill-opacity:1.0; 
stroke:#000000; stroke-width:0; stroke-opacity:1; 
stroke-linecap:round; stroke-linejoin:round;fill-rule:evenodd;"
d="M 55033.1,40561.4
55033.1,40285.8
55151.2,40285.8
55151.2,40561.4
Z" /> 
<path style="fill:#000000; fill-opacity:1.0; 
stroke:#000000; stroke-width:0; stroke-opacity:1; 
stroke-linecap:round; stroke-linejoin:round;fill-rule:evenodd;"
d="M 54836.2,40561.4
54836.2,40285.8
54954.3,40285.8
54954.3,40561.4
Z" /> 
<path style="fill:#000000; fill-opacity:1.0; 
stroke:#000000; stroke-width:0; stroke-opacity:1; 
stroke-linecap:round; stroke-linejoin:round;fill-rule:evenodd;"
d="M 55426.8,40561.4
55426.8,40285.8
55544.9,40285.8
55544.9,40561.4
Z" /> 
<path style="fill:#000000; fill-opacity:1.0; 
stroke:#000000; stroke-width:0; stroke-opacity:1; 
stroke-linecap:round; stroke-linejoin:round;fill-rule:evenodd;"
d="M 55525.2,41230.7
55525.2,40955.1
55643.3,40955.1
55643.3,41230.7
Z" /> 
<path style="fill:#000000; fill-opacity:1.0; 
stroke:#000000; stroke-width:0; stroke-opacity:1; 
stroke-linecap:round; stroke-linejoin:round;fill-rule:evenodd;"
d="M 55328.3,41230.7
55328.3,40955.1
55446.5,40955.1
55446.5,41230.7
Z" /> 
<path style="fill:#000000; fill-opacity:1.0; 
stroke:#000000; stroke-width:0; stroke-opacity:1; 
stroke-linecap:round; stroke-linejoin:round;fill-rule:evenodd;"
d="M 55131.5,41230.7
55131.5,40955.1
55249.6,40955.1
55249.6,41230.7
Z" /> 
<path style="fill:#000000; fill-opacity:1.0; 
stroke:#000000; stroke-width:0; stroke-opacity:1; 
stroke-linecap:round; stroke-linejoin:round;fill-rule:evenodd;"
d="M 54934.6,41230.7
54934.6,40955.1
55052.8,40955.1
55052.8,41230.7
Z" /> 
<path style="fill:#000000; fill-opacity:1.0; 
stroke:#000000; stroke-width:0; stroke-opacity:1; 
stroke-linecap:round; stroke-linejoin:round;fill-rule:evenodd;"
d="M 54737.8,41230.7
54737.8,40955.1
54855.9,40955.1
54855.9,41230.7
Z" /> 
<path style="fill:#000000; fill-opacity:1.0; 
stroke:#000000; stroke-width:0; stroke-opacity:1; 
stroke-linecap:round; stroke-linejoin:round;fill-rule:evenodd;"
d="M 54540.9,41230.7
54540.9,40955.1
54659.1,40955.1
54659.1,41230.7
Z" /> 
<path style="fill:#000000; fill-opacity:1.0; 
stroke:#000000; stroke-width:0; stroke-opacity:1; 
stroke-linecap:round; stroke-linejoin:round;fill-rule:evenodd;"
d="M 54344.1,41230.7
54344.1,40955.1
54462.2,40955.1
54462.2,41230.7
Z" /> 
<path style="fill:#000000; fill-opacity:1.0; 
stroke:#000000; stroke-width:0; stroke-opacity:1; 
stroke-linecap:round; stroke-linejoin:round;fill-rule:evenodd;"
d="M 54147.2,41230.7
54147.2,40955.1
54265.4,40955.1
54265.4,41230.7
Z" /> 
<path style="fill:#000000; fill-opacity:1.0; 
stroke:#000000; stroke-width:0; stroke-opacity:1; 
stroke-linecap:round; stroke-linejoin:round;fill-rule:evenodd;"
d="M 53950.4,41230.7
53950.4,40955.1
54068.5,40955.1
54068.5,41230.7
Z" /> 
<path style="fill:#000000; fill-opacity:1.0; 
stroke:#000000; stroke-width:0; stroke-opacity:1; 
stroke-linecap:round; stroke-linejoin:round;fill-rule:evenodd;"
d="M 53753.5,41230.7
53753.5,40955.1
53871.7,40955.1
53871.7,41230.7
Z" /> 
<path style="fill:#000000; fill-opacity:1.0; 
stroke:#000000; stroke-width:0; stroke-opacity:1; 
stroke-linecap:round; stroke-linejoin:round;fill-rule:evenodd;"
d="M 53556.7,41230.7
53556.7,40955.1
53674.8,40955.1
53674.8,41230.7
Z" /> 
<path style="fill:#000000; fill-opacity:1.0; 
stroke:#000000; stroke-width:0; stroke-opacity:1; 
stroke-linecap:round; stroke-linejoin:round;fill-rule:evenodd;"
d="M 53359.8,41230.7
53359.8,40955.1
53478,40955.1
53478,41230.7
Z" /> 
</g>
<g >
</g>
<g >
</g>
<g >
</g>
<g style="fill:#000000; fill-opacity:1.0; 
stroke:#000000; stroke-width:0; stroke-opacity:1; 
stroke-linecap:round; stroke-linejoin:round;">
<path style="fill:#000000; fill-opacity:1.0; 
stroke:#000000; stroke-width:0; stroke-opacity:1; 
stroke-linecap:round; stroke-linejoin:round;fill-rule:evenodd;"
d="M 71148.3,35513.4
71157.4,35514.8
71166.3,35517
71175,35520.1
71183.3,35524
71191.1,35528.8
71198.5,35534.2
71205.3,35540.4
71211.5,35547.2
71216.9,35554.5
71221.6,35562.4
71225.6,35570.7
71228.7,35579.4
71230.9,35588.3
71232.2,35597.3
71232.7,35606.5
71232.7,35793.5
71232.2,35802.7
71230.9,35811.7
71228.7,35820.6
71225.6,35829.3
71221.6,35837.6
71216.9,35845.5
71211.5,35852.8
71205.3,35859.6
71198.5,35865.8
71191.1,35871.2
71183.3,35876
71175,35879.9
71166.3,35883
71157.4,35885.2
71148.3,35886.6
71139.2,35887
70942.3,35887
70933.2,35886.6
70924.1,35885.2
70915.2,35883
70906.5,35879.9
70898.2,35876
70890.4,35871.2
70883,35865.8
70876.2,35859.6
70870,35852.8
70864.6,35845.5
70859.9,35837.6
70855.9,35829.3
70852.8,35820.6
70850.6,35811.7
70849.3,35802.7
70848.8,35793.5
70848.8,35606.5
70849.3,35597.3
70850.6,35588.3
70852.8,35579.4
70855.9,35570.7
70859.9,35562.4
70864.6,35554.5
70870,35547.2
70876.2,35540.4
70883,35534.2
70890.4,35528.8
70898.2,35524
70906.5,35520.1
70915.2,35517
70924.1,35514.8
70933.2,35513.4
70942.3,35513
71139.2,35513
Z" /> 
<path style="fill:#000000; fill-opacity:1.0; 
stroke:#000000; stroke-width:0; stroke-opacity:1; 
stroke-linecap:round; stroke-linejoin:round;fill-rule:evenodd;"
d="M 71866.8,35513.4
71875.9,35514.8
71884.8,35517
71893.5,35520.1
71901.8,35524
71909.6,35528.8
71917,35534.2
71923.8,35540.4
71930,35547.2
71935.4,35554.5
71940.1,35562.4
71944.1,35570.7
71947.2,35579.4
71949.4,35588.3
71950.7,35597.3
71951.2,35606.5
71951.2,35793.5
71950.7,35802.7
71949.4,35811.7
71947.2,35820.6
71944.1,35829.3
71940.1,35837.6
71935.4,35845.5
71930,35852.8
71923.8,35859.6
71917,35865.8
71909.6,35871.2
71901.8,35876
71893.5,35879.9
71884.8,35883
71875.9,35885.2
71866.8,35886.6
71857.7,35887
71660.8,35887
71651.7,35886.6
71642.6,35885.2
71633.7,35883
71625,35879.9
71616.7,35876
71608.9,35871.2
71601.5,35865.8
71594.7,35859.6
71588.5,35852.8
71583.1,35845.5
71578.4,35837.6
71574.4,35829.3
71571.3,35820.6
71569.1,35811.7
71567.8,35802.7
71567.3,35793.5
71567.3,35606.5
71567.8,35597.3
71569.1,35588.3
71571.3,35579.4
71574.4,35570.7
71578.4,35562.4
71583.1,35554.5
71588.5,35547.2
71594.7,35540.4
71601.5,35534.2
71608.9,35528.8
71616.7,35524
71625,35520.1
71633.7,35517
71642.6,35514.8
71651.7,35513.4
71660.8,35513
71857.7,35513
Z" /> 
</g>
<g >
</g>
<g style="fill:#000000; fill-opacity:1.0; 
stroke:#000000; stroke-width:0; stroke-opacity:1; 
stroke-linecap:round; stroke-linejoin:round;">
<path style="fill:#000000; fill-opacity:1.0; 
stroke:#000000; stroke-width:0; stroke-opacity:1; 
stroke-linecap:round; stroke-linejoin:round;fill-rule:evenodd;"
d="M 73266.8,35513.4
73275.9,35514.8
73284.8,35517
73293.5,35520.1
73301.8,35524
73309.6,35528.8
73317,35534.2
73323.8,35540.4
73330,35547.2
73335.4,35554.5
73340.1,35562.4
73344.1,35570.7
73347.2,35579.4
73349.4,35588.3
73350.7,35597.3
73351.2,35606.5
73351.2,35793.5
73350.7,35802.7
73349.4,35811.7
73347.2,35820.6
73344.1,35829.3
73340.1,35837.6
73335.4,35845.5
73330,35852.8
73323.8,35859.6
73317,35865.8
73309.6,35871.2
73301.8,35876
73293.5,35879.9
73284.8,35883
73275.9,35885.2
73266.8,35886.6
73257.7,35887
73060.8,35887
73051.7,35886.6
73042.6,35885.2
73033.7,35883
73025,35879.9
73016.7,35876
73008.9,35871.2
73001.5,35865.8
72994.7,35859.6
72988.5,35852.8
72983.1,35845.5
72978.4,35837.6
72974.4,35829.3
72971.3,35820.6
72969.1,35811.7
72967.8,35802.7
72967.3,35793.5
72967.3,35606.5
72967.8,35597.3
72969.1,35588.3
72971.3,35579.4
72974.4,35570.7
72978.4,35562.4
72983.1,35554.5
72988.5,35547.2
72994.7,35540.4
73001.5,35534.2
73008.9,35528.8
73016.7,35524
73025,35520.1
73033.7,35517
73042.6,35514.8
73051.7,35513.4
73060.8,35513
73257.7,35513
Z" /> 
<path style="fill:#000000; fill-opacity:1.0; 
stroke:#000000; stroke-width:0; stroke-opacity:1; 
stroke-linecap:round; stroke-linejoin:round;fill-rule:evenodd;"
d="M 72548.3,35513.4
72557.4,35514.8
72566.3,35517
72575,35520.1
72583.3,35524
72591.1,35528.8
72598.5,35534.2
72605.3,35540.4
72611.5,35547.2
72616.9,35554.5
72621.6,35562.4
72625.6,35570.7
72628.7,35579.4
72630.9,35588.3
72632.2,35597.3
72632.7,35606.5
72632.7,35793.5
72632.2,35802.7
72630.9,35811.7
72628.7,35820.6
72625.6,35829.3
72621.6,35837.6
72616.9,35845.5
72611.5,35852.8
72605.3,35859.6
72598.5,35865.8
72591.1,35871.2
72583.3,35876
72575,35879.9
72566.3,35883
72557.4,35885.2
72548.3,35886.6
72539.2,35887
72342.3,35887
72333.2,35886.6
72324.1,35885.2
72315.2,35883
72306.5,35879.9
72298.2,35876
72290.4,35871.2
72283,35865.8
72276.2,35859.6
72270,35852.8
72264.6,35845.5
72259.9,35837.6
72255.9,35829.3
72252.8,35820.6
72250.6,35811.7
72249.3,35802.7
72248.8,35793.5
72248.8,35606.5
72249.3,35597.3
72250.6,35588.3
72252.8,35579.4
72255.9,35570.7
72259.9,35562.4
72264.6,35554.5
72270,35547.2
72276.2,35540.4
72283,35534.2
72290.4,35528.8
72298.2,35524
72306.5,35520.1
72315.2,35517
72324.1,35514.8
72333.2,35513.4
72342.3,35513
72539.2,35513
Z" /> 
</g>
<g >
</g>
<g style="fill:#000000; fill-opacity:1.0; 
stroke:#000000; stroke-width:0; stroke-opacity:1; 
stroke-linecap:round; stroke-linejoin:round;">
<path style="fill:#000000; fill-opacity:1.0; 
stroke:#000000; stroke-width:0; stroke-opacity:1; 
stroke-linecap:round; stroke-linejoin:round;fill-rule:evenodd;"
d="M 76052.7,31017.8
76061.7,31019.1
76070.6,31021.3
76079.3,31024.4
76087.6,31028.4
76095.5,31033.1
76102.8,31038.5
76109.6,31044.7
76115.8,31051.5
76121.2,31058.9
76126,31066.7
76129.9,31075
76133,31083.7
76135.2,31092.6
76136.6,31101.7
76137,31110.8
76137,31307.7
76136.6,31316.8
76135.2,31325.9
76133,31334.8
76129.9,31343.5
76126,31351.8
76121.2,31359.6
76115.8,31367
76109.6,31373.8
76102.8,31380
76095.5,31385.4
76087.6,31390.1
76079.3,31394.1
76070.6,31397.2
76061.7,31399.4
76052.7,31400.7
76043.5,31401.2
75856.5,31401.2
75847.3,31400.7
75838.3,31399.4
75829.4,31397.2
75820.7,31394.1
75812.4,31390.1
75804.5,31385.4
75797.2,31380
75790.4,31373.8
75784.2,31367
75778.8,31359.6
75774,31351.8
75770.1,31343.5
75767,31334.8
75764.8,31325.9
75763.4,31316.8
75763,31307.7
75763,31110.8
75763.4,31101.7
75764.8,31092.6
75767,31083.7
75770.1,31075
75774,31066.7
75778.8,31058.9
75784.2,31051.5
75790.4,31044.7
75797.2,31038.5
75804.5,31033.1
75812.4,31028.4
75820.7,31024.4
75829.4,31021.3
75838.3,31019.1
75847.3,31017.8
75856.5,31017.3
76043.5,31017.3
Z" /> 
<path style="fill:#000000; fill-opacity:1.0; 
stroke:#000000; stroke-width:0; stroke-opacity:1; 
stroke-linecap:round; stroke-linejoin:round;fill-rule:evenodd;"
d="M 76052.7,30299.3
76061.7,30300.6
76070.6,30302.8
76079.3,30305.9
76087.6,30309.9
76095.5,30314.6
76102.8,30320
76109.6,30326.2
76115.8,30333
76121.2,30340.4
76126,30348.2
76129.9,30356.5
76133,30365.2
76135.2,30374.1
76136.6,30383.2
76137,30392.3
76137,30589.2
76136.6,30598.3
76135.2,30607.4
76133,30616.3
76129.9,30625
76126,30633.3
76121.2,30641.1
76115.8,30648.5
76109.6,30655.3
76102.8,30661.5
76095.5,30666.9
76087.6,30671.6
76079.3,30675.6
76070.6,30678.7
76061.7,30680.9
76052.7,30682.2
76043.5,30682.7
75856.5,30682.7
75847.3,30682.2
75838.3,30680.9
75829.4,30678.7
75820.7,30675.6
75812.4,30671.6
75804.5,30666.9
75797.2,30661.5
75790.4,30655.3
75784.2,30648.5
75778.8,30641.1
75774,30633.3
75770.1,30625
75767,30616.3
75764.8,30607.4
75763.4,30598.3
75763,30589.2
75763,30392.3
75763.4,30383.2
75764.8,30374.1
75767,30365.2
75770.1,30356.5
75774,30348.2
75778.8,30340.4
75784.2,30333
75790.4,30326.2
75797.2,30320
75804.5,30314.6
75812.4,30309.9
75820.7,30305.9
75829.4,30302.8
75838.3,30300.6
75847.3,30299.3
75856.5,30298.8
76043.5,30298.8
Z" /> 
</g>
<g >
</g>
<g style="fill:#000000; fill-opacity:1.0; 
stroke:#000000; stroke-width:0; stroke-opacity:1; 
stroke-linecap:round; stroke-linejoin:round;">
<path style="fill:#000000; fill-opacity:1.0; 
stroke:#000000; stroke-width:0; stroke-opacity:1; 
stroke-linecap:round; stroke-linejoin:round;fill-rule:evenodd;"
d="M 52466.8,40213.4
52475.9,40214.8
52484.8,40217
52493.5,40220.1
52501.8,40224
52509.6,40228.8
52517,40234.2
52523.8,40240.4
52530,40247.2
52535.4,40254.5
52540.1,40262.4
52544.1,40270.7
52547.2,40279.4
52549.4,40288.3
52550.7,40297.3
52551.2,40306.5
52551.2,40493.5
52550.7,40502.7
52549.4,40511.7
52547.2,40520.6
52544.1,40529.3
52540.1,40537.6
52535.4,40545.5
52530,40552.8
52523.8,40559.6
52517,40565.8
52509.6,40571.2
52501.8,40576
52493.5,40579.9
52484.8,40583
52475.9,40585.2
52466.8,40586.6
52457.7,40587
52260.8,40587
52251.7,40586.6
52242.6,40585.2
52233.7,40583
52225,40579.9
52216.7,40576
52208.9,40571.2
52201.5,40565.8
52194.7,40559.6
52188.5,40552.8
52183.1,40545.5
52178.4,40537.6
52174.4,40529.3
52171.3,40520.6
52169.1,40511.7
52167.8,40502.7
52167.3,40493.5
52167.3,40306.5
52167.8,40297.3
52169.1,40288.3
52171.3,40279.4
52174.4,40270.7
52178.4,40262.4
52183.1,40254.5
52188.5,40247.2
52194.7,40240.4
52201.5,40234.2
52208.9,40228.8
52216.7,40224
52225,40220.1
52233.7,40217
52242.6,40214.8
52251.7,40213.4
52260.8,40213
52457.7,40213
Z" /> 
<path style="fill:#000000; fill-opacity:1.0; 
stroke:#000000; stroke-width:0; stroke-opacity:1; 
stroke-linecap:round; stroke-linejoin:round;fill-rule:evenodd;"
d="M 51748.3,40213.4
51757.4,40214.8
51766.3,40217
51775,40220.1
51783.3,40224
51791.1,40228.8
51798.5,40234.2
51805.3,40240.4
51811.5,40247.2
51816.9,40254.5
51821.6,40262.4
51825.6,40270.7
51828.7,40279.4
51830.9,40288.3
51832.2,40297.3
51832.7,40306.5
51832.7,40493.5
51832.2,40502.7
51830.9,40511.7
51828.7,40520.6
51825.6,40529.3
51821.6,40537.6
51816.9,40545.5
51811.5,40552.8
51805.3,40559.6
51798.5,40565.8
51791.1,40571.2
51783.3,40576
51775,40579.9
51766.3,40583
51757.4,40585.2
51748.3,40586.6
51739.2,40587
51542.3,40587
51533.2,40586.6
51524.1,40585.2
51515.2,40583
51506.5,40579.9
51498.2,40576
51490.4,40571.2
51483,40565.8
51476.2,40559.6
51470,40552.8
51464.6,40545.5
51459.9,40537.6
51455.9,40529.3
51452.8,40520.6
51450.6,40511.7
51449.3,40502.7
51448.8,40493.5
51448.8,40306.5
51449.3,40297.3
51450.6,40288.3
51452.8,40279.4
51455.9,40270.7
51459.9,40262.4
51464.6,40254.5
51470,40247.2
51476.2,40240.4
51483,40234.2
51490.4,40228.8
51498.2,40224
51506.5,40220.1
51515.2,40217
51524.1,40214.8
51533.2,40213.4
51542.3,40213
51739.2,40213
Z" /> 
</g>
<g >
</g>
<g style="fill:#000000; fill-opacity:1.0; 
stroke:#000000; stroke-width:0; stroke-opacity:1; 
stroke-linecap:round; stroke-linejoin:round;">
<path style="fill:#000000; fill-opacity:1.0; 
stroke:#000000; stroke-width:0; stroke-opacity:1; 
stroke-linecap:round; stroke-linejoin:round;fill-rule:evenodd;"
d="M 52466.8,41913.4
52475.9,41914.8
52484.8,41917
52493.5,41920.1
52501.8,41924
52509.6,41928.8
52517,41934.2
52523.8,41940.4
52530,41947.2
52535.4,41954.5
52540.1,41962.4
52544.1,41970.7
52547.2,41979.4
52549.4,41988.3
52550.7,41997.3
52551.2,42006.5
52551.2,42193.5
52550.7,42202.7
52549.4,42211.7
52547.2,42220.6
52544.1,42229.3
52540.1,42237.6
52535.4,42245.5
52530,42252.8
52523.8,42259.6
52517,42265.8
52509.6,42271.2
52501.8,42276
52493.5,42279.9
52484.8,42283
52475.9,42285.2
52466.8,42286.6
52457.7,42287
52260.8,42287
52251.7,42286.6
52242.6,42285.2
52233.7,42283
52225,42279.9
52216.7,42276
52208.9,42271.2
52201.5,42265.8
52194.7,42259.6
52188.5,42252.8
52183.1,42245.5
52178.4,42237.6
52174.4,42229.3
52171.3,42220.6
52169.1,42211.7
52167.8,42202.7
52167.3,42193.5
52167.3,42006.5
52167.8,41997.3
52169.1,41988.3
52171.3,41979.4
52174.4,41970.7
52178.4,41962.4
52183.1,41954.5
52188.5,41947.2
52194.7,41940.4
52201.5,41934.2
52208.9,41928.8
52216.7,41924
52225,41920.1
52233.7,41917
52242.6,41914.8
52251.7,41913.4
52260.8,41913
52457.7,41913
Z" /> 
<path style="fill:#000000; fill-opacity:1.0; 
stroke:#000000; stroke-width:0; stroke-opacity:1; 
stroke-linecap:round; stroke-linejoin:round;fill-rule:evenodd;"
d="M 51748.3,41913.4
51757.4,41914.8
51766.3,41917
51775,41920.1
51783.3,41924
51791.1,41928.8
51798.5,41934.2
51805.3,41940.4
51811.5,41947.2
51816.9,41954.5
51821.6,41962.4
51825.6,41970.7
51828.7,41979.4
51830.9,41988.3
51832.2,41997.3
51832.7,42006.5
51832.7,42193.5
51832.2,42202.7
51830.9,42211.7
51828.7,42220.6
51825.6,42229.3
51821.6,42237.6
51816.9,42245.5
51811.5,42252.8
51805.3,42259.6
51798.5,42265.8
51791.1,42271.2
51783.3,42276
51775,42279.9
51766.3,42283
51757.4,42285.2
51748.3,42286.6
51739.2,42287
51542.3,42287
51533.2,42286.6
51524.1,42285.2
51515.2,42283
51506.5,42279.9
51498.2,42276
51490.4,42271.2
51483,42265.8
51476.2,42259.6
51470,42252.8
51464.6,42245.5
51459.9,42237.6
51455.9,42229.3
51452.8,42220.6
51450.6,42211.7
51449.3,42202.7
51448.8,42193.5
51448.8,42006.5
51449.3,41997.3
51450.6,41988.3
51452.8,41979.4
51455.9,41970.7
51459.9,41962.4
51464.6,41954.5
51470,41947.2
51476.2,41940.4
51483,41934.2
51490.4,41928.8
51498.2,41924
51506.5,41920.1
51515.2,41917
51524.1,41914.8
51533.2,41913.4
51542.3,41913
51739.2,41913
Z" /> 
</g>
<g >
</g>
<g style="fill:#000000; fill-opacity:1.0; 
stroke:#000000; stroke-width:0; stroke-opacity:1; 
stroke-linecap:round; stroke-linejoin:round;">
<path style="fill:#000000; fill-opacity:1.0; 
stroke:#000000; stroke-width:0; stroke-opacity:1; 
stroke-linecap:round; stroke-linejoin:round;fill-rule:evenodd;"
d="M 59030.8,40133.2
59030.8,40413.2
58640.8,40413.2
58640.8,40133.2
Z" /> 
<path style="fill:#000000; fill-opacity:1.0; 
stroke:#000000; stroke-width:0; stroke-opacity:1; 
stroke-linecap:round; stroke-linejoin:round;fill-rule:evenodd;"
d="M 57259.2,40133.2
57259.2,40413.2
56869.2,40413.2
56869.2,40133.2
Z" /> 
<path style="fill:#000000; fill-opacity:1.0; 
stroke:#000000; stroke-width:0; stroke-opacity:1; 
stroke-linecap:round; stroke-linejoin:round;fill-rule:evenodd;"
d="M 59030.8,39286.8
59030.8,39566.8
58640.8,39566.8
58640.8,39286.8
Z" /> 
<path style="fill:#000000; fill-opacity:1.0; 
stroke:#000000; stroke-width:0; stroke-opacity:1; 
stroke-linecap:round; stroke-linejoin:round;fill-rule:evenodd;"
d="M 57259.2,39286.8
57259.2,39566.8
56869.2,39566.8
56869.2,39286.8
Z" /> 
</g>
<g >
</g>
<g style="fill:#000000; fill-opacity:1.0; 
stroke:#000000; stroke-width:0; stroke-opacity:1; 
stroke-linecap:round; stroke-linejoin:round;">
<path style="fill:#000000; fill-opacity:1.0; 
stroke:#000000; stroke-width:0; stroke-opacity:1; 
stroke-linecap:round; stroke-linejoin:round;fill-rule:evenodd;"
d="M 72029.5,30156.5
71752,30156.5
71752,30078.1
72029.5,30078.1
Z" /> 
<path style="fill:#000000; fill-opacity:1.0; 
stroke:#000000; stroke-width:0; stroke-opacity:1; 
stroke-linecap:round; stroke-linejoin:round;fill-rule:evenodd;"
d="M 72029.5,30353.4
71752,30353.4
71752,30275
72029.5,30275
Z" /> 
<path style="fill:#000000; fill-opacity:1.0; 
stroke:#000000; stroke-width:0; stroke-opacity:1; 
stroke-linecap:round; stroke-linejoin:round;fill-rule:evenodd;"
d="M 72029.5,30550.2
71752,30550.2
71752,30471.8
72029.5,30471.8
Z" /> 
<path style="fill:#000000; fill-opacity:1.0; 
stroke:#000000; stroke-width:0; stroke-opacity:1; 
stroke-linecap:round; stroke-linejoin:round;fill-rule:evenodd;"
d="M 72029.5,30747.1
71752,30747.1
71752,30668.7
72029.5,30668.7
Z" /> 
<path style="fill:#000000; fill-opacity:1.0; 
stroke:#000000; stroke-width:0; stroke-opacity:1; 
stroke-linecap:round; stroke-linejoin:round;fill-rule:evenodd;"
d="M 72029.5,30943.9
71752,30943.9
71752,30865.5
72029.5,30865.5
Z" /> 
<path style="fill:#000000; fill-opacity:1.0; 
stroke:#000000; stroke-width:0; stroke-opacity:1; 
stroke-linecap:round; stroke-linejoin:round;fill-rule:evenodd;"
d="M 72029.5,31140.8
71752,31140.8
71752,31062.4
72029.5,31062.4
Z" /> 
<path style="fill:#000000; fill-opacity:1.0; 
stroke:#000000; stroke-width:0; stroke-opacity:1; 
stroke-linecap:round; stroke-linejoin:round;fill-rule:evenodd;"
d="M 72029.5,31337.6
71752,31337.6
71752,31259.2
72029.5,31259.2
Z" /> 
<path style="fill:#000000; fill-opacity:1.0; 
stroke:#000000; stroke-width:0; stroke-opacity:1; 
stroke-linecap:round; stroke-linejoin:round;fill-rule:evenodd;"
d="M 72029.5,31534.5
71752,31534.5
71752,31456.1
72029.5,31456.1
Z" /> 
<path style="fill:#000000; fill-opacity:1.0; 
stroke:#000000; stroke-width:0; stroke-opacity:1; 
stroke-linecap:round; stroke-linejoin:round;fill-rule:evenodd;"
d="M 72029.5,31731.3
71752,31731.3
71752,31652.9
72029.5,31652.9
Z" /> 
<path style="fill:#000000; fill-opacity:1.0; 
stroke:#000000; stroke-width:0; stroke-opacity:1; 
stroke-linecap:round; stroke-linejoin:round;fill-rule:evenodd;"
d="M 72029.5,31928.2
71752,31928.2
71752,31849.8
72029.5,31849.8
Z" /> 
<path style="fill:#000000; fill-opacity:1.0; 
stroke:#000000; stroke-width:0; stroke-opacity:1; 
stroke-linecap:round; stroke-linejoin:round;fill-rule:evenodd;"
d="M 72029.5,32125
71752,32125
71752,32046.6
72029.5,32046.6
Z" /> 
<path style="fill:#000000; fill-opacity:1.0; 
stroke:#000000; stroke-width:0; stroke-opacity:1; 
stroke-linecap:round; stroke-linejoin:round;fill-rule:evenodd;"
d="M 72029.5,32321.9
71752,32321.9
71752,32243.5
72029.5,32243.5
Z" /> 
<path style="fill:#000000; fill-opacity:1.0; 
stroke:#000000; stroke-width:0; stroke-opacity:1; 
stroke-linecap:round; stroke-linejoin:round;fill-rule:evenodd;"
d="M 72128.1,32698
72128.1,32420.5
72206.5,32420.5
72206.5,32698
Z" /> 
<path style="fill:#000000; fill-opacity:1.0; 
stroke:#000000; stroke-width:0; stroke-opacity:1; 
stroke-linecap:round; stroke-linejoin:round;fill-rule:evenodd;"
d="M 72325,32698
72325,32420.5
72403.4,32420.5
72403.4,32698
Z" /> 
<path style="fill:#000000; fill-opacity:1.0; 
stroke:#000000; stroke-width:0; stroke-opacity:1; 
stroke-linecap:round; stroke-linejoin:round;fill-rule:evenodd;"
d="M 72521.8,32698
72521.8,32420.5
72600.2,32420.5
72600.2,32698
Z" /> 
<path style="fill:#000000; fill-opacity:1.0; 
stroke:#000000; stroke-width:0; stroke-opacity:1; 
stroke-linecap:round; stroke-linejoin:round;fill-rule:evenodd;"
d="M 72718.7,32698
72718.7,32420.5
72797.1,32420.5
72797.1,32698
Z" /> 
<path style="fill:#000000; fill-opacity:1.0; 
stroke:#000000; stroke-width:0; stroke-opacity:1; 
stroke-linecap:round; stroke-linejoin:round;fill-rule:evenodd;"
d="M 72915.5,32698
72915.5,32420.5
72993.9,32420.5
72993.9,32698
Z" /> 
<path style="fill:#000000; fill-opacity:1.0; 
stroke:#000000; stroke-width:0; stroke-opacity:1; 
stroke-linecap:round; stroke-linejoin:round;fill-rule:evenodd;"
d="M 73112.4,32698
73112.4,32420.5
73190.8,32420.5
73190.8,32698
Z" /> 
<path style="fill:#000000; fill-opacity:1.0; 
stroke:#000000; stroke-width:0; stroke-opacity:1; 
stroke-linecap:round; stroke-linejoin:round;fill-rule:evenodd;"
d="M 73309.2,32698
73309.2,32420.5
73387.6,32420.5
73387.6,32698
Z" /> 
<path style="fill:#000000; fill-opacity:1.0; 
stroke:#000000; stroke-width:0; stroke-opacity:1; 
stroke-linecap:round; stroke-linejoin:round;fill-rule:evenodd;"
d="M 73506.1,32698
73506.1,32420.5
73584.5,32420.5
73584.5,32698
Z" /> 
<path style="fill:#000000; fill-opacity:1.0; 
stroke:#000000; stroke-width:0; stroke-opacity:1; 
stroke-linecap:round; stroke-linejoin:round;fill-rule:evenodd;"
d="M 73702.9,32698
73702.9,32420.5
73781.3,32420.5
73781.3,32698
Z" /> 
<path style="fill:#000000; fill-opacity:1.0; 
stroke:#000000; stroke-width:0; stroke-opacity:1; 
stroke-linecap:round; stroke-linejoin:round;fill-rule:evenodd;"
d="M 73899.8,32698
73899.8,32420.5
73978.2,32420.5
73978.2,32698
Z" /> 
<path style="fill:#000000; fill-opacity:1.0; 
stroke:#000000; stroke-width:0; stroke-opacity:1; 
stroke-linecap:round; stroke-linejoin:round;fill-rule:evenodd;"
d="M 74096.6,32698
74096.6,32420.5
74175,32420.5
74175,32698
Z" /> 
<path style="fill:#000000; fill-opacity:1.0; 
stroke:#000000; stroke-width:0; stroke-opacity:1; 
stroke-linecap:round; stroke-linejoin:round;fill-rule:evenodd;"
d="M 74293.5,32698
74293.5,32420.5
74371.9,32420.5
74371.9,32698
Z" /> 
<path style="fill:#000000; fill-opacity:1.0; 
stroke:#000000; stroke-width:0; stroke-opacity:1; 
stroke-linecap:round; stroke-linejoin:round;fill-rule:evenodd;"
d="M 74748,32321.9
74470.5,32321.9
74470.5,32243.5
74748,32243.5
Z" /> 
<path style="fill:#000000; fill-opacity:1.0; 
stroke:#000000; stroke-width:0; stroke-opacity:1; 
stroke-linecap:round; stroke-linejoin:round;fill-rule:evenodd;"
d="M 74748,32125
74470.5,32125
74470.5,32046.6
74748,32046.6
Z" /> 
<path style="fill:#000000; fill-opacity:1.0; 
stroke:#000000; stroke-width:0; stroke-opacity:1; 
stroke-linecap:round; stroke-linejoin:round;fill-rule:evenodd;"
d="M 74748,31928.2
74470.5,31928.2
74470.5,31849.8
74748,31849.8
Z" /> 
<path style="fill:#000000; fill-opacity:1.0; 
stroke:#000000; stroke-width:0; stroke-opacity:1; 
stroke-linecap:round; stroke-linejoin:round;fill-rule:evenodd;"
d="M 74748,31731.3
74470.5,31731.3
74470.5,31652.9
74748,31652.9
Z" /> 
<path style="fill:#000000; fill-opacity:1.0; 
stroke:#000000; stroke-width:0; stroke-opacity:1; 
stroke-linecap:round; stroke-linejoin:round;fill-rule:evenodd;"
d="M 74748,31534.5
74470.5,31534.5
74470.5,31456.1
74748,31456.1
Z" /> 
<path style="fill:#000000; fill-opacity:1.0; 
stroke:#000000; stroke-width:0; stroke-opacity:1; 
stroke-linecap:round; stroke-linejoin:round;fill-rule:evenodd;"
d="M 74748,31337.6
74470.5,31337.6
74470.5,31259.2
74748,31259.2
Z" /> 
<path style="fill:#000000; fill-opacity:1.0; 
stroke:#000000; stroke-width:0; stroke-opacity:1; 
stroke-linecap:round; stroke-linejoin:round;fill-rule:evenodd;"
d="M 74748,31140.8
74470.5,31140.8
74470.5,31062.4
74748,31062.4
Z" /> 
<path style="fill:#000000; fill-opacity:1.0; 
stroke:#000000; stroke-width:0; stroke-opacity:1; 
stroke-linecap:round; stroke-linejoin:round;fill-rule:evenodd;"
d="M 74748,30943.9
74470.5,30943.9
74470.5,30865.5
74748,30865.5
Z" /> 
<path style="fill:#000000; fill-opacity:1.0; 
stroke:#000000; stroke-width:0; stroke-opacity:1; 
stroke-linecap:round; stroke-linejoin:round;fill-rule:evenodd;"
d="M 74748,30747.1
74470.5,30747.1
74470.5,30668.7
74748,30668.7
Z" /> 
<path style="fill:#000000; fill-opacity:1.0; 
stroke:#000000; stroke-width:0; stroke-opacity:1; 
stroke-linecap:round; stroke-linejoin:round;fill-rule:evenodd;"
d="M 74748,30550.2
74470.5,30550.2
74470.5,30471.8
74748,30471.8
Z" /> 
<path style="fill:#000000; fill-opacity:1.0; 
stroke:#000000; stroke-width:0; stroke-opacity:1; 
stroke-linecap:round; stroke-linejoin:round;fill-rule:evenodd;"
d="M 74748,30353.4
74470.5,30353.4
74470.5,30275
74748,30275
Z" /> 
<path style="fill:#000000; fill-opacity:1.0; 
stroke:#000000; stroke-width:0; stroke-opacity:1; 
stroke-linecap:round; stroke-linejoin:round;fill-rule:evenodd;"
d="M 74748,30156.5
74470.5,30156.5
74470.5,30078.1
74748,30078.1
Z" /> 
<path style="fill:#000000; fill-opacity:1.0; 
stroke:#000000; stroke-width:0; stroke-opacity:1; 
stroke-linecap:round; stroke-linejoin:round;fill-rule:evenodd;"
d="M 74293.5,29979.5
74293.5,29702
74371.9,29702
74371.9,29979.5
Z" /> 
<path style="fill:#000000; fill-opacity:1.0; 
stroke:#000000; stroke-width:0; stroke-opacity:1; 
stroke-linecap:round; stroke-linejoin:round;fill-rule:evenodd;"
d="M 74096.6,29979.5
74096.6,29702
74175,29702
74175,29979.5
Z" /> 
<path style="fill:#000000; fill-opacity:1.0; 
stroke:#000000; stroke-width:0; stroke-opacity:1; 
stroke-linecap:round; stroke-linejoin:round;fill-rule:evenodd;"
d="M 73899.8,29979.5
73899.8,29702
73978.2,29702
73978.2,29979.5
Z" /> 
<path style="fill:#000000; fill-opacity:1.0; 
stroke:#000000; stroke-width:0; stroke-opacity:1; 
stroke-linecap:round; stroke-linejoin:round;fill-rule:evenodd;"
d="M 73702.9,29979.5
73702.9,29702
73781.3,29702
73781.3,29979.5
Z" /> 
<path style="fill:#000000; fill-opacity:1.0; 
stroke:#000000; stroke-width:0; stroke-opacity:1; 
stroke-linecap:round; stroke-linejoin:round;fill-rule:evenodd;"
d="M 73506.1,29979.5
73506.1,29702
73584.5,29702
73584.5,29979.5
Z" /> 
<path style="fill:#000000; fill-opacity:1.0; 
stroke:#000000; stroke-width:0; stroke-opacity:1; 
stroke-linecap:round; stroke-linejoin:round;fill-rule:evenodd;"
d="M 73309.2,29979.5
73309.2,29702
73387.6,29702
73387.6,29979.5
Z" /> 
<path style="fill:#000000; fill-opacity:1.0; 
stroke:#000000; stroke-width:0; stroke-opacity:1; 
stroke-linecap:round; stroke-linejoin:round;fill-rule:evenodd;"
d="M 73112.4,29979.5
73112.4,29702
73190.8,29702
73190.8,29979.5
Z" /> 
<path style="fill:#000000; fill-opacity:1.0; 
stroke:#000000; stroke-width:0; stroke-opacity:1; 
stroke-linecap:round; stroke-linejoin:round;fill-rule:evenodd;"
d="M 72915.5,29979.5
72915.5,29702
72993.9,29702
72993.9,29979.5
Z" /> 
<path style="fill:#000000; fill-opacity:1.0; 
stroke:#000000; stroke-width:0; stroke-opacity:1; 
stroke-linecap:round; stroke-linejoin:round;fill-rule:evenodd;"
d="M 72718.7,29979.5
72718.7,29702
72797.1,29702
72797.1,29979.5
Z" /> 
<path style="fill:#000000; fill-opacity:1.0; 
stroke:#000000; stroke-width:0; stroke-opacity:1; 
stroke-linecap:round; stroke-linejoin:round;fill-rule:evenodd;"
d="M 72521.8,29979.5
72521.8,29702
72600.2,29702
72600.2,29979.5
Z" /> 
<path style="fill:#000000; fill-opacity:1.0; 
stroke:#000000; stroke-width:0; stroke-opacity:1; 
stroke-linecap:round; stroke-linejoin:round;fill-rule:evenodd;"
d="M 72325,29979.5
72325,29702
72403.4,29702
72403.4,29979.5
Z" /> 
<path style="fill:#000000; fill-opacity:1.0; 
stroke:#000000; stroke-width:0; stroke-opacity:1; 
stroke-linecap:round; stroke-linejoin:round;fill-rule:evenodd;"
d="M 72128.1,29979.5
72128.1,29702
72206.5,29702
72206.5,29979.5
Z" /> 
<path style="fill:#000000; fill-opacity:1.0; 
stroke:#000000; stroke-width:0; stroke-opacity:1; 
stroke-linecap:round; stroke-linejoin:round;fill-rule:evenodd;"
d="M 72167.3,32282.7
72167.3,30117.3
74332.7,30117.3
74332.7,32282.7
Z" /> 
</g>
<g >
</g>
<g style="fill:#000000; fill-opacity:1.0; 
stroke:#000000; stroke-width:0; stroke-opacity:1; 
stroke-linecap:round; stroke-linejoin:round;">
<path style="fill:#000000; fill-opacity:1.0; 
stroke:#000000; stroke-width:0; stroke-opacity:1; 
stroke-linecap:round; stroke-linejoin:round;fill-rule:evenodd;"
d="M 66615,35986.6
65635,35986.6
65635,35616.6
66615,35616.6
Z" /> 
<path style="fill:#000000; fill-opacity:1.0; 
stroke:#000000; stroke-width:0; stroke-opacity:1; 
stroke-linecap:round; stroke-linejoin:round;fill-rule:evenodd;"
d="M 64965,36235
62235,36235
62235,33565
64965,33565
Z" /> 
<path style="fill:#000000; fill-opacity:1.0; 
stroke:#000000; stroke-width:0; stroke-opacity:1; 
stroke-linecap:round; stroke-linejoin:round;fill-rule:evenodd;"
d="M 66615,34183.4
65635,34183.4
65635,33813.4
66615,33813.4
Z" /> 
</g>
<g >
</g>
<g >
</g>
<g >
</g>
</g> 
</svg>
