<?xml version="1.0" standalone="no"?>
 <!DOCTYPE svg PUBLIC "-//W3C//DTD SVG 1.1//EN" 
 "http://www.w3.org/Graphics/SVG/1.1/DTD/svg11.dtd"> 
<svg
  xmlns:svg="http://www.w3.org/2000/svg"
  xmlns="http://www.w3.org/2000/svg"
  xmlns:xlink="http://www.w3.org/1999/xlink"
  version="1.1"
  width="29.700220cm" height="21.000720cm" viewBox="0 0 116930 82680">
<title>SVG Picture created as RoboCloud-B_Mask.svg date 2021/04/07 08:56:12 </title>
  <desc>Picture generated by PCBNEW </desc>
<g style="fill:#000000; fill-opacity:1;stroke:#000000; stroke-opacity:1;
stroke-linecap:round; stroke-linejoin:round;"
 transform="translate(0 0) scale(1 1)">
</g>
<g style="fill:#000000; fill-opacity:0.0; 
stroke:#000000; stroke-width:-0.000393701; stroke-opacity:1; 
stroke-linecap:round; stroke-linejoin:round;">
<g >
</g>
<g >
</g>
<g style="fill:#000000; fill-opacity:0.0; 
stroke:#000000; stroke-width:-0.000393701; stroke-opacity:1; 
stroke-linecap:round; stroke-linejoin:round;">
</g>
<g style="fill:#000000; fill-opacity:0.0; 
stroke:#000000; stroke-width:0; stroke-opacity:1; 
stroke-linecap:round; stroke-linejoin:round;">
</g>
<g style="fill:#000000; fill-opacity:1.0; 
stroke:#000000; stroke-width:0; stroke-opacity:1; 
stroke-linecap:round; stroke-linejoin:round;">
<path style="fill:#000000; fill-opacity:1.0; 
stroke:#000000; stroke-width:0; stroke-opacity:1; 
stroke-linecap:round; stroke-linejoin:round;fill-rule:evenodd;"
d="M 65046.3,41193.7
65046.3,40406.3
65833.7,40406.3
65833.7,41193.7
Z" /> 
<circle cx="67440" cy="40800" r="393.701" /> 
</g>
<g >
</g>
<g >
</g>
<g style="fill:#000000; fill-opacity:1.0; 
stroke:#000000; stroke-width:0; stroke-opacity:1; 
stroke-linecap:round; stroke-linejoin:round;">
<circle cx="75275" cy="33800" r="334.646" /> 
<path style="fill:#000000; fill-opacity:1.0; 
stroke:#000000; stroke-width:0; stroke-opacity:1; 
stroke-linecap:round; stroke-linejoin:round;fill-rule:evenodd;"
d="M 74609.6,34134.6
73940.4,34134.6
73940.4,33465.4
74609.6,33465.4
Z" /> 
</g>
<g >
</g>
<g >
</g>
<g >
</g>
<g >
</g>
<g >
</g>
<g >
</g>
<g >
</g>
<g >
</g>
<g >
</g>
<g style="fill:#000000; fill-opacity:1.0; 
stroke:#000000; stroke-width:0; stroke-opacity:1; 
stroke-linecap:round; stroke-linejoin:round;">
<path style="fill:#000000; fill-opacity:1.0; 
stroke:#000000; stroke-width:0; stroke-opacity:1; 
stroke-linecap:round; stroke-linejoin:round;fill-rule:evenodd;"
d="M 53334.6,27134.6
52665.4,27134.6
52665.4,26465.4
53334.6,26465.4
Z" /> 
<circle cx="54000" cy="26800" r="334.646" /> 
<circle cx="55000" cy="26800" r="334.646" /> 
<circle cx="56000" cy="26800" r="334.646" /> 
<circle cx="57000" cy="26800" r="334.646" /> 
<circle cx="58000" cy="26800" r="334.646" /> 
<circle cx="59000" cy="26800" r="334.646" /> 
<circle cx="60000" cy="26800" r="334.646" /> 
<circle cx="61000" cy="26800" r="334.646" /> 
<circle cx="62000" cy="26800" r="334.646" /> 
<circle cx="63000" cy="26800" r="334.646" /> 
<circle cx="64000" cy="26800" r="334.646" /> 
<circle cx="65000" cy="26800" r="334.646" /> 
<circle cx="66000" cy="26800" r="334.646" /> 
<circle cx="67000" cy="26800" r="334.646" /> 
<circle cx="68000" cy="26800" r="334.646" /> 
</g>
<g >
</g>
<g style="fill:#000000; fill-opacity:1.0; 
stroke:#000000; stroke-width:0; stroke-opacity:1; 
stroke-linecap:round; stroke-linejoin:round;">
<path style="fill:#000000; fill-opacity:1.0; 
stroke:#000000; stroke-width:0; stroke-opacity:1; 
stroke-linecap:round; stroke-linejoin:round;fill-rule:evenodd;"
d="M 73669.4,36687.3
73702.8,36692.2
73735.6,36700.5
73767.4,36711.9
73798,36726.3
73827,36743.7
73854.1,36763.8
73879.2,36786.5
73901.9,36811.6
73922,36838.7
73939.4,36867.7
73953.9,36898.3
73965.2,36930.1
73973.5,36962.9
73978.4,36996.4
73980.1,37030.1
73980.1,37719.1
73978.4,37752.9
73973.5,37786.3
73965.2,37819.1
73953.9,37850.9
73939.4,37881.5
73922,37910.5
73901.9,37937.6
73879.2,37962.7
73854.1,37985.4
73827,38005.5
73798,38022.9
73767.4,38037.4
73735.6,38048.7
73702.8,38057
73669.4,38061.9
73635.6,38063.6
72946.6,38063.6
72912.8,38061.9
72879.4,38057
72846.6,38048.7
72814.8,38037.4
72784.2,38022.9
72755.2,38005.5
72728.1,37985.4
72703,37962.7
72680.3,37937.6
72660.2,37910.5
72642.8,37881.5
72628.3,37850.9
72617,37819.1
72608.7,37786.3
72603.8,37752.9
72602.1,37719.1
72602.1,37030.1
72603.8,36996.4
72608.7,36962.9
72617,36930.1
72628.3,36898.3
72642.8,36867.7
72660.2,36838.7
72680.3,36811.6
72703,36786.5
72728.1,36763.8
72755.2,36743.7
72784.2,36726.3
72814.8,36711.9
72846.6,36700.5
72879.4,36692.2
72912.8,36687.3
72946.6,36685.6
73635.6,36685.6
Z" /> 
<path style="fill:#000000; fill-opacity:1.0; 
stroke:#000000; stroke-width:0; stroke-opacity:1; 
stroke-linecap:round; stroke-linejoin:round;fill-rule:evenodd;"
d="M 74796.4,38537.4
74825.1,38541.7
74853.2,38548.7
74880.5,38558.5
74906.7,38570.9
74931.5,38585.8
74954.8,38603
74976.3,38622.5
74995.7,38644
75013,38667.3
75027.9,38692.1
75040.3,38718.3
75050,38745.6
75057.1,38773.7
75061.3,38802.4
75062.8,38831.3
75062.8,39618.7
75061.3,39647.6
75057.1,39676.3
75050,39704.4
75040.3,39731.7
75027.9,39757.9
75013,39782.7
74995.7,39806
74976.3,39827.5
74954.8,39847
74931.5,39864.2
74906.7,39879.1
74880.5,39891.5
74853.2,39901.3
74825.1,39908.3
74796.4,39912.6
74767.5,39914
74176.9,39914
74148,39912.6
74119.3,39908.3
74091.2,39901.3
74063.9,39891.5
74037.7,39879.1
74012.9,39864.2
73989.6,39847
73968.1,39827.5
73948.7,39806
73931.4,39782.7
73916.5,39757.9
73904.1,39731.7
73894.4,39704.4
73887.3,39676.3
73883.1,39647.6
73881.7,39618.7
73881.7,38831.3
73883.1,38802.4
73887.3,38773.7
73894.4,38745.6
73904.1,38718.3
73916.5,38692.1
73931.4,38667.3
73948.7,38644
73968.1,38622.5
73989.6,38603
74012.9,38585.8
74037.7,38570.9
74063.9,38558.5
74091.2,38548.7
74119.3,38541.7
74148,38537.4
74176.9,38536
74767.5,38536
Z" /> 
<path style="fill:#000000; fill-opacity:1.0; 
stroke:#000000; stroke-width:0; stroke-opacity:1; 
stroke-linecap:round; stroke-linejoin:round;fill-rule:evenodd;"
d="M 72799,38536
72799,39914
71421,39914
71421,38536
Z" /> 
</g>
<g >
</g>
<g style="fill:#000000; fill-opacity:1.0; 
stroke:#000000; stroke-width:0; stroke-opacity:1; 
stroke-linecap:round; stroke-linejoin:round;">
</g>
<g style="fill:#000000; fill-opacity:1.0; 
stroke:#000000; stroke-width:314.961; stroke-opacity:1; 
stroke-linecap:round; stroke-linejoin:round;">
</g>
<g style="fill:#000000; fill-opacity:0.0; 
stroke:#000000; stroke-width:314.961; stroke-opacity:1; 
stroke-linecap:round; stroke-linejoin:round;">
<path d="M52974 41057
L52974 41293
" />
<path d="M56225 41057
L56225 41293
" />
<path d="M56367 43400
L56367 43636
" />
<path d="M52832 43400
L52832 43636
" />
</g>
<g style="fill:#000000; fill-opacity:0.0; 
stroke:#000000; stroke-width:255.906; stroke-opacity:1; 
stroke-linecap:round; stroke-linejoin:round;">
<path d="M55958 40683
L56076 40683
" />
</g>
<g style="fill:#000000; fill-opacity:1.0; 
stroke:#000000; stroke-width:0; stroke-opacity:1; 
stroke-linecap:round; stroke-linejoin:round;">
<circle cx="53182.7" cy="40683.5" r="127.953" /> 
</g>
<g style="fill:#000000; fill-opacity:1.0; 
stroke:#000000; stroke-width:39.3701; stroke-opacity:1; 
stroke-linecap:round; stroke-linejoin:round;">
</g>
<g >
</g>
<g style="fill:#000000; fill-opacity:1.0; 
stroke:#000000; stroke-width:39.3701; stroke-opacity:1; 
stroke-linecap:round; stroke-linejoin:round;">
</g>
<g style="fill:#000000; fill-opacity:1.0; 
stroke:#000000; stroke-width:0; stroke-opacity:1; 
stroke-linecap:round; stroke-linejoin:round;">
<path style="fill:#000000; fill-opacity:1.0; 
stroke:#000000; stroke-width:0; stroke-opacity:1; 
stroke-linecap:round; stroke-linejoin:round;fill-rule:evenodd;"
d="M 70834.6,27134.6
70165.4,27134.6
70165.4,26465.4
70834.6,26465.4
Z" /> 
<circle cx="71500" cy="26800" r="334.646" /> 
</g>
<g >
</g>
<g style="fill:#000000; fill-opacity:1.0; 
stroke:#000000; stroke-width:0; stroke-opacity:1; 
stroke-linecap:round; stroke-linejoin:round;">
<circle cx="72800" cy="33800" r="334.646" /> 
<path style="fill:#000000; fill-opacity:1.0; 
stroke:#000000; stroke-width:0; stroke-opacity:1; 
stroke-linecap:round; stroke-linejoin:round;fill-rule:evenodd;"
d="M 72134.6,34134.6
71465.4,34134.6
71465.4,33465.4
72134.6,33465.4
Z" /> 
</g>
<g >
</g>
<g >
</g>
<g >
</g>
<g >
</g>
<g >
</g>
<g >
</g>
<g >
</g>
<g >
</g>
<g >
</g>
<g >
</g>
<g >
</g>
</g> 
</svg>
