<?xml version="1.0" standalone="no"?>
 <!DOCTYPE svg PUBLIC "-//W3C//DTD SVG 1.1//EN" 
 "http://www.w3.org/Graphics/SVG/1.1/DTD/svg11.dtd"> 
<svg
  xmlns:svg="http://www.w3.org/2000/svg"
  xmlns="http://www.w3.org/2000/svg"
  xmlns:xlink="http://www.w3.org/1999/xlink"
  version="1.1"
  width="29.700220cm" height="21.000720cm" viewBox="0 0 116930 82680">
<title>SVG Picture created as RoboCloud-F_SilkS.svg date 2021/04/07 08:56:12 </title>
  <desc>Picture generated by PCBNEW </desc>
<g style="fill:#000000; fill-opacity:1;stroke:#000000; stroke-opacity:1;
stroke-linecap:round; stroke-linejoin:round;"
 transform="translate(0 0) scale(1 1)">
</g>
<g style="fill:#000000; fill-opacity:0.0; 
stroke:#000000; stroke-width:-0.000393701; stroke-opacity:1; 
stroke-linecap:round; stroke-linejoin:round;">
</g>
<g style="fill:#000000; fill-opacity:0.0; 
stroke:#000000; stroke-width:78.7402; stroke-opacity:1; 
stroke-linecap:round; stroke-linejoin:round;">
<g transform="rotate(-90 66080 28250)">
<text x="66080" y="28466.5"
textLength="1216.72" font-size="577.428" lengthAdjust="spacingAndGlyphs"
text-anchor="middle" opacity="0">SDA</text>
</g>
<path d="M66255 28775
L66275 28714
L66275 28610
L66255 28569
L66234 28549
L66193 28528
L66152 28528
L66110 28549
L66090 28569
L66069 28610
L66049 28693
L66028 28734
L66007 28755
L65966 28775
L65925 28775
L65884 28755
L65863 28734
L65842 28693
L65842 28590
L65863 28528
" />
<path d="M66275 28342
L65842 28342
L65842 28239
L65863 28177
L65904 28136
L65945 28115
L66028 28095
L66090 28095
L66172 28115
L66214 28136
L66255 28177
L66275 28239
L66275 28342
" />
<path d="M66152 27930
L66152 27724
" />
<path d="M66275 27971
L65842 27827
L66275 27682
" />
<g transform="rotate(-90 65060 28250)">
<text x="65060" y="28466.5"
textLength="1298.46" font-size="577.428" lengthAdjust="spacingAndGlyphs"
text-anchor="middle" opacity="0">SCL</text>
</g>
<path d="M65235 28765
L65255 28703
L65255 28600
L65235 28559
L65214 28538
L65173 28518
L65132 28518
L65090 28538
L65070 28559
L65049 28600
L65029 28683
L65008 28724
L64987 28744
L64946 28765
L64905 28765
L64864 28744
L64843 28724
L64822 28683
L64822 28579
L64843 28518
" />
<path d="M65214 28085
L65235 28105
L65255 28167
L65255 28208
L65235 28270
L65194 28311
L65152 28332
L65070 28353
L65008 28353
L64925 28332
L64884 28311
L64843 28270
L64822 28208
L64822 28167
L64843 28105
L64864 28085
" />
<path d="M65255 27693
L65255 27899
L64822 27899
" />
</g>
<g style="fill:#000000; fill-opacity:0.0; 
stroke:#000000; stroke-width:59.0551; stroke-opacity:1; 
stroke-linecap:round; stroke-linejoin:round;">
<text x="65780" y="42396.9"
textLength="10432.3" font-size="524.934" lengthAdjust="spacingAndGlyphs"
text-anchor="middle" opacity="0">Up to 20v input - Center positive</text>
<path d="M60708 41984
L60708 42303
L60727 42340
L60746 42359
L60783 42378
L60858 42378
L60896 42359
L60914 42340
L60933 42303
L60933 41984
" />
<path d="M61121 42115
L61121 42509
" />
<path d="M61121 42134
L61158 42115
L61233 42115
L61271 42134
L61289 42153
L61308 42190
L61308 42303
L61289 42340
L61271 42359
L61233 42378
L61158 42378
L61121 42359
" />
<path d="M61721 42115
L61871 42115
" />
<path d="M61777 41984
L61777 42321
L61796 42359
L61833 42378
L61871 42378
" />
<path d="M62058 42378
L62021 42359
L62002 42340
L61983 42303
L61983 42190
L62002 42153
L62021 42134
L62058 42115
L62114 42115
L62152 42134
L62171 42153
L62189 42190
L62189 42303
L62171 42340
L62152 42359
L62114 42378
L62058 42378
" />
<path d="M62639 42021
L62658 42003
L62696 41984
L62789 41984
L62827 42003
L62845 42021
L62864 42059
L62864 42096
L62845 42153
L62621 42378
L62864 42378
" />
<path d="M63108 41984
L63145 41984
L63183 42003
L63202 42021
L63220 42059
L63239 42134
L63239 42228
L63220 42303
L63202 42340
L63183 42359
L63145 42378
L63108 42378
L63070 42359
L63052 42340
L63033 42303
L63014 42228
L63014 42134
L63033 42059
L63052 42021
L63070 42003
L63108 41984
" />
<path d="M63370 42115
L63464 42378
L63558 42115
" />
<path d="M64008 42378
L64008 42115
" />
<path d="M64008 41984
L63989 42003
L64008 42021
L64027 42003
L64008 41984
L64008 42021
" />
<path d="M64195 42115
L64195 42378
" />
<path d="M64195 42153
L64214 42134
L64252 42115
L64308 42115
L64345 42134
L64364 42171
L64364 42378
" />
<path d="M64552 42115
L64552 42509
" />
<path d="M64552 42134
L64589 42115
L64664 42115
L64702 42134
L64720 42153
L64739 42190
L64739 42303
L64720 42340
L64702 42359
L64664 42378
L64589 42378
L64552 42359
" />
<path d="M65076 42115
L65076 42378
" />
<path d="M64908 42115
L64908 42321
L64926 42359
L64964 42378
L65020 42378
L65058 42359
L65076 42340
" />
<path d="M65208 42115
L65358 42115
" />
<path d="M65264 41984
L65264 42321
L65283 42359
L65320 42378
L65358 42378
" />
<path d="M65789 42228
L66089 42228
" />
<path d="M66801 42340
L66782 42359
L66726 42378
L66689 42378
L66633 42359
L66595 42321
L66576 42284
L66558 42209
L66558 42153
L66576 42078
L66595 42040
L66633 42003
L66689 41984
L66726 41984
L66782 42003
L66801 42021
" />
<path d="M67120 42359
L67082 42378
L67007 42378
L66970 42359
L66951 42321
L66951 42171
L66970 42134
L67007 42115
L67082 42115
L67120 42134
L67139 42171
L67139 42209
L66951 42246
" />
<path d="M67307 42115
L67307 42378
" />
<path d="M67307 42153
L67326 42134
L67364 42115
L67420 42115
L67457 42134
L67476 42171
L67476 42378
" />
<path d="M67607 42115
L67757 42115
" />
<path d="M67664 41984
L67664 42321
L67682 42359
L67720 42378
L67757 42378
" />
<path d="M68039 42359
L68001 42378
L67926 42378
L67889 42359
L67870 42321
L67870 42171
L67889 42134
L67926 42115
L68001 42115
L68039 42134
L68057 42171
L68057 42209
L67870 42246
" />
<path d="M68226 42378
L68226 42115
" />
<path d="M68226 42190
L68245 42153
L68264 42134
L68301 42115
L68339 42115
" />
<path d="M68770 42115
L68770 42509
" />
<path d="M68770 42134
L68807 42115
L68882 42115
L68920 42134
L68938 42153
L68957 42190
L68957 42303
L68938 42340
L68920 42359
L68882 42378
L68807 42378
L68770 42359
" />
<path d="M69182 42378
L69145 42359
L69126 42340
L69107 42303
L69107 42190
L69126 42153
L69145 42134
L69182 42115
L69238 42115
L69276 42134
L69295 42153
L69313 42190
L69313 42303
L69295 42340
L69276 42359
L69238 42378
L69182 42378
" />
<path d="M69463 42359
L69501 42378
L69576 42378
L69613 42359
L69632 42321
L69632 42303
L69613 42265
L69576 42246
L69520 42246
L69482 42228
L69463 42190
L69463 42171
L69482 42134
L69520 42115
L69576 42115
L69613 42134
" />
<path d="M69801 42378
L69801 42115
" />
<path d="M69801 41984
L69782 42003
L69801 42021
L69820 42003
L69801 41984
L69801 42021
" />
<path d="M69932 42115
L70082 42115
" />
<path d="M69988 41984
L69988 42321
L70007 42359
L70045 42378
L70082 42378
" />
<path d="M70213 42378
L70213 42115
" />
<path d="M70213 41984
L70195 42003
L70213 42021
L70232 42003
L70213 41984
L70213 42021
" />
<path d="M70363 42115
L70457 42378
L70551 42115
" />
<path d="M70851 42359
L70813 42378
L70738 42378
L70701 42359
L70682 42321
L70682 42171
L70701 42134
L70738 42115
L70813 42115
L70851 42134
L70869 42171
L70869 42209
L70682 42246
" />
<text x="61760" y="41436.9"
textLength="4726.19" font-size="524.934" lengthAdjust="spacingAndGlyphs"
text-anchor="middle" opacity="0">Robocloud V1.0</text>
<path d="M59754 41418
L59622 41230
" />
<path d="M59529 41418
L59529 41024
L59679 41024
L59716 41043
L59735 41061
L59754 41099
L59754 41155
L59735 41193
L59716 41211
L59679 41230
L59529 41230
" />
<path d="M59978 41418
L59941 41399
L59922 41380
L59903 41343
L59903 41230
L59922 41193
L59941 41174
L59978 41155
L60035 41155
L60072 41174
L60091 41193
L60110 41230
L60110 41343
L60091 41380
L60072 41399
L60035 41418
L59978 41418
" />
<path d="M60278 41418
L60278 41024
" />
<path d="M60278 41174
L60316 41155
L60391 41155
L60428 41174
L60447 41193
L60466 41230
L60466 41343
L60447 41380
L60428 41399
L60391 41418
L60316 41418
L60278 41399
" />
<path d="M60691 41418
L60653 41399
L60635 41380
L60616 41343
L60616 41230
L60635 41193
L60653 41174
L60691 41155
L60747 41155
L60785 41174
L60803 41193
L60822 41230
L60822 41343
L60803 41380
L60785 41399
L60747 41418
L60691 41418
" />
<path d="M61160 41399
L61122 41418
L61047 41418
L61010 41399
L60991 41380
L60972 41343
L60972 41230
L60991 41193
L61010 41174
L61047 41155
L61122 41155
L61160 41174
" />
<path d="M61385 41418
L61347 41399
L61328 41361
L61328 41024
" />
<path d="M61591 41418
L61553 41399
L61535 41380
L61516 41343
L61516 41230
L61535 41193
L61553 41174
L61591 41155
L61647 41155
L61685 41174
L61703 41193
L61722 41230
L61722 41343
L61703 41380
L61685 41399
L61647 41418
L61591 41418
" />
<path d="M62059 41155
L62059 41418
" />
<path d="M61891 41155
L61891 41361
L61909 41399
L61947 41418
L62003 41418
L62041 41399
L62059 41380
" />
<path d="M62416 41418
L62416 41024
" />
<path d="M62416 41399
L62378 41418
L62303 41418
L62266 41399
L62247 41380
L62228 41343
L62228 41230
L62247 41193
L62266 41174
L62303 41155
L62378 41155
L62416 41174
" />
<path d="M62847 41024
L62978 41418
L63109 41024
" />
<path d="M63447 41418
L63222 41418
" />
<path d="M63334 41418
L63334 41024
L63297 41080
L63259 41118
L63222 41136
" />
<path d="M63616 41380
L63634 41399
L63616 41418
L63597 41399
L63616 41380
L63616 41418
" />
<path d="M63878 41024
L63915 41024
L63953 41043
L63972 41061
L63990 41099
L64009 41174
L64009 41268
L63990 41343
L63972 41380
L63953 41399
L63915 41418
L63878 41418
L63840 41399
L63822 41380
L63803 41343
L63784 41268
L63784 41174
L63803 41099
L63822 41061
L63840 41043
L63878 41024
" />
<text x="72640" y="43396.9"
textLength="9038.15" font-size="524.934" lengthAdjust="spacingAndGlyphs"
text-anchor="middle" opacity="0">Made with love by 2231puppy</text>
<path d="M68253 43378
L68253 42984
L68384 43265
L68515 42984
L68515 43378
" />
<path d="M68871 43378
L68871 43171
L68852 43134
L68815 43115
L68740 43115
L68702 43134
" />
<path d="M68871 43359
L68834 43378
L68740 43378
L68702 43359
L68684 43321
L68684 43284
L68702 43246
L68740 43228
L68834 43228
L68871 43209
" />
<path d="M69227 43378
L69227 42984
" />
<path d="M69227 43359
L69190 43378
L69115 43378
L69077 43359
L69059 43340
L69040 43303
L69040 43190
L69059 43153
L69077 43134
L69115 43115
L69190 43115
L69227 43134
" />
<path d="M69565 43359
L69527 43378
L69452 43378
L69415 43359
L69396 43321
L69396 43171
L69415 43134
L69452 43115
L69527 43115
L69565 43134
L69584 43171
L69584 43209
L69396 43246
" />
<path d="M70015 43115
L70090 43378
L70165 43190
L70240 43378
L70315 43115
" />
<path d="M70465 43378
L70465 43115
" />
<path d="M70465 42984
L70446 43003
L70465 43021
L70484 43003
L70465 42984
L70465 43021
" />
<path d="M70596 43115
L70746 43115
" />
<path d="M70652 42984
L70652 43321
L70671 43359
L70708 43378
L70746 43378
" />
<path d="M70877 43378
L70877 42984
" />
<path d="M71046 43378
L71046 43171
L71027 43134
L70990 43115
L70933 43115
L70896 43134
L70877 43153
" />
<path d="M71590 43378
L71552 43359
L71533 43321
L71533 42984
" />
<path d="M71796 43378
L71758 43359
L71740 43340
L71721 43303
L71721 43190
L71740 43153
L71758 43134
L71796 43115
L71852 43115
L71890 43134
L71908 43153
L71927 43190
L71927 43303
L71908 43340
L71890 43359
L71852 43378
L71796 43378
" />
<path d="M72058 43115
L72152 43378
L72246 43115
" />
<path d="M72546 43359
L72508 43378
L72433 43378
L72396 43359
L72377 43321
L72377 43171
L72396 43134
L72433 43115
L72508 43115
L72546 43134
L72565 43171
L72565 43209
L72377 43246
" />
<path d="M73033 43378
L73033 42984
" />
<path d="M73033 43134
L73071 43115
L73146 43115
L73183 43134
L73202 43153
L73221 43190
L73221 43303
L73202 43340
L73183 43359
L73146 43378
L73071 43378
L73033 43359
" />
<path d="M73352 43115
L73446 43378
" />
<path d="M73539 43115
L73446 43378
L73408 43471
L73389 43490
L73352 43509
" />
<path d="M73971 43021
L73989 43003
L74027 42984
L74121 42984
L74158 43003
L74177 43021
L74196 43059
L74196 43096
L74177 43153
L73952 43378
L74196 43378
" />
<path d="M74346 43021
L74364 43003
L74402 42984
L74496 42984
L74533 43003
L74552 43021
L74571 43059
L74571 43096
L74552 43153
L74327 43378
L74571 43378
" />
<path d="M74702 42984
L74945 42984
L74814 43134
L74870 43134
L74908 43153
L74927 43171
L74945 43209
L74945 43303
L74927 43340
L74908 43359
L74870 43378
L74758 43378
L74720 43359
L74702 43340
" />
<path d="M75320 43378
L75095 43378
" />
<path d="M75208 43378
L75208 42984
L75170 43040
L75133 43078
L75095 43096
" />
<path d="M75489 43115
L75489 43509
" />
<path d="M75489 43134
L75527 43115
L75602 43115
L75639 43134
L75658 43153
L75677 43190
L75677 43303
L75658 43340
L75639 43359
L75602 43378
L75527 43378
L75489 43359
" />
<path d="M76014 43115
L76014 43378
" />
<path d="M75845 43115
L75845 43321
L75864 43359
L75902 43378
L75958 43378
L75995 43359
L76014 43340
" />
<path d="M76202 43115
L76202 43509
" />
<path d="M76202 43134
L76239 43115
L76314 43115
L76352 43134
L76370 43153
L76389 43190
L76389 43303
L76370 43340
L76352 43359
L76314 43378
L76239 43378
L76202 43359
" />
<path d="M76558 43115
L76558 43509
" />
<path d="M76558 43134
L76595 43115
L76670 43115
L76708 43134
L76726 43153
L76745 43190
L76745 43303
L76726 43340
L76708 43359
L76670 43378
L76595 43378
L76558 43359
" />
<path d="M76876 43115
L76970 43378
" />
<path d="M77064 43115
L76970 43378
L76933 43471
L76914 43490
L76876 43509
" />
</g>
<g style="fill:#000000; fill-opacity:0.0; 
stroke:#000000; stroke-width:78.7402; stroke-opacity:1; 
stroke-linecap:round; stroke-linejoin:round;">
<g transform="rotate(-90 68040 25460)">
<text x="68040" y="25676.5"
textLength="1561.59" font-size="577.428" lengthAdjust="spacingAndGlyphs"
text-anchor="middle" opacity="0">IO21</text>
</g>
<path d="M68235 26099
L67802 26099
" />
<path d="M67802 25810
L67802 25728
L67823 25686
L67864 25645
L67947 25624
L68091 25624
L68174 25645
L68215 25686
L68235 25728
L68235 25810
L68215 25851
L68174 25893
L68091 25913
L67947 25913
L67864 25893
L67823 25851
L67802 25810
" />
<path d="M67844 25460
L67823 25439
L67802 25398
L67802 25295
L67823 25253
L67844 25233
L67885 25212
L67926 25212
L67988 25233
L68235 25480
L68235 25212
" />
<path d="M68235 24800
L68235 25047
" />
<path d="M68235 24923
L67802 24923
L67864 24965
L67905 25006
L67926 25047
" />
<g transform="rotate(-90 67000 25460)">
<text x="67000" y="25676.5"
textLength="1587.18" font-size="577.428" lengthAdjust="spacingAndGlyphs"
text-anchor="middle" opacity="0">IO26</text>
</g>
<path d="M67195 26099
L66762 26099
" />
<path d="M66762 25810
L66762 25728
L66783 25686
L66824 25645
L66907 25624
L67051 25624
L67134 25645
L67175 25686
L67195 25728
L67195 25810
L67175 25851
L67134 25893
L67051 25913
L66907 25913
L66824 25893
L66783 25851
L66762 25810
" />
<path d="M66804 25460
L66783 25439
L66762 25398
L66762 25295
L66783 25253
L66804 25233
L66845 25212
L66886 25212
L66948 25233
L67195 25480
L67195 25212
" />
<path d="M66762 24841
L66762 24923
L66783 24965
L66804 24985
L66865 25026
L66948 25047
L67113 25047
L67154 25026
L67175 25006
L67195 24965
L67195 24882
L67175 24841
L67154 24820
L67113 24800
L67010 24800
L66969 24820
L66948 24841
L66927 24882
L66927 24965
L66948 25006
L66969 25026
L67010 25047
" />
<g transform="rotate(-90 66080 25460)">
<text x="66080" y="25676.5"
textLength="1587.18" font-size="577.428" lengthAdjust="spacingAndGlyphs"
text-anchor="middle" opacity="0">IO33</text>
</g>
<path d="M66275 26099
L65842 26099
" />
<path d="M65842 25810
L65842 25728
L65863 25686
L65904 25645
L65987 25624
L66131 25624
L66214 25645
L66255 25686
L66275 25728
L66275 25810
L66255 25851
L66214 25893
L66131 25913
L65987 25913
L65904 25893
L65863 25851
L65842 25810
" />
<path d="M65842 25480
L65842 25212
L66007 25356
L66007 25295
L66028 25253
L66049 25233
L66090 25212
L66193 25212
L66234 25233
L66255 25253
L66275 25295
L66275 25418
L66255 25460
L66234 25480
" />
<path d="M65842 25068
L65842 24800
L66007 24944
L66007 24882
L66028 24841
L66049 24820
L66090 24800
L66193 24800
L66234 24820
L66255 24841
L66275 24882
L66275 25006
L66255 25047
L66234 25068
" />
<g transform="rotate(-90 65060 25460)">
<text x="65060" y="25676.5"
textLength="1587.18" font-size="577.428" lengthAdjust="spacingAndGlyphs"
text-anchor="middle" opacity="0">IO34</text>
</g>
<path d="M65255 26099
L64822 26099
" />
<path d="M64822 25810
L64822 25728
L64843 25686
L64884 25645
L64967 25624
L65111 25624
L65194 25645
L65235 25686
L65255 25728
L65255 25810
L65235 25851
L65194 25893
L65111 25913
L64967 25913
L64884 25893
L64843 25851
L64822 25810
" />
<path d="M64822 25480
L64822 25212
L64987 25356
L64987 25295
L65008 25253
L65029 25233
L65070 25212
L65173 25212
L65214 25233
L65235 25253
L65255 25295
L65255 25418
L65235 25460
L65214 25480
" />
<path d="M64967 24841
L65255 24841
" />
<path d="M64802 24944
L65111 25047
L65111 24779
" />
<g transform="rotate(-90 64000 25420)">
<text x="64000" y="25636.5"
textLength="1587.18" font-size="577.428" lengthAdjust="spacingAndGlyphs"
text-anchor="middle" opacity="0">IO35</text>
</g>
<path d="M64195 26059
L63762 26059
" />
<path d="M63762 25770
L63762 25688
L63783 25646
L63824 25605
L63907 25584
L64051 25584
L64134 25605
L64175 25646
L64195 25688
L64195 25770
L64175 25811
L64134 25853
L64051 25873
L63907 25873
L63824 25853
L63783 25811
L63762 25770
" />
<path d="M63762 25440
L63762 25172
L63927 25316
L63927 25255
L63948 25213
L63969 25193
L64010 25172
L64113 25172
L64154 25193
L64175 25213
L64195 25255
L64195 25378
L64175 25420
L64154 25440
" />
<path d="M63762 24780
L63762 24986
L63969 25007
L63948 24986
L63927 24945
L63927 24842
L63948 24801
L63969 24780
L64010 24760
L64113 24760
L64154 24780
L64175 24801
L64195 24842
L64195 24945
L64175 24986
L64154 25007
" />
<g transform="rotate(-90 63000 25420)">
<text x="63000" y="25636.5"
textLength="1587.18" font-size="577.428" lengthAdjust="spacingAndGlyphs"
text-anchor="middle" opacity="0">IO36</text>
</g>
<path d="M63195 26059
L62762 26059
" />
<path d="M62762 25770
L62762 25688
L62783 25646
L62824 25605
L62907 25584
L63051 25584
L63134 25605
L63175 25646
L63195 25688
L63195 25770
L63175 25811
L63134 25853
L63051 25873
L62907 25873
L62824 25853
L62783 25811
L62762 25770
" />
<path d="M62762 25440
L62762 25172
L62927 25316
L62927 25255
L62948 25213
L62969 25193
L63010 25172
L63113 25172
L63154 25193
L63175 25213
L63195 25255
L63195 25378
L63175 25420
L63154 25440
" />
<path d="M62762 24801
L62762 24883
L62783 24925
L62804 24945
L62865 24986
L62948 25007
L63113 25007
L63154 24986
L63175 24966
L63195 24925
L63195 24842
L63175 24801
L63154 24780
L63113 24760
L63010 24760
L62969 24780
L62948 24801
L62927 24842
L62927 24925
L62948 24966
L62969 24986
L63010 25007
" />
<g transform="rotate(-90 62000 25420)">
<text x="62000" y="25636.5"
textLength="1587.18" font-size="577.428" lengthAdjust="spacingAndGlyphs"
text-anchor="middle" opacity="0">IO37</text>
</g>
<path d="M62195 26059
L61762 26059
" />
<path d="M61762 25770
L61762 25688
L61783 25646
L61824 25605
L61907 25584
L62051 25584
L62134 25605
L62175 25646
L62195 25688
L62195 25770
L62175 25811
L62134 25853
L62051 25873
L61907 25873
L61824 25853
L61783 25811
L61762 25770
" />
<path d="M61762 25440
L61762 25172
L61927 25316
L61927 25255
L61948 25213
L61969 25193
L62010 25172
L62113 25172
L62154 25193
L62175 25213
L62195 25255
L62195 25378
L62175 25420
L62154 25440
" />
<path d="M61762 25028
L61762 24739
L62195 24925
" />
<g transform="rotate(-90 61000 25420)">
<text x="61000" y="25636.5"
textLength="1587.18" font-size="577.428" lengthAdjust="spacingAndGlyphs"
text-anchor="middle" opacity="0">IO38</text>
</g>
<path d="M61195 26059
L60762 26059
" />
<path d="M60762 25770
L60762 25688
L60783 25646
L60824 25605
L60907 25584
L61051 25584
L61134 25605
L61175 25646
L61195 25688
L61195 25770
L61175 25811
L61134 25853
L61051 25873
L60907 25873
L60824 25853
L60783 25811
L60762 25770
" />
<path d="M60762 25440
L60762 25172
L60927 25316
L60927 25255
L60948 25213
L60969 25193
L61010 25172
L61113 25172
L61154 25193
L61175 25213
L61195 25255
L61195 25378
L61175 25420
L61154 25440
" />
<path d="M60948 24925
L60927 24966
L60907 24986
L60865 25007
L60845 25007
L60804 24986
L60783 24966
L60762 24925
L60762 24842
L60783 24801
L60804 24780
L60845 24760
L60865 24760
L60907 24780
L60927 24801
L60948 24842
L60948 24925
L60969 24966
L60989 24986
L61030 25007
L61113 25007
L61154 24986
L61175 24966
L61195 24925
L61195 24842
L61175 24801
L61154 24780
L61113 24760
L61030 24760
L60989 24780
L60969 24801
L60948 24842
" />
<g transform="rotate(-90 60000 25420)">
<text x="60000" y="25636.5"
textLength="1587.18" font-size="577.428" lengthAdjust="spacingAndGlyphs"
text-anchor="middle" opacity="0">IO39</text>
</g>
<path d="M60195 26059
L59762 26059
" />
<path d="M59762 25770
L59762 25688
L59783 25646
L59824 25605
L59907 25584
L60051 25584
L60134 25605
L60175 25646
L60195 25688
L60195 25770
L60175 25811
L60134 25853
L60051 25873
L59907 25873
L59824 25853
L59783 25811
L59762 25770
" />
<path d="M59762 25440
L59762 25172
L59927 25316
L59927 25255
L59948 25213
L59969 25193
L60010 25172
L60113 25172
L60154 25193
L60175 25213
L60195 25255
L60195 25378
L60175 25420
L60154 25440
" />
<path d="M60195 24966
L60195 24883
L60175 24842
L60154 24821
L60092 24780
L60010 24760
L59845 24760
L59804 24780
L59783 24801
L59762 24842
L59762 24925
L59783 24966
L59804 24986
L59845 25007
L59948 25007
L59989 24986
L60010 24966
L60030 24925
L60030 24842
L60010 24801
L59989 24780
L59948 24760
" />
<g transform="rotate(-90 59000 25420)">
<text x="59000" y="25636.5"
textLength="1587.18" font-size="577.428" lengthAdjust="spacingAndGlyphs"
text-anchor="middle" opacity="0">IO40</text>
</g>
<path d="M59195 26059
L58762 26059
" />
<path d="M58762 25770
L58762 25688
L58783 25646
L58824 25605
L58907 25584
L59051 25584
L59134 25605
L59175 25646
L59195 25688
L59195 25770
L59175 25811
L59134 25853
L59051 25873
L58907 25873
L58824 25853
L58783 25811
L58762 25770
" />
<path d="M58907 25213
L59195 25213
" />
<path d="M58742 25316
L59051 25420
L59051 25151
" />
<path d="M58762 24904
L58762 24863
L58783 24821
L58804 24801
L58845 24780
L58927 24760
L59030 24760
L59113 24780
L59154 24801
L59175 24821
L59195 24863
L59195 24904
L59175 24945
L59154 24966
L59113 24986
L59030 25007
L58927 25007
L58845 24986
L58804 24966
L58783 24945
L58762 24904
" />
<g transform="rotate(-90 58000 25420)">
<text x="58000" y="25636.5"
textLength="1587.18" font-size="577.428" lengthAdjust="spacingAndGlyphs"
text-anchor="middle" opacity="0">IO41</text>
</g>
<path d="M58195 26059
L57762 26059
" />
<path d="M57762 25770
L57762 25688
L57783 25646
L57824 25605
L57907 25584
L58051 25584
L58134 25605
L58175 25646
L58195 25688
L58195 25770
L58175 25811
L58134 25853
L58051 25873
L57907 25873
L57824 25853
L57783 25811
L57762 25770
" />
<path d="M57907 25213
L58195 25213
" />
<path d="M57742 25316
L58051 25420
L58051 25151
" />
<path d="M58195 24760
L58195 25007
" />
<path d="M58195 24883
L57762 24883
L57824 24925
L57865 24966
L57886 25007
" />
<g transform="rotate(-90 57000 25420)">
<text x="57000" y="25636.5"
textLength="1587.18" font-size="577.428" lengthAdjust="spacingAndGlyphs"
text-anchor="middle" opacity="0">IO42</text>
</g>
<path d="M57195 26059
L56762 26059
" />
<path d="M56762 25770
L56762 25688
L56783 25646
L56824 25605
L56907 25584
L57051 25584
L57134 25605
L57175 25646
L57195 25688
L57195 25770
L57175 25811
L57134 25853
L57051 25873
L56907 25873
L56824 25853
L56783 25811
L56762 25770
" />
<path d="M56907 25213
L57195 25213
" />
<path d="M56742 25316
L57051 25420
L57051 25151
" />
<path d="M56804 25007
L56783 24986
L56762 24945
L56762 24842
L56783 24801
L56804 24780
L56845 24760
L56886 24760
L56948 24780
L57195 25028
L57195 24760
" />
<g transform="rotate(-90 55940 25700)">
<text x="55940" y="25916.5"
textLength="844.769" font-size="577.428" lengthAdjust="spacingAndGlyphs"
text-anchor="middle" opacity="0">TX</text>
</g>
<path d="M55702 26029
L55702 25782
" />
<path d="M56135 25906
L55702 25906
" />
<path d="M55702 25679
L56135 25390
" />
<path d="M55702 25390
L56135 25679
" />
<g transform="rotate(-90 55000 25740)">
<text x="55000" y="25956.5"
textLength="947.881" font-size="577.428" lengthAdjust="spacingAndGlyphs"
text-anchor="middle" opacity="0">RX</text>
</g>
<path d="M55195 25812
L54989 25956
" />
<path d="M55195 26059
L54762 26059
L54762 25894
L54783 25853
L54804 25832
L54845 25812
L54907 25812
L54948 25832
L54969 25853
L54989 25894
L54989 26059
" />
<path d="M54762 25667
L55195 25379
" />
<path d="M54762 25379
L55195 25667
" />
<g transform="rotate(-90 54000 25480)">
<text x="54000" y="25676.9"
textLength="1452.19" font-size="524.934" lengthAdjust="spacingAndGlyphs"
text-anchor="middle" opacity="0">IO45</text>
</g>
<path d="M54178 26061
L53784 26061
" />
<path d="M53784 25798
L53784 25723
L53803 25686
L53840 25648
L53915 25629
L54046 25629
L54121 25648
L54159 25686
L54178 25723
L54178 25798
L54159 25836
L54121 25873
L54046 25892
L53915 25892
L53840 25873
L53803 25836
L53784 25798
" />
<path d="M53915 25292
L54178 25292
" />
<path d="M53765 25386
L54046 25480
L54046 25236
" />
<path d="M53784 24898
L53784 25086
L53971 25105
L53953 25086
L53934 25048
L53934 24955
L53953 24917
L53971 24898
L54009 24880
L54103 24880
L54140 24898
L54159 24917
L54178 24955
L54178 25048
L54159 25086
L54140 25105
" />
<g transform="rotate(-90 53000 25420)">
<text x="53000" y="25636.5"
textLength="1587.18" font-size="577.428" lengthAdjust="spacingAndGlyphs"
text-anchor="middle" opacity="0">IO46</text>
</g>
<path d="M53195 26059
L52762 26059
" />
<path d="M52762 25770
L52762 25688
L52783 25646
L52824 25605
L52907 25584
L53051 25584
L53134 25605
L53175 25646
L53195 25688
L53195 25770
L53175 25811
L53134 25853
L53051 25873
L52907 25873
L52824 25853
L52783 25811
L52762 25770
" />
<path d="M52907 25213
L53195 25213
" />
<path d="M52742 25316
L53051 25420
L53051 25151
" />
<path d="M52762 24801
L52762 24883
L52783 24925
L52804 24945
L52865 24986
L52948 25007
L53113 25007
L53154 24986
L53175 24966
L53195 24925
L53195 24842
L53175 24801
L53154 24780
L53113 24760
L53010 24760
L52969 24780
L52948 24801
L52927 24842
L52927 24925
L52948 24966
L52969 24986
L53010 25007
" />
</g>
<g style="fill:#000000; fill-opacity:0.0; 
stroke:#000000; stroke-width:47.2441; stroke-opacity:1; 
stroke-linecap:round; stroke-linejoin:round;">
<path d="M77307 27763
L77307 26236
" />
<path d="M75547 25775
L75547 26188
" />
<path d="M76531 25775
L75547 25775
" />
<path d="M75547 27811
L75157 27811
" />
<path d="M75547 28224
L75547 27811
" />
<path d="M76531 28224
L75547 28224
" />
<path d="M64424 39512
L68455 39512
" />
<path d="M64424 41339
L68455 41339
" />
<path d="M64424 39512
L64424 41339
" />
<path d="M68455 39512
L68455 41339
" />
<path d="M64424 40107
L68455 40107
" />
<path d="M65711 39512
L65711 40107
" />
<path d="M67168 39512
L67168 40107
" />
<path d="M61045 38790
L61045 38137
" />
<path d="M60903 38790
L61045 38790
" />
<path d="M61045 31609
L61045 32262
" />
<path d="M60943 31609
L61045 31609
" />
<path d="M48742 38792
L48742 31605
" />
<path d="M51529 38786
L48742 38792
" />
<path d="M51270 31605
L48742 31605
" />
<path d="M51529 38786
L51529 38940
" />
<path d="M73751 34323
L73751 33800
" />
<path d="M74275 34323
L73751 34323
" />
<path d="M74775 34323
L74775 33276
" />
<path d="M74775 33276
L75798 33276
" />
<path d="M74775 34323
L75798 34323
" />
<path d="M75798 34323
L75798 33276
" />
<path d="M68442 35499
L68557 35499
" />
<path d="M68442 35900
L68557 35900
" />
</g>
<g style="fill:#000000; fill-opacity:0.0; 
stroke:#000000; stroke-width:60; stroke-opacity:1; 
stroke-linecap:round; stroke-linejoin:round;">
<path d="M65715 33185
L69085 33185
" />
<path d="M69085 33185
L69085 31871
" />
<path d="M69085 29815
L65715 29815
" />
<path d="M65715 29815
L65715 31129
" />
<path d="M65715 31871
L65715 33185
" />
<path d="M69085 31129
L69085 29815
" />
</g>
<g style="fill:#000000; fill-opacity:0.0; 
stroke:#000000; stroke-width:47.2441; stroke-opacity:1; 
stroke-linecap:round; stroke-linejoin:round;">
<path d="M64057 39150
L63942 39150
" />
<path d="M64057 38749
L63942 38749
" />
<path d="M69892 35900
L70007 35900
" />
<path d="M69892 35499
L70007 35499
" />
<path d="M66092 38850
L66207 38850
" />
<path d="M66092 38449
L66207 38449
" />
<path d="M66092 38100
L66207 38100
" />
<path d="M66092 37699
L66207 37699
" />
<path d="M66092 36999
L66207 36999
" />
<path d="M66092 37400
L66207 37400
" />
</g>
<g style="fill:#000000; fill-opacity:0.0; 
stroke:#000000; stroke-width:60; stroke-opacity:1; 
stroke-linecap:round; stroke-linejoin:round;">
<path d="M57295 42415
L58105 42415
" />
<path d="M58105 41785
L57295 41785
" />
</g>
<g style="fill:#000000; fill-opacity:0.0; 
stroke:#000000; stroke-width:47.2441; stroke-opacity:1; 
stroke-linecap:round; stroke-linejoin:round;">
<path d="M53500 27323
L53500 26276
" />
<path d="M53500 27323
L68523 27323
" />
<path d="M68523 27323
L68523 26276
" />
<path d="M53500 26276
L68523 26276
" />
<path d="M52476 26276
L53000 26276
" />
<path d="M52476 26800
L52476 26276
" />
<path d="M71755 41036
L71755 40012
" />
<path d="M77543 41036
L71755 41036
" />
<path d="M71755 37413
L72503 37413
" />
<path d="M71755 38476
L71755 37413
" />
<path d="M77543 37413
L77543 41036
" />
<path d="M74078 37413
L77543 37413
" />
<path d="M72090 41114
L71676 41114
" />
<path d="M71676 40701
L71676 41114
" />
<path d="M55879 40285
L56470 40285
" />
<path d="M56470 40285
L56470 43144
" />
<path d="M52729 40285
L52729 43144
" />
<path d="M52729 40285
L53320 40285
" />
<path d="M72023 27323
L72023 26276
" />
<path d="M71000 27323
L72023 27323
" />
<path d="M71000 26276
L72023 26276
" />
<path d="M71000 27323
L71000 26276
" />
<path d="M70500 27323
L69976 27323
" />
<path d="M69976 27323
L69976 26800
" />
<path d="M71276 34323
L71276 33800
" />
<path d="M71800 34323
L71276 34323
" />
<path d="M72300 34323
L72300 33276
" />
<path d="M72300 33276
L73323 33276
" />
<path d="M72300 34323
L73323 34323
" />
<path d="M73323 34323
L73323 33276
" />
<path d="M71299 35494
L71500 35494
" />
<path d="M71299 35905
L71500 35905
" />
<path d="M72900 35905
L72699 35905
" />
<path d="M72900 35494
L72699 35494
" />
<path d="M75744 30749
L75744 30950
" />
<path d="M76155 30749
L76155 30950
" />
<path d="M52100 40605
L51899 40605
" />
<path d="M52100 40194
L51899 40194
" />
<path d="M51899 42305
L52100 42305
" />
<path d="M51899 41894
L52100 41894
" />
</g>
<g style="fill:#000000; fill-opacity:0.0; 
stroke:#000000; stroke-width:60; stroke-opacity:1; 
stroke-linecap:round; stroke-linejoin:round;">
<path d="M58865 39130
L57035 39130
" />
<path d="M57035 39697
L57035 40002
" />
<path d="M57035 40570
L58865 40570
" />
<path d="M58865 40002
L58865 39697
" />
<circle cx="59565" cy="40273.2" r="150" /> 
<path d="M71822 32627
L71997 32627
" />
<path d="M74677 32627
L74677 32452
" />
<path d="M74677 29772
L74502 29772
" />
<path d="M71822 29772
L71822 29947
" />
<path d="M71822 32452
L71822 32627
" />
<path d="M74502 32627
L74677 32627
" />
<path d="M74677 29947
L74677 29772
" />
<path d="M71997 29772
L71822 29772
" />
<path d="M71552 31813
L71552 31963
" />
<path d="M71552 31963
L71652 31963
" />
<path d="M71652 31963
L71652 31813
" />
<path d="M71652 31813
L71552 31813
" />
<path d="M73470 32797
L73470 32897
" />
<path d="M73470 32897
L73620 32897
" />
<path d="M73620 32897
L73620 32797
" />
<path d="M73620 32797
L73470 32797
" />
<path d="M74947 31223
L74947 31373
" />
<path d="M74947 31373
L74847 31373
" />
<path d="M74847 31373
L74847 31223
" />
<path d="M74847 31223
L74947 31223
" />
<path d="M73667 29602
L73667 29502
" />
<path d="M73667 29502
L73817 29502
" />
<path d="M73817 29502
L73817 29602
" />
<path d="M73817 29602
L73667 29602
" />
<path d="M65096 35976
L65495 35976
" />
<path d="M65096 34173
L65495 34173
" />
<path d="M65096 35626
L65495 35626
" />
<path d="M65096 33823
L65495 33823
" />
</g>
<g style="fill:#000000; fill-opacity:0.0; 
stroke:#000000; stroke-width:59.0551; stroke-opacity:1; 
stroke-linecap:round; stroke-linejoin:round;">
<g transform="rotate(-90 51909.4 26800)">
<text x="51909.4" y="26996.9"
textLength="1470.94" font-size="524.934" lengthAdjust="spacingAndGlyphs"
text-anchor="middle" opacity="0">PINS</text>
</g>
<path d="M52087 27390
L51693 27390
L51693 27240
L51712 27203
L51731 27184
L51768 27165
L51825 27165
L51862 27184
L51881 27203
L51900 27240
L51900 27390
" />
<path d="M52087 26996
L51693 26996
" />
<path d="M52087 26809
L51693 26809
L52087 26584
L51693 26584
" />
<path d="M52068 26415
L52087 26359
L52087 26265
L52068 26228
L52050 26209
L52012 26190
L51975 26190
L51937 26209
L51918 26228
L51900 26265
L51881 26340
L51862 26378
L51843 26396
L51806 26415
L51768 26415
L51731 26396
L51712 26378
L51693 26340
L51693 26246
L51712 26190
" />
<g transform="rotate(-90 69582.7 26800)">
<text x="69582.7" y="26996.9"
textLength="1276.62" font-size="524.934" lengthAdjust="spacingAndGlyphs"
text-anchor="middle" opacity="0">GND</text>
</g>
<path d="M69385 27099
L69367 27137
L69367 27193
L69385 27249
L69423 27287
L69460 27306
L69535 27324
L69592 27324
L69667 27306
L69704 27287
L69742 27249
L69760 27193
L69760 27156
L69742 27099
L69723 27081
L69592 27081
L69592 27156
" />
<path d="M69760 26912
L69367 26912
L69760 26687
L69367 26687
" />
<path d="M69760 26500
L69367 26500
L69367 26406
L69385 26350
L69423 26312
L69460 26293
L69535 26275
L69592 26275
L69667 26293
L69704 26312
L69742 26350
L69760 26406
L69760 26500
" />
<g >
</g>
</g> 
</svg>
