<?xml version="1.0" standalone="no"?>
 <!DOCTYPE svg PUBLIC "-//W3C//DTD SVG 1.1//EN" 
 "http://www.w3.org/Graphics/SVG/1.1/DTD/svg11.dtd"> 
<svg
  xmlns:svg="http://www.w3.org/2000/svg"
  xmlns="http://www.w3.org/2000/svg"
  xmlns:xlink="http://www.w3.org/1999/xlink"
  version="1.1"
  width="29.700220cm" height="21.000720cm" viewBox="0 0 116930 82680">
<title>SVG Picture created as RoboCloud-B_Cu.svg date 2021/04/07 08:56:12 </title>
  <desc>Picture generated by PCBNEW </desc>
<g style="fill:#000000; fill-opacity:1;stroke:#000000; stroke-opacity:1;
stroke-linecap:round; stroke-linejoin:round;"
 transform="translate(0 0) scale(1 1)">
</g>
<g style="fill:#000000; fill-opacity:0.0; 
stroke:#000000; stroke-width:-0.000393701; stroke-opacity:1; 
stroke-linecap:round; stroke-linejoin:round;">
<g >
</g>
<g >
</g>
<g style="fill:#000000; fill-opacity:0.0; 
stroke:#000000; stroke-width:-0.000393701; stroke-opacity:1; 
stroke-linecap:round; stroke-linejoin:round;">
</g>
<g style="fill:#000000; fill-opacity:0.0; 
stroke:#000000; stroke-width:0; stroke-opacity:1; 
stroke-linecap:round; stroke-linejoin:round;">
</g>
<g style="fill:#000000; fill-opacity:1.0; 
stroke:#000000; stroke-width:0; stroke-opacity:1; 
stroke-linecap:round; stroke-linejoin:round;">
<path style="fill:#000000; fill-opacity:1.0; 
stroke:#000000; stroke-width:0; stroke-opacity:1; 
stroke-linecap:round; stroke-linejoin:round;fill-rule:evenodd;"
d="M 65046.3,41193.7
65046.3,40406.3
65833.7,40406.3
65833.7,41193.7
Z" /> 
<circle cx="67440" cy="40800" r="393.701" /> 
</g>
<g >
</g>
<g >
</g>
<g style="fill:#000000; fill-opacity:1.0; 
stroke:#000000; stroke-width:0; stroke-opacity:1; 
stroke-linecap:round; stroke-linejoin:round;">
<circle cx="75275" cy="33800" r="334.646" /> 
<path style="fill:#000000; fill-opacity:1.0; 
stroke:#000000; stroke-width:0; stroke-opacity:1; 
stroke-linecap:round; stroke-linejoin:round;fill-rule:evenodd;"
d="M 74609.6,34134.6
73940.4,34134.6
73940.4,33465.4
74609.6,33465.4
Z" /> 
</g>
<g >
</g>
<g >
</g>
<g >
</g>
<g >
</g>
<g >
</g>
<g >
</g>
<g >
</g>
<g >
</g>
<g >
</g>
<g style="fill:#000000; fill-opacity:1.0; 
stroke:#000000; stroke-width:0; stroke-opacity:1; 
stroke-linecap:round; stroke-linejoin:round;">
<path style="fill:#000000; fill-opacity:1.0; 
stroke:#000000; stroke-width:0; stroke-opacity:1; 
stroke-linecap:round; stroke-linejoin:round;fill-rule:evenodd;"
d="M 53334.6,27134.6
52665.4,27134.6
52665.4,26465.4
53334.6,26465.4
Z" /> 
<circle cx="54000" cy="26800" r="334.646" /> 
<circle cx="55000" cy="26800" r="334.646" /> 
<circle cx="56000" cy="26800" r="334.646" /> 
<circle cx="57000" cy="26800" r="334.646" /> 
<circle cx="58000" cy="26800" r="334.646" /> 
<circle cx="59000" cy="26800" r="334.646" /> 
<circle cx="60000" cy="26800" r="334.646" /> 
<circle cx="61000" cy="26800" r="334.646" /> 
<circle cx="62000" cy="26800" r="334.646" /> 
<circle cx="63000" cy="26800" r="334.646" /> 
<circle cx="64000" cy="26800" r="334.646" /> 
<circle cx="65000" cy="26800" r="334.646" /> 
<circle cx="66000" cy="26800" r="334.646" /> 
<circle cx="67000" cy="26800" r="334.646" /> 
<circle cx="68000" cy="26800" r="334.646" /> 
</g>
<g >
</g>
<g style="fill:#000000; fill-opacity:1.0; 
stroke:#000000; stroke-width:0; stroke-opacity:1; 
stroke-linecap:round; stroke-linejoin:round;">
<path style="fill:#000000; fill-opacity:1.0; 
stroke:#000000; stroke-width:0; stroke-opacity:1; 
stroke-linecap:round; stroke-linejoin:round;fill-rule:evenodd;"
d="M 73669.4,36687.3
73702.8,36692.2
73735.6,36700.5
73767.4,36711.9
73798,36726.3
73827,36743.7
73854.1,36763.8
73879.2,36786.5
73901.9,36811.6
73922,36838.7
73939.4,36867.7
73953.9,36898.3
73965.2,36930.1
73973.5,36962.9
73978.4,36996.4
73980.1,37030.1
73980.1,37719.1
73978.4,37752.9
73973.5,37786.3
73965.2,37819.1
73953.9,37850.9
73939.4,37881.5
73922,37910.5
73901.9,37937.6
73879.2,37962.7
73854.1,37985.4
73827,38005.5
73798,38022.9
73767.4,38037.4
73735.6,38048.7
73702.8,38057
73669.4,38061.9
73635.6,38063.6
72946.6,38063.6
72912.8,38061.9
72879.4,38057
72846.6,38048.7
72814.8,38037.4
72784.2,38022.9
72755.2,38005.5
72728.1,37985.4
72703,37962.7
72680.3,37937.6
72660.2,37910.5
72642.8,37881.5
72628.3,37850.9
72617,37819.1
72608.7,37786.3
72603.8,37752.9
72602.1,37719.1
72602.1,37030.1
72603.8,36996.4
72608.7,36962.9
72617,36930.1
72628.3,36898.3
72642.8,36867.7
72660.2,36838.7
72680.3,36811.6
72703,36786.5
72728.1,36763.8
72755.2,36743.7
72784.2,36726.3
72814.8,36711.9
72846.6,36700.5
72879.4,36692.2
72912.8,36687.3
72946.6,36685.6
73635.6,36685.6
Z" /> 
<path style="fill:#000000; fill-opacity:1.0; 
stroke:#000000; stroke-width:0; stroke-opacity:1; 
stroke-linecap:round; stroke-linejoin:round;fill-rule:evenodd;"
d="M 74796.4,38537.4
74825.1,38541.7
74853.2,38548.7
74880.5,38558.5
74906.7,38570.9
74931.5,38585.8
74954.8,38603
74976.3,38622.5
74995.7,38644
75013,38667.3
75027.9,38692.1
75040.3,38718.3
75050,38745.6
75057.1,38773.7
75061.3,38802.4
75062.8,38831.3
75062.8,39618.7
75061.3,39647.6
75057.1,39676.3
75050,39704.4
75040.3,39731.7
75027.9,39757.9
75013,39782.7
74995.7,39806
74976.3,39827.5
74954.8,39847
74931.5,39864.2
74906.7,39879.1
74880.5,39891.5
74853.2,39901.3
74825.1,39908.3
74796.4,39912.6
74767.5,39914
74176.9,39914
74148,39912.6
74119.3,39908.3
74091.2,39901.3
74063.9,39891.5
74037.7,39879.1
74012.9,39864.2
73989.6,39847
73968.1,39827.5
73948.7,39806
73931.4,39782.7
73916.5,39757.9
73904.1,39731.7
73894.4,39704.4
73887.3,39676.3
73883.1,39647.6
73881.7,39618.7
73881.7,38831.3
73883.1,38802.4
73887.3,38773.7
73894.4,38745.6
73904.1,38718.3
73916.5,38692.1
73931.4,38667.3
73948.7,38644
73968.1,38622.5
73989.6,38603
74012.9,38585.8
74037.7,38570.9
74063.9,38558.5
74091.2,38548.7
74119.3,38541.7
74148,38537.4
74176.9,38536
74767.5,38536
Z" /> 
<path style="fill:#000000; fill-opacity:1.0; 
stroke:#000000; stroke-width:0; stroke-opacity:1; 
stroke-linecap:round; stroke-linejoin:round;fill-rule:evenodd;"
d="M 72799,38536
72799,39914
71421,39914
71421,38536
Z" /> 
</g>
<g >
</g>
<g style="fill:#000000; fill-opacity:1.0; 
stroke:#000000; stroke-width:0; stroke-opacity:1; 
stroke-linecap:round; stroke-linejoin:round;">
</g>
<g style="fill:#000000; fill-opacity:1.0; 
stroke:#000000; stroke-width:314.961; stroke-opacity:1; 
stroke-linecap:round; stroke-linejoin:round;">
</g>
<g style="fill:#000000; fill-opacity:0.0; 
stroke:#000000; stroke-width:314.961; stroke-opacity:1; 
stroke-linecap:round; stroke-linejoin:round;">
<path d="M52974 41057
L52974 41293
" />
<path d="M56225 41057
L56225 41293
" />
<path d="M56367 43400
L56367 43636
" />
<path d="M52832 43400
L52832 43636
" />
</g>
<g >
</g>
<g style="fill:#000000; fill-opacity:0.0; 
stroke:#000000; stroke-width:314.961; stroke-opacity:1; 
stroke-linecap:round; stroke-linejoin:round;">
</g>
<g style="fill:#000000; fill-opacity:0.0; 
stroke:#000000; stroke-width:0; stroke-opacity:1; 
stroke-linecap:round; stroke-linejoin:round;">
</g>
<g style="fill:#000000; fill-opacity:1.0; 
stroke:#000000; stroke-width:0; stroke-opacity:1; 
stroke-linecap:round; stroke-linejoin:round;">
<path style="fill:#000000; fill-opacity:1.0; 
stroke:#000000; stroke-width:0; stroke-opacity:1; 
stroke-linecap:round; stroke-linejoin:round;fill-rule:evenodd;"
d="M 70834.6,27134.6
70165.4,27134.6
70165.4,26465.4
70834.6,26465.4
Z" /> 
<circle cx="71500" cy="26800" r="334.646" /> 
</g>
<g >
</g>
<g style="fill:#000000; fill-opacity:1.0; 
stroke:#000000; stroke-width:0; stroke-opacity:1; 
stroke-linecap:round; stroke-linejoin:round;">
<circle cx="72800" cy="33800" r="334.646" /> 
<path style="fill:#000000; fill-opacity:1.0; 
stroke:#000000; stroke-width:0; stroke-opacity:1; 
stroke-linecap:round; stroke-linejoin:round;fill-rule:evenodd;"
d="M 72134.6,34134.6
71465.4,34134.6
71465.4,33465.4
72134.6,33465.4
Z" /> 
</g>
<g >
</g>
<g >
</g>
<g >
</g>
<g >
</g>
<g >
</g>
<g >
</g>
<g >
</g>
<g >
</g>
<g >
</g>
<g style="fill:#000000; fill-opacity:1.0; 
stroke:#000000; stroke-width:0; stroke-opacity:1; 
stroke-linecap:round; stroke-linejoin:round;">
<circle cx="70640" cy="32000" r="629.921" /> 
</g>
<g style="fill:#000000; fill-opacity:1.0; 
stroke:#000000; stroke-width:39.3701; stroke-opacity:1; 
stroke-linecap:round; stroke-linejoin:round;">
</g>
<g style="fill:#000000; fill-opacity:1.0; 
stroke:#000000; stroke-width:0; stroke-opacity:1; 
stroke-linecap:round; stroke-linejoin:round;">
<circle cx="75520" cy="32300" r="629.921" /> 
</g>
<g style="fill:#000000; fill-opacity:1.0; 
stroke:#000000; stroke-width:39.3701; stroke-opacity:1; 
stroke-linecap:round; stroke-linejoin:round;">
</g>
<g style="fill:#000000; fill-opacity:1.0; 
stroke:#000000; stroke-width:0; stroke-opacity:1; 
stroke-linecap:round; stroke-linejoin:round;">
<circle cx="71420" cy="30120" r="157.48" /> 
</g>
<g style="fill:#000000; fill-opacity:1.0; 
stroke:#000000; stroke-width:39.3701; stroke-opacity:1; 
stroke-linecap:round; stroke-linejoin:round;">
</g>
<g style="fill:#000000; fill-opacity:1.0; 
stroke:#000000; stroke-width:0; stroke-opacity:1; 
stroke-linecap:round; stroke-linejoin:round;">
<circle cx="75400" cy="30750" r="157.48" /> 
</g>
<g style="fill:#000000; fill-opacity:1.0; 
stroke:#000000; stroke-width:39.3701; stroke-opacity:1; 
stroke-linecap:round; stroke-linejoin:round;">
</g>
<g style="fill:#000000; fill-opacity:1.0; 
stroke:#000000; stroke-width:0; stroke-opacity:1; 
stroke-linecap:round; stroke-linejoin:round;">
<circle cx="73800" cy="35600" r="157.48" /> 
</g>
<g style="fill:#000000; fill-opacity:1.0; 
stroke:#000000; stroke-width:39.3701; stroke-opacity:1; 
stroke-linecap:round; stroke-linejoin:round;">
</g>
<g style="fill:#000000; fill-opacity:1.0; 
stroke:#000000; stroke-width:0; stroke-opacity:1; 
stroke-linecap:round; stroke-linejoin:round;">
<circle cx="64850" cy="37800" r="629.921" /> 
</g>
<g style="fill:#000000; fill-opacity:1.0; 
stroke:#000000; stroke-width:39.3701; stroke-opacity:1; 
stroke-linecap:round; stroke-linejoin:round;">
</g>
<g style="fill:#000000; fill-opacity:1.0; 
stroke:#000000; stroke-width:0; stroke-opacity:1; 
stroke-linecap:round; stroke-linejoin:round;">
<circle cx="67700" cy="34000" r="629.921" /> 
</g>
<g style="fill:#000000; fill-opacity:1.0; 
stroke:#000000; stroke-width:39.3701; stroke-opacity:1; 
stroke-linecap:round; stroke-linejoin:round;">
</g>
<g style="fill:#000000; fill-opacity:1.0; 
stroke:#000000; stroke-width:0; stroke-opacity:1; 
stroke-linecap:round; stroke-linejoin:round;">
<circle cx="54200" cy="39650" r="157.48" /> 
</g>
<g style="fill:#000000; fill-opacity:1.0; 
stroke:#000000; stroke-width:39.3701; stroke-opacity:1; 
stroke-linecap:round; stroke-linejoin:round;">
</g>
<g style="fill:#000000; fill-opacity:1.0; 
stroke:#000000; stroke-width:0; stroke-opacity:1; 
stroke-linecap:round; stroke-linejoin:round;">
<circle cx="60300" cy="34300" r="157.48" /> 
</g>
<g style="fill:#000000; fill-opacity:1.0; 
stroke:#000000; stroke-width:39.3701; stroke-opacity:1; 
stroke-linecap:round; stroke-linejoin:round;">
</g>
<g style="fill:#000000; fill-opacity:1.0; 
stroke:#000000; stroke-width:0; stroke-opacity:1; 
stroke-linecap:round; stroke-linejoin:round;">
<circle cx="60300" cy="34900" r="157.48" /> 
</g>
<g style="fill:#000000; fill-opacity:1.0; 
stroke:#000000; stroke-width:39.3701; stroke-opacity:1; 
stroke-linecap:round; stroke-linejoin:round;">
</g>
<g style="fill:#000000; fill-opacity:1.0; 
stroke:#000000; stroke-width:0; stroke-opacity:1; 
stroke-linecap:round; stroke-linejoin:round;">
<circle cx="54350" cy="41500" r="157.48" /> 
</g>
<g style="fill:#000000; fill-opacity:1.0; 
stroke:#000000; stroke-width:39.3701; stroke-opacity:1; 
stroke-linecap:round; stroke-linejoin:round;">
</g>
<g style="fill:#000000; fill-opacity:1.0; 
stroke:#000000; stroke-width:0; stroke-opacity:1; 
stroke-linecap:round; stroke-linejoin:round;">
<circle cx="54700" cy="40000" r="157.48" /> 
</g>
<g style="fill:#000000; fill-opacity:1.0; 
stroke:#000000; stroke-width:39.3701; stroke-opacity:1; 
stroke-linecap:round; stroke-linejoin:round;">
</g>
<g style="fill:#000000; fill-opacity:1.0; 
stroke:#000000; stroke-width:0; stroke-opacity:1; 
stroke-linecap:round; stroke-linejoin:round;">
<circle cx="52550" cy="41650" r="157.48" /> 
</g>
<g style="fill:#000000; fill-opacity:1.0; 
stroke:#000000; stroke-width:39.3701; stroke-opacity:1; 
stroke-linecap:round; stroke-linejoin:round;">
</g>
<g style="fill:#000000; fill-opacity:1.0; 
stroke:#000000; stroke-width:0; stroke-opacity:1; 
stroke-linecap:round; stroke-linejoin:round;">
<circle cx="54800" cy="40800" r="78.7402" /> 
</g>
<g style="fill:#000000; fill-opacity:1.0; 
stroke:#000000; stroke-width:39.3701; stroke-opacity:1; 
stroke-linecap:round; stroke-linejoin:round;">
</g>
<g style="fill:#000000; fill-opacity:1.0; 
stroke:#000000; stroke-width:0; stroke-opacity:1; 
stroke-linecap:round; stroke-linejoin:round;">
<circle cx="71750" cy="35200" r="157.48" /> 
</g>
<g style="fill:#000000; fill-opacity:1.0; 
stroke:#000000; stroke-width:39.3701; stroke-opacity:1; 
stroke-linecap:round; stroke-linejoin:round;">
</g>
<g style="fill:#000000; fill-opacity:1.0; 
stroke:#000000; stroke-width:0; stroke-opacity:1; 
stroke-linecap:round; stroke-linejoin:round;">
<circle cx="76791.9" cy="31500" r="157.48" /> 
</g>
<g style="fill:#000000; fill-opacity:1.0; 
stroke:#000000; stroke-width:39.3701; stroke-opacity:1; 
stroke-linecap:round; stroke-linejoin:round;">
</g>
<g style="fill:#000000; fill-opacity:1.0; 
stroke:#000000; stroke-width:0; stroke-opacity:1; 
stroke-linecap:round; stroke-linejoin:round;">
<circle cx="60450" cy="39150" r="157.48" /> 
</g>
<g style="fill:#000000; fill-opacity:1.0; 
stroke:#000000; stroke-width:39.3701; stroke-opacity:1; 
stroke-linecap:round; stroke-linejoin:round;">
</g>
<g style="fill:#000000; fill-opacity:1.0; 
stroke:#000000; stroke-width:0; stroke-opacity:1; 
stroke-linecap:round; stroke-linejoin:round;">
<circle cx="73995" cy="29515" r="88.5827" /> 
</g>
<g style="fill:#000000; fill-opacity:1.0; 
stroke:#000000; stroke-width:39.3701; stroke-opacity:1; 
stroke-linecap:round; stroke-linejoin:round;">
</g>
<g style="fill:#000000; fill-opacity:1.0; 
stroke:#000000; stroke-width:0; stroke-opacity:1; 
stroke-linecap:round; stroke-linejoin:round;">
<circle cx="73755" cy="29500" r="88.5827" /> 
</g>
<g style="fill:#000000; fill-opacity:1.0; 
stroke:#000000; stroke-width:39.3701; stroke-opacity:1; 
stroke-linecap:round; stroke-linejoin:round;">
</g>
<g style="fill:#000000; fill-opacity:1.0; 
stroke:#000000; stroke-width:0; stroke-opacity:1; 
stroke-linecap:round; stroke-linejoin:round;">
<circle cx="60050" cy="39150" r="157.48" /> 
</g>
<g style="fill:#000000; fill-opacity:1.0; 
stroke:#000000; stroke-width:39.3701; stroke-opacity:1; 
stroke-linecap:round; stroke-linejoin:round;">
</g>
<g style="fill:#000000; fill-opacity:1.0; 
stroke:#000000; stroke-width:0; stroke-opacity:1; 
stroke-linecap:round; stroke-linejoin:round;">
<circle cx="73555" cy="29500" r="88.5827" /> 
</g>
<g style="fill:#000000; fill-opacity:1.0; 
stroke:#000000; stroke-width:39.3701; stroke-opacity:1; 
stroke-linecap:round; stroke-linejoin:round;">
</g>
<g style="fill:#000000; fill-opacity:1.0; 
stroke:#000000; stroke-width:0; stroke-opacity:1; 
stroke-linecap:round; stroke-linejoin:round;">
<circle cx="61450" cy="37850" r="157.48" /> 
</g>
<g style="fill:#000000; fill-opacity:1.0; 
stroke:#000000; stroke-width:39.3701; stroke-opacity:1; 
stroke-linecap:round; stroke-linejoin:round;">
</g>
<g style="fill:#000000; fill-opacity:1.0; 
stroke:#000000; stroke-width:0; stroke-opacity:1; 
stroke-linecap:round; stroke-linejoin:round;">
<circle cx="73345" cy="29485" r="88.5827" /> 
</g>
<g style="fill:#000000; fill-opacity:1.0; 
stroke:#000000; stroke-width:39.3701; stroke-opacity:1; 
stroke-linecap:round; stroke-linejoin:round;">
</g>
<g style="fill:#000000; fill-opacity:1.0; 
stroke:#000000; stroke-width:0; stroke-opacity:1; 
stroke-linecap:round; stroke-linejoin:round;">
<circle cx="61450" cy="37250" r="157.48" /> 
</g>
<g style="fill:#000000; fill-opacity:1.0; 
stroke:#000000; stroke-width:39.3701; stroke-opacity:1; 
stroke-linecap:round; stroke-linejoin:round;">
</g>
<g style="fill:#000000; fill-opacity:1.0; 
stroke:#000000; stroke-width:0; stroke-opacity:1; 
stroke-linecap:round; stroke-linejoin:round;">
<circle cx="73150" cy="29500" r="88.5827" /> 
</g>
<g style="fill:#000000; fill-opacity:1.0; 
stroke:#000000; stroke-width:39.3701; stroke-opacity:1; 
stroke-linecap:round; stroke-linejoin:round;">
</g>
<g style="fill:#000000; fill-opacity:1.0; 
stroke:#000000; stroke-width:0; stroke-opacity:1; 
stroke-linecap:round; stroke-linejoin:round;">
<circle cx="61450" cy="36650" r="157.48" /> 
</g>
<g style="fill:#000000; fill-opacity:1.0; 
stroke:#000000; stroke-width:39.3701; stroke-opacity:1; 
stroke-linecap:round; stroke-linejoin:round;">
</g>
<g style="fill:#000000; fill-opacity:1.0; 
stroke:#000000; stroke-width:0; stroke-opacity:1; 
stroke-linecap:round; stroke-linejoin:round;">
<circle cx="72925" cy="29460" r="88.5827" /> 
</g>
<g style="fill:#000000; fill-opacity:1.0; 
stroke:#000000; stroke-width:39.3701; stroke-opacity:1; 
stroke-linecap:round; stroke-linejoin:round;">
</g>
<g style="fill:#000000; fill-opacity:1.0; 
stroke:#000000; stroke-width:0; stroke-opacity:1; 
stroke-linecap:round; stroke-linejoin:round;">
<circle cx="61450" cy="36100" r="157.48" /> 
</g>
<g style="fill:#000000; fill-opacity:1.0; 
stroke:#000000; stroke-width:39.3701; stroke-opacity:1; 
stroke-linecap:round; stroke-linejoin:round;">
</g>
<g style="fill:#000000; fill-opacity:1.0; 
stroke:#000000; stroke-width:0; stroke-opacity:1; 
stroke-linecap:round; stroke-linejoin:round;">
<circle cx="53720" cy="40760" r="88.5827" /> 
</g>
<g style="fill:#000000; fill-opacity:1.0; 
stroke:#000000; stroke-width:39.3701; stroke-opacity:1; 
stroke-linecap:round; stroke-linejoin:round;">
</g>
<g style="fill:#000000; fill-opacity:1.0; 
stroke:#000000; stroke-width:0; stroke-opacity:1; 
stroke-linecap:round; stroke-linejoin:round;">
<circle cx="77102.6" cy="32078.1" r="157.48" /> 
</g>
<g style="fill:#000000; fill-opacity:1.0; 
stroke:#000000; stroke-width:39.3701; stroke-opacity:1; 
stroke-linecap:round; stroke-linejoin:round;">
</g>
<g style="fill:#000000; fill-opacity:1.0; 
stroke:#000000; stroke-width:0; stroke-opacity:1; 
stroke-linecap:round; stroke-linejoin:round;">
<circle cx="59500" cy="37000" r="157.48" /> 
</g>
<g style="fill:#000000; fill-opacity:1.0; 
stroke:#000000; stroke-width:39.3701; stroke-opacity:1; 
stroke-linecap:round; stroke-linejoin:round;">
</g>
<g style="fill:#000000; fill-opacity:1.0; 
stroke:#000000; stroke-width:0; stroke-opacity:1; 
stroke-linecap:round; stroke-linejoin:round;">
<circle cx="69500" cy="30000" r="157.48" /> 
</g>
<g style="fill:#000000; fill-opacity:1.0; 
stroke:#000000; stroke-width:39.3701; stroke-opacity:1; 
stroke-linecap:round; stroke-linejoin:round;">
</g>
<g style="fill:#000000; fill-opacity:1.0; 
stroke:#000000; stroke-width:0; stroke-opacity:1; 
stroke-linecap:round; stroke-linejoin:round;">
<circle cx="69600" cy="35050" r="157.48" /> 
</g>
<g style="fill:#000000; fill-opacity:1.0; 
stroke:#000000; stroke-width:39.3701; stroke-opacity:1; 
stroke-linecap:round; stroke-linejoin:round;">
</g>
<g style="fill:#000000; fill-opacity:1.0; 
stroke:#000000; stroke-width:0; stroke-opacity:1; 
stroke-linecap:round; stroke-linejoin:round;">
<circle cx="72450" cy="32950" r="157.48" /> 
</g>
<g style="fill:#000000; fill-opacity:1.0; 
stroke:#000000; stroke-width:39.3701; stroke-opacity:1; 
stroke-linecap:round; stroke-linejoin:round;">
</g>
<g style="fill:#000000; fill-opacity:1.0; 
stroke:#000000; stroke-width:0; stroke-opacity:1; 
stroke-linecap:round; stroke-linejoin:round;">
<circle cx="71150" cy="35200" r="157.48" /> 
</g>
<g style="fill:#000000; fill-opacity:1.0; 
stroke:#000000; stroke-width:39.3701; stroke-opacity:1; 
stroke-linecap:round; stroke-linejoin:round;">
</g>
<g >
</g>
<g style="fill:#000000; fill-opacity:1.0; 
stroke:#000000; stroke-width:39.3701; stroke-opacity:1; 
stroke-linecap:round; stroke-linejoin:round;">
</g>
<g style="fill:#000000; fill-opacity:1.0; 
stroke:#000000; stroke-width:629.921; stroke-opacity:1; 
stroke-linecap:round; stroke-linejoin:round;">
</g>
<g style="fill:#000000; fill-opacity:0.0; 
stroke:#000000; stroke-width:629.921; stroke-opacity:1; 
stroke-linecap:round; stroke-linejoin:round;">
<path d="M72110 39225
L68440 35555
" />
<path d="M68440 35555
L68440 35080
" />
<path d="M70640 32880
L70640 32000
" />
<path d="M68440 35080
L70640 32880
" />
</g>
<g style="fill:#000000; fill-opacity:0.0; 
stroke:#000000; stroke-width:98.4252; stroke-opacity:1; 
stroke-linecap:round; stroke-linejoin:round;">
<path d="M75220 32000
L75520 32300
" />
</g>
<g style="fill:#000000; fill-opacity:0.0; 
stroke:#000000; stroke-width:314.961; stroke-opacity:1; 
stroke-linecap:round; stroke-linejoin:round;">
<path d="M70640 32000
L75220 32000
" />
</g>
<g style="fill:#000000; fill-opacity:0.0; 
stroke:#000000; stroke-width:98.4252; stroke-opacity:1; 
stroke-linecap:round; stroke-linejoin:round;">
<path d="M74770 30120
L75400 30750
" />
<path d="M71420 30120
L74770 30120
" />
<path d="M76840 32480
L76840 32190
" />
<path d="M75052 33337
L75497 33337
" />
<path d="M74812 34022
L74812 33577
" />
<path d="M74812 34107
L74855 34064
" />
<path d="M76840 32190
L75400 30750
" />
<path d="M74812 34587
L74812 34107
" />
<path d="M75940 32980
L76340 32980
" />
<path d="M73800 35600
L74812 34587
" />
<path d="M75539 33380
L75940 32980
" />
<path d="M74812 33577
L75052 33337
" />
<path d="M76340 32980
L76840 32480
" />
<path d="M75497 33337
L75539 33380
" />
<path d="M74855 34064
L74812 34022
" />
</g>
<g style="fill:#000000; fill-opacity:0.0; 
stroke:#000000; stroke-width:629.921; stroke-opacity:1; 
stroke-linecap:round; stroke-linejoin:round;">
<path d="M64850 36850
L67700 34000
" />
<path d="M64850 37800
L64850 36850
" />
</g>
<g style="fill:#000000; fill-opacity:0.0; 
stroke:#000000; stroke-width:98.4252; stroke-opacity:1; 
stroke-linecap:round; stroke-linejoin:round;">
<path d="M64850 38210
L64850 37800
" />
</g>
<g style="fill:#000000; fill-opacity:0.0; 
stroke:#000000; stroke-width:472.441; stroke-opacity:1; 
stroke-linecap:round; stroke-linejoin:round;">
<path d="M67440 40800
L64850 38210
" />
</g>
<g style="fill:#000000; fill-opacity:0.0; 
stroke:#000000; stroke-width:98.4252; stroke-opacity:1; 
stroke-linecap:round; stroke-linejoin:round;">
<path d="M59800 34300
L60300 34300
" />
<path d="M54200 39650
L59800 34300
" />
<path d="M55200 40000
L60300 34900
" />
<path d="M54700 40000
L55200 40000
" />
<path d="M54640 41259
L54400 41500
" />
<path d="M54640 40938
L54640 41259
" />
<path d="M54632 40769
L54632 40930
" />
<path d="M54700 40000
L54640 40059
" />
<path d="M54632 40930
L54640 40938
" />
<path d="M54640 40761
L54632 40769
" />
<path d="M54640 40059
L54640 40761
" />
<path d="M54818 41454
L54818 40800
" />
<path d="M54464 41807
L54818 41454
" />
<path d="M52707 41807
L54464 41807
" />
<path d="M52550 41650
L52707 41807
" />
<path d="M77014 31500
L76791 31500
" />
<path d="M71750 35200
L72435 35885
" />
<path d="M73937 35885
L77388 32434
" />
<path d="M72435 35885
L73937 35885
" />
<path d="M77388 32434
L77388 31873
" />
<path d="M77388 31873
L77014 31500
" />
<path d="M73977 29145
L73995 29515
" />
<path d="M73356 28524
L73977 29145
" />
<path d="M53849 40427
L54562 39714
" />
<path d="M60450 39372
L57838 41984
" />
<path d="M55062 39714
L60162 34614
" />
<path d="M60757 34614
L66847 28524
" />
<path d="M52264 41222
L53059 40427
" />
<path d="M52264 41787
L52264 41222
" />
<path d="M60162 34614
L60757 34614
" />
<path d="M54562 39714
L55062 39714
" />
<path d="M57838 41984
L52462 41984
" />
<path d="M53059 40427
L53849 40427
" />
<path d="M52462 41984
L52264 41787
" />
<path d="M66847 28524
L73356 28524
" />
<path d="M60450 39150
L60450 39372
" />
</g>
<g style="fill:#000000; fill-opacity:1.0; 
stroke:#000000; stroke-width:0; stroke-opacity:1; 
stroke-linecap:round; stroke-linejoin:round;">
<circle cx="73995" cy="29515" r="49.2126" /> 
</g>
<g style="fill:#000000; fill-opacity:1.0; 
stroke:#000000; stroke-width:98.4252; stroke-opacity:1; 
stroke-linecap:round; stroke-linejoin:round;">
</g>
<g style="fill:#000000; fill-opacity:0.0; 
stroke:#000000; stroke-width:98.4252; stroke-opacity:1; 
stroke-linecap:round; stroke-linejoin:round;">
<path d="M73282 28701
L66920 28701
" />
<path d="M73750 29169
L73282 28701
" />
<path d="M60050 35572
L60050 39150
" />
<path d="M66920 28701
L60050 35572
" />
<path d="M73750 29425
L73750 29169
" />
<path d="M73550 29219
L73550 29430
" />
<path d="M73209 28879
L73550 29219
" />
<path d="M67747 28879
L73209 28879
" />
<path d="M61450 37850
L60810 37210
" />
<path d="M60810 35816
L67747 28879
" />
<path d="M60810 37210
L60810 35816
" />
<path d="M73350 29270
L73350 29430
" />
<path d="M73136 29056
L73350 29270
" />
<path d="M60987 35889
L67820 29056
" />
<path d="M60987 36787
L60987 35889
" />
<path d="M67820 29056
L73136 29056
" />
<path d="M61450 37250
L60987 36787
" />
<path d="M73053 29233
L73150 29350
" />
<path d="M67894 29233
L73053 29233
" />
<path d="M61164 35962
L67894 29233
" />
<path d="M61164 36364
L61164 35962
" />
<path d="M61450 36650
L61164 36364
" />
<path d="M73150 29359
L73128 29381
" />
<path d="M73150 29350
L73150 29359
" />
<path d="M73128 29381
L73128 29470
" />
<path d="M68100 29450
L72933 29450
" />
<path d="M61450 36100
L68100 29450
" />
</g>
<g style="fill:#000000; fill-opacity:0.0; 
stroke:#000000; stroke-width:78.7402; stroke-opacity:1; 
stroke-linecap:round; stroke-linejoin:round;">
<path d="M77102 32215
L76500 31613
" />
<path d="M77102 32078
L77102 32215
" />
<path d="M76500 31613
L76500 31000
" />
</g>
<g style="fill:#000000; fill-opacity:0.0; 
stroke:#000000; stroke-width:98.4252; stroke-opacity:1; 
stroke-linecap:round; stroke-linejoin:round;">
<path d="M72262 34264
L71327 35200
" />
<path d="M72262 33137
L72262 34264
" />
<path d="M71327 35200
L71150 35200
" />
<path d="M72450 32950
L72262 33137
" />
<path d="M69750 35200
L69600 35050
" />
<path d="M71150 35200
L69750 35200
" />
</g>
<g >
</g>
<g style="fill:#000000; fill-opacity:0.0; 
stroke:#000000; stroke-width:98.4252; stroke-opacity:1; 
stroke-linecap:round; stroke-linejoin:round;">
<g >
</g>
<g style="fill:#000000; fill-opacity:1.0; 
stroke:#000000; stroke-width:100; stroke-opacity:1; 
stroke-linecap:round; stroke-linejoin:round;">
<path style="fill:#000000; fill-opacity:1.0; 
stroke:#000000; stroke-width:100; stroke-opacity:1; 
stroke-linecap:round; stroke-linejoin:round;fill-rule:evenodd;"
d="M 77450,31512.2
77236.6,31298.8
77227.2,31287.4
77181.7,31250
77129.7,31222.2
77073.3,31205.1
77051.7,31183.5
76984.9,31138.9
76910.8,31108.2
76832,31092.5
76751.8,31092.5
76673.1,31108.2
76598.9,31138.9
76532.2,31183.5
76475.4,31240.2
76430.8,31307
76416,31342.8
75807.5,30734.3
75807.5,30709.9
75791.8,30631.1
75761.1,30557
75716.5,30490.2
75659.8,30433.5
75593,30388.9
75518.9,30358.2
75440.1,30342.5
75415.7,30342.5
74992,29918.8
74982.6,29907.4
74937,29870
74885.1,29842.2
74828.7,29825.1
74784.7,29820.8
74784.7,29820.8
74770,29819.3
74755.3,29820.8
74141.5,29820.8
74155.4,29815
74210.8,29778
74258,29730.8
74295,29675.4
74320.6,29613.8
74333.6,29548.3
74333.6,29481.7
74320.6,29416.2
74295,29354.6
74286.2,29341.3
74277.1,29153.2
74277.8,29145.7
74275.7,29123.8
74275.3,29116.6
74274.2,29109.2
74272.1,29087
74269.9,29080.1
74268.9,29072.9
74261.4,29051.9
74254.9,29030.6
74251.5,29024.2
74249.1,29017.4
74237.6,28998.3
74227.2,28978.6
74222.5,28973
74218.8,28966.8
74203.9,28950.3
74199.1,28944.5
74194,28939.4
74179.3,28923.1
74173.2,28918.6
73578.2,28323.6
73568.9,28312.2
73557.5,28302.8
73523.3,28274.8
73471.3,28247
73432,28235.1
73414.9,28229.9
73371,28225.6
73356.3,28224.1
73341.6,28225.6
66861.8,28225.6
66847.1,28224.1
66832.4,28225.6
66832.4,28225.6
66788.4,28229.9
66756.6,28239.6
66732,28247
66680.1,28274.8
66645.9,28302.8
66645.9,28302.8
66634.5,28312.2
66625.1,28323.6
60704.4,34244.3
60691.8,34181.1
60661.1,34107
60616.5,34040.2
60559.8,33983.5
60493,33938.9
60418.9,33908.2
60340.1,33892.5
60259.9,33892.5
60181.1,33908.2
60107,33938.9
60040.2,33983.5
60022.9,34000.8
59818.1,34000.8
59806.9,33999.4
59788.7,34000.8
59785.3,34000.8
59774.1,34001.9
59748.1,34003.9
59744.8,34004.8
59741.3,34005.1
59716.4,34012.7
59691.3,34019.7
59688.2,34021.2
59684.9,34022.2
59662,34034.5
59638.7,34046.3
59636,34048.4
59633,34050
59612.8,34066.5
59603.9,34073.5
59601.5,34075.9
59587.4,34087.4
59580.2,34096.2
54193.4,39242.5
54159.9,39242.5
54081.1,39258.2
54007,39288.9
53940.2,39333.5
53883.5,39390.2
53838.9,39457
53808.2,39531.1
53792.5,39609.9
53792.5,39690.1
53808.2,39768.9
53838.9,39843
53883.5,39909.8
53914.1,39940.3
53726.1,40128.3
53074.5,40128.3
53059.8,40126.9
53045.1,40128.3
53045.1,40128.3
53001.2,40132.7
52944.8,40149.8
52892.8,40177.6
52892.8,40177.6
52892.8,40177.6
52858.7,40205.6
52858.7,40205.6
52847.2,40215
52837.9,40226.4
52063.4,41000.9
52052,41010.2
52042.6,41021.7
52042.6,41021.7
52014.6,41055.8
51986.8,41107.8
51969.7,41164.2
51963.9,41222.8
51965.4,41237.5
51965.4,41772.3
51963.9,41787
51965.4,41801.7
51965.4,41801.7
51969.7,41845.7
51976.9,41869.6
51986.8,41902.1
52014.6,41954
52024.8,41966.5
52052,41999.6
52063.4,42009
52240.2,42185.8
52249.6,42197.2
52278.4,42220.9
52295.2,42234.6
52347.1,42262.4
52403.6,42279.5
52447.5,42283.9
52447.5,42283.9
52462.2,42285.3
52476.9,42283.9
57823.4,42283.9
57838.1,42285.3
57852.8,42283.9
57852.8,42283.9
57896.7,42279.5
57953.1,42262.4
58005.1,42234.6
58050.7,42197.2
58060,42185.8
59839.6,40406.3
64795.1,40406.3
64795.1,41193.7
64799.9,41242.7
64814.2,41289.8
64837.4,41333.3
64868.7,41371.3
64906.7,41402.6
64950.2,41425.8
64997.3,41440.1
65046.3,41444.9
65833.7,41444.9
65882.7,41440.1
65929.8,41425.8
65973.3,41402.6
66011.3,41371.3
66042.6,41333.3
66065.8,41289.8
66080.1,41242.7
66084.9,41193.7
66084.9,40406.3
66080.1,40357.3
66065.8,40310.2
66042.6,40266.7
66011.3,40228.7
65973.3,40197.4
65929.8,40174.2
65882.7,40159.9
65833.7,40155.1
65046.3,40155.1
64997.3,40159.9
64950.2,40174.2
64906.7,40197.4
64868.7,40228.7
64837.4,40266.7
64814.2,40310.2
64799.9,40357.3
64795.1,40406.3
59839.6,40406.3
60651.2,39594.7
60662.6,39585.3
60700,39539.7
60727.8,39487.8
60744.9,39431.4
60766.5,39409.8
60811.1,39343
60841.8,39268.9
60857.5,39190.1
60857.5,39109.9
60841.8,39031.1
60811.1,38957
60766.5,38890.2
60709.8,38833.5
60643,38788.9
60568.9,38758.2
60490.1,38742.5
60409.9,38742.5
60349.2,38754.6
60349.2,35696.4
67044.4,29001.2
67202.1,29001.2
60609,35594.3
60597.6,35603.6
60588.3,35615
60588.3,35615
60560.2,35649.2
60532.5,35701.2
60515.3,35757.6
60509.6,35816.2
60511,35830.9
60511,37195.5
60509.6,37210.2
60511,37224.9
60511,37224.9
60515.3,37268.9
60532.5,37325.3
60560.2,37377.3
60575.9,37396.4
60597.6,37422.8
60609,37432.2
61042.5,37865.7
61042.5,37890.1
61058.2,37968.9
61088.9,38043
61133.5,38109.8
61190.2,38166.5
61257,38211.1
61331.1,38241.8
61409.9,38257.5
61490.1,38257.5
61568.9,38241.8
61643,38211.1
61709.8,38166.5
61766.5,38109.8
61811.1,38043
61841.8,37968.9
61857.5,37890.1
61857.5,37809.9
61841.8,37731.1
61811.1,37657
61766.5,37590.2
61726.3,37550
61766.5,37509.8
61811.1,37443
61841.8,37368.9
61857.5,37290.1
61857.5,37209.9
61841.8,37131.1
61811.1,37057
61766.5,36990.2
61726.3,36950
61766.5,36909.8
61811.1,36843
61841.8,36768.9
61857.5,36690.1
61857.5,36609.9
61841.8,36531.1
61811.1,36457
61766.5,36390.2
61751.3,36375
61766.5,36359.8
61811.1,36293
61841.8,36218.9
61857.5,36140.1
61857.5,36115.7
68223.9,29749.2
71250.4,29749.2
71227,29758.9
71160.2,29803.5
71103.5,29860.2
71058.9,29927
71028.2,30001.1
71012.5,30079.9
71012.5,30160.1
71028.2,30238.9
71058.9,30313
71103.5,30379.8
71160.2,30436.5
71227,30481.1
71301.1,30511.8
71379.9,30527.5
71460.1,30527.5
71538.9,30511.8
71613,30481.1
71679.8,30436.5
71697.1,30419.2
74646.1,30419.2
74992.5,30765.7
74992.5,30790.1
75008.2,30868.9
75038.9,30943
75083.5,31009.8
75140.2,31066.5
75207,31111.1
75281.1,31141.8
75359.9,31157.5
75384.3,31157.5
75656.9,31430.1
75606.7,31420.1
75433.3,31420.1
75263.3,31453.9
75103.2,31520.2
74995,31592.5
71423.6,31592.5
71419.8,31583.2
71323.5,31439.1
71200.9,31316.5
71056.8,31220.2
70896.7,31153.9
70726.7,31120.1
70553.3,31120.1
70383.3,31153.9
70223.2,31220.2
70079.1,31316.5
69956.5,31439.1
69860.2,31583.2
69793.9,31743.3
69760.1,31913.3
69760.1,32086.7
69793.9,32256.7
69860.2,32416.8
69956.5,32560.9
70058.3,32662.7
68566.4,34154.6
68579.9,34086.7
68579.9,33913.3
68546.1,33743.3
68479.8,33583.2
68383.5,33439.1
68260.9,33316.5
68116.8,33220.2
67956.7,33153.9
67786.7,33120.1
67613.3,33120.1
67443.3,33153.9
67283.2,33220.2
67139.1,33316.5
67016.5,33439.1
66920.2,33583.2
66853.9,33743.3
66820.1,33913.3
66820.1,34080.9
64470.1,36430.9
64448.6,36448.6
64378,36534.6
64377.9,36534.8
64325.5,36632.8
64293.2,36739.2
64282.3,36850
64285,36877.8
64285,37120.6
64166.5,37239.1
64070.2,37383.2
64003.9,37543.3
63970.1,37713.3
63970.1,37886.7
64003.9,38056.7
64070.2,38216.8
64166.5,38360.9
64289.1,38483.5
64433.2,38579.8
64593.3,38646.1
64599.8,38647.4
66796.3,40843.9
66796.3,40863.4
66821,40987.8
66869.6,41104.9
66940,41210.3
67029.7,41300
67135.1,41370.4
67252.2,41419
67376.6,41443.7
67503.4,41443.7
67627.8,41419
67744.9,41370.4
67850.3,41300
67940,41210.3
68010.4,41104.9
68059,40987.8
68083.7,40863.4
68083.7,40736.6
68059,40612.2
68010.4,40495.1
67940,40389.7
67850.3,40300
67744.9,40229.6
67627.8,40181
67503.4,40156.3
67483.9,40156.3
65595.6,38268
65629.8,38216.8
65696.1,38056.7
65729.9,37886.7
65729.9,37713.3
65696.1,37543.3
65629.8,37383.2
65533.5,37239.1
65415,37120.6
65415,37084
67619.1,34879.9
67786.7,34879.9
67920.6,34853.3
67915.5,34862.8
67883.2,34969.2
67878.7,35015.1
67872.3,35080
67875,35107.8
67875,35527.2
67872.3,35555
67876.7,35600
67883.2,35665.8
67915.5,35772.2
67968,35870.4
68038.6,35956.4
68060.1,35974.1
71169.8,39083.8
71169.8,39914
71174.6,39963
71188.9,40010.1
71212.2,40053.5
71243.4,40091.6
71281.5,40122.8
71324.9,40146.1
71372,40160.4
71421,40165.2
72799,40165.2
72848,40160.4
72895.1,40146.1
72938.5,40122.8
72976.6,40091.6
73007.8,40053.5
73031.1,40010.1
73045.4,39963
73050.2,39914
73630.4,39914
73635.3,39963
73649.6,40010.1
73672.8,40053.5
73704,40091.6
73742.1,40122.8
73785.5,40146.1
73832.6,40160.4
73881.7,40165.2
74359.7,40164
74422.2,40101.5
74422.2,39275
74522.2,39275
74522.2,40101.5
74584.7,40164
75062.8,40165.2
75111.8,40160.4
75158.9,40146.1
75202.3,40122.8
75240.4,40091.6
75271.6,40053.5
75294.8,40010.1
75309.1,39963
75314,39914
75312.8,39337.5
75250.3,39275
74522.2,39275
74422.2,39275
73694.2,39275
73631.7,39337.5
73630.4,39914
73050.2,39914
73050.2,38536
73630.4,38536
73631.7,39112.5
73694.2,39175
74422.2,39175
74422.2,38348.5
74522.2,38348.5
74522.2,39175
75250.3,39175
75312.8,39112.5
75314,38536
75309.1,38487
75294.8,38439.9
75271.6,38396.5
75240.4,38358.4
75202.3,38327.2
75158.9,38303.9
75111.8,38289.6
75062.8,38284.8
74584.7,38286
74522.2,38348.5
74422.2,38348.5
74359.7,38286
73881.7,38284.8
73832.6,38289.6
73785.5,38303.9
73742.1,38327.2
73704,38358.4
73672.8,38396.5
73649.6,38439.9
73635.3,38487
73630.4,38536
73050.2,38536
73045.4,38487
73031.1,38439.9
73007.8,38396.5
72976.6,38358.4
72938.5,38327.2
72908.4,38311
72946.6,38314.8
73635.6,38314.8
73751.8,38303.3
73863.6,38269.4
73966.5,38214.4
74056.8,38140.3
74130.9,38050
74185.9,37947.1
74219.8,37835.3
74231.3,37719.1
74231.3,37030.1
74219.8,36913.9
74185.9,36802.2
74130.9,36699.2
74056.8,36608.9
73966.5,36534.8
73863.6,36479.8
73751.8,36445.9
73635.6,36434.4
72946.6,36434.4
72830.4,36445.9
72718.7,36479.8
72615.7,36534.8
72525.4,36608.9
72451.3,36699.2
72396.3,36802.2
72362.4,36913.9
72350.9,37030.1
72350.9,37719.1
72362.4,37835.3
72396.3,37947.1
72451.3,38050
72525.4,38140.3
72615.7,38214.4
72718.7,38269.4
72769.3,38284.8
71968.8,38284.8
69005,35321
69005,35314
69198.5,35120.4
69208.2,35168.9
69238.9,35243
69283.5,35309.8
69340.2,35366.5
69407,35411.1
69481.1,35441.8
69559.9,35457.5
69597,35457.5
69634.9,35477.8
69691.3,35494.9
69735.3,35499.2
69735.3,35499.2
69750,35500.7
69764.7,35499.2
70872.9,35499.2
70890.2,35516.5
70957,35561.1
71031.1,35591.8
71109.9,35607.5
71190.1,35607.5
71268.9,35591.8
71343,35561.1
71409.8,35516.5
71450,35476.3
71490.2,35516.5
71557,35561.1
71631.1,35591.8
71709.9,35607.5
71734.3,35607.5
72213.5,36086.6
72222.8,36098
72268.4,36135.4
72320.4,36163.2
72376.8,36180.3
72420.7,36184.6
72420.7,36184.6
72435.4,36186.1
72450.1,36184.6
73922.3,36184.6
73937,36186.1
73951.7,36184.6
73951.7,36184.6
73995.7,36180.3
74052.1,36163.2
74104,36135.4
74149.6,36098
74159,36086.6
77450,32795.6
77450,43950
56630.7,43950
56678.7,43904.2
56725,43838.4
56757.6,43764.8
56775.2,43686.2
56775.2,43568.1
56417.7,43568.1
56417.7,43576
56317.7,43576
56317.7,43568.1
55960.2,43568.1
55960.2,43686.2
55977.8,43764.8
56010.4,43838.4
56056.7,43904.2
56104.8,43950
53095.2,43950
53143.3,43904.2
53189.6,43838.4
53222.2,43764.8
53239.8,43686.2
53239.8,43568.1
52882.3,43568.1
52882.3,43576
52782.3,43576
52782.3,43568.1
52424.8,43568.1
52424.8,43686.2
52442.4,43764.8
52475,43838.4
52521.3,43904.2
52569.3,43950
48050,43950
48050,43350
52424.8,43350
52424.8,43468.1
52782.3,43468.1
52782.3,43058.7
52882.3,43058.7
52882.3,43468.1
53239.8,43468.1
53239.8,43350
55960.2,43350
55960.2,43468.1
56317.7,43468.1
56317.7,43058.7
56417.7,43058.7
56417.7,43468.1
56775.2,43468.1
56775.2,43350
56757.6,43271.5
56725,43197.9
56678.7,43132
56620.5,43076.5
56552.5,43033.4
56480.4,43008.4
56417.7,43058.7
56317.7,43058.7
56255.1,43008.4
56182.9,43033.4
56114.9,43076.5
56056.7,43132
56010.4,43197.9
55977.8,43271.5
55960.2,43350
53239.8,43350
53222.2,43271.5
53189.6,43197.9
53143.3,43132
53085.1,43076.5
53017.1,43033.4
52944.9,43008.4
52882.3,43058.7
52782.3,43058.7
52719.6,43008.4
52647.5,43033.4
52579.5,43076.5
52521.3,43132
52475,43197.9
52442.4,43271.5
52424.8,43350
48050,43350
48050,26465.4
52414.1,26465.4
52414.1,27134.6
52419,27183.7
52433.3,27230.8
52456.5,27274.2
52487.7,27312.3
52525.8,27343.5
52569.2,27366.7
52616.3,27381
52665.4,27385.9
53334.6,27385.9
53383.7,27381
53430.8,27366.7
53474.2,27343.5
53512.3,27312.3
53543.5,27274.2
53566.7,27230.8
53575.4,27202.2
53627.3,27254.1
53723.1,27318.1
53829.5,27362.2
53942.4,27384.6
54057.6,27384.6
54170.5,27362.2
54276.9,27318.1
54372.7,27254.1
54454.1,27172.7
54500,27104
54545.9,27172.7
54627.3,27254.1
54723.1,27318.1
54829.5,27362.2
54942.4,27384.6
55057.6,27384.6
55170.5,27362.2
55276.9,27318.1
55372.7,27254.1
55454.1,27172.7
55500,27104
55545.9,27172.7
55627.3,27254.1
55723.1,27318.1
55829.5,27362.2
55942.4,27384.6
56057.6,27384.6
56170.5,27362.2
56276.9,27318.1
56372.7,27254.1
56454.1,27172.7
56500,27104
56545.9,27172.7
56627.3,27254.1
56723.1,27318.1
56829.5,27362.2
56942.4,27384.6
57057.6,27384.6
57170.5,27362.2
57276.9,27318.1
57372.7,27254.1
57454.1,27172.7
57500,27104
57545.9,27172.7
57627.3,27254.1
57723.1,27318.1
57829.5,27362.2
57942.4,27384.6
58057.6,27384.6
58170.5,27362.2
58276.9,27318.1
58372.7,27254.1
58454.1,27172.7
58500,27104
58545.9,27172.7
58627.3,27254.1
58723.1,27318.1
58829.5,27362.2
58942.4,27384.6
59057.6,27384.6
59170.5,27362.2
59276.9,27318.1
59372.7,27254.1
59454.1,27172.7
59500,27104
59545.9,27172.7
59627.3,27254.1
59723.1,27318.1
59829.5,27362.2
59942.4,27384.6
60057.6,27384.6
60170.5,27362.2
60276.9,27318.1
60372.7,27254.1
60454.1,27172.7
60500,27104
60545.9,27172.7
60627.3,27254.1
60723.1,27318.1
60829.5,27362.2
60942.4,27384.6
61057.6,27384.6
61170.5,27362.2
61276.9,27318.1
61372.7,27254.1
61454.1,27172.7
61500,27104
61545.9,27172.7
61627.3,27254.1
61723.1,27318.1
61829.5,27362.2
61942.4,27384.6
62057.6,27384.6
62170.5,27362.2
62276.9,27318.1
62372.7,27254.1
62454.1,27172.7
62500,27104
62545.9,27172.7
62627.3,27254.1
62723.1,27318.1
62829.5,27362.2
62942.4,27384.6
63057.6,27384.6
63170.5,27362.2
63276.9,27318.1
63372.7,27254.1
63454.1,27172.7
63500,27104
63545.9,27172.7
63627.3,27254.1
63723.1,27318.1
63829.5,27362.2
63942.4,27384.6
64057.6,27384.6
64170.5,27362.2
64276.9,27318.1
64372.7,27254.1
64454.1,27172.7
64500,27104
64545.9,27172.7
64627.3,27254.1
64723.1,27318.1
64829.5,27362.2
64942.4,27384.6
65057.6,27384.6
65170.5,27362.2
65276.9,27318.1
65372.7,27254.1
65454.1,27172.7
65500,27104
65545.9,27172.7
65627.3,27254.1
65723.1,27318.1
65829.5,27362.2
65942.4,27384.6
66057.6,27384.6
66170.5,27362.2
66276.9,27318.1
66372.7,27254.1
66454.1,27172.7
66500,27104
66545.9,27172.7
66627.3,27254.1
66723.1,27318.1
66829.5,27362.2
66942.4,27384.6
67057.6,27384.6
67170.5,27362.2
67276.9,27318.1
67372.7,27254.1
67454.1,27172.7
67500,27104
67545.9,27172.7
67627.3,27254.1
67723.1,27318.1
67829.5,27362.2
67942.4,27384.6
68057.6,27384.6
68170.5,27362.2
68276.9,27318.1
68372.7,27254.1
68454.1,27172.7
68479.5,27134.6
69914.1,27134.6
69919,27183.7
69933.3,27230.8
69956.5,27274.2
69987.7,27312.3
70025.8,27343.5
70069.2,27366.7
70116.3,27381
70165.4,27385.9
70387.5,27384.6
70450,27322.1
70450,26850
70550,26850
70550,27322.1
70612.5,27384.6
70834.6,27385.9
70883.7,27381
70930.8,27366.7
70974.2,27343.5
71012.3,27312.3
71043.5,27274.2
71066.7,27230.8
71076.4,27199
71106.2,27232.1
71198.1,27300.6
71301.5,27349.9
71359.5,27367.5
71450,27319.7
71450,26850
71550,26850
71550,27319.7
71640.5,27367.5
71698.5,27349.9
71801.9,27300.6
71893.8,27232.1
71970.5,27147
72029.2,27048.5
72067.5,26940.5
72020,26850
71550,26850
71450,26850
70550,26850
70450,26850
69977.9,26850
69915.4,26912.5
69914.1,27134.6
68479.5,27134.6
68518.1,27076.9
68562.2,26970.5
68584.6,26857.6
68584.6,26742.4
68562.2,26629.5
68518.1,26523.1
68479.5,26465.4
69914.1,26465.4
69915.4,26687.5
69977.9,26750
70450,26750
70450,26277.9
70550,26277.9
70550,26750
71450,26750
71450,26280.3
71550,26280.3
71550,26750
72020,26750
72067.5,26659.5
72029.2,26551.5
71970.5,26453
71893.8,26367.9
71801.9,26299.4
71698.5,26250.1
71640.5,26232.5
71550,26280.3
71450,26280.3
71359.5,26232.5
71301.5,26250.1
71198.1,26299.4
71106.2,26367.9
71076.4,26401
71066.7,26369.2
71043.5,26325.8
71012.3,26287.7
70974.2,26256.5
70930.8,26233.3
70883.7,26219
70834.6,26214.1
70612.5,26215.4
70550,26277.9
70450,26277.9
70387.5,26215.4
70165.4,26214.1
70116.3,26219
70069.2,26233.3
70025.8,26256.5
69987.7,26287.7
69956.5,26325.8
69933.3,26369.2
69919,26416.3
69914.1,26465.4
68479.5,26465.4
68454.1,26427.3
68372.7,26345.9
68276.9,26281.9
68170.5,26237.8
68057.6,26215.4
67942.4,26215.4
67829.5,26237.8
67723.1,26281.9
67627.3,26345.9
67545.9,26427.3
67500,26496
67454.1,26427.3
67372.7,26345.9
67276.9,26281.9
67170.5,26237.8
67057.6,26215.4
66942.4,26215.4
66829.5,26237.8
66723.1,26281.9
66627.3,26345.9
66545.9,26427.3
66500,26496
66454.1,26427.3
66372.7,26345.9
66276.9,26281.9
66170.5,26237.8
66057.6,26215.4
65942.4,26215.4
65829.5,26237.8
65723.1,26281.9
65627.3,26345.9
65545.9,26427.3
65500,26496
65454.1,26427.3
65372.7,26345.9
65276.9,26281.9
65170.5,26237.8
65057.6,26215.4
64942.4,26215.4
64829.5,26237.8
64723.1,26281.9
64627.3,26345.9
64545.9,26427.3
64500,26496
64454.1,26427.3
64372.7,26345.9
64276.9,26281.9
64170.5,26237.8
64057.6,26215.4
63942.4,26215.4
63829.5,26237.8
63723.1,26281.9
63627.3,26345.9
63545.9,26427.3
63500,26496
63454.1,26427.3
63372.7,26345.9
63276.9,26281.9
63170.5,26237.8
63057.6,26215.4
62942.4,26215.4
62829.5,26237.8
62723.1,26281.9
62627.3,26345.9
62545.9,26427.3
62500,26496
62454.1,26427.3
62372.7,26345.9
62276.9,26281.9
62170.5,26237.8
62057.6,26215.4
61942.4,26215.4
61829.5,26237.8
61723.1,26281.9
61627.3,26345.9
61545.9,26427.3
61500,26496
61454.1,26427.3
61372.7,26345.9
61276.9,26281.9
61170.5,26237.8
61057.6,26215.4
60942.4,26215.4
60829.5,26237.8
60723.1,26281.9
60627.3,26345.9
60545.9,26427.3
60500,26496
60454.1,26427.3
60372.7,26345.9
60276.9,26281.9
60170.5,26237.8
60057.6,26215.4
59942.4,26215.4
59829.5,26237.8
59723.1,26281.9
59627.3,26345.9
59545.9,26427.3
59500,26496
59454.1,26427.3
59372.7,26345.9
59276.9,26281.9
59170.5,26237.8
59057.6,26215.4
58942.4,26215.4
58829.5,26237.8
58723.1,26281.9
58627.3,26345.9
58545.9,26427.3
58500,26496
58454.1,26427.3
58372.7,26345.9
58276.9,26281.9
58170.5,26237.8
58057.6,26215.4
57942.4,26215.4
57829.5,26237.8
57723.1,26281.9
57627.3,26345.9
57545.9,26427.3
57500,26496
57454.1,26427.3
57372.7,26345.9
57276.9,26281.9
57170.5,26237.8
57057.6,26215.4
56942.4,26215.4
56829.5,26237.8
56723.1,26281.9
56627.3,26345.9
56545.9,26427.3
56500,26496
56454.1,26427.3
56372.7,26345.9
56276.9,26281.9
56170.5,26237.8
56057.6,26215.4
55942.4,26215.4
55829.5,26237.8
55723.1,26281.9
55627.3,26345.9
55545.9,26427.3
55500,26496
55454.1,26427.3
55372.7,26345.9
55276.9,26281.9
55170.5,26237.8
55057.6,26215.4
54942.4,26215.4
54829.5,26237.8
54723.1,26281.9
54627.3,26345.9
54545.9,26427.3
54500,26496
54454.1,26427.3
54372.7,26345.9
54276.9,26281.9
54170.5,26237.8
54057.6,26215.4
53942.4,26215.4
53829.5,26237.8
53723.1,26281.9
53627.3,26345.9
53575.4,26397.8
53566.7,26369.2
53543.5,26325.8
53512.3,26287.7
53474.2,26256.5
53430.8,26233.3
53383.7,26219
53334.6,26214.1
52665.4,26214.1
52616.3,26219
52569.2,26233.3
52525.8,26256.5
52487.7,26287.7
52456.5,26325.8
52433.3,26369.2
52419,26416.3
52414.1,26465.4
48050,26465.4
48050,25050
77450,25050
Z" /> 
<path style="fill:#000000; fill-opacity:1.0; 
stroke:#000000; stroke-width:100; stroke-opacity:1; 
stroke-linecap:round; stroke-linejoin:round;fill-rule:evenodd;"
d="M 59750.8,38872.9
59733.5,38890.2
59688.9,38957
59658.2,39031.1
59642.5,39109.9
59642.5,39190.1
59658.2,39268.9
59688.9,39343
59733.5,39409.8
59790.2,39466.5
59857,39511.1
59879.2,39520.3
57714.1,41685.4
56276,41685.4
56276,41635
56338.6,41685.3
56410.8,41660.3
56478.8,41617.2
56537,41561.7
56583.3,41495.8
56615.9,41422.2
56633.5,41343.7
56633.5,41225.6
56276,41225.6
56276,41233.5
56176,41233.5
56176,41225.6
55818.5,41225.6
55818.5,41343.7
55836.1,41422.2
55868.7,41495.8
55915,41561.7
55973.2,41617.2
56041.2,41660.3
56113.3,41685.3
56176,41635
56176,41685.4
55010.2,41685.4
55019.3,41676.3
55030.7,41667
55068.1,41621.4
55095.9,41569.4
55113,41513
55117.3,41469.1
55117.3,41469.1
55118.7,41454.4
55117.3,41439.7
55117.3,40889.9
55128.7,40832.4
55128.7,40767.6
55116.1,40704.1
55107.6,40683.5
55578.5,40683.5
55585.8,40757.6
55607.4,40828.8
55642.5,40894.5
55689.7,40952
55747.3,40999.2
55812.9,41034.3
55818.5,41036
55818.5,41125.6
56176,41125.6
56176,41117.7
56276,41117.7
56276,41125.6
56633.5,41125.6
56633.5,41007.5
56615.9,40928.9
56583.3,40855.4
56537,40789.5
56478.8,40734
56452.8,40717.5
56456.2,40683.5
56448.9,40609.4
56427.3,40538.1
56392.2,40472.5
56344.9,40414.9
56287.4,40367.7
56221.7,40332.6
56150.5,40311
56094.9,40305.5
55939.7,40305.5
55884.2,40311
55812.9,40332.6
55747.3,40367.7
55689.7,40414.9
55642.5,40472.5
55607.4,40538.1
55585.8,40609.4
55578.5,40683.5
55107.6,40683.5
55091.3,40644.3
55055.3,40590.4
55009.6,40544.7
54955.7,40508.7
54940.1,40502.2
54940.1,40329.6
54959.8,40316.5
54977.1,40299.2
55185.3,40299.2
55200,40300.7
55214.7,40299.2
55214.7,40299.2
55258.7,40294.9
55315.1,40277.8
55367,40250
55412.6,40212.6
55422,40201.2
59750.8,35872.4
Z" /> 
<path style="fill:#000000; fill-opacity:1.0; 
stroke:#000000; stroke-width:100; stroke-opacity:1; 
stroke-linecap:round; stroke-linejoin:round;fill-rule:evenodd;"
d="M 54341.7,40698.2
54337.8,40711
54333.5,40755
54333.5,40755
54332,40769.7
54333.5,40784.4
54333.5,40915.6
54332,40930.3
54333.5,40945
54333.5,40945
54337.8,40989
54341.7,41001.8
54341.7,41092.5
54309.9,41092.5
54231.1,41108.2
54157,41138.9
54090.2,41183.5
54033.5,41240.2
53988.9,41307
53958.2,41381.1
53942.5,41459.9
53942.5,41508.3
53322.6,41508.3
53331.3,41495.8
53363.9,41422.2
53381.5,41343.7
53381.5,41225.6
53024,41225.6
53024,41233.5
52924,41233.5
52924,41225.6
52916.1,41225.6
52916.1,41125.6
52924,41125.6
52924,41117.7
53024,41117.7
53024,41125.6
53381.5,41125.6
53381.5,41007.5
53381,41005.5
53423.6,40977
53476.3,40924.4
53517.6,40862.5
53546.1,40793.7
53559.4,40726.8
53835.3,40726.8
53850,40728.2
53864.7,40726.8
53864.7,40726.8
53908.7,40722.4
53965.1,40705.3
54017,40677.5
54062.6,40640.2
54072,40628.7
54341.7,40359
Z" /> 
</g>
</g>
</g> 
</svg>
